%TF.GenerationSoftware,KiCad,Pcbnew,(6.0.7)*%
%TF.CreationDate,2022-10-24T20:04:37-04:00*%
%TF.ProjectId,SPItoCAN,53504974-6f43-4414-9e2e-6b696361645f,rev?*%
%TF.SameCoordinates,Original*%
%TF.FileFunction,Legend,Top*%
%TF.FilePolarity,Positive*%
%FSLAX46Y46*%
G04 Gerber Fmt 4.6, Leading zero omitted, Abs format (unit mm)*
G04 Created by KiCad (PCBNEW (6.0.7)) date 2022-10-24 20:04:37*
%MOMM*%
%LPD*%
G01*
G04 APERTURE LIST*
%ADD10C,0.150000*%
%ADD11C,0.200000*%
%ADD12C,0.100000*%
%ADD13C,0.120000*%
G04 APERTURE END LIST*
D10*
X37338104Y-30410114D02*
X37300009Y-30448209D01*
X37185723Y-30486304D01*
X37109533Y-30486304D01*
X36995247Y-30448209D01*
X36919057Y-30372019D01*
X36880961Y-30295828D01*
X36842866Y-30143447D01*
X36842866Y-30029161D01*
X36880961Y-29876780D01*
X36919057Y-29800590D01*
X36995247Y-29724400D01*
X37109533Y-29686304D01*
X37185723Y-29686304D01*
X37300009Y-29724400D01*
X37338104Y-29762495D01*
X37642866Y-30257733D02*
X38023819Y-30257733D01*
X37566676Y-30486304D02*
X37833342Y-29686304D01*
X38100009Y-30486304D01*
X38366676Y-30486304D02*
X38366676Y-29686304D01*
X38823819Y-30486304D01*
X38823819Y-29686304D01*
X39585723Y-30486304D02*
X39204771Y-30486304D01*
X39204771Y-29686304D01*
X37217466Y-27793914D02*
X37179371Y-27832009D01*
X37065085Y-27870104D01*
X36988895Y-27870104D01*
X36874609Y-27832009D01*
X36798419Y-27755819D01*
X36760323Y-27679628D01*
X36722228Y-27527247D01*
X36722228Y-27412961D01*
X36760323Y-27260580D01*
X36798419Y-27184390D01*
X36874609Y-27108200D01*
X36988895Y-27070104D01*
X37065085Y-27070104D01*
X37179371Y-27108200D01*
X37217466Y-27146295D01*
X37522228Y-27641533D02*
X37903180Y-27641533D01*
X37446038Y-27870104D02*
X37712704Y-27070104D01*
X37979371Y-27870104D01*
X38246038Y-27870104D02*
X38246038Y-27070104D01*
X38703180Y-27870104D01*
X38703180Y-27070104D01*
X39084133Y-27870104D02*
X39084133Y-27070104D01*
X39084133Y-27451057D02*
X39541276Y-27451057D01*
X39541276Y-27870104D02*
X39541276Y-27070104D01*
X37261904Y-22891714D02*
X37223809Y-22929809D01*
X37109523Y-22967904D01*
X37033333Y-22967904D01*
X36919047Y-22929809D01*
X36842857Y-22853619D01*
X36804761Y-22777428D01*
X36766666Y-22625047D01*
X36766666Y-22510761D01*
X36804761Y-22358380D01*
X36842857Y-22282190D01*
X36919047Y-22206000D01*
X37033333Y-22167904D01*
X37109523Y-22167904D01*
X37223809Y-22206000D01*
X37261904Y-22244095D01*
X37566666Y-22739333D02*
X37947619Y-22739333D01*
X37490476Y-22967904D02*
X37757142Y-22167904D01*
X38023809Y-22967904D01*
X38290476Y-22967904D02*
X38290476Y-22167904D01*
X38747619Y-22967904D01*
X38747619Y-22167904D01*
X39509523Y-22967904D02*
X39128571Y-22967904D01*
X39128571Y-22167904D01*
X37166666Y-21316914D02*
X37128571Y-21355009D01*
X37014285Y-21393104D01*
X36938095Y-21393104D01*
X36823809Y-21355009D01*
X36747619Y-21278819D01*
X36709523Y-21202628D01*
X36671428Y-21050247D01*
X36671428Y-20935961D01*
X36709523Y-20783580D01*
X36747619Y-20707390D01*
X36823809Y-20631200D01*
X36938095Y-20593104D01*
X37014285Y-20593104D01*
X37128571Y-20631200D01*
X37166666Y-20669295D01*
X37471428Y-21164533D02*
X37852380Y-21164533D01*
X37395238Y-21393104D02*
X37661904Y-20593104D01*
X37928571Y-21393104D01*
X38195238Y-21393104D02*
X38195238Y-20593104D01*
X38652380Y-21393104D01*
X38652380Y-20593104D01*
X39033333Y-21393104D02*
X39033333Y-20593104D01*
X39033333Y-20974057D02*
X39490476Y-20974057D01*
X39490476Y-21393104D02*
X39490476Y-20593104D01*
X37185704Y-17913314D02*
X37147609Y-17951409D01*
X37033323Y-17989504D01*
X36957133Y-17989504D01*
X36842847Y-17951409D01*
X36766657Y-17875219D01*
X36728561Y-17799028D01*
X36690466Y-17646647D01*
X36690466Y-17532361D01*
X36728561Y-17379980D01*
X36766657Y-17303790D01*
X36842847Y-17227600D01*
X36957133Y-17189504D01*
X37033323Y-17189504D01*
X37147609Y-17227600D01*
X37185704Y-17265695D01*
X37490466Y-17760933D02*
X37871419Y-17760933D01*
X37414276Y-17989504D02*
X37680942Y-17189504D01*
X37947609Y-17989504D01*
X38214276Y-17989504D02*
X38214276Y-17189504D01*
X38671419Y-17989504D01*
X38671419Y-17189504D01*
X39433323Y-17989504D02*
X39052371Y-17989504D01*
X39052371Y-17189504D01*
X37065066Y-15195514D02*
X37026971Y-15233609D01*
X36912685Y-15271704D01*
X36836495Y-15271704D01*
X36722209Y-15233609D01*
X36646019Y-15157419D01*
X36607923Y-15081228D01*
X36569828Y-14928847D01*
X36569828Y-14814561D01*
X36607923Y-14662180D01*
X36646019Y-14585990D01*
X36722209Y-14509800D01*
X36836495Y-14471704D01*
X36912685Y-14471704D01*
X37026971Y-14509800D01*
X37065066Y-14547895D01*
X37369828Y-15043133D02*
X37750780Y-15043133D01*
X37293638Y-15271704D02*
X37560304Y-14471704D01*
X37826971Y-15271704D01*
X38093638Y-15271704D02*
X38093638Y-14471704D01*
X38550780Y-15271704D01*
X38550780Y-14471704D01*
X38931733Y-15271704D02*
X38931733Y-14471704D01*
X38931733Y-14852657D02*
X39388876Y-14852657D01*
X39388876Y-15271704D02*
X39388876Y-14471704D01*
D11*
X13665333Y-31540504D02*
X13932000Y-32340504D01*
X14198666Y-31540504D01*
X14922476Y-32264314D02*
X14884380Y-32302409D01*
X14770095Y-32340504D01*
X14693904Y-32340504D01*
X14579619Y-32302409D01*
X14503428Y-32226219D01*
X14465333Y-32150028D01*
X14427238Y-31997647D01*
X14427238Y-31883361D01*
X14465333Y-31730980D01*
X14503428Y-31654790D01*
X14579619Y-31578600D01*
X14693904Y-31540504D01*
X14770095Y-31540504D01*
X14884380Y-31578600D01*
X14922476Y-31616695D01*
X15722476Y-32264314D02*
X15684380Y-32302409D01*
X15570095Y-32340504D01*
X15493904Y-32340504D01*
X15379619Y-32302409D01*
X15303428Y-32226219D01*
X15265333Y-32150028D01*
X15227238Y-31997647D01*
X15227238Y-31883361D01*
X15265333Y-31730980D01*
X15303428Y-31654790D01*
X15379619Y-31578600D01*
X15493904Y-31540504D01*
X15570095Y-31540504D01*
X15684380Y-31578600D01*
X15722476Y-31616695D01*
X16891076Y-26955800D02*
X16814885Y-26917704D01*
X16700600Y-26917704D01*
X16586314Y-26955800D01*
X16510123Y-27031990D01*
X16472028Y-27108180D01*
X16433933Y-27260561D01*
X16433933Y-27374847D01*
X16472028Y-27527228D01*
X16510123Y-27603419D01*
X16586314Y-27679609D01*
X16700600Y-27717704D01*
X16776790Y-27717704D01*
X16891076Y-27679609D01*
X16929171Y-27641514D01*
X16929171Y-27374847D01*
X16776790Y-27374847D01*
X17272028Y-27717704D02*
X17272028Y-26917704D01*
X17729171Y-27717704D01*
X17729171Y-26917704D01*
X18110123Y-27717704D02*
X18110123Y-26917704D01*
X18300600Y-26917704D01*
X18414885Y-26955800D01*
X18491076Y-27031990D01*
X18529171Y-27108180D01*
X18567266Y-27260561D01*
X18567266Y-27374847D01*
X18529171Y-27527228D01*
X18491076Y-27603419D01*
X18414885Y-27679609D01*
X18300600Y-27717704D01*
X18110123Y-27717704D01*
X17189466Y-25152314D02*
X17151371Y-25190409D01*
X17037085Y-25228504D01*
X16960895Y-25228504D01*
X16846609Y-25190409D01*
X16770419Y-25114219D01*
X16732323Y-25038028D01*
X16694228Y-24885647D01*
X16694228Y-24771361D01*
X16732323Y-24618980D01*
X16770419Y-24542790D01*
X16846609Y-24466600D01*
X16960895Y-24428504D01*
X17037085Y-24428504D01*
X17151371Y-24466600D01*
X17189466Y-24504695D01*
X17494228Y-25190409D02*
X17608514Y-25228504D01*
X17798990Y-25228504D01*
X17875180Y-25190409D01*
X17913276Y-25152314D01*
X17951371Y-25076123D01*
X17951371Y-24999933D01*
X17913276Y-24923742D01*
X17875180Y-24885647D01*
X17798990Y-24847552D01*
X17646609Y-24809457D01*
X17570419Y-24771361D01*
X17532323Y-24733266D01*
X17494228Y-24657076D01*
X17494228Y-24580885D01*
X17532323Y-24504695D01*
X17570419Y-24466600D01*
X17646609Y-24428504D01*
X17837085Y-24428504D01*
X17951371Y-24466600D01*
X16802180Y-22650409D02*
X16916466Y-22688504D01*
X17106942Y-22688504D01*
X17183133Y-22650409D01*
X17221228Y-22612314D01*
X17259323Y-22536123D01*
X17259323Y-22459933D01*
X17221228Y-22383742D01*
X17183133Y-22345647D01*
X17106942Y-22307552D01*
X16954561Y-22269457D01*
X16878371Y-22231361D01*
X16840276Y-22193266D01*
X16802180Y-22117076D01*
X16802180Y-22040885D01*
X16840276Y-21964695D01*
X16878371Y-21926600D01*
X16954561Y-21888504D01*
X17145038Y-21888504D01*
X17259323Y-21926600D01*
X17754561Y-21888504D02*
X17906942Y-21888504D01*
X17983133Y-21926600D01*
X18059323Y-22002790D01*
X18097419Y-22155171D01*
X18097419Y-22421838D01*
X18059323Y-22574219D01*
X17983133Y-22650409D01*
X17906942Y-22688504D01*
X17754561Y-22688504D01*
X17678371Y-22650409D01*
X17602180Y-22574219D01*
X17564085Y-22421838D01*
X17564085Y-22155171D01*
X17602180Y-22002790D01*
X17678371Y-21926600D01*
X17754561Y-21888504D01*
X17005352Y-20186609D02*
X17119638Y-20224704D01*
X17310114Y-20224704D01*
X17386304Y-20186609D01*
X17424400Y-20148514D01*
X17462495Y-20072323D01*
X17462495Y-19996133D01*
X17424400Y-19919942D01*
X17386304Y-19881847D01*
X17310114Y-19843752D01*
X17157733Y-19805657D01*
X17081542Y-19767561D01*
X17043447Y-19729466D01*
X17005352Y-19653276D01*
X17005352Y-19577085D01*
X17043447Y-19500895D01*
X17081542Y-19462800D01*
X17157733Y-19424704D01*
X17348209Y-19424704D01*
X17462495Y-19462800D01*
X17805352Y-20224704D02*
X17805352Y-19424704D01*
X16395828Y-17697409D02*
X16510114Y-17735504D01*
X16700590Y-17735504D01*
X16776780Y-17697409D01*
X16814876Y-17659314D01*
X16852971Y-17583123D01*
X16852971Y-17506933D01*
X16814876Y-17430742D01*
X16776780Y-17392647D01*
X16700590Y-17354552D01*
X16548209Y-17316457D01*
X16472019Y-17278361D01*
X16433923Y-17240266D01*
X16395828Y-17164076D01*
X16395828Y-17087885D01*
X16433923Y-17011695D01*
X16472019Y-16973600D01*
X16548209Y-16935504D01*
X16738685Y-16935504D01*
X16852971Y-16973600D01*
X17652971Y-17659314D02*
X17614876Y-17697409D01*
X17500590Y-17735504D01*
X17424400Y-17735504D01*
X17310114Y-17697409D01*
X17233923Y-17621219D01*
X17195828Y-17545028D01*
X17157733Y-17392647D01*
X17157733Y-17278361D01*
X17195828Y-17125980D01*
X17233923Y-17049790D01*
X17310114Y-16973600D01*
X17424400Y-16935504D01*
X17500590Y-16935504D01*
X17614876Y-16973600D01*
X17652971Y-17011695D01*
X17995828Y-17735504D02*
X17995828Y-16935504D01*
X18452971Y-17735504D02*
X18110114Y-17278361D01*
X18452971Y-16935504D02*
X17995828Y-17392647D01*
X16522790Y-15119304D02*
X16522790Y-14319304D01*
X16903742Y-15119304D02*
X16903742Y-14319304D01*
X17360885Y-15119304D01*
X17360885Y-14319304D01*
X17627552Y-14319304D02*
X18084695Y-14319304D01*
X17856123Y-15119304D02*
X17856123Y-14319304D01*
D10*
%TO.C,Y1*%
X31523809Y-22476190D02*
X31523809Y-22952380D01*
X31190476Y-21952380D02*
X31523809Y-22476190D01*
X31857142Y-21952380D01*
X32714285Y-22952380D02*
X32142857Y-22952380D01*
X32428571Y-22952380D02*
X32428571Y-21952380D01*
X32333333Y-22095238D01*
X32238095Y-22190476D01*
X32142857Y-22238095D01*
%TO.C,U2*%
X19238095Y-13952380D02*
X19238095Y-14761904D01*
X19285714Y-14857142D01*
X19333333Y-14904761D01*
X19428571Y-14952380D01*
X19619047Y-14952380D01*
X19714285Y-14904761D01*
X19761904Y-14857142D01*
X19809523Y-14761904D01*
X19809523Y-13952380D01*
X20238095Y-14047619D02*
X20285714Y-14000000D01*
X20380952Y-13952380D01*
X20619047Y-13952380D01*
X20714285Y-14000000D01*
X20761904Y-14047619D01*
X20809523Y-14142857D01*
X20809523Y-14238095D01*
X20761904Y-14380952D01*
X20190476Y-14952380D01*
X20809523Y-14952380D01*
%TO.C,U1*%
X30186380Y-28981304D02*
X30995904Y-28981304D01*
X31091142Y-28933685D01*
X31138761Y-28886066D01*
X31186380Y-28790828D01*
X31186380Y-28600352D01*
X31138761Y-28505114D01*
X31091142Y-28457495D01*
X30995904Y-28409876D01*
X30186380Y-28409876D01*
X31186380Y-27409876D02*
X31186380Y-27981304D01*
X31186380Y-27695590D02*
X30186380Y-27695590D01*
X30329238Y-27790828D01*
X30424476Y-27886066D01*
X30472095Y-27981304D01*
%TO.C,R3*%
X25223333Y-32182380D02*
X24890000Y-31706190D01*
X24651904Y-32182380D02*
X24651904Y-31182380D01*
X25032857Y-31182380D01*
X25128095Y-31230000D01*
X25175714Y-31277619D01*
X25223333Y-31372857D01*
X25223333Y-31515714D01*
X25175714Y-31610952D01*
X25128095Y-31658571D01*
X25032857Y-31706190D01*
X24651904Y-31706190D01*
X25556666Y-31182380D02*
X26175714Y-31182380D01*
X25842380Y-31563333D01*
X25985238Y-31563333D01*
X26080476Y-31610952D01*
X26128095Y-31658571D01*
X26175714Y-31753809D01*
X26175714Y-31991904D01*
X26128095Y-32087142D01*
X26080476Y-32134761D01*
X25985238Y-32182380D01*
X25699523Y-32182380D01*
X25604285Y-32134761D01*
X25556666Y-32087142D01*
%TO.C,R2*%
X36952380Y-24816666D02*
X36476190Y-25150000D01*
X36952380Y-25388095D02*
X35952380Y-25388095D01*
X35952380Y-25007142D01*
X36000000Y-24911904D01*
X36047619Y-24864285D01*
X36142857Y-24816666D01*
X36285714Y-24816666D01*
X36380952Y-24864285D01*
X36428571Y-24911904D01*
X36476190Y-25007142D01*
X36476190Y-25388095D01*
X36047619Y-24435714D02*
X36000000Y-24388095D01*
X35952380Y-24292857D01*
X35952380Y-24054761D01*
X36000000Y-23959523D01*
X36047619Y-23911904D01*
X36142857Y-23864285D01*
X36238095Y-23864285D01*
X36380952Y-23911904D01*
X36952380Y-24483333D01*
X36952380Y-23864285D01*
%TO.C,R1*%
X21913333Y-32202380D02*
X21580000Y-31726190D01*
X21341904Y-32202380D02*
X21341904Y-31202380D01*
X21722857Y-31202380D01*
X21818095Y-31250000D01*
X21865714Y-31297619D01*
X21913333Y-31392857D01*
X21913333Y-31535714D01*
X21865714Y-31630952D01*
X21818095Y-31678571D01*
X21722857Y-31726190D01*
X21341904Y-31726190D01*
X22865714Y-32202380D02*
X22294285Y-32202380D01*
X22580000Y-32202380D02*
X22580000Y-31202380D01*
X22484761Y-31345238D01*
X22389523Y-31440476D01*
X22294285Y-31488095D01*
%TO.C,D1*%
X28271904Y-32112380D02*
X28271904Y-31112380D01*
X28510000Y-31112380D01*
X28652857Y-31160000D01*
X28748095Y-31255238D01*
X28795714Y-31350476D01*
X28843333Y-31540952D01*
X28843333Y-31683809D01*
X28795714Y-31874285D01*
X28748095Y-31969523D01*
X28652857Y-32064761D01*
X28510000Y-32112380D01*
X28271904Y-32112380D01*
X29795714Y-32112380D02*
X29224285Y-32112380D01*
X29510000Y-32112380D02*
X29510000Y-31112380D01*
X29414761Y-31255238D01*
X29319523Y-31350476D01*
X29224285Y-31398095D01*
%TO.C,C5*%
X41433333Y-33357142D02*
X41385714Y-33404761D01*
X41242857Y-33452380D01*
X41147619Y-33452380D01*
X41004761Y-33404761D01*
X40909523Y-33309523D01*
X40861904Y-33214285D01*
X40814285Y-33023809D01*
X40814285Y-32880952D01*
X40861904Y-32690476D01*
X40909523Y-32595238D01*
X41004761Y-32500000D01*
X41147619Y-32452380D01*
X41242857Y-32452380D01*
X41385714Y-32500000D01*
X41433333Y-32547619D01*
X42338095Y-32452380D02*
X41861904Y-32452380D01*
X41814285Y-32928571D01*
X41861904Y-32880952D01*
X41957142Y-32833333D01*
X42195238Y-32833333D01*
X42290476Y-32880952D01*
X42338095Y-32928571D01*
X42385714Y-33023809D01*
X42385714Y-33261904D01*
X42338095Y-33357142D01*
X42290476Y-33404761D01*
X42195238Y-33452380D01*
X41957142Y-33452380D01*
X41861904Y-33404761D01*
X41814285Y-33357142D01*
%TO.C,C4*%
X25233333Y-14582142D02*
X25185714Y-14629761D01*
X25042857Y-14677380D01*
X24947619Y-14677380D01*
X24804761Y-14629761D01*
X24709523Y-14534523D01*
X24661904Y-14439285D01*
X24614285Y-14248809D01*
X24614285Y-14105952D01*
X24661904Y-13915476D01*
X24709523Y-13820238D01*
X24804761Y-13725000D01*
X24947619Y-13677380D01*
X25042857Y-13677380D01*
X25185714Y-13725000D01*
X25233333Y-13772619D01*
X26090476Y-14010714D02*
X26090476Y-14677380D01*
X25852380Y-13629761D02*
X25614285Y-14344047D01*
X26233333Y-14344047D01*
%TO.C,C3*%
X19757142Y-31166666D02*
X19804761Y-31214285D01*
X19852380Y-31357142D01*
X19852380Y-31452380D01*
X19804761Y-31595238D01*
X19709523Y-31690476D01*
X19614285Y-31738095D01*
X19423809Y-31785714D01*
X19280952Y-31785714D01*
X19090476Y-31738095D01*
X18995238Y-31690476D01*
X18900000Y-31595238D01*
X18852380Y-31452380D01*
X18852380Y-31357142D01*
X18900000Y-31214285D01*
X18947619Y-31166666D01*
X18852380Y-30833333D02*
X18852380Y-30214285D01*
X19233333Y-30547619D01*
X19233333Y-30404761D01*
X19280952Y-30309523D01*
X19328571Y-30261904D01*
X19423809Y-30214285D01*
X19661904Y-30214285D01*
X19757142Y-30261904D01*
X19804761Y-30309523D01*
X19852380Y-30404761D01*
X19852380Y-30690476D01*
X19804761Y-30785714D01*
X19757142Y-30833333D01*
%TO.C,C2*%
X35233333Y-14657142D02*
X35185714Y-14704761D01*
X35042857Y-14752380D01*
X34947619Y-14752380D01*
X34804761Y-14704761D01*
X34709523Y-14609523D01*
X34661904Y-14514285D01*
X34614285Y-14323809D01*
X34614285Y-14180952D01*
X34661904Y-13990476D01*
X34709523Y-13895238D01*
X34804761Y-13800000D01*
X34947619Y-13752380D01*
X35042857Y-13752380D01*
X35185714Y-13800000D01*
X35233333Y-13847619D01*
X35614285Y-13847619D02*
X35661904Y-13800000D01*
X35757142Y-13752380D01*
X35995238Y-13752380D01*
X36090476Y-13800000D01*
X36138095Y-13847619D01*
X36185714Y-13942857D01*
X36185714Y-14038095D01*
X36138095Y-14180952D01*
X35566666Y-14752380D01*
X36185714Y-14752380D01*
%TO.C,C1*%
X35333333Y-22357142D02*
X35285714Y-22404761D01*
X35142857Y-22452380D01*
X35047619Y-22452380D01*
X34904761Y-22404761D01*
X34809523Y-22309523D01*
X34761904Y-22214285D01*
X34714285Y-22023809D01*
X34714285Y-21880952D01*
X34761904Y-21690476D01*
X34809523Y-21595238D01*
X34904761Y-21500000D01*
X35047619Y-21452380D01*
X35142857Y-21452380D01*
X35285714Y-21500000D01*
X35333333Y-21547619D01*
X36285714Y-22452380D02*
X35714285Y-22452380D01*
X36000000Y-22452380D02*
X36000000Y-21452380D01*
X35904761Y-21595238D01*
X35809523Y-21690476D01*
X35714285Y-21738095D01*
D12*
%TO.C,Y1*%
X34450000Y-21825000D02*
X34450000Y-14375000D01*
X31550000Y-21825000D02*
X31550000Y-14375000D01*
D13*
%TO.C,U2*%
X28560000Y-15415000D02*
X28560000Y-15660000D01*
X20840000Y-15415000D02*
X20840000Y-15660000D01*
X20840000Y-27185000D02*
X20840000Y-26940000D01*
X24700000Y-15415000D02*
X28560000Y-15415000D01*
X24700000Y-27185000D02*
X28560000Y-27185000D01*
X28560000Y-26940000D02*
X30375000Y-26940000D01*
X24700000Y-15415000D02*
X20840000Y-15415000D01*
X24700000Y-27185000D02*
X20840000Y-27185000D01*
X28560000Y-27185000D02*
X28560000Y-26940000D01*
%TO.C,U1*%
X36560000Y-29925000D02*
X36560000Y-31875000D01*
X31440000Y-29925000D02*
X31440000Y-31875000D01*
X36560000Y-29925000D02*
X36560000Y-26475000D01*
X31440000Y-29925000D02*
X31440000Y-27975000D01*
%TO.C,R3*%
X24760000Y-29120000D02*
X25960000Y-29120000D01*
X25960000Y-30880000D02*
X24760000Y-30880000D01*
%TO.C,R2*%
X39030000Y-24050000D02*
X39030000Y-25250000D01*
X37270000Y-25250000D02*
X37270000Y-24050000D01*
%TO.C,R1*%
X21490000Y-29110000D02*
X22690000Y-29110000D01*
X22690000Y-30870000D02*
X21490000Y-30870000D01*
%TO.C,J4*%
X16080000Y-28730000D02*
X13420000Y-28730000D01*
X16080000Y-28730000D02*
X16080000Y-13430000D01*
X16080000Y-31330000D02*
X14750000Y-31330000D01*
X16080000Y-13430000D02*
X13420000Y-13430000D01*
X16080000Y-30000000D02*
X16080000Y-31330000D01*
X13420000Y-28730000D02*
X13420000Y-13430000D01*
%TO.C,J3*%
X39670000Y-19895000D02*
X41000000Y-19895000D01*
X39670000Y-21225000D02*
X39670000Y-19895000D01*
X39670000Y-22495000D02*
X42330000Y-22495000D01*
X42330000Y-22495000D02*
X42330000Y-25095000D01*
X39670000Y-22495000D02*
X39670000Y-25095000D01*
X39670000Y-25095000D02*
X42330000Y-25095000D01*
%TO.C,J2*%
X39670000Y-13670000D02*
X41000000Y-13670000D01*
X39670000Y-15000000D02*
X39670000Y-13670000D01*
X39670000Y-16270000D02*
X42330000Y-16270000D01*
X42330000Y-16270000D02*
X42330000Y-18870000D01*
X39670000Y-16270000D02*
X39670000Y-18870000D01*
X39670000Y-18870000D02*
X42330000Y-18870000D01*
%TO.C,J1*%
X39670000Y-26145000D02*
X41000000Y-26145000D01*
X39670000Y-27475000D02*
X39670000Y-26145000D01*
X39670000Y-28745000D02*
X42330000Y-28745000D01*
X42330000Y-28745000D02*
X42330000Y-31345000D01*
X39670000Y-28745000D02*
X39670000Y-31345000D01*
X39670000Y-31345000D02*
X42330000Y-31345000D01*
D12*
%TO.C,D1*%
X29210000Y-29680000D02*
X29210000Y-30030000D01*
X29210000Y-30030000D02*
X29210000Y-30380000D01*
X28860000Y-29680000D02*
X29210000Y-30030000D01*
X28860000Y-29730000D02*
X28860000Y-29680000D01*
X28860000Y-29680000D02*
X28860000Y-29730000D01*
X28860000Y-30380000D02*
X28860000Y-29730000D01*
X28910000Y-30330000D02*
X28860000Y-30380000D01*
X29210000Y-30030000D02*
X28910000Y-30330000D01*
D13*
X30810000Y-30730000D02*
X30810000Y-29330000D01*
X30810000Y-29330000D02*
X28010000Y-29330000D01*
X30810000Y-30730000D02*
X28010000Y-30730000D01*
%TO.C,C5*%
X39175000Y-32050000D02*
X38175000Y-32050000D01*
X38175000Y-33750000D02*
X39175000Y-33750000D01*
%TO.C,C4*%
X28850000Y-13350000D02*
X27850000Y-13350000D01*
X27850000Y-15050000D02*
X28850000Y-15050000D01*
%TO.C,C3*%
X18460000Y-31500000D02*
X18460000Y-30500000D01*
X16760000Y-30500000D02*
X16760000Y-31500000D01*
%TO.C,C2*%
X34890000Y-16500279D02*
X34890000Y-16174721D01*
X35910000Y-16500279D02*
X35910000Y-16174721D01*
%TO.C,C1*%
X34890000Y-19549721D02*
X34890000Y-19875279D01*
X35910000Y-19549721D02*
X35910000Y-19875279D01*
%TD*%
M02*
