%TF.GenerationSoftware,KiCad,Pcbnew,(6.0.7)*%
%TF.CreationDate,2022-10-24T20:04:37-04:00*%
%TF.ProjectId,SPItoCAN,53504974-6f43-4414-9e2e-6b696361645f,rev?*%
%TF.SameCoordinates,Original*%
%TF.FileFunction,Legend,Bot*%
%TF.FilePolarity,Positive*%
%FSLAX46Y46*%
G04 Gerber Fmt 4.6, Leading zero omitted, Abs format (unit mm)*
G04 Created by KiCad (PCBNEW (6.0.7)) date 2022-10-24 20:04:37*
%MOMM*%
%LPD*%
G01*
G04 APERTURE LIST*
%ADD10C,0.125000*%
%ADD11C,0.150000*%
%ADD12C,0.120000*%
G04 APERTURE END LIST*
D10*
X27431428Y-13769880D02*
X27360000Y-13793690D01*
X27240952Y-13793690D01*
X27193333Y-13769880D01*
X27169523Y-13746071D01*
X27145714Y-13698452D01*
X27145714Y-13650833D01*
X27169523Y-13603214D01*
X27193333Y-13579404D01*
X27240952Y-13555595D01*
X27336190Y-13531785D01*
X27383809Y-13507976D01*
X27407619Y-13484166D01*
X27431428Y-13436547D01*
X27431428Y-13388928D01*
X27407619Y-13341309D01*
X27383809Y-13317500D01*
X27336190Y-13293690D01*
X27217142Y-13293690D01*
X27145714Y-13317500D01*
X26931428Y-13793690D02*
X26931428Y-13293690D01*
X26740952Y-13293690D01*
X26693333Y-13317500D01*
X26669523Y-13341309D01*
X26645714Y-13388928D01*
X26645714Y-13460357D01*
X26669523Y-13507976D01*
X26693333Y-13531785D01*
X26740952Y-13555595D01*
X26931428Y-13555595D01*
X26431428Y-13793690D02*
X26431428Y-13293690D01*
X25883809Y-13460357D02*
X25693333Y-13460357D01*
X25812380Y-13293690D02*
X25812380Y-13722261D01*
X25788571Y-13769880D01*
X25740952Y-13793690D01*
X25693333Y-13793690D01*
X25455238Y-13793690D02*
X25502857Y-13769880D01*
X25526666Y-13746071D01*
X25550476Y-13698452D01*
X25550476Y-13555595D01*
X25526666Y-13507976D01*
X25502857Y-13484166D01*
X25455238Y-13460357D01*
X25383809Y-13460357D01*
X25336190Y-13484166D01*
X25312380Y-13507976D01*
X25288571Y-13555595D01*
X25288571Y-13698452D01*
X25312380Y-13746071D01*
X25336190Y-13769880D01*
X25383809Y-13793690D01*
X25455238Y-13793690D01*
X24407619Y-13746071D02*
X24431428Y-13769880D01*
X24502857Y-13793690D01*
X24550476Y-13793690D01*
X24621904Y-13769880D01*
X24669523Y-13722261D01*
X24693333Y-13674642D01*
X24717142Y-13579404D01*
X24717142Y-13507976D01*
X24693333Y-13412738D01*
X24669523Y-13365119D01*
X24621904Y-13317500D01*
X24550476Y-13293690D01*
X24502857Y-13293690D01*
X24431428Y-13317500D01*
X24407619Y-13341309D01*
X24217142Y-13650833D02*
X23979047Y-13650833D01*
X24264761Y-13793690D02*
X24098095Y-13293690D01*
X23931428Y-13793690D01*
X23764761Y-13793690D02*
X23764761Y-13293690D01*
X23479047Y-13793690D01*
X23479047Y-13293690D01*
X22574285Y-13746071D02*
X22598095Y-13769880D01*
X22669523Y-13793690D01*
X22717142Y-13793690D01*
X22788571Y-13769880D01*
X22836190Y-13722261D01*
X22860000Y-13674642D01*
X22883809Y-13579404D01*
X22883809Y-13507976D01*
X22860000Y-13412738D01*
X22836190Y-13365119D01*
X22788571Y-13317500D01*
X22717142Y-13293690D01*
X22669523Y-13293690D01*
X22598095Y-13317500D01*
X22574285Y-13341309D01*
X22288571Y-13793690D02*
X22336190Y-13769880D01*
X22360000Y-13746071D01*
X22383809Y-13698452D01*
X22383809Y-13555595D01*
X22360000Y-13507976D01*
X22336190Y-13484166D01*
X22288571Y-13460357D01*
X22217142Y-13460357D01*
X22169523Y-13484166D01*
X22145714Y-13507976D01*
X22121904Y-13555595D01*
X22121904Y-13698452D01*
X22145714Y-13746071D01*
X22169523Y-13769880D01*
X22217142Y-13793690D01*
X22288571Y-13793690D01*
X21907619Y-13460357D02*
X21907619Y-13793690D01*
X21907619Y-13507976D02*
X21883809Y-13484166D01*
X21836190Y-13460357D01*
X21764761Y-13460357D01*
X21717142Y-13484166D01*
X21693333Y-13531785D01*
X21693333Y-13793690D01*
X21502857Y-13460357D02*
X21383809Y-13793690D01*
X21264761Y-13460357D01*
X20883809Y-13769880D02*
X20931428Y-13793690D01*
X21026666Y-13793690D01*
X21074285Y-13769880D01*
X21098095Y-13722261D01*
X21098095Y-13531785D01*
X21074285Y-13484166D01*
X21026666Y-13460357D01*
X20931428Y-13460357D01*
X20883809Y-13484166D01*
X20860000Y-13531785D01*
X20860000Y-13579404D01*
X21098095Y-13627023D01*
X20645714Y-13793690D02*
X20645714Y-13460357D01*
X20645714Y-13555595D02*
X20621904Y-13507976D01*
X20598095Y-13484166D01*
X20550476Y-13460357D01*
X20502857Y-13460357D01*
X20407619Y-13460357D02*
X20217142Y-13460357D01*
X20336190Y-13293690D02*
X20336190Y-13722261D01*
X20312380Y-13769880D01*
X20264761Y-13793690D01*
X20217142Y-13793690D01*
X19860000Y-13769880D02*
X19907619Y-13793690D01*
X20002857Y-13793690D01*
X20050476Y-13769880D01*
X20074285Y-13722261D01*
X20074285Y-13531785D01*
X20050476Y-13484166D01*
X20002857Y-13460357D01*
X19907619Y-13460357D01*
X19860000Y-13484166D01*
X19836190Y-13531785D01*
X19836190Y-13579404D01*
X20074285Y-13627023D01*
X19621904Y-13793690D02*
X19621904Y-13460357D01*
X19621904Y-13555595D02*
X19598095Y-13507976D01*
X19574285Y-13484166D01*
X19526666Y-13460357D01*
X19479047Y-13460357D01*
X18979047Y-13460357D02*
X18860000Y-13793690D01*
X18740952Y-13460357D01*
X18288571Y-13793690D02*
X18574285Y-13793690D01*
X18431428Y-13793690D02*
X18431428Y-13293690D01*
X18479047Y-13365119D01*
X18526666Y-13412738D01*
X18574285Y-13436547D01*
X28812380Y-14598690D02*
X28812380Y-14098690D01*
X28693333Y-14098690D01*
X28621904Y-14122500D01*
X28574285Y-14170119D01*
X28550476Y-14217738D01*
X28526666Y-14312976D01*
X28526666Y-14384404D01*
X28550476Y-14479642D01*
X28574285Y-14527261D01*
X28621904Y-14574880D01*
X28693333Y-14598690D01*
X28812380Y-14598690D01*
X28121904Y-14574880D02*
X28169523Y-14598690D01*
X28264761Y-14598690D01*
X28312380Y-14574880D01*
X28336190Y-14527261D01*
X28336190Y-14336785D01*
X28312380Y-14289166D01*
X28264761Y-14265357D01*
X28169523Y-14265357D01*
X28121904Y-14289166D01*
X28098095Y-14336785D01*
X28098095Y-14384404D01*
X28336190Y-14432023D01*
X27907619Y-14574880D02*
X27860000Y-14598690D01*
X27764761Y-14598690D01*
X27717142Y-14574880D01*
X27693333Y-14527261D01*
X27693333Y-14503452D01*
X27717142Y-14455833D01*
X27764761Y-14432023D01*
X27836190Y-14432023D01*
X27883809Y-14408214D01*
X27907619Y-14360595D01*
X27907619Y-14336785D01*
X27883809Y-14289166D01*
X27836190Y-14265357D01*
X27764761Y-14265357D01*
X27717142Y-14289166D01*
X27479047Y-14598690D02*
X27479047Y-14265357D01*
X27479047Y-14098690D02*
X27502857Y-14122500D01*
X27479047Y-14146309D01*
X27455238Y-14122500D01*
X27479047Y-14098690D01*
X27479047Y-14146309D01*
X27026666Y-14265357D02*
X27026666Y-14670119D01*
X27050476Y-14717738D01*
X27074285Y-14741547D01*
X27121904Y-14765357D01*
X27193333Y-14765357D01*
X27240952Y-14741547D01*
X27026666Y-14574880D02*
X27074285Y-14598690D01*
X27169523Y-14598690D01*
X27217142Y-14574880D01*
X27240952Y-14551071D01*
X27264761Y-14503452D01*
X27264761Y-14360595D01*
X27240952Y-14312976D01*
X27217142Y-14289166D01*
X27169523Y-14265357D01*
X27074285Y-14265357D01*
X27026666Y-14289166D01*
X26788571Y-14265357D02*
X26788571Y-14598690D01*
X26788571Y-14312976D02*
X26764761Y-14289166D01*
X26717142Y-14265357D01*
X26645714Y-14265357D01*
X26598095Y-14289166D01*
X26574285Y-14336785D01*
X26574285Y-14598690D01*
X26145714Y-14574880D02*
X26193333Y-14598690D01*
X26288571Y-14598690D01*
X26336190Y-14574880D01*
X26360000Y-14527261D01*
X26360000Y-14336785D01*
X26336190Y-14289166D01*
X26288571Y-14265357D01*
X26193333Y-14265357D01*
X26145714Y-14289166D01*
X26121904Y-14336785D01*
X26121904Y-14384404D01*
X26360000Y-14432023D01*
X25693333Y-14598690D02*
X25693333Y-14098690D01*
X25693333Y-14574880D02*
X25740952Y-14598690D01*
X25836190Y-14598690D01*
X25883809Y-14574880D01*
X25907619Y-14551071D01*
X25931428Y-14503452D01*
X25931428Y-14360595D01*
X25907619Y-14312976D01*
X25883809Y-14289166D01*
X25836190Y-14265357D01*
X25740952Y-14265357D01*
X25693333Y-14289166D01*
X25074285Y-14598690D02*
X25074285Y-14098690D01*
X25074285Y-14289166D02*
X25026666Y-14265357D01*
X24931428Y-14265357D01*
X24883809Y-14289166D01*
X24860000Y-14312976D01*
X24836190Y-14360595D01*
X24836190Y-14503452D01*
X24860000Y-14551071D01*
X24883809Y-14574880D01*
X24931428Y-14598690D01*
X25026666Y-14598690D01*
X25074285Y-14574880D01*
X24669523Y-14265357D02*
X24550476Y-14598690D01*
X24431428Y-14265357D02*
X24550476Y-14598690D01*
X24598095Y-14717738D01*
X24621904Y-14741547D01*
X24669523Y-14765357D01*
X23574285Y-14551071D02*
X23598095Y-14574880D01*
X23669523Y-14598690D01*
X23717142Y-14598690D01*
X23788571Y-14574880D01*
X23836190Y-14527261D01*
X23860000Y-14479642D01*
X23883809Y-14384404D01*
X23883809Y-14312976D01*
X23860000Y-14217738D01*
X23836190Y-14170119D01*
X23788571Y-14122500D01*
X23717142Y-14098690D01*
X23669523Y-14098690D01*
X23598095Y-14122500D01*
X23574285Y-14146309D01*
X23145714Y-14598690D02*
X23145714Y-14336785D01*
X23169523Y-14289166D01*
X23217142Y-14265357D01*
X23312380Y-14265357D01*
X23360000Y-14289166D01*
X23145714Y-14574880D02*
X23193333Y-14598690D01*
X23312380Y-14598690D01*
X23360000Y-14574880D01*
X23383809Y-14527261D01*
X23383809Y-14479642D01*
X23360000Y-14432023D01*
X23312380Y-14408214D01*
X23193333Y-14408214D01*
X23145714Y-14384404D01*
X22907619Y-14598690D02*
X22907619Y-14265357D01*
X22907619Y-14360595D02*
X22883809Y-14312976D01*
X22860000Y-14289166D01*
X22812380Y-14265357D01*
X22764761Y-14265357D01*
X22669523Y-14265357D02*
X22479047Y-14265357D01*
X22598095Y-14098690D02*
X22598095Y-14527261D01*
X22574285Y-14574880D01*
X22526666Y-14598690D01*
X22479047Y-14598690D01*
X22121904Y-14574880D02*
X22169523Y-14598690D01*
X22264761Y-14598690D01*
X22312380Y-14574880D01*
X22336190Y-14527261D01*
X22336190Y-14336785D01*
X22312380Y-14289166D01*
X22264761Y-14265357D01*
X22169523Y-14265357D01*
X22121904Y-14289166D01*
X22098095Y-14336785D01*
X22098095Y-14384404D01*
X22336190Y-14432023D01*
X21883809Y-14598690D02*
X21883809Y-14265357D01*
X21883809Y-14360595D02*
X21860000Y-14312976D01*
X21836190Y-14289166D01*
X21788571Y-14265357D01*
X21740952Y-14265357D01*
X21193333Y-14598690D02*
X21193333Y-14098690D01*
X21193333Y-14336785D02*
X20907619Y-14336785D01*
X20907619Y-14598690D02*
X20907619Y-14098690D01*
X20455238Y-14598690D02*
X20455238Y-14336785D01*
X20479047Y-14289166D01*
X20526666Y-14265357D01*
X20621904Y-14265357D01*
X20669523Y-14289166D01*
X20455238Y-14574880D02*
X20502857Y-14598690D01*
X20621904Y-14598690D01*
X20669523Y-14574880D01*
X20693333Y-14527261D01*
X20693333Y-14479642D01*
X20669523Y-14432023D01*
X20621904Y-14408214D01*
X20502857Y-14408214D01*
X20455238Y-14384404D01*
X20217142Y-14598690D02*
X20217142Y-14265357D01*
X20217142Y-14360595D02*
X20193333Y-14312976D01*
X20169523Y-14289166D01*
X20121904Y-14265357D01*
X20074285Y-14265357D01*
X19907619Y-14598690D02*
X19907619Y-14265357D01*
X19907619Y-14360595D02*
X19883809Y-14312976D01*
X19860000Y-14289166D01*
X19812380Y-14265357D01*
X19764761Y-14265357D01*
X19598095Y-14598690D02*
X19598095Y-14265357D01*
X19598095Y-14098690D02*
X19621904Y-14122500D01*
X19598095Y-14146309D01*
X19574285Y-14122500D01*
X19598095Y-14098690D01*
X19598095Y-14146309D01*
X19383809Y-14574880D02*
X19336190Y-14598690D01*
X19240952Y-14598690D01*
X19193333Y-14574880D01*
X19169523Y-14527261D01*
X19169523Y-14503452D01*
X19193333Y-14455833D01*
X19240952Y-14432023D01*
X19312380Y-14432023D01*
X19360000Y-14408214D01*
X19383809Y-14360595D01*
X19383809Y-14336785D01*
X19360000Y-14289166D01*
X19312380Y-14265357D01*
X19240952Y-14265357D01*
X19193333Y-14289166D01*
X18598095Y-14146309D02*
X18574285Y-14122500D01*
X18526666Y-14098690D01*
X18407619Y-14098690D01*
X18360000Y-14122500D01*
X18336190Y-14146309D01*
X18312380Y-14193928D01*
X18312380Y-14241547D01*
X18336190Y-14312976D01*
X18621904Y-14598690D01*
X18312380Y-14598690D01*
X18002857Y-14098690D02*
X17955238Y-14098690D01*
X17907619Y-14122500D01*
X17883809Y-14146309D01*
X17860000Y-14193928D01*
X17836190Y-14289166D01*
X17836190Y-14408214D01*
X17860000Y-14503452D01*
X17883809Y-14551071D01*
X17907619Y-14574880D01*
X17955238Y-14598690D01*
X18002857Y-14598690D01*
X18050476Y-14574880D01*
X18074285Y-14551071D01*
X18098095Y-14503452D01*
X18121904Y-14408214D01*
X18121904Y-14289166D01*
X18098095Y-14193928D01*
X18074285Y-14146309D01*
X18050476Y-14122500D01*
X18002857Y-14098690D01*
X17645714Y-14146309D02*
X17621904Y-14122500D01*
X17574285Y-14098690D01*
X17455238Y-14098690D01*
X17407619Y-14122500D01*
X17383809Y-14146309D01*
X17360000Y-14193928D01*
X17360000Y-14241547D01*
X17383809Y-14312976D01*
X17669523Y-14598690D01*
X17360000Y-14598690D01*
X17169523Y-14146309D02*
X17145714Y-14122500D01*
X17098095Y-14098690D01*
X16979047Y-14098690D01*
X16931428Y-14122500D01*
X16907619Y-14146309D01*
X16883809Y-14193928D01*
X16883809Y-14241547D01*
X16907619Y-14312976D01*
X17193333Y-14598690D01*
X16883809Y-14598690D01*
D11*
%TO.C,GND*%
X20761904Y-30000000D02*
X20857142Y-29952380D01*
X21000000Y-29952380D01*
X21142857Y-30000000D01*
X21238095Y-30095238D01*
X21285714Y-30190476D01*
X21333333Y-30380952D01*
X21333333Y-30523809D01*
X21285714Y-30714285D01*
X21238095Y-30809523D01*
X21142857Y-30904761D01*
X21000000Y-30952380D01*
X20904761Y-30952380D01*
X20761904Y-30904761D01*
X20714285Y-30857142D01*
X20714285Y-30523809D01*
X20904761Y-30523809D01*
X20285714Y-30952380D02*
X20285714Y-29952380D01*
X19714285Y-30952380D01*
X19714285Y-29952380D01*
X19238095Y-30952380D02*
X19238095Y-29952380D01*
X19000000Y-29952380D01*
X18857142Y-30000000D01*
X18761904Y-30095238D01*
X18714285Y-30190476D01*
X18666666Y-30380952D01*
X18666666Y-30523809D01*
X18714285Y-30714285D01*
X18761904Y-30809523D01*
X18857142Y-30904761D01*
X19000000Y-30952380D01*
X19238095Y-30952380D01*
%TO.C,VCC*%
X25333333Y-29952380D02*
X25000000Y-30952380D01*
X24666666Y-29952380D01*
X23761904Y-30857142D02*
X23809523Y-30904761D01*
X23952380Y-30952380D01*
X24047619Y-30952380D01*
X24190476Y-30904761D01*
X24285714Y-30809523D01*
X24333333Y-30714285D01*
X24380952Y-30523809D01*
X24380952Y-30380952D01*
X24333333Y-30190476D01*
X24285714Y-30095238D01*
X24190476Y-30000000D01*
X24047619Y-29952380D01*
X23952380Y-29952380D01*
X23809523Y-30000000D01*
X23761904Y-30047619D01*
X22761904Y-30857142D02*
X22809523Y-30904761D01*
X22952380Y-30952380D01*
X23047619Y-30952380D01*
X23190476Y-30904761D01*
X23285714Y-30809523D01*
X23333333Y-30714285D01*
X23380952Y-30523809D01*
X23380952Y-30380952D01*
X23333333Y-30190476D01*
X23285714Y-30095238D01*
X23190476Y-30000000D01*
X23047619Y-29952380D01*
X22952380Y-29952380D01*
X22809523Y-30000000D01*
X22761904Y-30047619D01*
%TO.C,SO*%
X22450323Y-25322161D02*
X22307466Y-25369780D01*
X22069371Y-25369780D01*
X21974133Y-25322161D01*
X21926514Y-25274542D01*
X21878895Y-25179304D01*
X21878895Y-25084066D01*
X21926514Y-24988828D01*
X21974133Y-24941209D01*
X22069371Y-24893590D01*
X22259847Y-24845971D01*
X22355085Y-24798352D01*
X22402704Y-24750733D01*
X22450323Y-24655495D01*
X22450323Y-24560257D01*
X22402704Y-24465019D01*
X22355085Y-24417400D01*
X22259847Y-24369780D01*
X22021752Y-24369780D01*
X21878895Y-24417400D01*
X21259847Y-24369780D02*
X21069371Y-24369780D01*
X20974133Y-24417400D01*
X20878895Y-24512638D01*
X20831276Y-24703114D01*
X20831276Y-25036447D01*
X20878895Y-25226923D01*
X20974133Y-25322161D01*
X21069371Y-25369780D01*
X21259847Y-25369780D01*
X21355085Y-25322161D01*
X21450323Y-25226923D01*
X21497942Y-25036447D01*
X21497942Y-24703114D01*
X21450323Y-24512638D01*
X21355085Y-24417400D01*
X21259847Y-24369780D01*
%TO.C,CS*%
X21959866Y-27814542D02*
X22007485Y-27862161D01*
X22150342Y-27909780D01*
X22245580Y-27909780D01*
X22388438Y-27862161D01*
X22483676Y-27766923D01*
X22531295Y-27671685D01*
X22578914Y-27481209D01*
X22578914Y-27338352D01*
X22531295Y-27147876D01*
X22483676Y-27052638D01*
X22388438Y-26957400D01*
X22245580Y-26909780D01*
X22150342Y-26909780D01*
X22007485Y-26957400D01*
X21959866Y-27005019D01*
X21578914Y-27862161D02*
X21436057Y-27909780D01*
X21197961Y-27909780D01*
X21102723Y-27862161D01*
X21055104Y-27814542D01*
X21007485Y-27719304D01*
X21007485Y-27624066D01*
X21055104Y-27528828D01*
X21102723Y-27481209D01*
X21197961Y-27433590D01*
X21388438Y-27385971D01*
X21483676Y-27338352D01*
X21531295Y-27290733D01*
X21578914Y-27195495D01*
X21578914Y-27100257D01*
X21531295Y-27005019D01*
X21483676Y-26957400D01*
X21388438Y-26909780D01*
X21150342Y-26909780D01*
X21007485Y-26957400D01*
%TO.C,SI*%
X22367809Y-22832961D02*
X22224952Y-22880580D01*
X21986857Y-22880580D01*
X21891619Y-22832961D01*
X21844000Y-22785342D01*
X21796380Y-22690104D01*
X21796380Y-22594866D01*
X21844000Y-22499628D01*
X21891619Y-22452009D01*
X21986857Y-22404390D01*
X22177333Y-22356771D01*
X22272571Y-22309152D01*
X22320190Y-22261533D01*
X22367809Y-22166295D01*
X22367809Y-22071057D01*
X22320190Y-21975819D01*
X22272571Y-21928200D01*
X22177333Y-21880580D01*
X21939238Y-21880580D01*
X21796380Y-21928200D01*
X21367809Y-22880580D02*
X21367809Y-21880580D01*
%TO.C,SCK*%
X22596314Y-20521561D02*
X22453457Y-20569180D01*
X22215361Y-20569180D01*
X22120123Y-20521561D01*
X22072504Y-20473942D01*
X22024885Y-20378704D01*
X22024885Y-20283466D01*
X22072504Y-20188228D01*
X22120123Y-20140609D01*
X22215361Y-20092990D01*
X22405838Y-20045371D01*
X22501076Y-19997752D01*
X22548695Y-19950133D01*
X22596314Y-19854895D01*
X22596314Y-19759657D01*
X22548695Y-19664419D01*
X22501076Y-19616800D01*
X22405838Y-19569180D01*
X22167742Y-19569180D01*
X22024885Y-19616800D01*
X21024885Y-20473942D02*
X21072504Y-20521561D01*
X21215361Y-20569180D01*
X21310600Y-20569180D01*
X21453457Y-20521561D01*
X21548695Y-20426323D01*
X21596314Y-20331085D01*
X21643933Y-20140609D01*
X21643933Y-19997752D01*
X21596314Y-19807276D01*
X21548695Y-19712038D01*
X21453457Y-19616800D01*
X21310600Y-19569180D01*
X21215361Y-19569180D01*
X21072504Y-19616800D01*
X21024885Y-19664419D01*
X20596314Y-20569180D02*
X20596314Y-19569180D01*
X20024885Y-20569180D02*
X20453457Y-19997752D01*
X20024885Y-19569180D02*
X20596314Y-20140609D01*
%TO.C,OSC+*%
X29325676Y-18476980D02*
X29135200Y-18476980D01*
X29039961Y-18524600D01*
X28944723Y-18619838D01*
X28897104Y-18810314D01*
X28897104Y-19143647D01*
X28944723Y-19334123D01*
X29039961Y-19429361D01*
X29135200Y-19476980D01*
X29325676Y-19476980D01*
X29420914Y-19429361D01*
X29516152Y-19334123D01*
X29563771Y-19143647D01*
X29563771Y-18810314D01*
X29516152Y-18619838D01*
X29420914Y-18524600D01*
X29325676Y-18476980D01*
X28516152Y-19429361D02*
X28373295Y-19476980D01*
X28135200Y-19476980D01*
X28039961Y-19429361D01*
X27992342Y-19381742D01*
X27944723Y-19286504D01*
X27944723Y-19191266D01*
X27992342Y-19096028D01*
X28039961Y-19048409D01*
X28135200Y-19000790D01*
X28325676Y-18953171D01*
X28420914Y-18905552D01*
X28468533Y-18857933D01*
X28516152Y-18762695D01*
X28516152Y-18667457D01*
X28468533Y-18572219D01*
X28420914Y-18524600D01*
X28325676Y-18476980D01*
X28087580Y-18476980D01*
X27944723Y-18524600D01*
X26944723Y-19381742D02*
X26992342Y-19429361D01*
X27135200Y-19476980D01*
X27230438Y-19476980D01*
X27373295Y-19429361D01*
X27468533Y-19334123D01*
X27516152Y-19238885D01*
X27563771Y-19048409D01*
X27563771Y-18905552D01*
X27516152Y-18715076D01*
X27468533Y-18619838D01*
X27373295Y-18524600D01*
X27230438Y-18476980D01*
X27135200Y-18476980D01*
X26992342Y-18524600D01*
X26944723Y-18572219D01*
X26516152Y-19096028D02*
X25754247Y-19096028D01*
X26135200Y-19476980D02*
X26135200Y-18715076D01*
%TO.C,OSC-*%
X29249476Y-20559780D02*
X29059000Y-20559780D01*
X28963761Y-20607400D01*
X28868523Y-20702638D01*
X28820904Y-20893114D01*
X28820904Y-21226447D01*
X28868523Y-21416923D01*
X28963761Y-21512161D01*
X29059000Y-21559780D01*
X29249476Y-21559780D01*
X29344714Y-21512161D01*
X29439952Y-21416923D01*
X29487571Y-21226447D01*
X29487571Y-20893114D01*
X29439952Y-20702638D01*
X29344714Y-20607400D01*
X29249476Y-20559780D01*
X28439952Y-21512161D02*
X28297095Y-21559780D01*
X28059000Y-21559780D01*
X27963761Y-21512161D01*
X27916142Y-21464542D01*
X27868523Y-21369304D01*
X27868523Y-21274066D01*
X27916142Y-21178828D01*
X27963761Y-21131209D01*
X28059000Y-21083590D01*
X28249476Y-21035971D01*
X28344714Y-20988352D01*
X28392333Y-20940733D01*
X28439952Y-20845495D01*
X28439952Y-20750257D01*
X28392333Y-20655019D01*
X28344714Y-20607400D01*
X28249476Y-20559780D01*
X28011380Y-20559780D01*
X27868523Y-20607400D01*
X26868523Y-21464542D02*
X26916142Y-21512161D01*
X27059000Y-21559780D01*
X27154238Y-21559780D01*
X27297095Y-21512161D01*
X27392333Y-21416923D01*
X27439952Y-21321685D01*
X27487571Y-21131209D01*
X27487571Y-20988352D01*
X27439952Y-20797876D01*
X27392333Y-20702638D01*
X27297095Y-20607400D01*
X27154238Y-20559780D01*
X27059000Y-20559780D01*
X26916142Y-20607400D01*
X26868523Y-20655019D01*
X26439952Y-21178828D02*
X25678047Y-21178828D01*
%TO.C,INT*%
X22520161Y-17927580D02*
X22520161Y-16927580D01*
X22043971Y-17927580D02*
X22043971Y-16927580D01*
X21472542Y-17927580D01*
X21472542Y-16927580D01*
X21139209Y-16927580D02*
X20567780Y-16927580D01*
X20853495Y-17927580D02*
X20853495Y-16927580D01*
%TO.C,RXCAN*%
X28974847Y-23718780D02*
X29308180Y-23242590D01*
X29546276Y-23718780D02*
X29546276Y-22718780D01*
X29165323Y-22718780D01*
X29070085Y-22766400D01*
X29022466Y-22814019D01*
X28974847Y-22909257D01*
X28974847Y-23052114D01*
X29022466Y-23147352D01*
X29070085Y-23194971D01*
X29165323Y-23242590D01*
X29546276Y-23242590D01*
X28641514Y-22718780D02*
X27974847Y-23718780D01*
X27974847Y-22718780D02*
X28641514Y-23718780D01*
X27022466Y-23623542D02*
X27070085Y-23671161D01*
X27212942Y-23718780D01*
X27308180Y-23718780D01*
X27451038Y-23671161D01*
X27546276Y-23575923D01*
X27593895Y-23480685D01*
X27641514Y-23290209D01*
X27641514Y-23147352D01*
X27593895Y-22956876D01*
X27546276Y-22861638D01*
X27451038Y-22766400D01*
X27308180Y-22718780D01*
X27212942Y-22718780D01*
X27070085Y-22766400D01*
X27022466Y-22814019D01*
X26641514Y-23433066D02*
X26165323Y-23433066D01*
X26736752Y-23718780D02*
X26403419Y-22718780D01*
X26070085Y-23718780D01*
X25736752Y-23718780D02*
X25736752Y-22718780D01*
X25165323Y-23718780D01*
X25165323Y-22718780D01*
%TO.C,TXCAN*%
X29773285Y-24979380D02*
X29201857Y-24979380D01*
X29487571Y-25979380D02*
X29487571Y-24979380D01*
X28963761Y-24979380D02*
X28297095Y-25979380D01*
X28297095Y-24979380D02*
X28963761Y-25979380D01*
X27344714Y-25884142D02*
X27392333Y-25931761D01*
X27535190Y-25979380D01*
X27630428Y-25979380D01*
X27773285Y-25931761D01*
X27868523Y-25836523D01*
X27916142Y-25741285D01*
X27963761Y-25550809D01*
X27963761Y-25407952D01*
X27916142Y-25217476D01*
X27868523Y-25122238D01*
X27773285Y-25027000D01*
X27630428Y-24979380D01*
X27535190Y-24979380D01*
X27392333Y-25027000D01*
X27344714Y-25074619D01*
X26963761Y-25693666D02*
X26487571Y-25693666D01*
X27059000Y-25979380D02*
X26725666Y-24979380D01*
X26392333Y-25979380D01*
X26059000Y-25979380D02*
X26059000Y-24979380D01*
X25487571Y-25979380D01*
X25487571Y-24979380D01*
%TO.C,CANH*%
X35126466Y-15266942D02*
X35174085Y-15314561D01*
X35316942Y-15362180D01*
X35412180Y-15362180D01*
X35555038Y-15314561D01*
X35650276Y-15219323D01*
X35697895Y-15124085D01*
X35745514Y-14933609D01*
X35745514Y-14790752D01*
X35697895Y-14600276D01*
X35650276Y-14505038D01*
X35555038Y-14409800D01*
X35412180Y-14362180D01*
X35316942Y-14362180D01*
X35174085Y-14409800D01*
X35126466Y-14457419D01*
X34745514Y-15076466D02*
X34269323Y-15076466D01*
X34840752Y-15362180D02*
X34507419Y-14362180D01*
X34174085Y-15362180D01*
X33840752Y-15362180D02*
X33840752Y-14362180D01*
X33269323Y-15362180D01*
X33269323Y-14362180D01*
X32793133Y-15362180D02*
X32793133Y-14362180D01*
X32793133Y-14838371D02*
X32221704Y-14838371D01*
X32221704Y-15362180D02*
X32221704Y-14362180D01*
%TO.C,CANL*%
X35058219Y-17959342D02*
X35105838Y-18006961D01*
X35248695Y-18054580D01*
X35343933Y-18054580D01*
X35486790Y-18006961D01*
X35582028Y-17911723D01*
X35629647Y-17816485D01*
X35677266Y-17626009D01*
X35677266Y-17483152D01*
X35629647Y-17292676D01*
X35582028Y-17197438D01*
X35486790Y-17102200D01*
X35343933Y-17054580D01*
X35248695Y-17054580D01*
X35105838Y-17102200D01*
X35058219Y-17149819D01*
X34677266Y-17768866D02*
X34201076Y-17768866D01*
X34772504Y-18054580D02*
X34439171Y-17054580D01*
X34105838Y-18054580D01*
X33772504Y-18054580D02*
X33772504Y-17054580D01*
X33201076Y-18054580D01*
X33201076Y-17054580D01*
X32248695Y-18054580D02*
X32724885Y-18054580D01*
X32724885Y-17054580D01*
%TO.C,G\u002A\u002A\u002A*%
G36*
X37649194Y-22427816D02*
G01*
X37553849Y-22471013D01*
X37466233Y-22510681D01*
X37387781Y-22546171D01*
X37319926Y-22576836D01*
X37264103Y-22602026D01*
X37221747Y-22621094D01*
X37194292Y-22633389D01*
X37183173Y-22638265D01*
X37175963Y-22638778D01*
X37171644Y-22630635D01*
X37170276Y-22610051D01*
X37171214Y-22573524D01*
X37174105Y-22503084D01*
X37540029Y-22336560D01*
X37540029Y-21997503D01*
X37657125Y-21997503D01*
X37657128Y-22006284D01*
X37657478Y-22081866D01*
X37658355Y-22148097D01*
X37659696Y-22202944D01*
X37661437Y-22244375D01*
X37663517Y-22270357D01*
X37665870Y-22278857D01*
X37680376Y-22272890D01*
X37710094Y-22259943D01*
X37751600Y-22241490D01*
X37802430Y-22218660D01*
X37860117Y-22192577D01*
X37922198Y-22164371D01*
X37986206Y-22135167D01*
X38049678Y-22106094D01*
X38110148Y-22078278D01*
X38165151Y-22052845D01*
X38212222Y-22030925D01*
X38248896Y-22013643D01*
X38272708Y-22002126D01*
X38281193Y-21997503D01*
X38274486Y-21993770D01*
X38252287Y-21982979D01*
X38216947Y-21966293D01*
X38170931Y-21944842D01*
X38116703Y-21919751D01*
X38056729Y-21892149D01*
X37993474Y-21863161D01*
X37929402Y-21833916D01*
X37866979Y-21805539D01*
X37808670Y-21779160D01*
X37756940Y-21755904D01*
X37714253Y-21736898D01*
X37683074Y-21723270D01*
X37665870Y-21716148D01*
X37665600Y-21716164D01*
X37663274Y-21726683D01*
X37661229Y-21754461D01*
X37659528Y-21797464D01*
X37658235Y-21853661D01*
X37657413Y-21921018D01*
X37657125Y-21997503D01*
X37540029Y-21997503D01*
X37540029Y-21658445D01*
X37174105Y-21491921D01*
X37171214Y-21421481D01*
X37170777Y-21410368D01*
X37170174Y-21378605D01*
X37171923Y-21361694D01*
X37176868Y-21355965D01*
X37185850Y-21357750D01*
X37195176Y-21361804D01*
X37221215Y-21373434D01*
X37262301Y-21391910D01*
X37316989Y-21416580D01*
X37383835Y-21446788D01*
X37461392Y-21481883D01*
X37548217Y-21521210D01*
X37642864Y-21564116D01*
X37743888Y-21609948D01*
X37849845Y-21658051D01*
X38496310Y-21951644D01*
X38496310Y-22043520D01*
X37847167Y-22338043D01*
X37750834Y-22381739D01*
X37665870Y-22420256D01*
X37649194Y-22427816D01*
G37*
G36*
X37383901Y-26339800D02*
G01*
X38496310Y-26339800D01*
X38496310Y-26573991D01*
X37169226Y-26573991D01*
X37169226Y-25793353D01*
X37383901Y-25793353D01*
X37383901Y-26339800D01*
G37*
G36*
X38496310Y-24251401D02*
G01*
X37586202Y-24256473D01*
X38496310Y-24927431D01*
X38496310Y-25139569D01*
X37169226Y-25139569D01*
X37169226Y-24915136D01*
X37620184Y-24915136D01*
X37648735Y-24915133D01*
X37750300Y-24915041D01*
X37834271Y-24914787D01*
X37902183Y-24914320D01*
X37955571Y-24913590D01*
X37995970Y-24912546D01*
X38024915Y-24911140D01*
X38043941Y-24909320D01*
X38054582Y-24907036D01*
X38058375Y-24904239D01*
X38056853Y-24900879D01*
X38052347Y-24897124D01*
X38033180Y-24882291D01*
X38000677Y-24857652D01*
X37956316Y-24824311D01*
X37901574Y-24783373D01*
X37837927Y-24735939D01*
X37766854Y-24683116D01*
X37689831Y-24626005D01*
X37608335Y-24565712D01*
X37174105Y-24244802D01*
X37171346Y-24135981D01*
X37168587Y-24027161D01*
X38496310Y-24027161D01*
X38496310Y-24251401D01*
G37*
G36*
X37643422Y-28097030D02*
G01*
X37545322Y-28060359D01*
X37454714Y-28008699D01*
X37373190Y-27942988D01*
X37302343Y-27864163D01*
X37243767Y-27773159D01*
X37199054Y-27670916D01*
X37169797Y-27558368D01*
X37166148Y-27529308D01*
X37163671Y-27474479D01*
X37164194Y-27432693D01*
X37375454Y-27432693D01*
X37382110Y-27494793D01*
X37406230Y-27582724D01*
X37445730Y-27664111D01*
X37498741Y-27736552D01*
X37563395Y-27797645D01*
X37637825Y-27844987D01*
X37720162Y-27876173D01*
X37762460Y-27884971D01*
X37849156Y-27889523D01*
X37932752Y-27876818D01*
X38011351Y-27848381D01*
X38083058Y-27805735D01*
X38145978Y-27750403D01*
X38198216Y-27683909D01*
X38237875Y-27607777D01*
X38263060Y-27523530D01*
X38271877Y-27432693D01*
X38271756Y-27420548D01*
X38261783Y-27328620D01*
X38235174Y-27245867D01*
X38191047Y-27170242D01*
X38128523Y-27099703D01*
X38076724Y-27056081D01*
X37999214Y-27010315D01*
X37916211Y-26983079D01*
X37826987Y-26974068D01*
X37744697Y-26982178D01*
X37660422Y-27008988D01*
X37581757Y-27054212D01*
X37509449Y-27117513D01*
X37454938Y-27184295D01*
X37414027Y-27259541D01*
X37388197Y-27343592D01*
X37381819Y-27377163D01*
X37376951Y-27410601D01*
X37375454Y-27432693D01*
X37164194Y-27432693D01*
X37164457Y-27411687D01*
X37168216Y-27347620D01*
X37174659Y-27288965D01*
X37183495Y-27242412D01*
X37192400Y-27212772D01*
X37216685Y-27150641D01*
X37247780Y-27086200D01*
X37282093Y-27026589D01*
X37316032Y-26978947D01*
X37325861Y-26967367D01*
X37404840Y-26890734D01*
X37494089Y-26829370D01*
X37591383Y-26783748D01*
X37694495Y-26754340D01*
X37801202Y-26741617D01*
X37909277Y-26746052D01*
X38016494Y-26768118D01*
X38120628Y-26808285D01*
X38138585Y-26817335D01*
X38232070Y-26877033D01*
X38313540Y-26951362D01*
X38381802Y-27038839D01*
X38435659Y-27137977D01*
X38473917Y-27247291D01*
X38482694Y-27293077D01*
X38488877Y-27357429D01*
X38491014Y-27428583D01*
X38489115Y-27500062D01*
X38483193Y-27565391D01*
X38473259Y-27618094D01*
X38472491Y-27620916D01*
X38434930Y-27724788D01*
X38382319Y-27820734D01*
X38316587Y-27906589D01*
X38239665Y-27980187D01*
X38153482Y-28039363D01*
X38059966Y-28081951D01*
X37966745Y-28107744D01*
X37855727Y-28121660D01*
X37849156Y-28121424D01*
X37747422Y-28117776D01*
X37643422Y-28097030D01*
G37*
G36*
X38496310Y-25656742D02*
G01*
X37169226Y-25656742D01*
X37169226Y-25422551D01*
X38496310Y-25422551D01*
X38496310Y-25656742D01*
G37*
G36*
X37169396Y-23366058D02*
G01*
X37169615Y-23275988D01*
X37170321Y-23189940D01*
X37171575Y-23119875D01*
X37173441Y-23063913D01*
X37175986Y-23020174D01*
X37179272Y-22986779D01*
X37183367Y-22961847D01*
X37200898Y-22898071D01*
X37235964Y-22821192D01*
X37282919Y-22758871D01*
X37341205Y-22711798D01*
X37410268Y-22680661D01*
X37423124Y-22676901D01*
X37505188Y-22662477D01*
X37585074Y-22664085D01*
X37660104Y-22680874D01*
X37727603Y-22711994D01*
X37784895Y-22756595D01*
X37829302Y-22813825D01*
X37854973Y-22857628D01*
X37895100Y-22818905D01*
X37898433Y-22815706D01*
X37938153Y-22781290D01*
X37975911Y-22757841D01*
X38017004Y-22743453D01*
X38066730Y-22736217D01*
X38130386Y-22734229D01*
X38153564Y-22734329D01*
X38198851Y-22735649D01*
X38232008Y-22739072D01*
X38258260Y-22745313D01*
X38282829Y-22755085D01*
X38292206Y-22759622D01*
X38355146Y-22802160D01*
X38407559Y-22860220D01*
X38448392Y-22932378D01*
X38476592Y-23017211D01*
X38479927Y-23040063D01*
X38483269Y-23081286D01*
X38486373Y-23138336D01*
X38489152Y-23209325D01*
X38491519Y-23292367D01*
X38493389Y-23385574D01*
X38498602Y-23705148D01*
X37169226Y-23705148D01*
X37169362Y-23434185D01*
X37287739Y-23434185D01*
X37288133Y-23488801D01*
X37289005Y-23531502D01*
X37290326Y-23559754D01*
X37292065Y-23571027D01*
X37298341Y-23572483D01*
X37321953Y-23574356D01*
X37360361Y-23575956D01*
X37410805Y-23577200D01*
X37470529Y-23578007D01*
X37536776Y-23578294D01*
X37774220Y-23578294D01*
X37901074Y-23578294D01*
X38371087Y-23578294D01*
X38367832Y-23311375D01*
X38364578Y-23044455D01*
X38330425Y-22977542D01*
X38324051Y-22965489D01*
X38288438Y-22913177D01*
X38247210Y-22878074D01*
X38197541Y-22858353D01*
X38136604Y-22852186D01*
X38083780Y-22857096D01*
X38025283Y-22877841D01*
X37977716Y-22914712D01*
X37941224Y-22967584D01*
X37915953Y-23036337D01*
X37911194Y-23059367D01*
X37907216Y-23090956D01*
X37904340Y-23131921D01*
X37902442Y-23184794D01*
X37901395Y-23252107D01*
X37901074Y-23336395D01*
X37901074Y-23578294D01*
X37774220Y-23578294D01*
X37774220Y-23310430D01*
X37774192Y-23282099D01*
X37773456Y-23187019D01*
X37771409Y-23108621D01*
X37767628Y-23044675D01*
X37761689Y-22992953D01*
X37753169Y-22951228D01*
X37741644Y-22917270D01*
X37726693Y-22888853D01*
X37707890Y-22863748D01*
X37684814Y-22839726D01*
X37657440Y-22816759D01*
X37624336Y-22799315D01*
X37584613Y-22790464D01*
X37532075Y-22788113D01*
X37484485Y-22791622D01*
X37424682Y-22809249D01*
X37376102Y-22842350D01*
X37337809Y-22891637D01*
X37308870Y-22957820D01*
X37308317Y-22959535D01*
X37303371Y-22978618D01*
X37299384Y-23002887D01*
X37296209Y-23034730D01*
X37293699Y-23076535D01*
X37291707Y-23130690D01*
X37290086Y-23199584D01*
X37288689Y-23285606D01*
X37288505Y-23299334D01*
X37287853Y-23370186D01*
X37287739Y-23434185D01*
X37169362Y-23434185D01*
X37169396Y-23366058D01*
G37*
G36*
X36794145Y-31303177D02*
G01*
X36630584Y-31440288D01*
X36464445Y-31592518D01*
X36298229Y-31757231D01*
X36134438Y-31931792D01*
X35975574Y-32113565D01*
X35824139Y-32299914D01*
X35682633Y-32488204D01*
X35656803Y-32523112D01*
X35616513Y-32572360D01*
X35582291Y-32606194D01*
X35552625Y-32626014D01*
X35526001Y-32633223D01*
X35520929Y-32624907D01*
X35519982Y-32600895D01*
X35522810Y-32564471D01*
X35528966Y-32518925D01*
X35538005Y-32467549D01*
X35549482Y-32413633D01*
X35562949Y-32360468D01*
X35617842Y-32182044D01*
X35707434Y-31945622D01*
X35815052Y-31712073D01*
X35939845Y-31482927D01*
X36080964Y-31259717D01*
X36237556Y-31043975D01*
X36408772Y-30837231D01*
X36426537Y-30816569D01*
X36445995Y-30791996D01*
X36456135Y-30776373D01*
X36455020Y-30772416D01*
X36454471Y-30772626D01*
X36431319Y-30784023D01*
X36396071Y-30804318D01*
X36352391Y-30831163D01*
X36303946Y-30862212D01*
X36254400Y-30895116D01*
X36207419Y-30927527D01*
X36166669Y-30957098D01*
X36141390Y-30976662D01*
X36072194Y-31034749D01*
X36000481Y-31100451D01*
X35932572Y-31167838D01*
X35874783Y-31230983D01*
X35847661Y-31258841D01*
X35820996Y-31274781D01*
X35796911Y-31273883D01*
X35772820Y-31256801D01*
X35763132Y-31244785D01*
X35757753Y-31229319D01*
X35758320Y-31208428D01*
X35765326Y-31179008D01*
X35779265Y-31137958D01*
X35800632Y-31082174D01*
X35803963Y-31073764D01*
X35870700Y-30923723D01*
X35952219Y-30769894D01*
X36045929Y-30616832D01*
X36149244Y-30469090D01*
X36176862Y-30433892D01*
X36222074Y-30380510D01*
X36274645Y-30321849D01*
X36331304Y-30261318D01*
X36388779Y-30202326D01*
X36443800Y-30148284D01*
X36493096Y-30102601D01*
X36533395Y-30068686D01*
X36535651Y-30066926D01*
X36558534Y-30047405D01*
X36570901Y-30033569D01*
X36570119Y-30028313D01*
X36567198Y-30028421D01*
X36538853Y-30034271D01*
X36496957Y-30048052D01*
X36444541Y-30068391D01*
X36384633Y-30093914D01*
X36320264Y-30123246D01*
X36254464Y-30155014D01*
X36190262Y-30187841D01*
X36130688Y-30220356D01*
X36078773Y-30251182D01*
X36056084Y-30265007D01*
X36026285Y-30281678D01*
X36005854Y-30291167D01*
X35998270Y-30291719D01*
X35999856Y-30285068D01*
X36008788Y-30262400D01*
X36023978Y-30228511D01*
X36043576Y-30187142D01*
X36065733Y-30142034D01*
X36088598Y-30096929D01*
X36110324Y-30055567D01*
X36129059Y-30021690D01*
X36142954Y-29999039D01*
X36154814Y-29980748D01*
X36165061Y-29961629D01*
X36166214Y-29953598D01*
X36162560Y-29952547D01*
X36143120Y-29946488D01*
X36110248Y-29936039D01*
X36067339Y-29922279D01*
X36017785Y-29906292D01*
X36015225Y-29905463D01*
X35938416Y-29877862D01*
X36733320Y-29877862D01*
X36745987Y-29898314D01*
X36755130Y-29917701D01*
X36750698Y-29938502D01*
X36744929Y-29956490D01*
X36753694Y-29966759D01*
X36779490Y-29969765D01*
X36797746Y-29973030D01*
X36812713Y-29986842D01*
X36815788Y-29994250D01*
X36821679Y-29998614D01*
X36831909Y-29986842D01*
X36847623Y-29975369D01*
X36875467Y-29969765D01*
X36894571Y-29968850D01*
X36901109Y-29963261D01*
X36895342Y-29949015D01*
X36889321Y-29930890D01*
X36894999Y-29904645D01*
X36898021Y-29897964D01*
X36904488Y-29880112D01*
X36900114Y-29873285D01*
X36882932Y-29872186D01*
X36865753Y-29867651D01*
X36848159Y-29845969D01*
X36836214Y-29819753D01*
X36814218Y-29847338D01*
X36804519Y-29858455D01*
X36785769Y-29870311D01*
X36761170Y-29870365D01*
X36752288Y-29869158D01*
X36734834Y-29869224D01*
X36733320Y-29877862D01*
X35938416Y-29877862D01*
X35778878Y-29820533D01*
X35547968Y-29721164D01*
X35324356Y-29608515D01*
X35109903Y-29483744D01*
X34906469Y-29348011D01*
X34715916Y-29202475D01*
X34540103Y-29048295D01*
X34380892Y-28886630D01*
X34309106Y-28805174D01*
X34165078Y-28622759D01*
X34038439Y-28433663D01*
X33928821Y-28237027D01*
X33835860Y-28031992D01*
X33759187Y-27817699D01*
X33698437Y-27593288D01*
X33653244Y-27357901D01*
X33623240Y-27110680D01*
X33622341Y-27089871D01*
X33621754Y-27052337D01*
X33621501Y-27001362D01*
X33621588Y-26940009D01*
X33622020Y-26871342D01*
X33622799Y-26798425D01*
X33623340Y-26762196D01*
X33626438Y-26643677D01*
X33631780Y-26537181D01*
X33639906Y-26436904D01*
X33651357Y-26337045D01*
X33666671Y-26231800D01*
X33686391Y-26115367D01*
X33697059Y-26058547D01*
X33712886Y-25981719D01*
X33730651Y-25902005D01*
X33749749Y-25821602D01*
X33769578Y-25742707D01*
X33789534Y-25667516D01*
X33809013Y-25598227D01*
X33827414Y-25537035D01*
X33844131Y-25486138D01*
X33858562Y-25447733D01*
X33870104Y-25424015D01*
X33878153Y-25417182D01*
X33894533Y-25420743D01*
X33920167Y-25422551D01*
X33948190Y-25422551D01*
X33946203Y-25688455D01*
X33946160Y-25694587D01*
X33946076Y-25769661D01*
X33946745Y-25842966D01*
X33948073Y-25912285D01*
X33949966Y-25975399D01*
X33952328Y-26030089D01*
X33955066Y-26074138D01*
X33958085Y-26105325D01*
X33961290Y-26121434D01*
X33964588Y-26120246D01*
X33965903Y-26112156D01*
X33968924Y-26086994D01*
X33973091Y-26048415D01*
X33978039Y-25999817D01*
X33983405Y-25944602D01*
X33985404Y-25924401D01*
X33995395Y-25837526D01*
X34008388Y-25740595D01*
X34023682Y-25637819D01*
X34040574Y-25533409D01*
X34058364Y-25431576D01*
X34076351Y-25336533D01*
X34093833Y-25252489D01*
X34110110Y-25183657D01*
X34137655Y-25084496D01*
X34174262Y-24966164D01*
X34217261Y-24837532D01*
X34265329Y-24702217D01*
X34317144Y-24563834D01*
X34371386Y-24426000D01*
X34426733Y-24292331D01*
X34481862Y-24166444D01*
X34522667Y-24078268D01*
X34613559Y-23896084D01*
X34707431Y-23726488D01*
X34803586Y-23570457D01*
X34901328Y-23428966D01*
X34999960Y-23302993D01*
X35098785Y-23193515D01*
X35197106Y-23101506D01*
X35294226Y-23027945D01*
X35314573Y-23015331D01*
X35349026Y-22995935D01*
X35389789Y-22974400D01*
X35433502Y-22952347D01*
X35476803Y-22931392D01*
X35516331Y-22913157D01*
X35548727Y-22899257D01*
X35570629Y-22891314D01*
X35578677Y-22890944D01*
X35576990Y-22895265D01*
X35567999Y-22914438D01*
X35552566Y-22946047D01*
X35532183Y-22987053D01*
X35508339Y-23034417D01*
X35505994Y-23039049D01*
X35466576Y-23117459D01*
X35432892Y-23185488D01*
X35405486Y-23241981D01*
X35384901Y-23285782D01*
X35371683Y-23315734D01*
X35366374Y-23330681D01*
X35369520Y-23329466D01*
X35380884Y-23313564D01*
X35402263Y-23281419D01*
X35430713Y-23237290D01*
X35464631Y-23183761D01*
X35502418Y-23123412D01*
X35542472Y-23058828D01*
X35583193Y-22992591D01*
X35622981Y-22927283D01*
X35660235Y-22865487D01*
X35693354Y-22809786D01*
X35720737Y-22762762D01*
X35784651Y-22649294D01*
X35858519Y-22511480D01*
X35922740Y-22382724D01*
X35978913Y-22259647D01*
X36028636Y-22138871D01*
X36073506Y-22017018D01*
X36109844Y-21907894D01*
X36158224Y-21740719D01*
X36193523Y-21584822D01*
X36215985Y-21438442D01*
X36225853Y-21299820D01*
X36223371Y-21167197D01*
X36208781Y-21038811D01*
X36203373Y-21003695D01*
X36198188Y-20965174D01*
X36195287Y-20937041D01*
X36195191Y-20923717D01*
X36197953Y-20921362D01*
X36212333Y-20925344D01*
X36235569Y-20939380D01*
X36264339Y-20960889D01*
X36295321Y-20987292D01*
X36325193Y-21016007D01*
X36350635Y-21044456D01*
X36371934Y-21073875D01*
X36399335Y-21116642D01*
X36428234Y-21165653D01*
X36455060Y-21215074D01*
X36460211Y-21225142D01*
X36527137Y-21374495D01*
X36582191Y-21535731D01*
X36625824Y-21710367D01*
X36658487Y-21899923D01*
X36662411Y-21932401D01*
X36668789Y-22009806D01*
X36673197Y-22100130D01*
X36675635Y-22199042D01*
X36676105Y-22302211D01*
X36674607Y-22405303D01*
X36671143Y-22503987D01*
X36665712Y-22593931D01*
X36658318Y-22670803D01*
X36649287Y-22741293D01*
X36615725Y-22957400D01*
X36573072Y-23173210D01*
X36520798Y-23390283D01*
X36458374Y-23610177D01*
X36385269Y-23834453D01*
X36300954Y-24064670D01*
X36204899Y-24302388D01*
X36096574Y-24549166D01*
X35975448Y-24806565D01*
X35840992Y-25076143D01*
X35746316Y-25266505D01*
X35628695Y-25520536D01*
X35524253Y-25768009D01*
X35433147Y-26008302D01*
X35355534Y-26240794D01*
X35291573Y-26464862D01*
X35241419Y-26679885D01*
X35205232Y-26885240D01*
X35183166Y-27080306D01*
X35175381Y-27264461D01*
X35182033Y-27437083D01*
X35203280Y-27597549D01*
X35205988Y-27610880D01*
X35215955Y-27651947D01*
X35229956Y-27703095D01*
X35246954Y-27761116D01*
X35265912Y-27822804D01*
X35285791Y-27884952D01*
X35305554Y-27944352D01*
X35324164Y-27997798D01*
X35340584Y-28042084D01*
X35353776Y-28074001D01*
X35362702Y-28090344D01*
X35376188Y-28105017D01*
X35413695Y-28141095D01*
X35462285Y-28183716D01*
X35518493Y-28230062D01*
X35578856Y-28277313D01*
X35639908Y-28322653D01*
X35698185Y-28363260D01*
X35761581Y-28404485D01*
X35940575Y-28508504D01*
X36129241Y-28600339D01*
X36329492Y-28680786D01*
X36543237Y-28750640D01*
X36772388Y-28810698D01*
X36792942Y-28815486D01*
X36840514Y-28826327D01*
X36873317Y-28833021D01*
X36894479Y-28835853D01*
X36907129Y-28835105D01*
X36914395Y-28831061D01*
X36919404Y-28824003D01*
X36922664Y-28818464D01*
X36981875Y-28736563D01*
X37055886Y-28665264D01*
X37145662Y-28603777D01*
X37252169Y-28551309D01*
X37338865Y-28519212D01*
X37460693Y-28484637D01*
X37594468Y-28456610D01*
X37736417Y-28435778D01*
X37882762Y-28422786D01*
X38029729Y-28418281D01*
X38048464Y-28418099D01*
X38179128Y-28406540D01*
X38302129Y-28377450D01*
X38416764Y-28331482D01*
X38522327Y-28269285D01*
X38618111Y-28191510D01*
X38703412Y-28098808D01*
X38777524Y-27991830D01*
X38839743Y-27871227D01*
X38889362Y-27737648D01*
X38925676Y-27591746D01*
X38925810Y-27591049D01*
X38932589Y-27549192D01*
X38939390Y-27495598D01*
X38945911Y-27434153D01*
X38951851Y-27368748D01*
X38956910Y-27303269D01*
X38960787Y-27241607D01*
X38963180Y-27187648D01*
X38963789Y-27145282D01*
X38962312Y-27118397D01*
X38961306Y-27099470D01*
X38964585Y-27091164D01*
X38970029Y-27093988D01*
X38987314Y-27108781D01*
X39012818Y-27133653D01*
X39043824Y-27165668D01*
X39077611Y-27201895D01*
X39111461Y-27239398D01*
X39142653Y-27275245D01*
X39168468Y-27306501D01*
X39186188Y-27330234D01*
X39250148Y-27436303D01*
X39317150Y-27580432D01*
X39368869Y-27735429D01*
X39405168Y-27900416D01*
X39425907Y-28074514D01*
X39430948Y-28256843D01*
X39420151Y-28446525D01*
X39393379Y-28642681D01*
X39390360Y-28659477D01*
X39377469Y-28723951D01*
X39362149Y-28791755D01*
X39345082Y-28860656D01*
X39326955Y-28928418D01*
X39308450Y-28992809D01*
X39290252Y-29051593D01*
X39273046Y-29102537D01*
X39257516Y-29143407D01*
X39244345Y-29171968D01*
X39234219Y-29185988D01*
X39227821Y-29183230D01*
X39227658Y-29182764D01*
X39223106Y-29164582D01*
X39216382Y-29131771D01*
X39208292Y-29088752D01*
X39199642Y-29039943D01*
X39191241Y-28989767D01*
X39183894Y-28942642D01*
X39179192Y-28919420D01*
X39172374Y-28911722D01*
X39160031Y-28915809D01*
X39151896Y-28919151D01*
X39124020Y-28918628D01*
X39097853Y-28902957D01*
X39078846Y-28874885D01*
X39075754Y-28867481D01*
X39070751Y-28858285D01*
X39066883Y-28859135D01*
X39063318Y-28872369D01*
X39059223Y-28900322D01*
X39053768Y-28945331D01*
X39050728Y-28969513D01*
X39037306Y-29057826D01*
X39019401Y-29156519D01*
X38998270Y-29259363D01*
X38975169Y-29360131D01*
X38951357Y-29452593D01*
X38950090Y-29457183D01*
X38915516Y-29572931D01*
X38876623Y-29684661D01*
X38831475Y-29797213D01*
X38778134Y-29915425D01*
X38714665Y-30044138D01*
X38670422Y-30132962D01*
X38604035Y-30275610D01*
X38542182Y-30421351D01*
X38483883Y-30572913D01*
X38428157Y-30733026D01*
X38374025Y-30904421D01*
X38320506Y-31089826D01*
X38266621Y-31291970D01*
X38257757Y-31326633D01*
X38202239Y-31555271D01*
X38155886Y-31768666D01*
X38118449Y-31968417D01*
X38089677Y-32156123D01*
X38069323Y-32333383D01*
X38057136Y-32501798D01*
X38052868Y-32662965D01*
X38052985Y-32712362D01*
X38055332Y-32814738D01*
X38061028Y-32901775D01*
X38070620Y-32976278D01*
X38084657Y-33041050D01*
X38103689Y-33098894D01*
X38128262Y-33152616D01*
X38158926Y-33205017D01*
X38202492Y-33272729D01*
X38181972Y-33294572D01*
X38173352Y-33303320D01*
X38151824Y-33318923D01*
X38130691Y-33321081D01*
X38105579Y-33309345D01*
X38072115Y-33283263D01*
X38014307Y-33226249D01*
X37948883Y-33140632D01*
X37890690Y-33039809D01*
X37840681Y-32925722D01*
X37799807Y-32800312D01*
X37769021Y-32665520D01*
X37767393Y-32656159D01*
X37759927Y-32598462D01*
X37754222Y-32528673D01*
X37750268Y-32450295D01*
X37748056Y-32366833D01*
X37747578Y-32281791D01*
X37748823Y-32198672D01*
X37751783Y-32120981D01*
X37756448Y-32052221D01*
X37762811Y-31995897D01*
X37770861Y-31955513D01*
X37771377Y-31953657D01*
X37772608Y-31942358D01*
X37764673Y-31947129D01*
X37762326Y-31949635D01*
X37748223Y-31974095D01*
X37732612Y-32014518D01*
X37716198Y-32068017D01*
X37699686Y-32131703D01*
X37683779Y-32202688D01*
X37669183Y-32278087D01*
X37656601Y-32355010D01*
X37646739Y-32430570D01*
X37635078Y-32534824D01*
X37596376Y-32541363D01*
X37588344Y-32542518D01*
X37563635Y-32543360D01*
X37549812Y-32539567D01*
X37549623Y-32539358D01*
X37542722Y-32523654D01*
X37534267Y-32492726D01*
X37525067Y-32450586D01*
X37515927Y-32401250D01*
X37507655Y-32348730D01*
X37501057Y-32297042D01*
X37500026Y-32287238D01*
X37494078Y-32203313D01*
X37491273Y-32105474D01*
X37491439Y-31998419D01*
X37494403Y-31886841D01*
X37499991Y-31775435D01*
X37508032Y-31668897D01*
X37518353Y-31571921D01*
X37530780Y-31489202D01*
X37534956Y-31462744D01*
X37537340Y-31437977D01*
X37536337Y-31426517D01*
X37533516Y-31427371D01*
X37524105Y-31441378D01*
X37510383Y-31468615D01*
X37493800Y-31505768D01*
X37475806Y-31549520D01*
X37457853Y-31596555D01*
X37441390Y-31643558D01*
X37428711Y-31685317D01*
X37413524Y-31741775D01*
X37398586Y-31802910D01*
X37385818Y-31861202D01*
X37383040Y-31874678D01*
X37373020Y-31920162D01*
X37363934Y-31956890D01*
X37356688Y-31981392D01*
X37352188Y-31990195D01*
X37350020Y-31990092D01*
X37332417Y-31989788D01*
X37305838Y-31989665D01*
X37266806Y-31989665D01*
X37266910Y-31777430D01*
X37267388Y-31709928D01*
X37271983Y-31567008D01*
X37281943Y-31433159D01*
X37297867Y-31301492D01*
X37320359Y-31165117D01*
X37331959Y-31105329D01*
X37346269Y-31037791D01*
X37361202Y-30972608D01*
X37375750Y-30913997D01*
X37388907Y-30866171D01*
X37399664Y-30833346D01*
X37398723Y-30826893D01*
X37385294Y-30834195D01*
X37358952Y-30855582D01*
X37340377Y-30871213D01*
X37305908Y-30899417D01*
X37260558Y-30936016D01*
X37206798Y-30979048D01*
X37147101Y-31026553D01*
X37083937Y-31076569D01*
X37019777Y-31127136D01*
X36957094Y-31176293D01*
X36898358Y-31222078D01*
X36846042Y-31262532D01*
X36821679Y-31281613D01*
X36794145Y-31303177D01*
G37*
G36*
X38496310Y-21304687D02*
G01*
X38369457Y-21304687D01*
X38369457Y-20844691D01*
X37913271Y-20848249D01*
X37871762Y-20848580D01*
X37770599Y-20849483D01*
X37686507Y-20850440D01*
X37617694Y-20851522D01*
X37562368Y-20852805D01*
X37518737Y-20854361D01*
X37485011Y-20856264D01*
X37459397Y-20858589D01*
X37440104Y-20861409D01*
X37425340Y-20864798D01*
X37413314Y-20868829D01*
X37407624Y-20871106D01*
X37353542Y-20901627D01*
X37315748Y-20942437D01*
X37293566Y-20994547D01*
X37286322Y-21058968D01*
X37286323Y-21059993D01*
X37294080Y-21130713D01*
X37317726Y-21192700D01*
X37358423Y-21248082D01*
X37417333Y-21298986D01*
X37470270Y-21337196D01*
X37434404Y-21379169D01*
X37418648Y-21396318D01*
X37398669Y-21414341D01*
X37385660Y-21421462D01*
X37370089Y-21416843D01*
X37343464Y-21401337D01*
X37312061Y-21378255D01*
X37280566Y-21351084D01*
X37253667Y-21323308D01*
X37234481Y-21299212D01*
X37198614Y-21239208D01*
X37172246Y-21168075D01*
X37165899Y-21134229D01*
X37163085Y-21081214D01*
X37165532Y-21022871D01*
X37172871Y-20966548D01*
X37184733Y-20919590D01*
X37203056Y-20881402D01*
X37241944Y-20831434D01*
X37292541Y-20788556D01*
X37350325Y-20757199D01*
X37408296Y-20733845D01*
X37952303Y-20730949D01*
X38496310Y-20728052D01*
X38496310Y-21304687D01*
G37*
G36*
X37587662Y-20440355D02*
G01*
X37498734Y-20480771D01*
X37418517Y-20517238D01*
X37348520Y-20549069D01*
X37290254Y-20575579D01*
X37245229Y-20596080D01*
X37214954Y-20609886D01*
X37200940Y-20616310D01*
X37169226Y-20631071D01*
X37169226Y-20489558D01*
X37535150Y-20323468D01*
X37535150Y-19983619D01*
X37657125Y-19983619D01*
X37657149Y-20038771D01*
X37657341Y-20108271D01*
X37657832Y-20161645D01*
X37658750Y-20200945D01*
X37660222Y-20228220D01*
X37662375Y-20245520D01*
X37665338Y-20254895D01*
X37669237Y-20258395D01*
X37674201Y-20258071D01*
X37688313Y-20252827D01*
X37717264Y-20240648D01*
X37757975Y-20222834D01*
X37807981Y-20200520D01*
X37864821Y-20174843D01*
X37926030Y-20146938D01*
X37989145Y-20117942D01*
X38051703Y-20088991D01*
X38111239Y-20061221D01*
X38165291Y-20035769D01*
X38211396Y-20013771D01*
X38247089Y-19996363D01*
X38269907Y-19984680D01*
X38277388Y-19979861D01*
X38277281Y-19979766D01*
X38266272Y-19973934D01*
X38240121Y-19961414D01*
X38201358Y-19943346D01*
X38152512Y-19920868D01*
X38096113Y-19895123D01*
X38034690Y-19867248D01*
X37970774Y-19838384D01*
X37906893Y-19809670D01*
X37845577Y-19782247D01*
X37789356Y-19757254D01*
X37740759Y-19735831D01*
X37702315Y-19719118D01*
X37676555Y-19708254D01*
X37666008Y-19704379D01*
X37665953Y-19704384D01*
X37663527Y-19714193D01*
X37661396Y-19741426D01*
X37659625Y-19784033D01*
X37658279Y-19839966D01*
X37657424Y-19907178D01*
X37657125Y-19983619D01*
X37535150Y-19983619D01*
X37535150Y-19641134D01*
X37352326Y-19558101D01*
X37169502Y-19475067D01*
X37169364Y-19404878D01*
X37169226Y-19334690D01*
X37235092Y-19364094D01*
X37240990Y-19366737D01*
X37267686Y-19378773D01*
X37309817Y-19397823D01*
X37365708Y-19423127D01*
X37433684Y-19453926D01*
X37512069Y-19489459D01*
X37599188Y-19528969D01*
X37693366Y-19571695D01*
X37792927Y-19616878D01*
X37896195Y-19663758D01*
X38491431Y-19934019D01*
X38491431Y-20029867D01*
X37862042Y-20315708D01*
X37785613Y-20350422D01*
X37683792Y-20396676D01*
X37669237Y-20403289D01*
X37587662Y-20440355D01*
G37*
D12*
%TO.C,GND*%
X21450000Y-32500000D02*
G75*
G03*
X21450000Y-32500000I-950000J0D01*
G01*
%TO.C,VCC*%
X23950000Y-32500000D02*
G75*
G03*
X23950000Y-32500000I-950000J0D01*
G01*
%TO.C,SO*%
X24950000Y-25000000D02*
G75*
G03*
X24950000Y-25000000I-950000J0D01*
G01*
%TO.C,CS*%
X24950000Y-27500000D02*
G75*
G03*
X24950000Y-27500000I-950000J0D01*
G01*
%TO.C,SI*%
X24950000Y-22500000D02*
G75*
G03*
X24950000Y-22500000I-950000J0D01*
G01*
%TO.C,SCK*%
X24950000Y-20000000D02*
G75*
G03*
X24950000Y-20000000I-950000J0D01*
G01*
%TO.C,OSC+*%
X31684000Y-18923000D02*
G75*
G03*
X31684000Y-18923000I-950000J0D01*
G01*
%TO.C,OSC-*%
X31709400Y-21082000D02*
G75*
G03*
X31709400Y-21082000I-950000J0D01*
G01*
%TO.C,INT*%
X24950000Y-17500000D02*
G75*
G03*
X24950000Y-17500000I-950000J0D01*
G01*
%TO.C,RXCAN*%
X31709400Y-23215600D02*
G75*
G03*
X31709400Y-23215600I-950000J0D01*
G01*
%TO.C,TXCAN*%
X31734800Y-25527000D02*
G75*
G03*
X31734800Y-25527000I-950000J0D01*
G01*
%TO.C,CANH*%
X38050000Y-15000000D02*
G75*
G03*
X38050000Y-15000000I-950000J0D01*
G01*
%TO.C,CANL*%
X37950000Y-17600000D02*
G75*
G03*
X37950000Y-17600000I-950000J0D01*
G01*
%TD*%
M02*
