%TF.GenerationSoftware,KiCad,Pcbnew,(6.0.7)*%
%TF.CreationDate,2022-10-19T11:36:26-04:00*%
%TF.ProjectId,SPItoCAN,53504974-6f43-4414-9e2e-6b696361645f,rev?*%
%TF.SameCoordinates,Original*%
%TF.FileFunction,Drillmap*%
%TF.FilePolarity,Positive*%
%FSLAX45Y45*%
G04 Gerber Fmt 4.5, Leading zero omitted, Abs format (unit mm)*
G04 Created by KiCad (PCBNEW (6.0.7)) date 2022-10-19 11:36:26*
%MOMM*%
%LPD*%
G01*
G04 APERTURE LIST*
%ADD10C,0.100000*%
%ADD11C,0.200000*%
G04 APERTURE END LIST*
D10*
X1300000Y-1300000D02*
X4300000Y-1300000D01*
X4300000Y-1300000D02*
X4300000Y-3400000D01*
X4300000Y-3400000D02*
X1300000Y-3400000D01*
X1300000Y-3400000D02*
X1300000Y-1300000D01*
D11*
X1552619Y-3715476D02*
X1552619Y-3515476D01*
X1600238Y-3515476D01*
X1628809Y-3525000D01*
X1647857Y-3544048D01*
X1657381Y-3563095D01*
X1666905Y-3601190D01*
X1666905Y-3629762D01*
X1657381Y-3667857D01*
X1647857Y-3686905D01*
X1628809Y-3705952D01*
X1600238Y-3715476D01*
X1552619Y-3715476D01*
X1752619Y-3715476D02*
X1752619Y-3582143D01*
X1752619Y-3620238D02*
X1762143Y-3601190D01*
X1771667Y-3591667D01*
X1790714Y-3582143D01*
X1809762Y-3582143D01*
X1876428Y-3715476D02*
X1876428Y-3582143D01*
X1876428Y-3515476D02*
X1866905Y-3525000D01*
X1876428Y-3534524D01*
X1885952Y-3525000D01*
X1876428Y-3515476D01*
X1876428Y-3534524D01*
X2000238Y-3715476D02*
X1981190Y-3705952D01*
X1971667Y-3686905D01*
X1971667Y-3515476D01*
X2105000Y-3715476D02*
X2085952Y-3705952D01*
X2076428Y-3686905D01*
X2076428Y-3515476D01*
X2333571Y-3715476D02*
X2333571Y-3515476D01*
X2400238Y-3658333D01*
X2466905Y-3515476D01*
X2466905Y-3715476D01*
X2647857Y-3715476D02*
X2647857Y-3610714D01*
X2638333Y-3591667D01*
X2619286Y-3582143D01*
X2581190Y-3582143D01*
X2562143Y-3591667D01*
X2647857Y-3705952D02*
X2628810Y-3715476D01*
X2581190Y-3715476D01*
X2562143Y-3705952D01*
X2552619Y-3686905D01*
X2552619Y-3667857D01*
X2562143Y-3648809D01*
X2581190Y-3639286D01*
X2628810Y-3639286D01*
X2647857Y-3629762D01*
X2743095Y-3582143D02*
X2743095Y-3782143D01*
X2743095Y-3591667D02*
X2762143Y-3582143D01*
X2800238Y-3582143D01*
X2819286Y-3591667D01*
X2828809Y-3601190D01*
X2838333Y-3620238D01*
X2838333Y-3677381D01*
X2828809Y-3696428D01*
X2819286Y-3705952D01*
X2800238Y-3715476D01*
X2762143Y-3715476D01*
X2743095Y-3705952D01*
X2924048Y-3696428D02*
X2933571Y-3705952D01*
X2924048Y-3715476D01*
X2914524Y-3705952D01*
X2924048Y-3696428D01*
X2924048Y-3715476D01*
X2924048Y-3591667D02*
X2933571Y-3601190D01*
X2924048Y-3610714D01*
X2914524Y-3601190D01*
X2924048Y-3591667D01*
X2924048Y-3610714D01*
M02*
