M48
; DRILL file {KiCad (6.0.7)} date Wed Oct 19 11:36:25 2022
; FORMAT={-:-/ absolute / inch / decimal}
; #@! TF.CreationDate,2022-10-19T11:36:25-04:00
; #@! TF.GenerationSoftware,Kicad,Pcbnew,(6.0.7)
; #@! TF.FileFunction,Plated,1,2,PTH
FMAT,2
INCH
; #@! TA.AperFunction,Plated,PTH,ViaDrill
T1C0.0157
; #@! TA.AperFunction,Plated,PTH,ComponentDrill
T2C0.0394
%
G90
G05
T1
X0.55Y-1.3
X0.7Y-0.6
X0.7Y-1.1
X0.7205Y-1.0394
X0.748Y-1.2598
X0.8Y-0.6
X0.8661Y-0.7283
X0.8661Y-0.7874
X0.8661Y-0.8465
X0.8661Y-0.9252
X0.8661Y-0.9843
X0.9Y-0.6
X0.9843Y-1.2598
X1.0Y-0.6
X1.05Y-0.75
X1.05Y-0.85
X1.05Y-0.95
X1.05Y-1.05
X1.185Y-1.1339
X1.2Y-0.6
X1.2008Y-1.0866
X1.2201Y-0.6886
X1.2717Y-0.9606
X1.2992Y-0.8858
X1.3Y-1.2
X1.3543Y-0.6772
X1.3622Y-1.0079
X1.378Y-1.1811
X1.4351Y-1.0236
X1.4409Y-0.7441
X1.45Y-0.85
X1.5118Y-1.2244
X1.5236Y-0.6732
X1.5276Y-0.5709
X1.6063Y-1.2953
T2
X0.5807Y-0.5811
X0.5807Y-0.6811
X0.5807Y-0.7811
X0.5807Y-0.8811
X0.5807Y-0.9811
X0.5807Y-1.0811
X0.5807Y-1.1811
X1.6142Y-0.5906
X1.6142Y-0.6906
X1.6142Y-0.8356
X1.6142Y-0.9356
X1.6142Y-1.0817
X1.6142Y-1.1817
T0
M30
