%TF.GenerationSoftware,KiCad,Pcbnew,(6.0.7)*%
%TF.CreationDate,2022-10-19T11:36:30-04:00*%
%TF.ProjectId,SPItoCAN,53504974-6f43-4414-9e2e-6b696361645f,rev?*%
%TF.SameCoordinates,Original*%
%TF.FileFunction,Legend,Bot*%
%TF.FilePolarity,Positive*%
%FSLAX46Y46*%
G04 Gerber Fmt 4.6, Leading zero omitted, Abs format (unit mm)*
G04 Created by KiCad (PCBNEW (6.0.7)) date 2022-10-19 11:36:30*
%MOMM*%
%LPD*%
G01*
G04 APERTURE LIST*
%ADD10C,0.150000*%
%ADD11C,0.120000*%
G04 APERTURE END LIST*
D10*
%TO.C,GND*%
X20761904Y-30000000D02*
X20857142Y-29952380D01*
X21000000Y-29952380D01*
X21142857Y-30000000D01*
X21238095Y-30095238D01*
X21285714Y-30190476D01*
X21333333Y-30380952D01*
X21333333Y-30523809D01*
X21285714Y-30714285D01*
X21238095Y-30809523D01*
X21142857Y-30904761D01*
X21000000Y-30952380D01*
X20904761Y-30952380D01*
X20761904Y-30904761D01*
X20714285Y-30857142D01*
X20714285Y-30523809D01*
X20904761Y-30523809D01*
X20285714Y-30952380D02*
X20285714Y-29952380D01*
X19714285Y-30952380D01*
X19714285Y-29952380D01*
X19238095Y-30952380D02*
X19238095Y-29952380D01*
X19000000Y-29952380D01*
X18857142Y-30000000D01*
X18761904Y-30095238D01*
X18714285Y-30190476D01*
X18666666Y-30380952D01*
X18666666Y-30523809D01*
X18714285Y-30714285D01*
X18761904Y-30809523D01*
X18857142Y-30904761D01*
X19000000Y-30952380D01*
X19238095Y-30952380D01*
%TO.C,VCC*%
X25333333Y-29952380D02*
X25000000Y-30952380D01*
X24666666Y-29952380D01*
X23761904Y-30857142D02*
X23809523Y-30904761D01*
X23952380Y-30952380D01*
X24047619Y-30952380D01*
X24190476Y-30904761D01*
X24285714Y-30809523D01*
X24333333Y-30714285D01*
X24380952Y-30523809D01*
X24380952Y-30380952D01*
X24333333Y-30190476D01*
X24285714Y-30095238D01*
X24190476Y-30000000D01*
X24047619Y-29952380D01*
X23952380Y-29952380D01*
X23809523Y-30000000D01*
X23761904Y-30047619D01*
X22761904Y-30857142D02*
X22809523Y-30904761D01*
X22952380Y-30952380D01*
X23047619Y-30952380D01*
X23190476Y-30904761D01*
X23285714Y-30809523D01*
X23333333Y-30714285D01*
X23380952Y-30523809D01*
X23380952Y-30380952D01*
X23333333Y-30190476D01*
X23285714Y-30095238D01*
X23190476Y-30000000D01*
X23047619Y-29952380D01*
X22952380Y-29952380D01*
X22809523Y-30000000D01*
X22761904Y-30047619D01*
%TO.C,SO*%
X22450323Y-25322161D02*
X22307466Y-25369780D01*
X22069371Y-25369780D01*
X21974133Y-25322161D01*
X21926514Y-25274542D01*
X21878895Y-25179304D01*
X21878895Y-25084066D01*
X21926514Y-24988828D01*
X21974133Y-24941209D01*
X22069371Y-24893590D01*
X22259847Y-24845971D01*
X22355085Y-24798352D01*
X22402704Y-24750733D01*
X22450323Y-24655495D01*
X22450323Y-24560257D01*
X22402704Y-24465019D01*
X22355085Y-24417400D01*
X22259847Y-24369780D01*
X22021752Y-24369780D01*
X21878895Y-24417400D01*
X21259847Y-24369780D02*
X21069371Y-24369780D01*
X20974133Y-24417400D01*
X20878895Y-24512638D01*
X20831276Y-24703114D01*
X20831276Y-25036447D01*
X20878895Y-25226923D01*
X20974133Y-25322161D01*
X21069371Y-25369780D01*
X21259847Y-25369780D01*
X21355085Y-25322161D01*
X21450323Y-25226923D01*
X21497942Y-25036447D01*
X21497942Y-24703114D01*
X21450323Y-24512638D01*
X21355085Y-24417400D01*
X21259847Y-24369780D01*
%TO.C,CS*%
X21959866Y-27814542D02*
X22007485Y-27862161D01*
X22150342Y-27909780D01*
X22245580Y-27909780D01*
X22388438Y-27862161D01*
X22483676Y-27766923D01*
X22531295Y-27671685D01*
X22578914Y-27481209D01*
X22578914Y-27338352D01*
X22531295Y-27147876D01*
X22483676Y-27052638D01*
X22388438Y-26957400D01*
X22245580Y-26909780D01*
X22150342Y-26909780D01*
X22007485Y-26957400D01*
X21959866Y-27005019D01*
X21578914Y-27862161D02*
X21436057Y-27909780D01*
X21197961Y-27909780D01*
X21102723Y-27862161D01*
X21055104Y-27814542D01*
X21007485Y-27719304D01*
X21007485Y-27624066D01*
X21055104Y-27528828D01*
X21102723Y-27481209D01*
X21197961Y-27433590D01*
X21388438Y-27385971D01*
X21483676Y-27338352D01*
X21531295Y-27290733D01*
X21578914Y-27195495D01*
X21578914Y-27100257D01*
X21531295Y-27005019D01*
X21483676Y-26957400D01*
X21388438Y-26909780D01*
X21150342Y-26909780D01*
X21007485Y-26957400D01*
%TO.C,SI*%
X22367809Y-22832961D02*
X22224952Y-22880580D01*
X21986857Y-22880580D01*
X21891619Y-22832961D01*
X21844000Y-22785342D01*
X21796380Y-22690104D01*
X21796380Y-22594866D01*
X21844000Y-22499628D01*
X21891619Y-22452009D01*
X21986857Y-22404390D01*
X22177333Y-22356771D01*
X22272571Y-22309152D01*
X22320190Y-22261533D01*
X22367809Y-22166295D01*
X22367809Y-22071057D01*
X22320190Y-21975819D01*
X22272571Y-21928200D01*
X22177333Y-21880580D01*
X21939238Y-21880580D01*
X21796380Y-21928200D01*
X21367809Y-22880580D02*
X21367809Y-21880580D01*
%TO.C,SCK*%
X22596314Y-20521561D02*
X22453457Y-20569180D01*
X22215361Y-20569180D01*
X22120123Y-20521561D01*
X22072504Y-20473942D01*
X22024885Y-20378704D01*
X22024885Y-20283466D01*
X22072504Y-20188228D01*
X22120123Y-20140609D01*
X22215361Y-20092990D01*
X22405838Y-20045371D01*
X22501076Y-19997752D01*
X22548695Y-19950133D01*
X22596314Y-19854895D01*
X22596314Y-19759657D01*
X22548695Y-19664419D01*
X22501076Y-19616800D01*
X22405838Y-19569180D01*
X22167742Y-19569180D01*
X22024885Y-19616800D01*
X21024885Y-20473942D02*
X21072504Y-20521561D01*
X21215361Y-20569180D01*
X21310600Y-20569180D01*
X21453457Y-20521561D01*
X21548695Y-20426323D01*
X21596314Y-20331085D01*
X21643933Y-20140609D01*
X21643933Y-19997752D01*
X21596314Y-19807276D01*
X21548695Y-19712038D01*
X21453457Y-19616800D01*
X21310600Y-19569180D01*
X21215361Y-19569180D01*
X21072504Y-19616800D01*
X21024885Y-19664419D01*
X20596314Y-20569180D02*
X20596314Y-19569180D01*
X20024885Y-20569180D02*
X20453457Y-19997752D01*
X20024885Y-19569180D02*
X20596314Y-20140609D01*
%TO.C,OSC+*%
X29325676Y-18476980D02*
X29135200Y-18476980D01*
X29039961Y-18524600D01*
X28944723Y-18619838D01*
X28897104Y-18810314D01*
X28897104Y-19143647D01*
X28944723Y-19334123D01*
X29039961Y-19429361D01*
X29135200Y-19476980D01*
X29325676Y-19476980D01*
X29420914Y-19429361D01*
X29516152Y-19334123D01*
X29563771Y-19143647D01*
X29563771Y-18810314D01*
X29516152Y-18619838D01*
X29420914Y-18524600D01*
X29325676Y-18476980D01*
X28516152Y-19429361D02*
X28373295Y-19476980D01*
X28135200Y-19476980D01*
X28039961Y-19429361D01*
X27992342Y-19381742D01*
X27944723Y-19286504D01*
X27944723Y-19191266D01*
X27992342Y-19096028D01*
X28039961Y-19048409D01*
X28135200Y-19000790D01*
X28325676Y-18953171D01*
X28420914Y-18905552D01*
X28468533Y-18857933D01*
X28516152Y-18762695D01*
X28516152Y-18667457D01*
X28468533Y-18572219D01*
X28420914Y-18524600D01*
X28325676Y-18476980D01*
X28087580Y-18476980D01*
X27944723Y-18524600D01*
X26944723Y-19381742D02*
X26992342Y-19429361D01*
X27135200Y-19476980D01*
X27230438Y-19476980D01*
X27373295Y-19429361D01*
X27468533Y-19334123D01*
X27516152Y-19238885D01*
X27563771Y-19048409D01*
X27563771Y-18905552D01*
X27516152Y-18715076D01*
X27468533Y-18619838D01*
X27373295Y-18524600D01*
X27230438Y-18476980D01*
X27135200Y-18476980D01*
X26992342Y-18524600D01*
X26944723Y-18572219D01*
X26516152Y-19096028D02*
X25754247Y-19096028D01*
X26135200Y-19476980D02*
X26135200Y-18715076D01*
%TO.C,OSC-*%
X29249476Y-20559780D02*
X29059000Y-20559780D01*
X28963761Y-20607400D01*
X28868523Y-20702638D01*
X28820904Y-20893114D01*
X28820904Y-21226447D01*
X28868523Y-21416923D01*
X28963761Y-21512161D01*
X29059000Y-21559780D01*
X29249476Y-21559780D01*
X29344714Y-21512161D01*
X29439952Y-21416923D01*
X29487571Y-21226447D01*
X29487571Y-20893114D01*
X29439952Y-20702638D01*
X29344714Y-20607400D01*
X29249476Y-20559780D01*
X28439952Y-21512161D02*
X28297095Y-21559780D01*
X28059000Y-21559780D01*
X27963761Y-21512161D01*
X27916142Y-21464542D01*
X27868523Y-21369304D01*
X27868523Y-21274066D01*
X27916142Y-21178828D01*
X27963761Y-21131209D01*
X28059000Y-21083590D01*
X28249476Y-21035971D01*
X28344714Y-20988352D01*
X28392333Y-20940733D01*
X28439952Y-20845495D01*
X28439952Y-20750257D01*
X28392333Y-20655019D01*
X28344714Y-20607400D01*
X28249476Y-20559780D01*
X28011380Y-20559780D01*
X27868523Y-20607400D01*
X26868523Y-21464542D02*
X26916142Y-21512161D01*
X27059000Y-21559780D01*
X27154238Y-21559780D01*
X27297095Y-21512161D01*
X27392333Y-21416923D01*
X27439952Y-21321685D01*
X27487571Y-21131209D01*
X27487571Y-20988352D01*
X27439952Y-20797876D01*
X27392333Y-20702638D01*
X27297095Y-20607400D01*
X27154238Y-20559780D01*
X27059000Y-20559780D01*
X26916142Y-20607400D01*
X26868523Y-20655019D01*
X26439952Y-21178828D02*
X25678047Y-21178828D01*
%TO.C,INT*%
X22520161Y-17927580D02*
X22520161Y-16927580D01*
X22043971Y-17927580D02*
X22043971Y-16927580D01*
X21472542Y-17927580D01*
X21472542Y-16927580D01*
X21139209Y-16927580D02*
X20567780Y-16927580D01*
X20853495Y-17927580D02*
X20853495Y-16927580D01*
%TO.C,RXCAN*%
X28974847Y-23718780D02*
X29308180Y-23242590D01*
X29546276Y-23718780D02*
X29546276Y-22718780D01*
X29165323Y-22718780D01*
X29070085Y-22766400D01*
X29022466Y-22814019D01*
X28974847Y-22909257D01*
X28974847Y-23052114D01*
X29022466Y-23147352D01*
X29070085Y-23194971D01*
X29165323Y-23242590D01*
X29546276Y-23242590D01*
X28641514Y-22718780D02*
X27974847Y-23718780D01*
X27974847Y-22718780D02*
X28641514Y-23718780D01*
X27022466Y-23623542D02*
X27070085Y-23671161D01*
X27212942Y-23718780D01*
X27308180Y-23718780D01*
X27451038Y-23671161D01*
X27546276Y-23575923D01*
X27593895Y-23480685D01*
X27641514Y-23290209D01*
X27641514Y-23147352D01*
X27593895Y-22956876D01*
X27546276Y-22861638D01*
X27451038Y-22766400D01*
X27308180Y-22718780D01*
X27212942Y-22718780D01*
X27070085Y-22766400D01*
X27022466Y-22814019D01*
X26641514Y-23433066D02*
X26165323Y-23433066D01*
X26736752Y-23718780D02*
X26403419Y-22718780D01*
X26070085Y-23718780D01*
X25736752Y-23718780D02*
X25736752Y-22718780D01*
X25165323Y-23718780D01*
X25165323Y-22718780D01*
%TO.C,TXCAN*%
X29773285Y-24979380D02*
X29201857Y-24979380D01*
X29487571Y-25979380D02*
X29487571Y-24979380D01*
X28963761Y-24979380D02*
X28297095Y-25979380D01*
X28297095Y-24979380D02*
X28963761Y-25979380D01*
X27344714Y-25884142D02*
X27392333Y-25931761D01*
X27535190Y-25979380D01*
X27630428Y-25979380D01*
X27773285Y-25931761D01*
X27868523Y-25836523D01*
X27916142Y-25741285D01*
X27963761Y-25550809D01*
X27963761Y-25407952D01*
X27916142Y-25217476D01*
X27868523Y-25122238D01*
X27773285Y-25027000D01*
X27630428Y-24979380D01*
X27535190Y-24979380D01*
X27392333Y-25027000D01*
X27344714Y-25074619D01*
X26963761Y-25693666D02*
X26487571Y-25693666D01*
X27059000Y-25979380D02*
X26725666Y-24979380D01*
X26392333Y-25979380D01*
X26059000Y-25979380D02*
X26059000Y-24979380D01*
X25487571Y-25979380D01*
X25487571Y-24979380D01*
%TO.C,CANH*%
X35126466Y-15266942D02*
X35174085Y-15314561D01*
X35316942Y-15362180D01*
X35412180Y-15362180D01*
X35555038Y-15314561D01*
X35650276Y-15219323D01*
X35697895Y-15124085D01*
X35745514Y-14933609D01*
X35745514Y-14790752D01*
X35697895Y-14600276D01*
X35650276Y-14505038D01*
X35555038Y-14409800D01*
X35412180Y-14362180D01*
X35316942Y-14362180D01*
X35174085Y-14409800D01*
X35126466Y-14457419D01*
X34745514Y-15076466D02*
X34269323Y-15076466D01*
X34840752Y-15362180D02*
X34507419Y-14362180D01*
X34174085Y-15362180D01*
X33840752Y-15362180D02*
X33840752Y-14362180D01*
X33269323Y-15362180D01*
X33269323Y-14362180D01*
X32793133Y-15362180D02*
X32793133Y-14362180D01*
X32793133Y-14838371D02*
X32221704Y-14838371D01*
X32221704Y-15362180D02*
X32221704Y-14362180D01*
%TO.C,CANL*%
X35058219Y-17959342D02*
X35105838Y-18006961D01*
X35248695Y-18054580D01*
X35343933Y-18054580D01*
X35486790Y-18006961D01*
X35582028Y-17911723D01*
X35629647Y-17816485D01*
X35677266Y-17626009D01*
X35677266Y-17483152D01*
X35629647Y-17292676D01*
X35582028Y-17197438D01*
X35486790Y-17102200D01*
X35343933Y-17054580D01*
X35248695Y-17054580D01*
X35105838Y-17102200D01*
X35058219Y-17149819D01*
X34677266Y-17768866D02*
X34201076Y-17768866D01*
X34772504Y-18054580D02*
X34439171Y-17054580D01*
X34105838Y-18054580D01*
X33772504Y-18054580D02*
X33772504Y-17054580D01*
X33201076Y-18054580D01*
X33201076Y-17054580D01*
X32248695Y-18054580D02*
X32724885Y-18054580D01*
X32724885Y-17054580D01*
%TO.C,G\u002A\u002A\u002A*%
G36*
X32455722Y-30398086D02*
G01*
X32337740Y-30398086D01*
X32337740Y-29327814D01*
X32455722Y-29327814D01*
X32455722Y-30398086D01*
G37*
G36*
X29650260Y-30896002D02*
G01*
X29844011Y-30905941D01*
X30041648Y-30927812D01*
X30244245Y-30961845D01*
X30452880Y-31008269D01*
X30668627Y-31067315D01*
X30892564Y-31139210D01*
X31125766Y-31224186D01*
X31194653Y-31251025D01*
X31270949Y-31281724D01*
X31346165Y-31313182D01*
X31422579Y-31346429D01*
X31502465Y-31382493D01*
X31588100Y-31422405D01*
X31681760Y-31467195D01*
X31785721Y-31517893D01*
X31902258Y-31575528D01*
X31931457Y-31590037D01*
X32029982Y-31638819D01*
X32116072Y-31681089D01*
X32191742Y-31717775D01*
X32259009Y-31749804D01*
X32319887Y-31778105D01*
X32376393Y-31803603D01*
X32430540Y-31827227D01*
X32484344Y-31849903D01*
X32539822Y-31872560D01*
X32598987Y-31896124D01*
X32613918Y-31901987D01*
X32802977Y-31971971D01*
X32988569Y-32032834D01*
X33169380Y-32084291D01*
X33344094Y-32126058D01*
X33511397Y-32157849D01*
X33669975Y-32179378D01*
X33818513Y-32190362D01*
X33955698Y-32190514D01*
X33981826Y-32189329D01*
X34053172Y-32184488D01*
X34118196Y-32177030D01*
X34181245Y-32166113D01*
X34246665Y-32150896D01*
X34318804Y-32130539D01*
X34402009Y-32104202D01*
X34414774Y-32100024D01*
X34463068Y-32084466D01*
X34505081Y-32071317D01*
X34538387Y-32061308D01*
X34560558Y-32055174D01*
X34569171Y-32053649D01*
X34569217Y-32053968D01*
X34562573Y-32061658D01*
X34545536Y-32077547D01*
X34520439Y-32099527D01*
X34489616Y-32125491D01*
X34422991Y-32178301D01*
X34278198Y-32278121D01*
X34124220Y-32364900D01*
X33960627Y-32438799D01*
X33786991Y-32499976D01*
X33602884Y-32548595D01*
X33407877Y-32584814D01*
X33201542Y-32608796D01*
X33174063Y-32610351D01*
X33130908Y-32611609D01*
X33076747Y-32612444D01*
X33014618Y-32612871D01*
X32947556Y-32612906D01*
X32878597Y-32612564D01*
X32810779Y-32611861D01*
X32747137Y-32610813D01*
X32690707Y-32609435D01*
X32644525Y-32607744D01*
X32611628Y-32605754D01*
X32396341Y-32583069D01*
X32157893Y-32547500D01*
X31915723Y-32500416D01*
X31668092Y-32441435D01*
X31413260Y-32370178D01*
X31149485Y-32286264D01*
X31094074Y-32267567D01*
X31018423Y-32241691D01*
X30956182Y-32219827D01*
X30905718Y-32201325D01*
X30865399Y-32185536D01*
X30833591Y-32171810D01*
X30808663Y-32159500D01*
X30788980Y-32147954D01*
X30772911Y-32136525D01*
X30762798Y-32128720D01*
X30718727Y-32096274D01*
X30663029Y-32057098D01*
X30597929Y-32012653D01*
X30525654Y-31964402D01*
X30448430Y-31913809D01*
X30368486Y-31862334D01*
X30288046Y-31811442D01*
X30209340Y-31762595D01*
X30134592Y-31717255D01*
X30089614Y-31690508D01*
X29963535Y-31617620D01*
X29846917Y-31553726D01*
X29737089Y-31497553D01*
X29631385Y-31447825D01*
X29527135Y-31403269D01*
X29421671Y-31362611D01*
X29312325Y-31324576D01*
X29187845Y-31285686D01*
X29067459Y-31253592D01*
X28956325Y-31230376D01*
X28852105Y-31215630D01*
X28752459Y-31208946D01*
X28655049Y-31209917D01*
X28613030Y-31212217D01*
X28570604Y-31215088D01*
X28535200Y-31218041D01*
X28511728Y-31220705D01*
X28473805Y-31226431D01*
X28490618Y-31207504D01*
X28496378Y-31201385D01*
X28530136Y-31172722D01*
X28576679Y-31141065D01*
X28633269Y-31107860D01*
X28697169Y-31074552D01*
X28765640Y-31042587D01*
X28835946Y-31013411D01*
X28905348Y-30988470D01*
X28955912Y-30972684D01*
X29067305Y-30943746D01*
X29182833Y-30921943D01*
X29305443Y-30906871D01*
X29438084Y-30898125D01*
X29583703Y-30895299D01*
X29650260Y-30896002D01*
G37*
G36*
X34582814Y-29944973D02*
G01*
X34575071Y-29989697D01*
X34565572Y-30022317D01*
X34529733Y-30105590D01*
X34479977Y-30181936D01*
X34417959Y-30249718D01*
X34345336Y-30307299D01*
X34263765Y-30353042D01*
X34174899Y-30385310D01*
X34158685Y-30388943D01*
X34112257Y-30394577D01*
X34056756Y-30396698D01*
X33997293Y-30395485D01*
X33938979Y-30391120D01*
X33886922Y-30383785D01*
X33846233Y-30373660D01*
X33839585Y-30371328D01*
X33750406Y-30330842D01*
X33671047Y-30277028D01*
X33602572Y-30210904D01*
X33546049Y-30133487D01*
X33502543Y-30045794D01*
X33494502Y-30024503D01*
X33488017Y-30003029D01*
X33483817Y-29980510D01*
X33481400Y-29952994D01*
X33480266Y-29916529D01*
X33479947Y-29871613D01*
X33597182Y-29871613D01*
X33606899Y-29950552D01*
X33632268Y-30026511D01*
X33672645Y-30097648D01*
X33727385Y-30162121D01*
X33784581Y-30210538D01*
X33851444Y-30249240D01*
X33927397Y-30275824D01*
X33938145Y-30278420D01*
X34009677Y-30287188D01*
X34085265Y-30283739D01*
X34159122Y-30268714D01*
X34225464Y-30242756D01*
X34276048Y-30212190D01*
X34337262Y-30160565D01*
X34387984Y-30099749D01*
X34426970Y-30032025D01*
X34452977Y-29959674D01*
X34464762Y-29884978D01*
X34461083Y-29810220D01*
X34447833Y-29750895D01*
X34416751Y-29672186D01*
X34372532Y-29603149D01*
X34316172Y-29544753D01*
X34248664Y-29497967D01*
X34171005Y-29463759D01*
X34084188Y-29443098D01*
X34050185Y-29439540D01*
X33971334Y-29442603D01*
X33895284Y-29460543D01*
X33823890Y-29491974D01*
X33759011Y-29535511D01*
X33702505Y-29589768D01*
X33656229Y-29653358D01*
X33622040Y-29724897D01*
X33601797Y-29802997D01*
X33597182Y-29871613D01*
X33479947Y-29871613D01*
X33479915Y-29867164D01*
X33480655Y-29813786D01*
X33484864Y-29755252D01*
X33493830Y-29705709D01*
X33508728Y-29660819D01*
X33530733Y-29616244D01*
X33561019Y-29567644D01*
X33604355Y-29510936D01*
X33671227Y-29446858D01*
X33749317Y-29395108D01*
X33839200Y-29355247D01*
X33861259Y-29348429D01*
X33918807Y-29336706D01*
X33984001Y-29329698D01*
X34050976Y-29327682D01*
X34113867Y-29330937D01*
X34166807Y-29339740D01*
X34205759Y-29351433D01*
X34272056Y-29378117D01*
X34336124Y-29411351D01*
X34390655Y-29447612D01*
X34429366Y-29482073D01*
X34479479Y-29540652D01*
X34523061Y-29607653D01*
X34557069Y-29678218D01*
X34578462Y-29747489D01*
X34583450Y-29779497D01*
X34587097Y-29833125D01*
X34586878Y-29884978D01*
X34586854Y-29890533D01*
X34582814Y-29944973D01*
G37*
G36*
X35334554Y-30469719D02*
G01*
X35336699Y-30493504D01*
X35339467Y-30544495D01*
X35341298Y-30607374D01*
X35342228Y-30679063D01*
X35342292Y-30756488D01*
X35341525Y-30836570D01*
X35339963Y-30916235D01*
X35337642Y-30992406D01*
X35334597Y-31062006D01*
X35330863Y-31121958D01*
X35326477Y-31169188D01*
X35325781Y-31175048D01*
X35303244Y-31334830D01*
X35274726Y-31489208D01*
X35241238Y-31632692D01*
X35191945Y-31798825D01*
X35125356Y-31975406D01*
X35047251Y-32140668D01*
X34957891Y-32294278D01*
X34857538Y-32435905D01*
X34746453Y-32565217D01*
X34624899Y-32681882D01*
X34493137Y-32785567D01*
X34351430Y-32875941D01*
X34200040Y-32952672D01*
X34120473Y-32986489D01*
X33943108Y-33050091D01*
X33761995Y-33099541D01*
X33579898Y-33134148D01*
X33399584Y-33153217D01*
X33176866Y-33161193D01*
X32949312Y-33157592D01*
X32725780Y-33142303D01*
X32510500Y-33115507D01*
X32480353Y-33110804D01*
X32378603Y-33094279D01*
X32289356Y-33078473D01*
X32209257Y-33062593D01*
X32134951Y-33045847D01*
X32063083Y-33027441D01*
X31990299Y-33006584D01*
X31913244Y-32982481D01*
X31828564Y-32954340D01*
X31677865Y-32901369D01*
X31479954Y-32825850D01*
X31293451Y-32747574D01*
X31118961Y-32666890D01*
X30957089Y-32584145D01*
X30808439Y-32499688D01*
X30673616Y-32413869D01*
X30553225Y-32327035D01*
X30447870Y-32239537D01*
X30358156Y-32151722D01*
X30284687Y-32063939D01*
X30274913Y-32050341D01*
X30253838Y-32018486D01*
X30233280Y-31984569D01*
X30214996Y-31951813D01*
X30200744Y-31923442D01*
X30192281Y-31902680D01*
X30191364Y-31892748D01*
X30191661Y-31892646D01*
X30201799Y-31896051D01*
X30224203Y-31906056D01*
X30256538Y-31921545D01*
X30296468Y-31941402D01*
X30341655Y-31964512D01*
X30440847Y-32015024D01*
X30574947Y-32080192D01*
X30706091Y-32139905D01*
X30836475Y-32194927D01*
X30968291Y-32246026D01*
X31103734Y-32293969D01*
X31244999Y-32339522D01*
X31394280Y-32383451D01*
X31553770Y-32426524D01*
X31725665Y-32469506D01*
X31912159Y-32513164D01*
X31919682Y-32514871D01*
X32054097Y-32543678D01*
X32183369Y-32567836D01*
X32314822Y-32588615D01*
X32455782Y-32607283D01*
X32502925Y-32612228D01*
X32577735Y-32617889D01*
X32662314Y-32622328D01*
X32753709Y-32625527D01*
X32848969Y-32627471D01*
X32945143Y-32628146D01*
X33039277Y-32627535D01*
X33128419Y-32625623D01*
X33209619Y-32622394D01*
X33279923Y-32617832D01*
X33336379Y-32611923D01*
X33476749Y-32589788D01*
X33669080Y-32548273D01*
X33849672Y-32495273D01*
X34019075Y-32430569D01*
X34177838Y-32353944D01*
X34326511Y-32265180D01*
X34465643Y-32164059D01*
X34507621Y-32128533D01*
X34557440Y-32082873D01*
X34610538Y-32031425D01*
X34663661Y-31977496D01*
X34713556Y-31924391D01*
X34756968Y-31875414D01*
X34790645Y-31833873D01*
X34804115Y-31815833D01*
X34908683Y-31660967D01*
X35003304Y-31493391D01*
X35087545Y-31314207D01*
X35160974Y-31124516D01*
X35223159Y-30925422D01*
X35273669Y-30718025D01*
X35312071Y-30503428D01*
X35327022Y-30402300D01*
X35334554Y-30469719D01*
G37*
G36*
X31250613Y-30188955D02*
G01*
X31568205Y-29758384D01*
X31885797Y-29327814D01*
X32017501Y-29327814D01*
X32017501Y-30398086D01*
X31891244Y-30398086D01*
X31889060Y-29968227D01*
X31886877Y-29538367D01*
X31254627Y-30393873D01*
X31124203Y-30398795D01*
X31124203Y-29327814D01*
X31250613Y-29327814D01*
X31250613Y-30188955D01*
G37*
G36*
X34855744Y-28521911D02*
G01*
X34918109Y-28526506D01*
X34935478Y-28528453D01*
X34986227Y-28535433D01*
X35043134Y-28544745D01*
X35103667Y-28555833D01*
X35165293Y-28568137D01*
X35225478Y-28581100D01*
X35281690Y-28594163D01*
X35331395Y-28606769D01*
X35372061Y-28618358D01*
X35401154Y-28628373D01*
X35416142Y-28636256D01*
X35415689Y-28637407D01*
X35403864Y-28641114D01*
X35379205Y-28645870D01*
X35344459Y-28651183D01*
X35302373Y-28656564D01*
X35286572Y-28658444D01*
X35221934Y-28666958D01*
X35173719Y-28674905D01*
X35141582Y-28682361D01*
X35125178Y-28689402D01*
X35124160Y-28696106D01*
X35126490Y-28697540D01*
X35142663Y-28702664D01*
X35169610Y-28708620D01*
X35202955Y-28714393D01*
X35216302Y-28716570D01*
X35246017Y-28722624D01*
X35266697Y-28728615D01*
X35274499Y-28733517D01*
X35269347Y-28737687D01*
X35250833Y-28745458D01*
X35222003Y-28755062D01*
X35186180Y-28765302D01*
X35157077Y-28773100D01*
X35123558Y-28782248D01*
X35098471Y-28789290D01*
X35085750Y-28793137D01*
X35077733Y-28797620D01*
X35080152Y-28803194D01*
X35096559Y-28809077D01*
X35127662Y-28815446D01*
X35174170Y-28822474D01*
X35236794Y-28830336D01*
X35395019Y-28851904D01*
X35583498Y-28886153D01*
X35759562Y-28928148D01*
X35922473Y-28977684D01*
X36071494Y-29034557D01*
X36205888Y-29098563D01*
X36216825Y-29104376D01*
X36300371Y-29148092D01*
X36375479Y-29185832D01*
X36445675Y-29219092D01*
X36514484Y-29249370D01*
X36585433Y-29278165D01*
X36662045Y-29306972D01*
X36747848Y-29337291D01*
X36846366Y-29370617D01*
X36940362Y-29401272D01*
X37138644Y-29461711D01*
X37336169Y-29516361D01*
X37531214Y-29564879D01*
X37722057Y-29606926D01*
X37906973Y-29642159D01*
X38084239Y-29670238D01*
X38252132Y-29690823D01*
X38408927Y-29703572D01*
X38552902Y-29708145D01*
X38650609Y-29706779D01*
X38741018Y-29701360D01*
X38819568Y-29691331D01*
X38888638Y-29676161D01*
X38950607Y-29655322D01*
X39007853Y-29628283D01*
X39062756Y-29594514D01*
X39100678Y-29568562D01*
X39072979Y-29603593D01*
X39026240Y-29655343D01*
X38951355Y-29717550D01*
X38863540Y-29771128D01*
X38763871Y-29815749D01*
X38653421Y-29851085D01*
X38533265Y-29876807D01*
X38404477Y-29892587D01*
X38268132Y-29898097D01*
X38125304Y-29893010D01*
X38117760Y-29892454D01*
X38059168Y-29887448D01*
X37998408Y-29881201D01*
X37939276Y-29874191D01*
X37885570Y-29866894D01*
X37841086Y-29859788D01*
X37809621Y-29853349D01*
X37799571Y-29851529D01*
X37789561Y-29854041D01*
X37791105Y-29863267D01*
X37802499Y-29877563D01*
X37822036Y-29895284D01*
X37848012Y-29914784D01*
X37878720Y-29934418D01*
X37912456Y-29952543D01*
X37941358Y-29965131D01*
X37997105Y-29984866D01*
X38062740Y-30004170D01*
X38134063Y-30022094D01*
X38206873Y-30037688D01*
X38276968Y-30050002D01*
X38340147Y-30058087D01*
X38392209Y-30060993D01*
X38400186Y-30061116D01*
X38418424Y-30063381D01*
X38421385Y-30068009D01*
X38410062Y-30074347D01*
X38385449Y-30081747D01*
X38348539Y-30089559D01*
X38291550Y-30098769D01*
X38159525Y-30112414D01*
X38017217Y-30117681D01*
X37867535Y-30114673D01*
X37713385Y-30103488D01*
X37557675Y-30084227D01*
X37403314Y-30056991D01*
X37398126Y-30055936D01*
X37359030Y-30048310D01*
X37326738Y-30042562D01*
X37304478Y-30039233D01*
X37295477Y-30038867D01*
X37295268Y-30040576D01*
X37303649Y-30050341D01*
X37323176Y-30066129D01*
X37351351Y-30086132D01*
X37385672Y-30108541D01*
X37423639Y-30131549D01*
X37478411Y-30160865D01*
X37571808Y-30202046D01*
X37674081Y-30238202D01*
X37780535Y-30267736D01*
X37886475Y-30289048D01*
X37919439Y-30295127D01*
X37938296Y-30300649D01*
X37941175Y-30305186D01*
X37928513Y-30308676D01*
X37900749Y-30311057D01*
X37858323Y-30312267D01*
X37801673Y-30312245D01*
X37731237Y-30310928D01*
X37672773Y-30308894D01*
X37542979Y-30300665D01*
X37416087Y-30287672D01*
X37294396Y-30270320D01*
X37180203Y-30249014D01*
X37075808Y-30224159D01*
X36983508Y-30196161D01*
X36905602Y-30165423D01*
X36883291Y-30154888D01*
X36859625Y-30141982D01*
X36838773Y-30127354D01*
X36817324Y-30108205D01*
X36791867Y-30081737D01*
X36758992Y-30045152D01*
X36732018Y-30015083D01*
X36667341Y-29946570D01*
X36603411Y-29884696D01*
X36537009Y-29826738D01*
X36464916Y-29769975D01*
X36383915Y-29711684D01*
X36290787Y-29649142D01*
X36283670Y-29644511D01*
X36161197Y-29570946D01*
X36026360Y-29500263D01*
X35883362Y-29434287D01*
X35736405Y-29374843D01*
X35589693Y-29323756D01*
X35447428Y-29282853D01*
X35415835Y-29274885D01*
X35372546Y-29264380D01*
X35342061Y-29257901D01*
X35322181Y-29255214D01*
X35310704Y-29256083D01*
X35305432Y-29260275D01*
X35304163Y-29267553D01*
X35306230Y-29279379D01*
X35312941Y-29305869D01*
X35323690Y-29344459D01*
X35337848Y-29393093D01*
X35354787Y-29449711D01*
X35373878Y-29512257D01*
X35394493Y-29578673D01*
X35416004Y-29646901D01*
X35437780Y-29714884D01*
X35459195Y-29780563D01*
X35479618Y-29841882D01*
X35511243Y-29934141D01*
X35587998Y-30145886D01*
X35665328Y-30342158D01*
X35743137Y-30522760D01*
X35821327Y-30687495D01*
X35899802Y-30836165D01*
X35978466Y-30968573D01*
X36057222Y-31084521D01*
X36135974Y-31183813D01*
X36141368Y-31190157D01*
X36161331Y-31215906D01*
X36175329Y-31237612D01*
X36180606Y-31251123D01*
X36178218Y-31263186D01*
X36171246Y-31288656D01*
X36160534Y-31324527D01*
X36146928Y-31367967D01*
X36131274Y-31416145D01*
X36088386Y-31538269D01*
X36003521Y-31746532D01*
X35906105Y-31949331D01*
X35797431Y-32144242D01*
X35678796Y-32328842D01*
X35551496Y-32500708D01*
X35523654Y-32534419D01*
X35474270Y-32590439D01*
X35417550Y-32651403D01*
X35356486Y-32714305D01*
X35294071Y-32776141D01*
X35233299Y-32833905D01*
X35177163Y-32884593D01*
X35128656Y-32925200D01*
X35061585Y-32976527D01*
X34892936Y-33091136D01*
X34717584Y-33190327D01*
X34535427Y-33274140D01*
X34346361Y-33342614D01*
X34150283Y-33395788D01*
X33947089Y-33433703D01*
X33736678Y-33456396D01*
X33552457Y-33463154D01*
X33343709Y-33456970D01*
X33127564Y-33436751D01*
X32904864Y-33402605D01*
X32676455Y-33354637D01*
X32443182Y-33292956D01*
X32409805Y-33283211D01*
X32369239Y-33271266D01*
X32336775Y-33261586D01*
X32315109Y-33254977D01*
X32306938Y-33252246D01*
X32309159Y-33252043D01*
X32325185Y-33251692D01*
X32354997Y-33251380D01*
X32396604Y-33251117D01*
X32448017Y-33250916D01*
X32507245Y-33250786D01*
X32572299Y-33250741D01*
X32647685Y-33250458D01*
X32738597Y-33248994D01*
X32819361Y-33245984D01*
X32893827Y-33241096D01*
X32965848Y-33233998D01*
X33039275Y-33224357D01*
X33117960Y-33211842D01*
X33205755Y-33196119D01*
X33244796Y-33189659D01*
X33298438Y-33182272D01*
X33355256Y-33175660D01*
X33408012Y-33170733D01*
X33514528Y-33160006D01*
X33692627Y-33131314D01*
X33866164Y-33089937D01*
X34033525Y-33036490D01*
X34193093Y-32971585D01*
X34343256Y-32895838D01*
X34482399Y-32809861D01*
X34608907Y-32714268D01*
X34721731Y-32611346D01*
X34839216Y-32482771D01*
X34944923Y-32342153D01*
X35038848Y-32189505D01*
X35120983Y-32024840D01*
X35191324Y-31848170D01*
X35249864Y-31659510D01*
X35296599Y-31458871D01*
X35331522Y-31246266D01*
X35354627Y-31021710D01*
X35357835Y-30971445D01*
X35361651Y-30870164D01*
X35362718Y-30762965D01*
X35361129Y-30654374D01*
X35356974Y-30548912D01*
X35350346Y-30451102D01*
X35341335Y-30365467D01*
X35340162Y-30357329D01*
X35335688Y-30339222D01*
X35330399Y-30336329D01*
X35324180Y-30348966D01*
X35316916Y-30377451D01*
X35308495Y-30422099D01*
X35298800Y-30483228D01*
X35293815Y-30516206D01*
X35287277Y-30558090D01*
X35281777Y-30591754D01*
X35277777Y-30614379D01*
X35275743Y-30623145D01*
X35275574Y-30623228D01*
X35266789Y-30619581D01*
X35248054Y-30608912D01*
X35223129Y-30593349D01*
X35216454Y-30588939D01*
X35155164Y-30538030D01*
X35101944Y-30473277D01*
X35056120Y-30393873D01*
X35037218Y-30352868D01*
X35004553Y-30268272D01*
X34977679Y-30177075D01*
X34956206Y-30077315D01*
X34939748Y-29967031D01*
X34927916Y-29844261D01*
X34920323Y-29707045D01*
X34918949Y-29676084D01*
X34913137Y-29596173D01*
X34904014Y-29527910D01*
X34890817Y-29467539D01*
X34872789Y-29411304D01*
X34849168Y-29355452D01*
X34842541Y-29341600D01*
X34797962Y-29262039D01*
X34744908Y-29190292D01*
X34679353Y-29120798D01*
X34662662Y-29104978D01*
X34618353Y-29065843D01*
X34576177Y-29034140D01*
X34530096Y-29005609D01*
X34474070Y-28975991D01*
X34459492Y-28968862D01*
X34358870Y-28927661D01*
X34247045Y-28894088D01*
X34127697Y-28868943D01*
X34004507Y-28853025D01*
X33881157Y-28847135D01*
X33816738Y-28846814D01*
X33862140Y-28804473D01*
X33937658Y-28742222D01*
X34037331Y-28678534D01*
X34149559Y-28623839D01*
X34273084Y-28578741D01*
X34406651Y-28543840D01*
X34429164Y-28539593D01*
X34486471Y-28531938D01*
X34554635Y-28525985D01*
X34629649Y-28521870D01*
X34707509Y-28519729D01*
X34784209Y-28519698D01*
X34855744Y-28521911D01*
G37*
G36*
X27973694Y-30121337D02*
G01*
X28004578Y-30189619D01*
X28031525Y-30249241D01*
X28053931Y-30298864D01*
X28071189Y-30337151D01*
X28082696Y-30362764D01*
X28087847Y-30374365D01*
X28093325Y-30388884D01*
X28091700Y-30396552D01*
X28079420Y-30397941D01*
X28074749Y-30397157D01*
X28067322Y-30392236D01*
X28058581Y-30381158D01*
X28047476Y-30362050D01*
X28032953Y-30333040D01*
X28013960Y-30292255D01*
X27989445Y-30237822D01*
X27918026Y-30077848D01*
X27276830Y-30077848D01*
X27205146Y-30235860D01*
X27197885Y-30251828D01*
X27174321Y-30302823D01*
X27156019Y-30340619D01*
X27141944Y-30367054D01*
X27131064Y-30383965D01*
X27122346Y-30393187D01*
X27114756Y-30396558D01*
X27110388Y-30397091D01*
X27100337Y-30394958D01*
X27102313Y-30383068D01*
X27103842Y-30379485D01*
X27111762Y-30361657D01*
X27125760Y-30330473D01*
X27145249Y-30287233D01*
X27169639Y-30233238D01*
X27198344Y-30169789D01*
X27230775Y-30098186D01*
X27258165Y-30037768D01*
X27298191Y-30037768D01*
X27305217Y-30039138D01*
X27327297Y-30040498D01*
X27362582Y-30041701D01*
X27409179Y-30042707D01*
X27465197Y-30043475D01*
X27528745Y-30043966D01*
X27597929Y-30044138D01*
X27656174Y-30044119D01*
X27724085Y-30043990D01*
X27777877Y-30043668D01*
X27819145Y-30043074D01*
X27849480Y-30042127D01*
X27870477Y-30040748D01*
X27883730Y-30038855D01*
X27890832Y-30036369D01*
X27893377Y-30033210D01*
X27892958Y-30029298D01*
X27891519Y-30025352D01*
X27883662Y-30006443D01*
X27870284Y-29975712D01*
X27852273Y-29935101D01*
X27830516Y-29886554D01*
X27805903Y-29832011D01*
X27779321Y-29773417D01*
X27751657Y-29712712D01*
X27723802Y-29651840D01*
X27696641Y-29592743D01*
X27671064Y-29537364D01*
X27647959Y-29487644D01*
X27628214Y-29445527D01*
X27612716Y-29412955D01*
X27602354Y-29391870D01*
X27598017Y-29384214D01*
X27594776Y-29389257D01*
X27585297Y-29407822D01*
X27570533Y-29438223D01*
X27551366Y-29478543D01*
X27528675Y-29526862D01*
X27503340Y-29581263D01*
X27476242Y-29639828D01*
X27448260Y-29700638D01*
X27420274Y-29761776D01*
X27393165Y-29821322D01*
X27367812Y-29877359D01*
X27345095Y-29927969D01*
X27325894Y-29971232D01*
X27311090Y-30005232D01*
X27301562Y-30028050D01*
X27298191Y-30037768D01*
X27258165Y-30037768D01*
X27266343Y-30019728D01*
X27304461Y-29935718D01*
X27344541Y-29847455D01*
X27377738Y-29774445D01*
X27420666Y-29680314D01*
X27457542Y-29599890D01*
X27488854Y-29532172D01*
X27515087Y-29476162D01*
X27536727Y-29430860D01*
X27554262Y-29395268D01*
X27568176Y-29368386D01*
X27578957Y-29349215D01*
X27587091Y-29336756D01*
X27593064Y-29330010D01*
X27597361Y-29327978D01*
X27599845Y-29328707D01*
X27605111Y-29333464D01*
X27612326Y-29343526D01*
X27621982Y-29359900D01*
X27634569Y-29383598D01*
X27650578Y-29415627D01*
X27670499Y-29456997D01*
X27694823Y-29508718D01*
X27724042Y-29571798D01*
X27758645Y-29647247D01*
X27799123Y-29736075D01*
X27845968Y-29839290D01*
X27863467Y-29877905D01*
X27902534Y-29964142D01*
X27933808Y-30033210D01*
X27939478Y-30045732D01*
X27973694Y-30121337D01*
G37*
G36*
X28512754Y-29327829D02*
G01*
X28572779Y-29328043D01*
X28618489Y-29328602D01*
X28651737Y-29329617D01*
X28674373Y-29331198D01*
X28688250Y-29333458D01*
X28695218Y-29336507D01*
X28697129Y-29340455D01*
X28697125Y-29340675D01*
X28694959Y-29344724D01*
X28687496Y-29347806D01*
X28672808Y-29350045D01*
X28648970Y-29351569D01*
X28614057Y-29352501D01*
X28566142Y-29352969D01*
X28503300Y-29353096D01*
X28309471Y-29353096D01*
X28309471Y-29755838D01*
X28309472Y-29766241D01*
X28309568Y-29865779D01*
X28309925Y-29950127D01*
X28310681Y-30020804D01*
X28311974Y-30079328D01*
X28313942Y-30127219D01*
X28316723Y-30165994D01*
X28320456Y-30197174D01*
X28325277Y-30222276D01*
X28331326Y-30242819D01*
X28338740Y-30260322D01*
X28347657Y-30276305D01*
X28358215Y-30292284D01*
X28377805Y-30315886D01*
X28418449Y-30345439D01*
X28469726Y-30362871D01*
X28532571Y-30368591D01*
X28583709Y-30364993D01*
X28640070Y-30349344D01*
X28690320Y-30319887D01*
X28737793Y-30275104D01*
X28755459Y-30255878D01*
X28771382Y-30241187D01*
X28781565Y-30236716D01*
X28788607Y-30240707D01*
X28792363Y-30248517D01*
X28788891Y-30261841D01*
X28774484Y-30282419D01*
X28736834Y-30322684D01*
X28681456Y-30363586D01*
X28621338Y-30390212D01*
X28617796Y-30391092D01*
X28595992Y-30394014D01*
X28564405Y-30396181D01*
X28528582Y-30397177D01*
X28491766Y-30395947D01*
X28432557Y-30385205D01*
X28384142Y-30362713D01*
X28344906Y-30327587D01*
X28313235Y-30278940D01*
X28309794Y-30271988D01*
X28302207Y-30254397D01*
X28295827Y-30234984D01*
X28290552Y-30212244D01*
X28286279Y-30184676D01*
X28282906Y-30150775D01*
X28280330Y-30109038D01*
X28278450Y-30057964D01*
X28277161Y-29996047D01*
X28276363Y-29921787D01*
X28275952Y-29833679D01*
X28275826Y-29730220D01*
X28275762Y-29327814D01*
X28486446Y-29327814D01*
X28512754Y-29327829D01*
G37*
G36*
X35338155Y-29273414D02*
G01*
X35365888Y-29278348D01*
X35403998Y-29287113D01*
X35450005Y-29299074D01*
X35501428Y-29313594D01*
X35555788Y-29330036D01*
X35610603Y-29347765D01*
X35663141Y-29365895D01*
X35821332Y-29426890D01*
X35975578Y-29495790D01*
X36123728Y-29571377D01*
X36263633Y-29652430D01*
X36393142Y-29737730D01*
X36510107Y-29826057D01*
X36612377Y-29916190D01*
X36624958Y-29928358D01*
X36645452Y-29948550D01*
X36666115Y-29969519D01*
X36688309Y-29992755D01*
X36713400Y-30019749D01*
X36742752Y-30051992D01*
X36777729Y-30090972D01*
X36819694Y-30138182D01*
X36870013Y-30195111D01*
X36930048Y-30263249D01*
X36934114Y-30267874D01*
X36986889Y-30329035D01*
X37040690Y-30393607D01*
X37097636Y-30464216D01*
X37159849Y-30543489D01*
X37229449Y-30634052D01*
X37247727Y-30657959D01*
X37315639Y-30745188D01*
X37378728Y-30823171D01*
X37440412Y-30895858D01*
X37504104Y-30967196D01*
X37573221Y-31041135D01*
X37651177Y-31121623D01*
X37728034Y-31198571D01*
X37847745Y-31313391D01*
X37968171Y-31423104D01*
X38087258Y-31525955D01*
X38202954Y-31620186D01*
X38313205Y-31704042D01*
X38415958Y-31775767D01*
X38416786Y-31776316D01*
X38440811Y-31793092D01*
X38457905Y-31806609D01*
X38464415Y-31813985D01*
X38461426Y-31816145D01*
X38445046Y-31815798D01*
X38416466Y-31811235D01*
X38378057Y-31803048D01*
X38332189Y-31791828D01*
X38281233Y-31778167D01*
X38227561Y-31762657D01*
X38173543Y-31745888D01*
X38121550Y-31728453D01*
X38009035Y-31686428D01*
X37809117Y-31598827D01*
X37611998Y-31496068D01*
X37419415Y-31379237D01*
X37233103Y-31249421D01*
X37054800Y-31107707D01*
X36886242Y-30955182D01*
X36870045Y-30939663D01*
X36840058Y-30911655D01*
X36815501Y-30889681D01*
X36798566Y-30875675D01*
X36791442Y-30871568D01*
X36792384Y-30876490D01*
X36799448Y-30894397D01*
X36812129Y-30922886D01*
X36829274Y-30959388D01*
X36849729Y-31001335D01*
X36903790Y-31104538D01*
X36972865Y-31219694D01*
X37046532Y-31323981D01*
X37127165Y-31420707D01*
X37217141Y-31513182D01*
X37236464Y-31531932D01*
X37265614Y-31561244D01*
X37288262Y-31585356D01*
X37302468Y-31602169D01*
X37306290Y-31609584D01*
X37303400Y-31610754D01*
X37286479Y-31608763D01*
X37257561Y-31600300D01*
X37218824Y-31586192D01*
X37172445Y-31567265D01*
X37120603Y-31544344D01*
X37065477Y-31518257D01*
X37029924Y-31500559D01*
X36865279Y-31409306D01*
X36714337Y-31309183D01*
X36576078Y-31199321D01*
X36449483Y-31078850D01*
X36333533Y-30946899D01*
X36227210Y-30802599D01*
X36214578Y-30783927D01*
X36197285Y-30758902D01*
X36187091Y-30745884D01*
X36182476Y-30743590D01*
X36181921Y-30750738D01*
X36183908Y-30766045D01*
X36190582Y-30802162D01*
X36205515Y-30862051D01*
X36225992Y-30930756D01*
X36250750Y-31004717D01*
X36278522Y-31080375D01*
X36308043Y-31154170D01*
X36338048Y-31222542D01*
X36367272Y-31281931D01*
X36375454Y-31297402D01*
X36390872Y-31327620D01*
X36397799Y-31345825D01*
X36394977Y-31352799D01*
X36381148Y-31349323D01*
X36355056Y-31336179D01*
X36315444Y-31314150D01*
X36271314Y-31285982D01*
X36203120Y-31229421D01*
X36133790Y-31156586D01*
X36063498Y-31067791D01*
X35992416Y-30963350D01*
X35920720Y-30843577D01*
X35848584Y-30708785D01*
X35776181Y-30559290D01*
X35703686Y-30395404D01*
X35631273Y-30217442D01*
X35559115Y-30025718D01*
X35487387Y-29820545D01*
X35468316Y-29763327D01*
X35447084Y-29698222D01*
X35425728Y-29631466D01*
X35404843Y-29565025D01*
X35385024Y-29500861D01*
X35366865Y-29440938D01*
X35350961Y-29387221D01*
X35337906Y-29341671D01*
X35328296Y-29306255D01*
X35322724Y-29282934D01*
X35321786Y-29273672D01*
X35323278Y-29272948D01*
X35338155Y-29273414D01*
G37*
G36*
X33247892Y-30398086D02*
G01*
X32657978Y-30398086D01*
X32657978Y-30280104D01*
X33129909Y-30280104D01*
X33129909Y-29327814D01*
X33247892Y-29327814D01*
X33247892Y-30398086D01*
G37*
G36*
X30515327Y-30397792D02*
G01*
X30426646Y-30397380D01*
X30352397Y-30396203D01*
X30290978Y-30394026D01*
X30240375Y-30390616D01*
X30198576Y-30385736D01*
X30163568Y-30379151D01*
X30133338Y-30370626D01*
X30105873Y-30359925D01*
X30079160Y-30346815D01*
X30037721Y-30320681D01*
X29998056Y-30282270D01*
X29971157Y-30235815D01*
X29955980Y-30179386D01*
X29952696Y-30129510D01*
X29980064Y-30129510D01*
X29989609Y-30188627D01*
X30011650Y-30241981D01*
X30045399Y-30286034D01*
X30059435Y-30298737D01*
X30090032Y-30319870D01*
X30127390Y-30336616D01*
X30176551Y-30351492D01*
X30176757Y-30351546D01*
X30195374Y-30355451D01*
X30218996Y-30358526D01*
X30249597Y-30360855D01*
X30289151Y-30362521D01*
X30339634Y-30363608D01*
X30403019Y-30364199D01*
X30481282Y-30364377D01*
X30736545Y-30364377D01*
X30736545Y-29865572D01*
X30468977Y-29868995D01*
X30446770Y-29869282D01*
X30376351Y-29870273D01*
X30320064Y-29871304D01*
X30275778Y-29872531D01*
X30241358Y-29874109D01*
X30214673Y-29876192D01*
X30193589Y-29878935D01*
X30175973Y-29882493D01*
X30159693Y-29887020D01*
X30142617Y-29892671D01*
X30103050Y-29909221D01*
X30051707Y-29943242D01*
X30014059Y-29986718D01*
X29990447Y-30039319D01*
X29983803Y-30068167D01*
X29980064Y-30129510D01*
X29952696Y-30129510D01*
X29951481Y-30111056D01*
X29953329Y-30076751D01*
X29967341Y-30013211D01*
X29995050Y-29959479D01*
X30036409Y-29915612D01*
X30091372Y-29881667D01*
X30159891Y-29857702D01*
X30200499Y-29847477D01*
X30170371Y-29837046D01*
X30141778Y-29825173D01*
X30090020Y-29791151D01*
X30049449Y-29746107D01*
X30021266Y-29692038D01*
X30006672Y-29630944D01*
X30006704Y-29619867D01*
X30037972Y-29619867D01*
X30045810Y-29669390D01*
X30065900Y-29712748D01*
X30099785Y-29754420D01*
X30105578Y-29760276D01*
X30134211Y-29785523D01*
X30163471Y-29802860D01*
X30201409Y-29817265D01*
X30208007Y-29819373D01*
X30226225Y-29824631D01*
X30244937Y-29828764D01*
X30266481Y-29831950D01*
X30293193Y-29834369D01*
X30327412Y-29836198D01*
X30371473Y-29837615D01*
X30427714Y-29838799D01*
X30498473Y-29839928D01*
X30736545Y-29843438D01*
X30736545Y-29351211D01*
X30498473Y-29355115D01*
X30493150Y-29355203D01*
X30422925Y-29356474D01*
X30367093Y-29357815D01*
X30323350Y-29359397D01*
X30289389Y-29361392D01*
X30262906Y-29363970D01*
X30241595Y-29367304D01*
X30223152Y-29371565D01*
X30205270Y-29376923D01*
X30171613Y-29389919D01*
X30118060Y-29422371D01*
X30077891Y-29464822D01*
X30051437Y-29516871D01*
X30039029Y-29578117D01*
X30037972Y-29619867D01*
X30006704Y-29619867D01*
X30006866Y-29564822D01*
X30006881Y-29564696D01*
X30021804Y-29500433D01*
X30050272Y-29446197D01*
X30092351Y-29401895D01*
X30148110Y-29367433D01*
X30158964Y-29362478D01*
X30184256Y-29352538D01*
X30211325Y-29344644D01*
X30242324Y-29338575D01*
X30279406Y-29334108D01*
X30324724Y-29331021D01*
X30380431Y-29329091D01*
X30448680Y-29328097D01*
X30531623Y-29327814D01*
X30770254Y-29327814D01*
X30770254Y-30398086D01*
X30515327Y-30397792D01*
G37*
G36*
X29721642Y-30138585D02*
G01*
X29752009Y-30205837D01*
X29778315Y-30264235D01*
X29799975Y-30312480D01*
X29816404Y-30349278D01*
X29827018Y-30373329D01*
X29831231Y-30383339D01*
X29831559Y-30394014D01*
X29819600Y-30398086D01*
X29819412Y-30398084D01*
X29812327Y-30394986D01*
X29803471Y-30384864D01*
X29791892Y-30366015D01*
X29776640Y-30336735D01*
X29756762Y-30295322D01*
X29731306Y-30240074D01*
X29659367Y-30082061D01*
X29015846Y-30082061D01*
X28943907Y-30240074D01*
X28943083Y-30241885D01*
X28917802Y-30296709D01*
X28898071Y-30337746D01*
X28882939Y-30366699D01*
X28871452Y-30385272D01*
X28862661Y-30395167D01*
X28855613Y-30398086D01*
X28844659Y-30395293D01*
X28844017Y-30383339D01*
X28845376Y-30379964D01*
X28852992Y-30362486D01*
X28866697Y-30331637D01*
X28885909Y-30288716D01*
X28910043Y-30235019D01*
X28938513Y-30171845D01*
X28970737Y-30100489D01*
X29001474Y-30032543D01*
X29039874Y-30032543D01*
X29041441Y-30035857D01*
X29047191Y-30038472D01*
X29058708Y-30040470D01*
X29077575Y-30041935D01*
X29105376Y-30042948D01*
X29143696Y-30043593D01*
X29194118Y-30043951D01*
X29258227Y-30044105D01*
X29337607Y-30044138D01*
X29415660Y-30044108D01*
X29480028Y-30043960D01*
X29530682Y-30043610D01*
X29569207Y-30042977D01*
X29597187Y-30041976D01*
X29616209Y-30040524D01*
X29627856Y-30038539D01*
X29633713Y-30035935D01*
X29635366Y-30032632D01*
X29634399Y-30028544D01*
X29632959Y-30024953D01*
X29624237Y-30004528D01*
X29610141Y-29972528D01*
X29591547Y-29930876D01*
X29569337Y-29881497D01*
X29544387Y-29826315D01*
X29517578Y-29767255D01*
X29489787Y-29706240D01*
X29461894Y-29645195D01*
X29434778Y-29586045D01*
X29409318Y-29530714D01*
X29386391Y-29481125D01*
X29366878Y-29439204D01*
X29351657Y-29406875D01*
X29341607Y-29386062D01*
X29337607Y-29378689D01*
X29337173Y-29379244D01*
X29331455Y-29390428D01*
X29319926Y-29414533D01*
X29303464Y-29449637D01*
X29282948Y-29493814D01*
X29259256Y-29545144D01*
X29233265Y-29601702D01*
X29205854Y-29661565D01*
X29177900Y-29722810D01*
X29150283Y-29783513D01*
X29123880Y-29841753D01*
X29099570Y-29895605D01*
X29078230Y-29943147D01*
X29060739Y-29982454D01*
X29047974Y-30011605D01*
X29040815Y-30028676D01*
X29039874Y-30032543D01*
X29001474Y-30032543D01*
X29006130Y-30022250D01*
X29044108Y-29938424D01*
X29084085Y-29850309D01*
X29094487Y-29827404D01*
X29139970Y-29727397D01*
X29179177Y-29641520D01*
X29212614Y-29568736D01*
X29240786Y-29508010D01*
X29264201Y-29458307D01*
X29283364Y-29418591D01*
X29298781Y-29387826D01*
X29310959Y-29364977D01*
X29320403Y-29349009D01*
X29327621Y-29338885D01*
X29333117Y-29333570D01*
X29337399Y-29332028D01*
X29338217Y-29332089D01*
X29342712Y-29334335D01*
X29348531Y-29340574D01*
X29356181Y-29351841D01*
X29366167Y-29369171D01*
X29378997Y-29393600D01*
X29395176Y-29426162D01*
X29415211Y-29467892D01*
X29439609Y-29519827D01*
X29468876Y-29583001D01*
X29503518Y-29658449D01*
X29544042Y-29747207D01*
X29590954Y-29850309D01*
X29612017Y-29896671D01*
X29651061Y-29982705D01*
X29673685Y-30032632D01*
X29687798Y-30063776D01*
X29721642Y-30138585D01*
G37*
D11*
%TO.C,GND*%
X21450000Y-32500000D02*
G75*
G03*
X21450000Y-32500000I-950000J0D01*
G01*
%TO.C,VCC*%
X23950000Y-32500000D02*
G75*
G03*
X23950000Y-32500000I-950000J0D01*
G01*
%TO.C,SO*%
X24950000Y-25000000D02*
G75*
G03*
X24950000Y-25000000I-950000J0D01*
G01*
%TO.C,CS*%
X24950000Y-27500000D02*
G75*
G03*
X24950000Y-27500000I-950000J0D01*
G01*
%TO.C,SI*%
X24950000Y-22500000D02*
G75*
G03*
X24950000Y-22500000I-950000J0D01*
G01*
%TO.C,SCK*%
X24950000Y-20000000D02*
G75*
G03*
X24950000Y-20000000I-950000J0D01*
G01*
%TO.C,OSC+*%
X31684000Y-18923000D02*
G75*
G03*
X31684000Y-18923000I-950000J0D01*
G01*
%TO.C,OSC-*%
X31709400Y-21082000D02*
G75*
G03*
X31709400Y-21082000I-950000J0D01*
G01*
%TO.C,INT*%
X24950000Y-17500000D02*
G75*
G03*
X24950000Y-17500000I-950000J0D01*
G01*
%TO.C,RXCAN*%
X31709400Y-23215600D02*
G75*
G03*
X31709400Y-23215600I-950000J0D01*
G01*
%TO.C,TXCAN*%
X31734800Y-25527000D02*
G75*
G03*
X31734800Y-25527000I-950000J0D01*
G01*
%TO.C,CANH*%
X38050000Y-15000000D02*
G75*
G03*
X38050000Y-15000000I-950000J0D01*
G01*
%TO.C,CANL*%
X37950000Y-17600000D02*
G75*
G03*
X37950000Y-17600000I-950000J0D01*
G01*
%TD*%
M02*
