%TF.GenerationSoftware,KiCad,Pcbnew,(6.0.7)*%
%TF.CreationDate,2022-10-19T11:36:30-04:00*%
%TF.ProjectId,SPItoCAN,53504974-6f43-4414-9e2e-6b696361645f,rev?*%
%TF.SameCoordinates,Original*%
%TF.FileFunction,Copper,L1,Top*%
%TF.FilePolarity,Positive*%
%FSLAX46Y46*%
G04 Gerber Fmt 4.6, Leading zero omitted, Abs format (unit mm)*
G04 Created by KiCad (PCBNEW (6.0.7)) date 2022-10-19 11:36:30*
%MOMM*%
%LPD*%
G01*
G04 APERTURE LIST*
G04 Aperture macros list*
%AMRoundRect*
0 Rectangle with rounded corners*
0 $1 Rounding radius*
0 $2 $3 $4 $5 $6 $7 $8 $9 X,Y pos of 4 corners*
0 Add a 4 corners polygon primitive as box body*
4,1,4,$2,$3,$4,$5,$6,$7,$8,$9,$2,$3,0*
0 Add four circle primitives for the rounded corners*
1,1,$1+$1,$2,$3*
1,1,$1+$1,$4,$5*
1,1,$1+$1,$6,$7*
1,1,$1+$1,$8,$9*
0 Add four rect primitives between the rounded corners*
20,1,$1+$1,$2,$3,$4,$5,0*
20,1,$1+$1,$4,$5,$6,$7,0*
20,1,$1+$1,$6,$7,$8,$9,0*
20,1,$1+$1,$8,$9,$2,$3,0*%
G04 Aperture macros list end*
%TA.AperFunction,SMDPad,CuDef*%
%ADD10R,2.400000X1.900000*%
%TD*%
%TA.AperFunction,SMDPad,CuDef*%
%ADD11RoundRect,0.150000X0.875000X0.150000X-0.875000X0.150000X-0.875000X-0.150000X0.875000X-0.150000X0*%
%TD*%
%TA.AperFunction,SMDPad,CuDef*%
%ADD12RoundRect,0.150000X-0.150000X0.825000X-0.150000X-0.825000X0.150000X-0.825000X0.150000X0.825000X0*%
%TD*%
%TA.AperFunction,SMDPad,CuDef*%
%ADD13R,0.700000X1.300000*%
%TD*%
%TA.AperFunction,SMDPad,CuDef*%
%ADD14R,1.300000X0.700000*%
%TD*%
%TA.AperFunction,ComponentPad*%
%ADD15R,1.700000X1.700000*%
%TD*%
%TA.AperFunction,ComponentPad*%
%ADD16O,1.700000X1.700000*%
%TD*%
%TA.AperFunction,SMDPad,CuDef*%
%ADD17R,1.200000X1.200000*%
%TD*%
%TA.AperFunction,SMDPad,CuDef*%
%ADD18R,1.000000X1.250000*%
%TD*%
%TA.AperFunction,SMDPad,CuDef*%
%ADD19R,1.250000X1.000000*%
%TD*%
%TA.AperFunction,SMDPad,CuDef*%
%ADD20RoundRect,0.218750X0.256250X-0.218750X0.256250X0.218750X-0.256250X0.218750X-0.256250X-0.218750X0*%
%TD*%
%TA.AperFunction,SMDPad,CuDef*%
%ADD21RoundRect,0.218750X-0.256250X0.218750X-0.256250X-0.218750X0.256250X-0.218750X0.256250X0.218750X0*%
%TD*%
%TA.AperFunction,ViaPad*%
%ADD22C,0.800000*%
%TD*%
%TA.AperFunction,Conductor*%
%ADD23C,0.250000*%
%TD*%
%TA.AperFunction,Conductor*%
%ADD24C,0.200000*%
%TD*%
G04 APERTURE END LIST*
D10*
%TO.P,Y1,1,1*%
%TO.N,/OSC+*%
X33000000Y-15575000D03*
%TO.P,Y1,2,2*%
%TO.N,/OSC-*%
X33000000Y-20625000D03*
%TD*%
D11*
%TO.P,U2,18,VDD*%
%TO.N,GND*%
X20050000Y-26380000D03*
%TO.P,U2,17,~{RESET}*%
%TO.N,Net-(R1-Pad1)*%
X20050000Y-25110000D03*
%TO.P,U2,16,~{CS}*%
%TO.N,/CS*%
X20050000Y-23840000D03*
%TO.P,U2,15,SO*%
%TO.N,/SO*%
X20050000Y-22570000D03*
%TO.P,U2,14,SI*%
%TO.N,/SI*%
X20050000Y-21300000D03*
%TO.P,U2,13,SCK*%
%TO.N,/SCK*%
X20050000Y-20030000D03*
%TO.P,U2,12,~{INT}*%
%TO.N,/INT*%
X20050000Y-18760000D03*
%TO.P,U2,11,~{RX0BF}*%
%TO.N,unconnected-(U2-Pad11)*%
X20050000Y-17490000D03*
%TO.P,U2,10,~{RX1BF}*%
%TO.N,unconnected-(U2-Pad10)*%
X20050000Y-16220000D03*
%TO.P,U2,9,VSS*%
%TO.N,VCC*%
X29350000Y-16220000D03*
%TO.P,U2,8,OSC1*%
%TO.N,/OSC+*%
X29350000Y-17490000D03*
%TO.P,U2,7,OSC2*%
%TO.N,/OSC-*%
X29350000Y-18760000D03*
%TO.P,U2,6,~{TX2RTS}*%
%TO.N,unconnected-(U2-Pad6)*%
X29350000Y-20030000D03*
%TO.P,U2,5,~{TX1RTS}*%
%TO.N,unconnected-(U2-Pad5)*%
X29350000Y-21300000D03*
%TO.P,U2,4,~{TX0RTS}*%
%TO.N,unconnected-(U2-Pad4)*%
X29350000Y-22570000D03*
%TO.P,U2,3,CLKOUT/SOF*%
%TO.N,unconnected-(U2-Pad3)*%
X29350000Y-23840000D03*
%TO.P,U2,2,RXCAN*%
%TO.N,/RXCAN*%
X29350000Y-25110000D03*
%TO.P,U2,1,TXCAN*%
%TO.N,/TXCAN*%
X29350000Y-26380000D03*
%TD*%
D12*
%TO.P,U1,1,TXD*%
%TO.N,/TXCAN*%
X35905000Y-27450000D03*
%TO.P,U1,2,GND*%
%TO.N,GND*%
X34635000Y-27450000D03*
%TO.P,U1,3,VCC*%
%TO.N,VCC*%
X33365000Y-27450000D03*
%TO.P,U1,4,RXD*%
%TO.N,/RXCAN*%
X32095000Y-27450000D03*
%TO.P,U1,5,EN*%
%TO.N,unconnected-(U1-Pad5)*%
X32095000Y-32400000D03*
%TO.P,U1,6,CANL*%
%TO.N,/CANL*%
X33365000Y-32400000D03*
%TO.P,U1,7,CANH*%
%TO.N,/CANH*%
X34635000Y-32400000D03*
%TO.P,U1,8,S*%
%TO.N,VCC*%
X35905000Y-32400000D03*
%TD*%
D13*
%TO.P,R3,2*%
%TO.N,Net-(D1-Pad2)*%
X26310000Y-30000000D03*
%TO.P,R3,1*%
%TO.N,VCC*%
X24410000Y-30000000D03*
%TD*%
D14*
%TO.P,R2,1*%
%TO.N,Net-(J1-Pad1)*%
X38150000Y-25600000D03*
%TO.P,R2,2*%
%TO.N,/CANH*%
X38150000Y-23700000D03*
%TD*%
D13*
%TO.P,R1,2*%
%TO.N,VCC*%
X23040000Y-29990000D03*
%TO.P,R1,1*%
%TO.N,Net-(R1-Pad1)*%
X21140000Y-29990000D03*
%TD*%
D15*
%TO.P,J4,1,1*%
%TO.N,VCC*%
X14750000Y-30000000D03*
D16*
%TO.P,J4,2,2*%
%TO.N,GND*%
X14750000Y-27460000D03*
%TO.P,J4,3,3*%
%TO.N,/CS*%
X14750000Y-24920000D03*
%TO.P,J4,4,4*%
%TO.N,/SO*%
X14750000Y-22380000D03*
%TO.P,J4,5,5*%
%TO.N,/SI*%
X14750000Y-19840000D03*
%TO.P,J4,6,6*%
%TO.N,/SCK*%
X14750000Y-17300000D03*
%TO.P,J4,7,7*%
%TO.N,/INT*%
X14750000Y-14760000D03*
%TD*%
D15*
%TO.P,J3,1,Pin_1*%
%TO.N,/CANL*%
X41000000Y-21225000D03*
D16*
%TO.P,J3,2,Pin_2*%
%TO.N,/CANH*%
X41000000Y-23765000D03*
%TD*%
D15*
%TO.P,J2,1,Pin_1*%
%TO.N,/CANH*%
X41000000Y-15000000D03*
D16*
%TO.P,J2,2,Pin_2*%
%TO.N,/CANL*%
X41000000Y-17540000D03*
%TD*%
D15*
%TO.P,J1,1,Pin_1*%
%TO.N,Net-(J1-Pad1)*%
X41000000Y-27475000D03*
D16*
%TO.P,J1,2,Pin_2*%
%TO.N,/CANL*%
X41000000Y-30015000D03*
%TD*%
D17*
%TO.P,D1,2,A*%
%TO.N,Net-(D1-Pad2)*%
X27910000Y-30030000D03*
%TO.P,D1,1,K*%
%TO.N,GND*%
X30110000Y-30030000D03*
%TD*%
D18*
%TO.P,C5,1*%
%TO.N,VCC*%
X37675000Y-32900000D03*
%TO.P,C5,2*%
%TO.N,GND*%
X39675000Y-32900000D03*
%TD*%
%TO.P,C4,2*%
%TO.N,GND*%
X27350000Y-14200000D03*
%TO.P,C4,1*%
%TO.N,VCC*%
X29350000Y-14200000D03*
%TD*%
D19*
%TO.P,C3,1*%
%TO.N,VCC*%
X17610000Y-30000000D03*
%TO.P,C3,2*%
%TO.N,GND*%
X17610000Y-32000000D03*
%TD*%
D20*
%TO.P,C2,1*%
%TO.N,GND*%
X35400000Y-17125000D03*
%TO.P,C2,2*%
%TO.N,/OSC+*%
X35400000Y-15550000D03*
%TD*%
D21*
%TO.P,C1,2*%
%TO.N,/OSC-*%
X35400000Y-20500000D03*
%TO.P,C1,1*%
%TO.N,GND*%
X35400000Y-18925000D03*
%TD*%
D22*
%TO.N,GND*%
X33020000Y-30480000D03*
X13970000Y-33020000D03*
X17780000Y-27940000D03*
X26670000Y-26670000D03*
X26670000Y-24130000D03*
X36830000Y-21590000D03*
X26670000Y-21590000D03*
X26670000Y-19050000D03*
X40800000Y-32900000D03*
X34600000Y-25600000D03*
X30100000Y-28800000D03*
X19000000Y-32000000D03*
X18300000Y-26400000D03*
X34400000Y-17200000D03*
X36600000Y-18900000D03*
%TO.N,VCC*%
X38400000Y-31100000D03*
%TO.N,/TXCAN*%
X30500000Y-27600000D03*
%TO.N,/CANH*%
X38800000Y-14500000D03*
%TO.N,/CANL*%
X38700000Y-17100000D03*
%TO.N,/RXCAN*%
X32300000Y-24400000D03*
%TO.N,GND*%
X30480000Y-15240000D03*
X25400000Y-15240000D03*
X22860000Y-15240000D03*
X20320000Y-15240000D03*
X17780000Y-15240000D03*
%TO.N,/TXCAN*%
X36450500Y-26000000D03*
%TO.N,/OSC-*%
X33000000Y-22500000D03*
%TO.N,/OSC+*%
X30990000Y-17490000D03*
%TO.N,/CS*%
X22000000Y-25000000D03*
%TO.N,/SO*%
X22000000Y-23500000D03*
%TO.N,/SI*%
X22000000Y-21500000D03*
%TO.N,/SCK*%
X22000000Y-20000000D03*
%TO.N,/INT*%
X22000000Y-18500000D03*
%TO.N,VCC*%
X25000000Y-32000000D03*
%TO.N,/CANL*%
X35000000Y-30000000D03*
%TD*%
D23*
%TO.N,VCC*%
X31700000Y-30290000D02*
X33365000Y-28625000D01*
X31700000Y-30300000D02*
X31700000Y-30290000D01*
X30000000Y-32000000D02*
X31700000Y-30300000D01*
X33365000Y-28625000D02*
X33365000Y-27450000D01*
X25000000Y-32000000D02*
X30000000Y-32000000D01*
X37675000Y-32900000D02*
X37675000Y-31825000D01*
X37675000Y-31825000D02*
X38400000Y-31100000D01*
%TO.N,/TXCAN*%
X30500000Y-27530000D02*
X29350000Y-26380000D01*
X30500000Y-27600000D02*
X30500000Y-27530000D01*
%TO.N,/CANL*%
X35000000Y-30000000D02*
X33365000Y-31635000D01*
X33365000Y-31635000D02*
X33365000Y-32400000D01*
%TO.N,VCC*%
X24410000Y-18290000D02*
X26480000Y-16220000D01*
X24410000Y-30000000D02*
X24410000Y-18290000D01*
X26480000Y-16220000D02*
X29350000Y-16220000D01*
X29550000Y-14000000D02*
X29350000Y-14200000D01*
%TO.N,/CANH*%
X39300000Y-15000000D02*
X41000000Y-15000000D01*
X38800000Y-14500000D02*
X39300000Y-15000000D01*
%TO.N,/CANL*%
X39140000Y-17540000D02*
X38700000Y-17100000D01*
X41000000Y-17540000D02*
X39140000Y-17540000D01*
%TO.N,/RXCAN*%
X32300000Y-24400000D02*
X32300000Y-24420000D01*
X32300000Y-24420000D02*
X31610000Y-25110000D01*
X29460000Y-25000000D02*
X29350000Y-25110000D01*
%TO.N,/SCK*%
X17780000Y-20030000D02*
X20050000Y-20030000D01*
X14750000Y-17300000D02*
X15050000Y-17300000D01*
X15050000Y-17300000D02*
X17780000Y-20030000D01*
%TO.N,Net-(R1-Pad1)*%
X21750000Y-26000000D02*
X20860000Y-25110000D01*
X20860000Y-25110000D02*
X20050000Y-25110000D01*
X21750000Y-29380000D02*
X21750000Y-26000000D01*
X21140000Y-29990000D02*
X21750000Y-29380000D01*
%TO.N,/CS*%
X14920000Y-24750000D02*
X14750000Y-24920000D01*
X17375000Y-24750000D02*
X14920000Y-24750000D01*
X18285000Y-23840000D02*
X17375000Y-24750000D01*
X20050000Y-23840000D02*
X18285000Y-23840000D01*
%TO.N,/INT*%
X18105000Y-18115000D02*
X14750000Y-14760000D01*
X19405000Y-18115000D02*
X18105000Y-18115000D01*
X20050000Y-18760000D02*
X19405000Y-18115000D01*
X21750000Y-18750000D02*
X20060000Y-18750000D01*
X20060000Y-18750000D02*
X20050000Y-18760000D01*
X22000000Y-18500000D02*
X21750000Y-18750000D01*
%TO.N,VCC*%
X23040000Y-31000000D02*
X23040000Y-29990000D01*
X22540000Y-31500000D02*
X23040000Y-31000000D01*
X19000000Y-30000000D02*
X20500000Y-31500000D01*
X17610000Y-30000000D02*
X19000000Y-30000000D01*
X20500000Y-31500000D02*
X22540000Y-31500000D01*
%TO.N,/TXCAN*%
X35750000Y-27295000D02*
X35905000Y-27450000D01*
X35750000Y-26700500D02*
X35750000Y-27295000D01*
X36450500Y-26000000D02*
X35750000Y-26700500D01*
%TO.N,/RXCAN*%
X32095000Y-25595000D02*
X32095000Y-27450000D01*
X31610000Y-25110000D02*
X32095000Y-25595000D01*
X29350000Y-25110000D02*
X31610000Y-25110000D01*
%TO.N,/SO*%
X15120000Y-22750000D02*
X14750000Y-22380000D01*
X19870000Y-22750000D02*
X15120000Y-22750000D01*
X20050000Y-22570000D02*
X19870000Y-22750000D01*
%TO.N,VCC*%
X35905000Y-32400000D02*
X35905000Y-32095000D01*
%TO.N,/CANH*%
X34635000Y-32400000D02*
X34635000Y-32776751D01*
D24*
%TO.N,/OSC-*%
X33000000Y-22500000D02*
X33000000Y-20625000D01*
%TO.N,/OSC+*%
X30990000Y-17490000D02*
X29350000Y-17490000D01*
X31085000Y-17490000D02*
X30990000Y-17490000D01*
D23*
%TO.N,/CS*%
X20840000Y-23840000D02*
X20050000Y-23840000D01*
X22000000Y-25000000D02*
X20840000Y-23840000D01*
%TO.N,/SO*%
X21070000Y-22570000D02*
X20050000Y-22570000D01*
X22000000Y-23500000D02*
X21070000Y-22570000D01*
%TO.N,/SI*%
X22000000Y-21500000D02*
X20250000Y-21500000D01*
X20250000Y-21500000D02*
X20050000Y-21300000D01*
%TO.N,/SCK*%
X20080000Y-20000000D02*
X20050000Y-20030000D01*
X22000000Y-20000000D02*
X20080000Y-20000000D01*
%TO.N,VCC*%
X25000000Y-30590000D02*
X24410000Y-30000000D01*
X25000000Y-32000000D02*
X25000000Y-30590000D01*
%TO.N,/CANH*%
X37175000Y-29483249D02*
X37175000Y-24675000D01*
X34635000Y-32400000D02*
X34635000Y-32023249D01*
X34635000Y-32023249D02*
X37175000Y-29483249D01*
X37175000Y-24675000D02*
X38150000Y-23700000D01*
D24*
%TO.N,/OSC-*%
X35275000Y-20625000D02*
X35400000Y-20500000D01*
X33000000Y-20625000D02*
X35275000Y-20625000D01*
%TO.N,/OSC+*%
X35375000Y-15575000D02*
X35400000Y-15550000D01*
X33000000Y-15575000D02*
X35375000Y-15575000D01*
%TO.N,/OSC-*%
X31135000Y-18760000D02*
X33000000Y-20625000D01*
X29350000Y-18760000D02*
X31135000Y-18760000D01*
%TO.N,/OSC+*%
X33000000Y-15575000D02*
X31085000Y-17490000D01*
D23*
%TO.N,/CANL*%
X41000000Y-17540000D02*
X41000000Y-21225000D01*
%TO.N,/OSC+*%
X35375000Y-15525000D02*
X35400000Y-15550000D01*
%TO.N,/OSC-*%
X35325000Y-20575000D02*
X35400000Y-20500000D01*
%TO.N,Net-(J1-Pad1)*%
X39125000Y-25600000D02*
X41000000Y-27475000D01*
X38150000Y-25600000D02*
X39125000Y-25600000D01*
%TO.N,/CANH*%
X40935000Y-23700000D02*
X41000000Y-23765000D01*
X38150000Y-23700000D02*
X40935000Y-23700000D01*
%TO.N,VCC*%
X29350000Y-16220000D02*
X29350000Y-14200000D01*
X37175000Y-32400000D02*
X37675000Y-32900000D01*
X35905000Y-32400000D02*
X37175000Y-32400000D01*
%TO.N,Net-(D1-Pad2)*%
X27880000Y-30000000D02*
X27910000Y-30030000D01*
X26310000Y-30000000D02*
X27880000Y-30000000D01*
%TO.N,VCC*%
X23040000Y-29990000D02*
X24400000Y-29990000D01*
X24400000Y-29990000D02*
X24410000Y-30000000D01*
X14750000Y-30000000D02*
X17610000Y-30000000D01*
%TO.N,/SI*%
X20050000Y-21300000D02*
X16210000Y-21300000D01*
X16210000Y-21300000D02*
X14750000Y-19840000D01*
%TD*%
%TA.AperFunction,Conductor*%
%TO.N,GND*%
G36*
X39079416Y-26450320D02*
G01*
X39612504Y-26983408D01*
X39640281Y-27037925D01*
X39641500Y-27053412D01*
X39641500Y-28373134D01*
X39648255Y-28435316D01*
X39699385Y-28571705D01*
X39786739Y-28688261D01*
X39903295Y-28775615D01*
X39909893Y-28778089D01*
X39909894Y-28778089D01*
X39932968Y-28786739D01*
X40039684Y-28826745D01*
X40045858Y-28827416D01*
X40049316Y-28828238D01*
X40101555Y-28860093D01*
X40125093Y-28916570D01*
X40110939Y-28976096D01*
X40094767Y-28995446D01*
X40094965Y-28995635D01*
X39940629Y-29157138D01*
X39938337Y-29160498D01*
X39828759Y-29321134D01*
X39814743Y-29341680D01*
X39813035Y-29345360D01*
X39813032Y-29345365D01*
X39788228Y-29398801D01*
X39720688Y-29544305D01*
X39719602Y-29548221D01*
X39670494Y-29725298D01*
X39660989Y-29759570D01*
X39660556Y-29763618D01*
X39660556Y-29763620D01*
X39657485Y-29792361D01*
X39637251Y-29981695D01*
X39650110Y-30204715D01*
X39658229Y-30240742D01*
X39697122Y-30413319D01*
X39699222Y-30422639D01*
X39700751Y-30426403D01*
X39700752Y-30426408D01*
X39737461Y-30516811D01*
X39783266Y-30629616D01*
X39785390Y-30633082D01*
X39785392Y-30633086D01*
X39886088Y-30797407D01*
X39899987Y-30820088D01*
X39902648Y-30823160D01*
X39902651Y-30823164D01*
X40043584Y-30985861D01*
X40043588Y-30985865D01*
X40046250Y-30988938D01*
X40049377Y-30991534D01*
X40049378Y-30991535D01*
X40215003Y-31129040D01*
X40215009Y-31129044D01*
X40218126Y-31131632D01*
X40411000Y-31244338D01*
X40414792Y-31245786D01*
X40607353Y-31319318D01*
X40619692Y-31324030D01*
X40623672Y-31324840D01*
X40623673Y-31324840D01*
X40648858Y-31329964D01*
X40838597Y-31368567D01*
X40842654Y-31368716D01*
X40842656Y-31368716D01*
X40906445Y-31371055D01*
X41061837Y-31376753D01*
X41065856Y-31376238D01*
X41065860Y-31376238D01*
X41279384Y-31348885D01*
X41279390Y-31348884D01*
X41283416Y-31348368D01*
X41287309Y-31347200D01*
X41287314Y-31347199D01*
X41450990Y-31298093D01*
X41497384Y-31284174D01*
X41697994Y-31185896D01*
X41879860Y-31056173D01*
X42038096Y-30898489D01*
X42168453Y-30717077D01*
X42267430Y-30516811D01*
X42268608Y-30512935D01*
X42268610Y-30512929D01*
X42297775Y-30416934D01*
X42332782Y-30366753D01*
X42390599Y-30346732D01*
X42449142Y-30364519D01*
X42486050Y-30413319D01*
X42491500Y-30445714D01*
X42491500Y-33392500D01*
X42472593Y-33450691D01*
X42423093Y-33486655D01*
X42392500Y-33491500D01*
X40782000Y-33491500D01*
X40723809Y-33472593D01*
X40687845Y-33423093D01*
X40683000Y-33392500D01*
X40683000Y-33169680D01*
X40678878Y-33156995D01*
X40674757Y-33154000D01*
X39520000Y-33154000D01*
X39461809Y-33135093D01*
X39425845Y-33085593D01*
X39421000Y-33055000D01*
X39421000Y-32630320D01*
X39929000Y-32630320D01*
X39933122Y-32643005D01*
X39937243Y-32646000D01*
X40667319Y-32646000D01*
X40680004Y-32641878D01*
X40682999Y-32637757D01*
X40682999Y-32229589D01*
X40682710Y-32224249D01*
X40676922Y-32170965D01*
X40674073Y-32158980D01*
X40627649Y-32035145D01*
X40620941Y-32022892D01*
X40542137Y-31917744D01*
X40532256Y-31907863D01*
X40427108Y-31829059D01*
X40414855Y-31822351D01*
X40291022Y-31775928D01*
X40279033Y-31773077D01*
X40225748Y-31767289D01*
X40220414Y-31767000D01*
X39944680Y-31767000D01*
X39931995Y-31771122D01*
X39929000Y-31775243D01*
X39929000Y-32630320D01*
X39421000Y-32630320D01*
X39421000Y-31782681D01*
X39416878Y-31769996D01*
X39412757Y-31767001D01*
X39235424Y-31767001D01*
X39177233Y-31748094D01*
X39141269Y-31698594D01*
X39141269Y-31637408D01*
X39149688Y-31618501D01*
X39231933Y-31476050D01*
X39231935Y-31476045D01*
X39234527Y-31471556D01*
X39262950Y-31384079D01*
X39291940Y-31294860D01*
X39291941Y-31294855D01*
X39293542Y-31289928D01*
X39311830Y-31115926D01*
X39312962Y-31105157D01*
X39313504Y-31100000D01*
X39293542Y-30910072D01*
X39291941Y-30905145D01*
X39291940Y-30905140D01*
X39241634Y-30750316D01*
X39234527Y-30728444D01*
X39231935Y-30723955D01*
X39231933Y-30723950D01*
X39141635Y-30567551D01*
X39139040Y-30563056D01*
X39097401Y-30516811D01*
X39014723Y-30424987D01*
X39014719Y-30424983D01*
X39011253Y-30421134D01*
X38856752Y-30308882D01*
X38754277Y-30263258D01*
X38687026Y-30233315D01*
X38687022Y-30233314D01*
X38682288Y-30231206D01*
X38677218Y-30230128D01*
X38677217Y-30230128D01*
X38613530Y-30216591D01*
X38495487Y-30191500D01*
X38304513Y-30191500D01*
X38186470Y-30216591D01*
X38122783Y-30230128D01*
X38122782Y-30230128D01*
X38117712Y-30231206D01*
X38112978Y-30233314D01*
X38112974Y-30233315D01*
X38045723Y-30263258D01*
X37943248Y-30308882D01*
X37788747Y-30421134D01*
X37785281Y-30424983D01*
X37785277Y-30424987D01*
X37702599Y-30516811D01*
X37660960Y-30563056D01*
X37658365Y-30567551D01*
X37568067Y-30723950D01*
X37568065Y-30723955D01*
X37565473Y-30728444D01*
X37558366Y-30750316D01*
X37508060Y-30905140D01*
X37508059Y-30905145D01*
X37506458Y-30910072D01*
X37505782Y-30916502D01*
X37488093Y-31084801D01*
X37459639Y-31144457D01*
X37283429Y-31320666D01*
X37276540Y-31326933D01*
X37273238Y-31329664D01*
X37267982Y-31333000D01*
X37263723Y-31337536D01*
X37263720Y-31337538D01*
X37221095Y-31382930D01*
X37218931Y-31385164D01*
X37198865Y-31405230D01*
X37196960Y-31407686D01*
X37195602Y-31409436D01*
X37189549Y-31416523D01*
X37186500Y-31419770D01*
X37158414Y-31449679D01*
X37155415Y-31455134D01*
X37147632Y-31469290D01*
X37139104Y-31482273D01*
X37129204Y-31495036D01*
X37129202Y-31495039D01*
X37125386Y-31499959D01*
X37122911Y-31505679D01*
X37122909Y-31505682D01*
X37107319Y-31541706D01*
X37103217Y-31550080D01*
X37084305Y-31584482D01*
X37084304Y-31584485D01*
X37081305Y-31589940D01*
X37079758Y-31595966D01*
X37079755Y-31595973D01*
X37075737Y-31611622D01*
X37070707Y-31626315D01*
X37061819Y-31646855D01*
X37060845Y-31653006D01*
X37056096Y-31682987D01*
X37028318Y-31737504D01*
X36973802Y-31765281D01*
X36958315Y-31766500D01*
X36812500Y-31766500D01*
X36754309Y-31747593D01*
X36718345Y-31698093D01*
X36713500Y-31667500D01*
X36713500Y-31508498D01*
X36710562Y-31471169D01*
X36664145Y-31311399D01*
X36589923Y-31185896D01*
X36582626Y-31173558D01*
X36582625Y-31173557D01*
X36579453Y-31168193D01*
X36552711Y-31141451D01*
X36524934Y-31086934D01*
X36534505Y-31026502D01*
X36552711Y-31001443D01*
X37566556Y-29987597D01*
X37573454Y-29981321D01*
X37576760Y-29978586D01*
X37582018Y-29975249D01*
X37628921Y-29925302D01*
X37631084Y-29923069D01*
X37651134Y-29903019D01*
X37653029Y-29900576D01*
X37653035Y-29900569D01*
X37654387Y-29898825D01*
X37660450Y-29891726D01*
X37687325Y-29863108D01*
X37687327Y-29863106D01*
X37691586Y-29858570D01*
X37702370Y-29838954D01*
X37710901Y-29825967D01*
X37724613Y-29808290D01*
X37742675Y-29766553D01*
X37746777Y-29758180D01*
X37765695Y-29723767D01*
X37765696Y-29723764D01*
X37768695Y-29718309D01*
X37771575Y-29707092D01*
X37774262Y-29696627D01*
X37779295Y-29681929D01*
X37785705Y-29667116D01*
X37785705Y-29667115D01*
X37788181Y-29661394D01*
X37795295Y-29616477D01*
X37797186Y-29607345D01*
X37805310Y-29575702D01*
X37808500Y-29563279D01*
X37808500Y-29540891D01*
X37809719Y-29525404D01*
X37812245Y-29509457D01*
X37812245Y-29509455D01*
X37813219Y-29503306D01*
X37809514Y-29464104D01*
X37808939Y-29458025D01*
X37808500Y-29448709D01*
X37808500Y-26557500D01*
X37827407Y-26499309D01*
X37876907Y-26463345D01*
X37907500Y-26458500D01*
X38848134Y-26458500D01*
X38910316Y-26451745D01*
X38974662Y-26427623D01*
X39035786Y-26424902D01*
X39079416Y-26450320D01*
G37*
%TD.AperFunction*%
%TA.AperFunction,Conductor*%
G36*
X16481523Y-30652407D02*
G01*
X16516032Y-30697749D01*
X16534385Y-30746705D01*
X16621739Y-30863261D01*
X16627383Y-30867491D01*
X16627387Y-30867495D01*
X16698902Y-30921093D01*
X16734127Y-30971121D01*
X16733219Y-31032300D01*
X16698901Y-31079534D01*
X16627744Y-31132863D01*
X16617863Y-31142744D01*
X16539059Y-31247892D01*
X16532351Y-31260145D01*
X16485928Y-31383978D01*
X16483077Y-31395967D01*
X16477289Y-31449252D01*
X16477000Y-31454586D01*
X16477000Y-31730320D01*
X16481122Y-31743005D01*
X16485243Y-31746000D01*
X18727319Y-31746000D01*
X18740004Y-31741878D01*
X18742999Y-31737757D01*
X18742999Y-31454589D01*
X18742710Y-31449249D01*
X18736922Y-31395965D01*
X18734073Y-31383980D01*
X18687649Y-31260145D01*
X18680941Y-31247892D01*
X18602137Y-31142744D01*
X18592256Y-31132863D01*
X18521099Y-31079534D01*
X18485873Y-31029506D01*
X18486781Y-30968327D01*
X18521098Y-30921093D01*
X18592613Y-30867495D01*
X18592617Y-30867491D01*
X18598261Y-30863261D01*
X18685615Y-30746705D01*
X18687379Y-30748027D01*
X18724423Y-30713125D01*
X18785113Y-30705357D01*
X18836726Y-30732630D01*
X19995652Y-31891556D01*
X20001928Y-31898454D01*
X20004663Y-31901760D01*
X20008000Y-31907018D01*
X20012540Y-31911281D01*
X20057946Y-31953920D01*
X20060180Y-31956084D01*
X20080230Y-31976134D01*
X20082673Y-31978029D01*
X20082680Y-31978035D01*
X20084424Y-31979387D01*
X20091523Y-31985450D01*
X20120141Y-32012325D01*
X20120143Y-32012327D01*
X20124679Y-32016586D01*
X20130136Y-32019586D01*
X20144295Y-32027370D01*
X20157280Y-32035900D01*
X20174959Y-32049613D01*
X20180676Y-32052087D01*
X20216696Y-32067675D01*
X20225069Y-32071777D01*
X20259482Y-32090695D01*
X20259485Y-32090696D01*
X20264940Y-32093695D01*
X20270969Y-32095243D01*
X20286622Y-32099262D01*
X20301320Y-32104295D01*
X20316133Y-32110705D01*
X20321855Y-32113181D01*
X20328009Y-32114156D01*
X20328010Y-32114156D01*
X20366771Y-32120295D01*
X20375904Y-32122186D01*
X20419970Y-32133500D01*
X20442358Y-32133500D01*
X20457845Y-32134719D01*
X20473792Y-32137245D01*
X20473794Y-32137245D01*
X20479943Y-32138219D01*
X20525223Y-32133939D01*
X20534540Y-32133500D01*
X22460238Y-32133500D01*
X22469552Y-32133939D01*
X22473831Y-32134343D01*
X22479909Y-32135702D01*
X22548399Y-32133549D01*
X22551510Y-32133500D01*
X22579856Y-32133500D01*
X22582942Y-32133110D01*
X22582945Y-32133110D01*
X22585131Y-32132834D01*
X22594426Y-32132102D01*
X22610447Y-32131599D01*
X22633663Y-32130869D01*
X22633665Y-32130869D01*
X22639889Y-32130673D01*
X22661387Y-32124427D01*
X22676579Y-32121281D01*
X22698797Y-32118474D01*
X22712166Y-32113181D01*
X22741097Y-32101726D01*
X22749917Y-32098707D01*
X22793593Y-32086018D01*
X22798950Y-32082850D01*
X22798954Y-32082848D01*
X22812857Y-32074625D01*
X22826801Y-32067793D01*
X22847617Y-32059552D01*
X22884430Y-32032806D01*
X22892194Y-32027706D01*
X22931362Y-32004542D01*
X22947189Y-31988715D01*
X22959002Y-31978626D01*
X22959816Y-31978035D01*
X22977107Y-31965472D01*
X22981073Y-31960677D01*
X22981076Y-31960675D01*
X23006102Y-31930423D01*
X23012380Y-31923524D01*
X23431561Y-31504344D01*
X23438460Y-31498067D01*
X23441762Y-31495336D01*
X23447018Y-31492000D01*
X23451277Y-31487464D01*
X23451280Y-31487462D01*
X23493905Y-31442070D01*
X23496069Y-31439836D01*
X23516135Y-31419770D01*
X23518654Y-31416523D01*
X23519398Y-31415564D01*
X23525451Y-31408477D01*
X23547343Y-31385164D01*
X23556586Y-31375321D01*
X23567368Y-31355710D01*
X23575896Y-31342727D01*
X23585796Y-31329964D01*
X23585798Y-31329961D01*
X23589614Y-31325041D01*
X23592929Y-31317381D01*
X23607681Y-31283294D01*
X23611783Y-31274920D01*
X23630695Y-31240518D01*
X23630696Y-31240515D01*
X23633695Y-31235060D01*
X23635242Y-31229034D01*
X23635245Y-31229027D01*
X23639263Y-31213378D01*
X23644293Y-31198685D01*
X23650708Y-31183860D01*
X23650708Y-31183859D01*
X23653181Y-31178145D01*
X23655449Y-31163826D01*
X23683228Y-31109310D01*
X23737746Y-31081534D01*
X23798178Y-31091108D01*
X23801400Y-31093116D01*
X23801465Y-31092998D01*
X23807650Y-31096384D01*
X23813295Y-31100615D01*
X23949684Y-31151745D01*
X23955856Y-31152415D01*
X23955858Y-31152416D01*
X23991837Y-31156324D01*
X24011866Y-31158500D01*
X24267500Y-31158500D01*
X24325691Y-31177407D01*
X24361655Y-31226907D01*
X24366500Y-31257500D01*
X24366500Y-31307840D01*
X24347593Y-31366031D01*
X24341073Y-31374082D01*
X24260960Y-31463056D01*
X24249865Y-31482273D01*
X24168067Y-31623950D01*
X24168065Y-31623955D01*
X24165473Y-31628444D01*
X24161348Y-31641140D01*
X24108060Y-31805140D01*
X24108059Y-31805145D01*
X24106458Y-31810072D01*
X24086496Y-32000000D01*
X24106458Y-32189928D01*
X24108059Y-32194855D01*
X24108060Y-32194860D01*
X24128616Y-32258122D01*
X24165473Y-32371556D01*
X24168065Y-32376045D01*
X24168067Y-32376050D01*
X24221808Y-32469131D01*
X24260960Y-32536944D01*
X24264432Y-32540800D01*
X24385277Y-32675013D01*
X24385281Y-32675017D01*
X24388747Y-32678866D01*
X24543248Y-32791118D01*
X24645723Y-32836742D01*
X24712974Y-32866685D01*
X24712978Y-32866686D01*
X24717712Y-32868794D01*
X24722782Y-32869872D01*
X24722783Y-32869872D01*
X24757917Y-32877340D01*
X24904513Y-32908500D01*
X25095487Y-32908500D01*
X25242083Y-32877340D01*
X25277217Y-32869872D01*
X25277218Y-32869872D01*
X25282288Y-32868794D01*
X25287022Y-32866686D01*
X25287026Y-32866685D01*
X25354277Y-32836742D01*
X25456752Y-32791118D01*
X25611253Y-32678866D01*
X25622608Y-32666255D01*
X25675594Y-32635663D01*
X25696178Y-32633500D01*
X29920238Y-32633500D01*
X29929552Y-32633939D01*
X29933831Y-32634343D01*
X29939909Y-32635702D01*
X30008399Y-32633549D01*
X30011510Y-32633500D01*
X30039856Y-32633500D01*
X30042942Y-32633110D01*
X30042945Y-32633110D01*
X30045131Y-32632834D01*
X30054426Y-32632102D01*
X30070447Y-32631599D01*
X30093663Y-32630869D01*
X30093665Y-32630869D01*
X30099889Y-32630673D01*
X30121387Y-32624427D01*
X30136579Y-32621281D01*
X30158797Y-32618474D01*
X30201097Y-32601726D01*
X30209917Y-32598707D01*
X30253593Y-32586018D01*
X30258950Y-32582850D01*
X30258954Y-32582848D01*
X30272857Y-32574625D01*
X30286801Y-32567793D01*
X30307617Y-32559552D01*
X30344430Y-32532806D01*
X30352194Y-32527706D01*
X30391362Y-32504542D01*
X30407189Y-32488715D01*
X30419002Y-32478626D01*
X30432071Y-32469131D01*
X30432072Y-32469131D01*
X30437107Y-32465472D01*
X30441073Y-32460677D01*
X30441076Y-32460675D01*
X30466098Y-32430428D01*
X30472375Y-32423529D01*
X31117496Y-31778409D01*
X31172013Y-31750632D01*
X31232445Y-31760203D01*
X31275710Y-31803468D01*
X31286500Y-31848413D01*
X31286500Y-33291502D01*
X31289438Y-33328831D01*
X31290850Y-33333690D01*
X31299911Y-33364880D01*
X31297989Y-33426036D01*
X31260488Y-33474381D01*
X31204842Y-33491500D01*
X13607500Y-33491500D01*
X13549309Y-33472593D01*
X13513345Y-33423093D01*
X13508500Y-33392500D01*
X13508500Y-32545411D01*
X16477001Y-32545411D01*
X16477290Y-32550751D01*
X16483078Y-32604035D01*
X16485927Y-32616020D01*
X16532351Y-32739855D01*
X16539059Y-32752108D01*
X16617863Y-32857256D01*
X16627744Y-32867137D01*
X16732892Y-32945941D01*
X16745145Y-32952649D01*
X16868978Y-32999072D01*
X16880967Y-33001923D01*
X16934252Y-33007711D01*
X16939586Y-33008000D01*
X17340320Y-33008000D01*
X17353005Y-33003878D01*
X17356000Y-32999757D01*
X17356000Y-32992319D01*
X17864000Y-32992319D01*
X17868122Y-33005004D01*
X17872243Y-33007999D01*
X18280411Y-33007999D01*
X18285751Y-33007710D01*
X18339035Y-33001922D01*
X18351020Y-32999073D01*
X18474855Y-32952649D01*
X18487108Y-32945941D01*
X18592256Y-32867137D01*
X18602137Y-32857256D01*
X18680941Y-32752108D01*
X18687649Y-32739855D01*
X18734072Y-32616022D01*
X18736923Y-32604033D01*
X18742711Y-32550748D01*
X18743000Y-32545414D01*
X18743000Y-32269680D01*
X18738878Y-32256995D01*
X18734757Y-32254000D01*
X17879680Y-32254000D01*
X17866995Y-32258122D01*
X17864000Y-32262243D01*
X17864000Y-32992319D01*
X17356000Y-32992319D01*
X17356000Y-32269680D01*
X17351878Y-32256995D01*
X17347757Y-32254000D01*
X16492681Y-32254000D01*
X16479996Y-32258122D01*
X16477001Y-32262243D01*
X16477001Y-32545411D01*
X13508500Y-32545411D01*
X13508500Y-31387269D01*
X13527407Y-31329078D01*
X13576907Y-31293114D01*
X13638093Y-31293114D01*
X13650344Y-31298403D01*
X13653295Y-31300615D01*
X13789684Y-31351745D01*
X13795856Y-31352415D01*
X13795858Y-31352416D01*
X13826183Y-31355710D01*
X13851866Y-31358500D01*
X15648134Y-31358500D01*
X15673817Y-31355710D01*
X15704142Y-31352416D01*
X15704144Y-31352415D01*
X15710316Y-31351745D01*
X15817939Y-31311399D01*
X15840106Y-31303089D01*
X15840107Y-31303089D01*
X15846705Y-31300615D01*
X15963261Y-31213261D01*
X16050615Y-31096705D01*
X16055720Y-31083089D01*
X16089394Y-30993261D01*
X16101745Y-30960316D01*
X16108500Y-30898134D01*
X16108500Y-30732500D01*
X16127407Y-30674309D01*
X16176907Y-30638345D01*
X16207500Y-30633500D01*
X16423332Y-30633500D01*
X16481523Y-30652407D01*
G37*
%TD.AperFunction*%
%TA.AperFunction,Conductor*%
G36*
X38385746Y-13527407D02*
G01*
X38421710Y-13576907D01*
X38421710Y-13638093D01*
X38385746Y-13687593D01*
X38367822Y-13697941D01*
X38347982Y-13706774D01*
X38347980Y-13706775D01*
X38343248Y-13708882D01*
X38188747Y-13821134D01*
X38185281Y-13824983D01*
X38185277Y-13824987D01*
X38089200Y-13931692D01*
X38060960Y-13963056D01*
X38058365Y-13967551D01*
X37968067Y-14123950D01*
X37968065Y-14123955D01*
X37965473Y-14128444D01*
X37963871Y-14133375D01*
X37908060Y-14305140D01*
X37908059Y-14305145D01*
X37906458Y-14310072D01*
X37886496Y-14500000D01*
X37906458Y-14689928D01*
X37908059Y-14694855D01*
X37908060Y-14694860D01*
X37927152Y-14753618D01*
X37965473Y-14871556D01*
X37968065Y-14876045D01*
X37968067Y-14876050D01*
X37998720Y-14929142D01*
X38060960Y-15036944D01*
X38064432Y-15040800D01*
X38185277Y-15175013D01*
X38185281Y-15175017D01*
X38188747Y-15178866D01*
X38343248Y-15291118D01*
X38423668Y-15326923D01*
X38512974Y-15366685D01*
X38512978Y-15366686D01*
X38517712Y-15368794D01*
X38522782Y-15369872D01*
X38522783Y-15369872D01*
X38545102Y-15374616D01*
X38704513Y-15408500D01*
X38770382Y-15408500D01*
X38828573Y-15427407D01*
X38838153Y-15435333D01*
X38857931Y-15453906D01*
X38860164Y-15456069D01*
X38880230Y-15476135D01*
X38882686Y-15478040D01*
X38884436Y-15479398D01*
X38891523Y-15485451D01*
X38924679Y-15516586D01*
X38930134Y-15519585D01*
X38944290Y-15527368D01*
X38957273Y-15535896D01*
X38970036Y-15545796D01*
X38970039Y-15545798D01*
X38974959Y-15549614D01*
X38980679Y-15552089D01*
X38980682Y-15552091D01*
X39016706Y-15567681D01*
X39025080Y-15571783D01*
X39059482Y-15590695D01*
X39059485Y-15590696D01*
X39064940Y-15593695D01*
X39070966Y-15595242D01*
X39070973Y-15595245D01*
X39086622Y-15599263D01*
X39101315Y-15604293D01*
X39112313Y-15609052D01*
X39121855Y-15613181D01*
X39154009Y-15618274D01*
X39166780Y-15620297D01*
X39175910Y-15622188D01*
X39213940Y-15631952D01*
X39213941Y-15631952D01*
X39219970Y-15633500D01*
X39242351Y-15633500D01*
X39257838Y-15634719D01*
X39273791Y-15637246D01*
X39273794Y-15637246D01*
X39279943Y-15638220D01*
X39325231Y-15633939D01*
X39334548Y-15633500D01*
X39542500Y-15633500D01*
X39600691Y-15652407D01*
X39636655Y-15701907D01*
X39641500Y-15732500D01*
X39641500Y-15898134D01*
X39648255Y-15960316D01*
X39699385Y-16096705D01*
X39786739Y-16213261D01*
X39792383Y-16217491D01*
X39799137Y-16222553D01*
X39903295Y-16300615D01*
X40039684Y-16351745D01*
X40045858Y-16352416D01*
X40049316Y-16353238D01*
X40101555Y-16385093D01*
X40125093Y-16441570D01*
X40110939Y-16501096D01*
X40094767Y-16520446D01*
X40094965Y-16520635D01*
X39940629Y-16682138D01*
X39938337Y-16685498D01*
X39817056Y-16863289D01*
X39768644Y-16900706D01*
X39735272Y-16906500D01*
X39664309Y-16906500D01*
X39606118Y-16887593D01*
X39570154Y-16838093D01*
X39536129Y-16733375D01*
X39534527Y-16728444D01*
X39531935Y-16723955D01*
X39531933Y-16723950D01*
X39463287Y-16605052D01*
X39439040Y-16563056D01*
X39367267Y-16483344D01*
X39314723Y-16424987D01*
X39314719Y-16424983D01*
X39311253Y-16421134D01*
X39156752Y-16308882D01*
X39054277Y-16263258D01*
X38987026Y-16233315D01*
X38987022Y-16233314D01*
X38982288Y-16231206D01*
X38977218Y-16230128D01*
X38977217Y-16230128D01*
X38917764Y-16217491D01*
X38795487Y-16191500D01*
X38604513Y-16191500D01*
X38482236Y-16217491D01*
X38422783Y-16230128D01*
X38422782Y-16230128D01*
X38417712Y-16231206D01*
X38412978Y-16233314D01*
X38412974Y-16233315D01*
X38345723Y-16263258D01*
X38243248Y-16308882D01*
X38088747Y-16421134D01*
X38085281Y-16424983D01*
X38085277Y-16424987D01*
X38032733Y-16483344D01*
X37960960Y-16563056D01*
X37936713Y-16605052D01*
X37868067Y-16723950D01*
X37868065Y-16723955D01*
X37865473Y-16728444D01*
X37863871Y-16733375D01*
X37808060Y-16905140D01*
X37808059Y-16905145D01*
X37806458Y-16910072D01*
X37786496Y-17100000D01*
X37806458Y-17289928D01*
X37808059Y-17294855D01*
X37808060Y-17294860D01*
X37840454Y-17394556D01*
X37865473Y-17471556D01*
X37868065Y-17476045D01*
X37868067Y-17476050D01*
X37880314Y-17497262D01*
X37960960Y-17636944D01*
X37964432Y-17640800D01*
X38085277Y-17775013D01*
X38085281Y-17775017D01*
X38088747Y-17778866D01*
X38243248Y-17891118D01*
X38340214Y-17934290D01*
X38412974Y-17966685D01*
X38412978Y-17966686D01*
X38417712Y-17968794D01*
X38422782Y-17969872D01*
X38422783Y-17969872D01*
X38457917Y-17977340D01*
X38604513Y-18008500D01*
X38674276Y-18008500D01*
X38732467Y-18027407D01*
X38742043Y-18035330D01*
X38764679Y-18056586D01*
X38770134Y-18059585D01*
X38784290Y-18067368D01*
X38797273Y-18075896D01*
X38810036Y-18085796D01*
X38810039Y-18085798D01*
X38814959Y-18089614D01*
X38820679Y-18092089D01*
X38820682Y-18092091D01*
X38856706Y-18107681D01*
X38865080Y-18111783D01*
X38899482Y-18130695D01*
X38899485Y-18130696D01*
X38904940Y-18133695D01*
X38910966Y-18135242D01*
X38910973Y-18135245D01*
X38926622Y-18139263D01*
X38941315Y-18144293D01*
X38952313Y-18149052D01*
X38961855Y-18153181D01*
X38996666Y-18158695D01*
X39006780Y-18160297D01*
X39015910Y-18162188D01*
X39053940Y-18171952D01*
X39053941Y-18171952D01*
X39059970Y-18173500D01*
X39082351Y-18173500D01*
X39097838Y-18174719D01*
X39113791Y-18177246D01*
X39113794Y-18177246D01*
X39119943Y-18178220D01*
X39165231Y-18173939D01*
X39174548Y-18173500D01*
X39739396Y-18173500D01*
X39797587Y-18192407D01*
X39823807Y-18220773D01*
X39891312Y-18330931D01*
X39899987Y-18345088D01*
X39902648Y-18348160D01*
X39902651Y-18348164D01*
X40043584Y-18510861D01*
X40043588Y-18510865D01*
X40046250Y-18513938D01*
X40049377Y-18516534D01*
X40049378Y-18516535D01*
X40215003Y-18654040D01*
X40215009Y-18654044D01*
X40218126Y-18656632D01*
X40228608Y-18662757D01*
X40317448Y-18714671D01*
X40358151Y-18760354D01*
X40366500Y-18800147D01*
X40366500Y-19767500D01*
X40347593Y-19825691D01*
X40298093Y-19861655D01*
X40267500Y-19866500D01*
X40101866Y-19866500D01*
X40081837Y-19868676D01*
X40045858Y-19872584D01*
X40045856Y-19872585D01*
X40039684Y-19873255D01*
X40033869Y-19875435D01*
X39943780Y-19909208D01*
X39903295Y-19924385D01*
X39786739Y-20011739D01*
X39699385Y-20128295D01*
X39696911Y-20134893D01*
X39696911Y-20134894D01*
X39695149Y-20139595D01*
X39648255Y-20264684D01*
X39641500Y-20326866D01*
X39641500Y-22123134D01*
X39641789Y-22125793D01*
X39647136Y-22175013D01*
X39648255Y-22185316D01*
X39699385Y-22321705D01*
X39786739Y-22438261D01*
X39903295Y-22525615D01*
X40039684Y-22576745D01*
X40045858Y-22577416D01*
X40049316Y-22578238D01*
X40101555Y-22610093D01*
X40125093Y-22666570D01*
X40110939Y-22726096D01*
X40094767Y-22745446D01*
X40094965Y-22745635D01*
X39940629Y-22907138D01*
X39938337Y-22910498D01*
X39861396Y-23023289D01*
X39812984Y-23060706D01*
X39779612Y-23066500D01*
X39272560Y-23066500D01*
X39214369Y-23047593D01*
X39193340Y-23026873D01*
X39190654Y-23023289D01*
X39163261Y-22986739D01*
X39151093Y-22977619D01*
X39120428Y-22954637D01*
X39046705Y-22899385D01*
X38910316Y-22848255D01*
X38904144Y-22847585D01*
X38904142Y-22847584D01*
X38868163Y-22843676D01*
X38848134Y-22841500D01*
X37451866Y-22841500D01*
X37431837Y-22843676D01*
X37395858Y-22847584D01*
X37395856Y-22847585D01*
X37389684Y-22848255D01*
X37253295Y-22899385D01*
X37136739Y-22986739D01*
X37132510Y-22992382D01*
X37132509Y-22992383D01*
X37125827Y-23001299D01*
X37049385Y-23103295D01*
X37046911Y-23109893D01*
X37046911Y-23109894D01*
X37037501Y-23134996D01*
X36998255Y-23239684D01*
X36991500Y-23301866D01*
X36991500Y-23921587D01*
X36972593Y-23979778D01*
X36962504Y-23991591D01*
X36783434Y-24170661D01*
X36776534Y-24176938D01*
X36773239Y-24179664D01*
X36767982Y-24183000D01*
X36763723Y-24187536D01*
X36763720Y-24187538D01*
X36721095Y-24232930D01*
X36718931Y-24235164D01*
X36698865Y-24255230D01*
X36696960Y-24257686D01*
X36695602Y-24259436D01*
X36689549Y-24266523D01*
X36658414Y-24299679D01*
X36655415Y-24305134D01*
X36647632Y-24319290D01*
X36639104Y-24332273D01*
X36629204Y-24345036D01*
X36629202Y-24345039D01*
X36625386Y-24349959D01*
X36622911Y-24355679D01*
X36622909Y-24355682D01*
X36607319Y-24391706D01*
X36603217Y-24400080D01*
X36584305Y-24434482D01*
X36584304Y-24434485D01*
X36581305Y-24439940D01*
X36579758Y-24445966D01*
X36579755Y-24445973D01*
X36575737Y-24461622D01*
X36570707Y-24476315D01*
X36561819Y-24496855D01*
X36560845Y-24503005D01*
X36554703Y-24541780D01*
X36552812Y-24550910D01*
X36544119Y-24584770D01*
X36541500Y-24594970D01*
X36541500Y-24617351D01*
X36540281Y-24632838D01*
X36536780Y-24654943D01*
X36537366Y-24661141D01*
X36541061Y-24700231D01*
X36541500Y-24709548D01*
X36541500Y-24992500D01*
X36522593Y-25050691D01*
X36473093Y-25086655D01*
X36442500Y-25091500D01*
X36355013Y-25091500D01*
X36226973Y-25118716D01*
X36173283Y-25130128D01*
X36173282Y-25130128D01*
X36168212Y-25131206D01*
X36163478Y-25133314D01*
X36163474Y-25133315D01*
X36096223Y-25163258D01*
X35993748Y-25208882D01*
X35839247Y-25321134D01*
X35835781Y-25324983D01*
X35835777Y-25324987D01*
X35733448Y-25438636D01*
X35711460Y-25463056D01*
X35708865Y-25467551D01*
X35618567Y-25623950D01*
X35618565Y-25623955D01*
X35615973Y-25628444D01*
X35605251Y-25661442D01*
X35558560Y-25805140D01*
X35558559Y-25805145D01*
X35556958Y-25810072D01*
X35556042Y-25818789D01*
X35543376Y-25939296D01*
X35518489Y-25995192D01*
X35490903Y-26015016D01*
X35491399Y-26015855D01*
X35348193Y-26100547D01*
X35339649Y-26109091D01*
X35285134Y-26136867D01*
X35224702Y-26127296D01*
X35199643Y-26109090D01*
X35195899Y-26105346D01*
X35186140Y-26097776D01*
X35053759Y-26019487D01*
X35042421Y-26014581D01*
X34904057Y-25974382D01*
X34892118Y-25974757D01*
X34889000Y-25984892D01*
X34889000Y-28914313D01*
X34893941Y-28929520D01*
X34926942Y-28974942D01*
X34926941Y-29036127D01*
X34890977Y-29085627D01*
X34853371Y-29102371D01*
X34817977Y-29109894D01*
X34722783Y-29130128D01*
X34722782Y-29130128D01*
X34717712Y-29131206D01*
X34712978Y-29133314D01*
X34712974Y-29133315D01*
X34666073Y-29154197D01*
X34543248Y-29208882D01*
X34388747Y-29321134D01*
X34385281Y-29324983D01*
X34385277Y-29324987D01*
X34292329Y-29428217D01*
X34260960Y-29463056D01*
X34258365Y-29467551D01*
X34168067Y-29623950D01*
X34168065Y-29623955D01*
X34165473Y-29628444D01*
X34156767Y-29655239D01*
X34108060Y-29805140D01*
X34108059Y-29805145D01*
X34106458Y-29810072D01*
X34088460Y-29981321D01*
X34088094Y-29984799D01*
X34059640Y-30044455D01*
X33216513Y-30887582D01*
X33161996Y-30915359D01*
X33150415Y-30916500D01*
X33148498Y-30916500D01*
X33124533Y-30918386D01*
X33116212Y-30919041D01*
X33116211Y-30919041D01*
X33111169Y-30919438D01*
X33003856Y-30950615D01*
X32970465Y-30960316D01*
X32951399Y-30965855D01*
X32808193Y-31050547D01*
X32800004Y-31058736D01*
X32745487Y-31086513D01*
X32685055Y-31076942D01*
X32659996Y-31058736D01*
X32651807Y-31050547D01*
X32508601Y-30965855D01*
X32489536Y-30960316D01*
X32456144Y-30950615D01*
X32348831Y-30919438D01*
X32343789Y-30919041D01*
X32343788Y-30919041D01*
X32337108Y-30918515D01*
X32311502Y-30916500D01*
X32218880Y-30916500D01*
X32160689Y-30897593D01*
X32124725Y-30848093D01*
X32124725Y-30786907D01*
X32146711Y-30749731D01*
X32153904Y-30742071D01*
X32156069Y-30739836D01*
X32176135Y-30719770D01*
X32178224Y-30717077D01*
X32179398Y-30715564D01*
X32185451Y-30708477D01*
X32212320Y-30679864D01*
X32212320Y-30679863D01*
X32216586Y-30675321D01*
X32219588Y-30669860D01*
X32223247Y-30664824D01*
X32223908Y-30665304D01*
X32233877Y-30652027D01*
X33756556Y-29129348D01*
X33763454Y-29123072D01*
X33766760Y-29120337D01*
X33772018Y-29117000D01*
X33818921Y-29067053D01*
X33821084Y-29064820D01*
X33841135Y-29044769D01*
X33843313Y-29041961D01*
X33844396Y-29040566D01*
X33850446Y-29033483D01*
X33877322Y-29004862D01*
X33877323Y-29004861D01*
X33881586Y-29000321D01*
X33892368Y-28980708D01*
X33900898Y-28967722D01*
X33914614Y-28950040D01*
X33932678Y-28908295D01*
X33936781Y-28899921D01*
X33940250Y-28893611D01*
X33958695Y-28860060D01*
X33958970Y-28858988D01*
X33996646Y-28813446D01*
X34055910Y-28798230D01*
X34100088Y-28811821D01*
X34216241Y-28880513D01*
X34227579Y-28885419D01*
X34365943Y-28925618D01*
X34377882Y-28925243D01*
X34381000Y-28915108D01*
X34381000Y-25985687D01*
X34377309Y-25974326D01*
X34366707Y-25974160D01*
X34227579Y-26014581D01*
X34216241Y-26019487D01*
X34083863Y-26097774D01*
X34074100Y-26105348D01*
X34070358Y-26109090D01*
X34015841Y-26136867D01*
X33955409Y-26127296D01*
X33930350Y-26109090D01*
X33921807Y-26100547D01*
X33778601Y-26015855D01*
X33618831Y-25969438D01*
X33613789Y-25969041D01*
X33613788Y-25969041D01*
X33607108Y-25968515D01*
X33581502Y-25966500D01*
X33148498Y-25966500D01*
X33122892Y-25968515D01*
X33116212Y-25969041D01*
X33116211Y-25969041D01*
X33111169Y-25969438D01*
X32951399Y-26015855D01*
X32877893Y-26059326D01*
X32818183Y-26072673D01*
X32762030Y-26048373D01*
X32730884Y-25995708D01*
X32728500Y-25974112D01*
X32728500Y-25674763D01*
X32728939Y-25665448D01*
X32729343Y-25661171D01*
X32730702Y-25655092D01*
X32728549Y-25586588D01*
X32728500Y-25583478D01*
X32728500Y-25555144D01*
X32727835Y-25549878D01*
X32727103Y-25540578D01*
X32725870Y-25501336D01*
X32725870Y-25501333D01*
X32725674Y-25495111D01*
X32719427Y-25473608D01*
X32716278Y-25458400D01*
X32714255Y-25442382D01*
X32714254Y-25442379D01*
X32713474Y-25436203D01*
X32696730Y-25393913D01*
X32693710Y-25385090D01*
X32682758Y-25347391D01*
X32682756Y-25347387D01*
X32681019Y-25341407D01*
X32677848Y-25336045D01*
X32676918Y-25333896D01*
X32671160Y-25272983D01*
X32702306Y-25220318D01*
X32727509Y-25204138D01*
X32752018Y-25193226D01*
X32752020Y-25193225D01*
X32756752Y-25191118D01*
X32911253Y-25078866D01*
X32914719Y-25075017D01*
X32914723Y-25075013D01*
X33035568Y-24940800D01*
X33039040Y-24936944D01*
X33068026Y-24886739D01*
X33131933Y-24776050D01*
X33131935Y-24776045D01*
X33134527Y-24771556D01*
X33160690Y-24691036D01*
X33191940Y-24594860D01*
X33191941Y-24594855D01*
X33193542Y-24589928D01*
X33213504Y-24400000D01*
X33193542Y-24210072D01*
X33191941Y-24205145D01*
X33191940Y-24205140D01*
X33136129Y-24033375D01*
X33134527Y-24028444D01*
X33131935Y-24023955D01*
X33131933Y-24023950D01*
X33041635Y-23867551D01*
X33039040Y-23863056D01*
X33010708Y-23831590D01*
X32914723Y-23724987D01*
X32914719Y-23724983D01*
X32911253Y-23721134D01*
X32756752Y-23608882D01*
X32630540Y-23552689D01*
X32587026Y-23533315D01*
X32587022Y-23533314D01*
X32582288Y-23531206D01*
X32577218Y-23530128D01*
X32577217Y-23530128D01*
X32542083Y-23522660D01*
X32395487Y-23491500D01*
X32204513Y-23491500D01*
X32057917Y-23522660D01*
X32022783Y-23530128D01*
X32022782Y-23530128D01*
X32017712Y-23531206D01*
X32012978Y-23533314D01*
X32012974Y-23533315D01*
X31969460Y-23552689D01*
X31843248Y-23608882D01*
X31688747Y-23721134D01*
X31685281Y-23724983D01*
X31685277Y-23724987D01*
X31589292Y-23831590D01*
X31560960Y-23863056D01*
X31558365Y-23867551D01*
X31468067Y-24023950D01*
X31468065Y-24023955D01*
X31465473Y-24028444D01*
X31463871Y-24033375D01*
X31408060Y-24205140D01*
X31408059Y-24205145D01*
X31406458Y-24210072D01*
X31400525Y-24266523D01*
X31387773Y-24387848D01*
X31362886Y-24443744D01*
X31309898Y-24474337D01*
X31289315Y-24476500D01*
X30875888Y-24476500D01*
X30817697Y-24457593D01*
X30781733Y-24408093D01*
X30781733Y-24346907D01*
X30790672Y-24327110D01*
X30834145Y-24253601D01*
X30880562Y-24093831D01*
X30883500Y-24056502D01*
X30883500Y-23623498D01*
X30880562Y-23586169D01*
X30834145Y-23426399D01*
X30774579Y-23325678D01*
X30752626Y-23288558D01*
X30752625Y-23288557D01*
X30749453Y-23283193D01*
X30741264Y-23275004D01*
X30713487Y-23220487D01*
X30723058Y-23160055D01*
X30741264Y-23134996D01*
X30749453Y-23126807D01*
X30834145Y-22983601D01*
X30880562Y-22823831D01*
X30883500Y-22786502D01*
X30883500Y-22353498D01*
X30880562Y-22316169D01*
X30834145Y-22156399D01*
X30760841Y-22032449D01*
X30752626Y-22018558D01*
X30752625Y-22018557D01*
X30749453Y-22013193D01*
X30741264Y-22005004D01*
X30713487Y-21950487D01*
X30723058Y-21890055D01*
X30741264Y-21864996D01*
X30749453Y-21856807D01*
X30834145Y-21713601D01*
X30880562Y-21553831D01*
X30883500Y-21516502D01*
X30883500Y-21083498D01*
X30880562Y-21046169D01*
X30834145Y-20886399D01*
X30749453Y-20743193D01*
X30741264Y-20735004D01*
X30713487Y-20680487D01*
X30723058Y-20620055D01*
X30741264Y-20594996D01*
X30749453Y-20586807D01*
X30834145Y-20443601D01*
X30880562Y-20283831D01*
X30883500Y-20246502D01*
X30883500Y-19813498D01*
X30880562Y-19776169D01*
X30834145Y-19616399D01*
X30803621Y-19564786D01*
X30790273Y-19505074D01*
X30814573Y-19448921D01*
X30867238Y-19417775D01*
X30928151Y-19423533D01*
X30958838Y-19444387D01*
X31262504Y-19748053D01*
X31290281Y-19802570D01*
X31291500Y-19818057D01*
X31291500Y-21623134D01*
X31298255Y-21685316D01*
X31349385Y-21821705D01*
X31436739Y-21938261D01*
X31553295Y-22025615D01*
X31559893Y-22028089D01*
X31559894Y-22028089D01*
X31583515Y-22036944D01*
X31689684Y-22076745D01*
X31695856Y-22077415D01*
X31695858Y-22077416D01*
X31731837Y-22081324D01*
X31751866Y-22083500D01*
X32043814Y-22083500D01*
X32102005Y-22102407D01*
X32137969Y-22151907D01*
X32137968Y-22213093D01*
X32108062Y-22305132D01*
X32108060Y-22305142D01*
X32106458Y-22310072D01*
X32086496Y-22500000D01*
X32106458Y-22689928D01*
X32108059Y-22694855D01*
X32108060Y-22694860D01*
X32131024Y-22765534D01*
X32165473Y-22871556D01*
X32168065Y-22876045D01*
X32168067Y-22876050D01*
X32220896Y-22967551D01*
X32260960Y-23036944D01*
X32264432Y-23040800D01*
X32385277Y-23175013D01*
X32385281Y-23175017D01*
X32388747Y-23178866D01*
X32543248Y-23291118D01*
X32629788Y-23329648D01*
X32712974Y-23366685D01*
X32712978Y-23366686D01*
X32717712Y-23368794D01*
X32722782Y-23369872D01*
X32722783Y-23369872D01*
X32757917Y-23377340D01*
X32904513Y-23408500D01*
X33095487Y-23408500D01*
X33242083Y-23377340D01*
X33277217Y-23369872D01*
X33277218Y-23369872D01*
X33282288Y-23368794D01*
X33287022Y-23366686D01*
X33287026Y-23366685D01*
X33370212Y-23329648D01*
X33456752Y-23291118D01*
X33611253Y-23178866D01*
X33614719Y-23175017D01*
X33614723Y-23175013D01*
X33735568Y-23040800D01*
X33739040Y-23036944D01*
X33779104Y-22967551D01*
X33831933Y-22876050D01*
X33831935Y-22876045D01*
X33834527Y-22871556D01*
X33868976Y-22765534D01*
X33891940Y-22694860D01*
X33891941Y-22694855D01*
X33893542Y-22689928D01*
X33913504Y-22500000D01*
X33893542Y-22310072D01*
X33891940Y-22305142D01*
X33891938Y-22305132D01*
X33862032Y-22213093D01*
X33862031Y-22151908D01*
X33897995Y-22102408D01*
X33956186Y-22083500D01*
X34248134Y-22083500D01*
X34268163Y-22081324D01*
X34304142Y-22077416D01*
X34304144Y-22077415D01*
X34310316Y-22076745D01*
X34416485Y-22036944D01*
X34440106Y-22028089D01*
X34440107Y-22028089D01*
X34446705Y-22025615D01*
X34563261Y-21938261D01*
X34650615Y-21821705D01*
X34701745Y-21685316D01*
X34708500Y-21623134D01*
X34708500Y-21477761D01*
X34727407Y-21419570D01*
X34776907Y-21383606D01*
X34838667Y-21383795D01*
X34932273Y-21414843D01*
X34995269Y-21435738D01*
X35095428Y-21446000D01*
X35704572Y-21446000D01*
X35805982Y-21435478D01*
X35811117Y-21433765D01*
X35811121Y-21433764D01*
X35961397Y-21383627D01*
X35966849Y-21381808D01*
X36111055Y-21292571D01*
X36230864Y-21172553D01*
X36269950Y-21109144D01*
X36316832Y-21033087D01*
X36316833Y-21033085D01*
X36319849Y-21028192D01*
X36344445Y-20954040D01*
X36371536Y-20872362D01*
X36373238Y-20867231D01*
X36383500Y-20767072D01*
X36383500Y-20232928D01*
X36372978Y-20131518D01*
X36371265Y-20126383D01*
X36371264Y-20126379D01*
X36321127Y-19976103D01*
X36319308Y-19970651D01*
X36230071Y-19826445D01*
X36219053Y-19815446D01*
X36185732Y-19782183D01*
X36157907Y-19727691D01*
X36167426Y-19667251D01*
X36185611Y-19642176D01*
X36226406Y-19601310D01*
X36233486Y-19592345D01*
X36316376Y-19457874D01*
X36321204Y-19447520D01*
X36371042Y-19297262D01*
X36373295Y-19286748D01*
X36382741Y-19194556D01*
X36382771Y-19193976D01*
X36378878Y-19181995D01*
X36374757Y-19179000D01*
X34432680Y-19179000D01*
X34408265Y-19186933D01*
X34342921Y-19185478D01*
X34316131Y-19175435D01*
X34310316Y-19173255D01*
X34304144Y-19172585D01*
X34304142Y-19172584D01*
X34268163Y-19168676D01*
X34248134Y-19166500D01*
X32443057Y-19166500D01*
X32384866Y-19147593D01*
X32373053Y-19137504D01*
X31598058Y-18362509D01*
X31589526Y-18352780D01*
X31568987Y-18326014D01*
X31569898Y-18325315D01*
X31545039Y-18276524D01*
X31554610Y-18216092D01*
X31584629Y-18180944D01*
X31593197Y-18174719D01*
X31601253Y-18168866D01*
X31604719Y-18165017D01*
X31604723Y-18165013D01*
X31725568Y-18030800D01*
X31729040Y-18026944D01*
X31753287Y-17984948D01*
X31821933Y-17866050D01*
X31821935Y-17866045D01*
X31824527Y-17861556D01*
X31847015Y-17792346D01*
X31881940Y-17684860D01*
X31881941Y-17684855D01*
X31883542Y-17679928D01*
X31894901Y-17571849D01*
X31923355Y-17512194D01*
X32046086Y-17389463D01*
X34417000Y-17389463D01*
X34417265Y-17394590D01*
X34426956Y-17487987D01*
X34429232Y-17498523D01*
X34479327Y-17648677D01*
X34484174Y-17659026D01*
X34567299Y-17793353D01*
X34574393Y-17802304D01*
X34686191Y-17913907D01*
X34695157Y-17920988D01*
X34727244Y-17940767D01*
X34766858Y-17987397D01*
X34771499Y-18048406D01*
X34739392Y-18100491D01*
X34727391Y-18109227D01*
X34694144Y-18129801D01*
X34685196Y-18136893D01*
X34573593Y-18248691D01*
X34566514Y-18257654D01*
X34483624Y-18392126D01*
X34478796Y-18402480D01*
X34428958Y-18552738D01*
X34426705Y-18563252D01*
X34417259Y-18655444D01*
X34417229Y-18656024D01*
X34421122Y-18668005D01*
X34425243Y-18671000D01*
X35130320Y-18671000D01*
X35143005Y-18666878D01*
X35146000Y-18662757D01*
X35146000Y-18655320D01*
X35654000Y-18655320D01*
X35658122Y-18668005D01*
X35662243Y-18671000D01*
X36367320Y-18671000D01*
X36380005Y-18666878D01*
X36383000Y-18662757D01*
X36383000Y-18660537D01*
X36382735Y-18655410D01*
X36373044Y-18562013D01*
X36370768Y-18551477D01*
X36320673Y-18401323D01*
X36315826Y-18390974D01*
X36232701Y-18256647D01*
X36225607Y-18247696D01*
X36113809Y-18136093D01*
X36104843Y-18129012D01*
X36072756Y-18109233D01*
X36033142Y-18062603D01*
X36028501Y-18001594D01*
X36060608Y-17949509D01*
X36072609Y-17940773D01*
X36105856Y-17920199D01*
X36114804Y-17913107D01*
X36226407Y-17801309D01*
X36233486Y-17792346D01*
X36316376Y-17657874D01*
X36321204Y-17647520D01*
X36371042Y-17497262D01*
X36373295Y-17486748D01*
X36382741Y-17394556D01*
X36382771Y-17393976D01*
X36378878Y-17381995D01*
X36374757Y-17379000D01*
X35669680Y-17379000D01*
X35656995Y-17383122D01*
X35654000Y-17387243D01*
X35654000Y-18655320D01*
X35146000Y-18655320D01*
X35146000Y-17394680D01*
X35141878Y-17381995D01*
X35137757Y-17379000D01*
X34432680Y-17379000D01*
X34419995Y-17383122D01*
X34417000Y-17387243D01*
X34417000Y-17389463D01*
X32046086Y-17389463D01*
X32373053Y-17062496D01*
X32427570Y-17034719D01*
X32443057Y-17033500D01*
X34248134Y-17033500D01*
X34268163Y-17031324D01*
X34304142Y-17027416D01*
X34304144Y-17027415D01*
X34310316Y-17026745D01*
X34373936Y-17002895D01*
X34440106Y-16978089D01*
X34440107Y-16978089D01*
X34446705Y-16975615D01*
X34452342Y-16971390D01*
X34452348Y-16971387D01*
X34559901Y-16890780D01*
X34619274Y-16871000D01*
X36367320Y-16871000D01*
X36380005Y-16866878D01*
X36383000Y-16862757D01*
X36383000Y-16860537D01*
X36382735Y-16855410D01*
X36373044Y-16762013D01*
X36370768Y-16751477D01*
X36320673Y-16601323D01*
X36315826Y-16590974D01*
X36232702Y-16456648D01*
X36225606Y-16447696D01*
X36185734Y-16407893D01*
X36157908Y-16353401D01*
X36167427Y-16292960D01*
X36185611Y-16267886D01*
X36226799Y-16226626D01*
X36226802Y-16226622D01*
X36230864Y-16222553D01*
X36250005Y-16191500D01*
X36316832Y-16083087D01*
X36316833Y-16083085D01*
X36319849Y-16078192D01*
X36324209Y-16065049D01*
X36371536Y-15922362D01*
X36373238Y-15917231D01*
X36383500Y-15817072D01*
X36383500Y-15282928D01*
X36372978Y-15181518D01*
X36371265Y-15176383D01*
X36371264Y-15176379D01*
X36321127Y-15026103D01*
X36319308Y-15020651D01*
X36230071Y-14876445D01*
X36225174Y-14871556D01*
X36114122Y-14760698D01*
X36110053Y-14756636D01*
X36091708Y-14745328D01*
X35970587Y-14670668D01*
X35970585Y-14670667D01*
X35965692Y-14667651D01*
X35960235Y-14665841D01*
X35960233Y-14665840D01*
X35809862Y-14615964D01*
X35809863Y-14615964D01*
X35804731Y-14614262D01*
X35704572Y-14604000D01*
X35095428Y-14604000D01*
X34994018Y-14614522D01*
X34988883Y-14616235D01*
X34988879Y-14616236D01*
X34838594Y-14666376D01*
X34777410Y-14666857D01*
X34727629Y-14631283D01*
X34708500Y-14578082D01*
X34708500Y-14576866D01*
X34704648Y-14541407D01*
X34702416Y-14520858D01*
X34702415Y-14520856D01*
X34701745Y-14514684D01*
X34650615Y-14378295D01*
X34563261Y-14261739D01*
X34446705Y-14174385D01*
X34310316Y-14123255D01*
X34304144Y-14122585D01*
X34304142Y-14122584D01*
X34268163Y-14118676D01*
X34248134Y-14116500D01*
X31751866Y-14116500D01*
X31731837Y-14118676D01*
X31695858Y-14122584D01*
X31695856Y-14122585D01*
X31689684Y-14123255D01*
X31553295Y-14174385D01*
X31436739Y-14261739D01*
X31349385Y-14378295D01*
X31298255Y-14514684D01*
X31297585Y-14520856D01*
X31297584Y-14520858D01*
X31295352Y-14541407D01*
X31291500Y-14576866D01*
X31291500Y-16381943D01*
X31272593Y-16440134D01*
X31262504Y-16451947D01*
X31161333Y-16553118D01*
X31106816Y-16580895D01*
X31085487Y-16581454D01*
X31085487Y-16581500D01*
X30979092Y-16581500D01*
X30920901Y-16562593D01*
X30884937Y-16513093D01*
X30882331Y-16473970D01*
X30880562Y-16473831D01*
X30882527Y-16448868D01*
X30883500Y-16436502D01*
X30883500Y-16003498D01*
X30880562Y-15966169D01*
X30834145Y-15806399D01*
X30766669Y-15692303D01*
X30752626Y-15668558D01*
X30752625Y-15668557D01*
X30749453Y-15663193D01*
X30631807Y-15545547D01*
X30488601Y-15460855D01*
X30472128Y-15456069D01*
X30452822Y-15450460D01*
X30328831Y-15414438D01*
X30323789Y-15414041D01*
X30323788Y-15414041D01*
X30317108Y-15413515D01*
X30291502Y-15411500D01*
X30212567Y-15411500D01*
X30154376Y-15392593D01*
X30118412Y-15343093D01*
X30118412Y-15281907D01*
X30153194Y-15233280D01*
X30207613Y-15192495D01*
X30207617Y-15192491D01*
X30213261Y-15188261D01*
X30300615Y-15071705D01*
X30315332Y-15032449D01*
X30349565Y-14941131D01*
X30351745Y-14935316D01*
X30352428Y-14929035D01*
X30358211Y-14875793D01*
X30358500Y-14873134D01*
X30358500Y-13607500D01*
X30377407Y-13549309D01*
X30426907Y-13513345D01*
X30457500Y-13508500D01*
X38327555Y-13508500D01*
X38385746Y-13527407D01*
G37*
%TD.AperFunction*%
%TA.AperFunction,Conductor*%
G36*
X27882303Y-16872407D02*
G01*
X27918267Y-16921907D01*
X27918267Y-16983093D01*
X27909328Y-17002890D01*
X27865855Y-17076399D01*
X27819438Y-17236169D01*
X27816500Y-17273498D01*
X27816500Y-17706502D01*
X27819438Y-17743831D01*
X27852207Y-17856625D01*
X27862841Y-17893225D01*
X27865855Y-17903601D01*
X27886387Y-17938319D01*
X27945297Y-18037929D01*
X27950547Y-18046807D01*
X27958736Y-18054996D01*
X27986513Y-18109513D01*
X27976942Y-18169945D01*
X27958736Y-18195004D01*
X27950547Y-18203193D01*
X27947375Y-18208557D01*
X27947374Y-18208558D01*
X27942857Y-18216196D01*
X27865855Y-18346399D01*
X27819438Y-18506169D01*
X27819041Y-18511211D01*
X27819041Y-18511212D01*
X27818622Y-18516535D01*
X27816500Y-18543498D01*
X27816500Y-18976502D01*
X27819438Y-19013831D01*
X27865855Y-19173601D01*
X27950547Y-19316807D01*
X27958736Y-19324996D01*
X27986513Y-19379513D01*
X27976942Y-19439945D01*
X27958736Y-19465004D01*
X27950547Y-19473193D01*
X27865855Y-19616399D01*
X27819438Y-19776169D01*
X27816500Y-19813498D01*
X27816500Y-20246502D01*
X27819438Y-20283831D01*
X27865855Y-20443601D01*
X27950547Y-20586807D01*
X27958736Y-20594996D01*
X27986513Y-20649513D01*
X27976942Y-20709945D01*
X27958736Y-20735004D01*
X27950547Y-20743193D01*
X27865855Y-20886399D01*
X27819438Y-21046169D01*
X27816500Y-21083498D01*
X27816500Y-21516502D01*
X27819438Y-21553831D01*
X27865855Y-21713601D01*
X27950547Y-21856807D01*
X27958736Y-21864996D01*
X27986513Y-21919513D01*
X27976942Y-21979945D01*
X27958736Y-22005004D01*
X27950547Y-22013193D01*
X27947375Y-22018557D01*
X27947374Y-22018558D01*
X27939159Y-22032449D01*
X27865855Y-22156399D01*
X27819438Y-22316169D01*
X27816500Y-22353498D01*
X27816500Y-22786502D01*
X27819438Y-22823831D01*
X27865855Y-22983601D01*
X27950547Y-23126807D01*
X27958736Y-23134996D01*
X27986513Y-23189513D01*
X27976942Y-23249945D01*
X27958736Y-23275004D01*
X27950547Y-23283193D01*
X27947375Y-23288557D01*
X27947374Y-23288558D01*
X27925421Y-23325678D01*
X27865855Y-23426399D01*
X27819438Y-23586169D01*
X27816500Y-23623498D01*
X27816500Y-24056502D01*
X27819438Y-24093831D01*
X27865855Y-24253601D01*
X27950547Y-24396807D01*
X27958736Y-24404996D01*
X27986513Y-24459513D01*
X27976942Y-24519945D01*
X27958736Y-24545004D01*
X27950547Y-24553193D01*
X27865855Y-24696399D01*
X27864117Y-24702380D01*
X27864117Y-24702381D01*
X27862035Y-24709548D01*
X27819438Y-24856169D01*
X27816500Y-24893498D01*
X27816500Y-25326502D01*
X27819438Y-25363831D01*
X27865855Y-25523601D01*
X27950547Y-25666807D01*
X27958736Y-25674996D01*
X27986513Y-25729513D01*
X27976942Y-25789945D01*
X27958736Y-25815004D01*
X27950547Y-25823193D01*
X27865855Y-25966399D01*
X27864117Y-25972380D01*
X27864117Y-25972381D01*
X27863614Y-25974112D01*
X27819438Y-26126169D01*
X27816500Y-26163498D01*
X27816500Y-26596502D01*
X27819438Y-26633831D01*
X27823640Y-26648293D01*
X27864060Y-26787421D01*
X27865855Y-26793601D01*
X27881353Y-26819807D01*
X27947196Y-26931140D01*
X27950547Y-26936807D01*
X28068193Y-27054453D01*
X28211399Y-27139145D01*
X28371169Y-27185562D01*
X28376211Y-27185959D01*
X28376212Y-27185959D01*
X28382892Y-27186485D01*
X28408498Y-27188500D01*
X29221588Y-27188500D01*
X29279779Y-27207407D01*
X29291592Y-27217496D01*
X29561437Y-27487341D01*
X29589214Y-27541858D01*
X29589891Y-27567692D01*
X29587038Y-27594841D01*
X29586496Y-27600000D01*
X29606458Y-27789928D01*
X29608059Y-27794855D01*
X29608060Y-27794860D01*
X29648748Y-27920083D01*
X29665473Y-27971556D01*
X29668065Y-27976045D01*
X29668067Y-27976050D01*
X29713500Y-28054741D01*
X29760960Y-28136944D01*
X29764432Y-28140800D01*
X29885277Y-28275013D01*
X29885281Y-28275017D01*
X29888747Y-28278866D01*
X30043248Y-28391118D01*
X30142519Y-28435316D01*
X30212974Y-28466685D01*
X30212978Y-28466686D01*
X30217712Y-28468794D01*
X30222782Y-28469872D01*
X30222783Y-28469872D01*
X30257917Y-28477340D01*
X30404513Y-28508500D01*
X30595487Y-28508500D01*
X30742083Y-28477340D01*
X30777217Y-28469872D01*
X30777218Y-28469872D01*
X30782288Y-28468794D01*
X30787022Y-28466686D01*
X30787026Y-28466685D01*
X30857481Y-28435316D01*
X30956752Y-28391118D01*
X31111253Y-28278866D01*
X31114723Y-28275012D01*
X31118578Y-28271541D01*
X31119560Y-28272631D01*
X31166935Y-28245276D01*
X31227786Y-28251668D01*
X31273258Y-28292606D01*
X31286448Y-28338228D01*
X31286500Y-28339550D01*
X31286500Y-28341502D01*
X31289438Y-28378831D01*
X31290850Y-28383690D01*
X31327740Y-28510667D01*
X31335855Y-28538601D01*
X31385815Y-28623079D01*
X31398590Y-28644679D01*
X31420547Y-28681807D01*
X31538193Y-28799453D01*
X31681399Y-28884145D01*
X31687380Y-28885883D01*
X31687381Y-28885883D01*
X31715833Y-28894149D01*
X31841169Y-28930562D01*
X31846211Y-28930959D01*
X31846212Y-28930959D01*
X31852892Y-28931485D01*
X31878498Y-28933500D01*
X31921588Y-28933500D01*
X31979779Y-28952407D01*
X32015743Y-29001907D01*
X32015743Y-29063093D01*
X31991592Y-29102503D01*
X31387003Y-29707092D01*
X31332486Y-29734869D01*
X31272054Y-29725298D01*
X31228789Y-29682033D01*
X31217999Y-29637088D01*
X31217999Y-29384589D01*
X31217710Y-29379249D01*
X31211922Y-29325965D01*
X31209073Y-29313980D01*
X31162649Y-29190145D01*
X31155941Y-29177892D01*
X31077137Y-29072744D01*
X31067256Y-29062863D01*
X30962108Y-28984059D01*
X30949855Y-28977351D01*
X30826022Y-28930928D01*
X30814033Y-28928077D01*
X30760748Y-28922289D01*
X30755414Y-28922000D01*
X30379680Y-28922000D01*
X30366995Y-28926122D01*
X30364000Y-28930243D01*
X30364000Y-30185000D01*
X30345093Y-30243191D01*
X30295593Y-30279155D01*
X30265000Y-30284000D01*
X29955000Y-30284000D01*
X29896809Y-30265093D01*
X29860845Y-30215593D01*
X29856000Y-30185000D01*
X29856000Y-28937681D01*
X29851878Y-28924996D01*
X29847757Y-28922001D01*
X29464589Y-28922001D01*
X29459249Y-28922290D01*
X29405965Y-28928078D01*
X29393980Y-28930927D01*
X29270145Y-28977351D01*
X29257892Y-28984059D01*
X29152744Y-29062863D01*
X29142863Y-29072744D01*
X29089534Y-29143901D01*
X29039506Y-29179127D01*
X28978327Y-29178219D01*
X28931093Y-29143902D01*
X28877495Y-29072387D01*
X28877491Y-29072383D01*
X28873261Y-29066739D01*
X28756705Y-28979385D01*
X28746444Y-28975538D01*
X28645460Y-28937681D01*
X28620316Y-28928255D01*
X28614144Y-28927585D01*
X28614142Y-28927584D01*
X28578163Y-28923676D01*
X28558134Y-28921500D01*
X27261866Y-28921500D01*
X27241837Y-28923676D01*
X27205858Y-28927584D01*
X27205856Y-28927585D01*
X27199684Y-28928255D01*
X27080820Y-28972815D01*
X27019697Y-28975538D01*
X26986697Y-28959335D01*
X26912348Y-28903613D01*
X26912342Y-28903610D01*
X26906705Y-28899385D01*
X26870689Y-28885883D01*
X26776131Y-28850435D01*
X26770316Y-28848255D01*
X26764144Y-28847585D01*
X26764142Y-28847584D01*
X26728163Y-28843676D01*
X26708134Y-28841500D01*
X25911866Y-28841500D01*
X25891837Y-28843676D01*
X25855858Y-28847584D01*
X25855856Y-28847585D01*
X25849684Y-28848255D01*
X25843869Y-28850435D01*
X25749312Y-28885883D01*
X25713295Y-28899385D01*
X25596739Y-28986739D01*
X25509385Y-29103295D01*
X25506911Y-29109893D01*
X25506911Y-29109894D01*
X25481420Y-29177892D01*
X25458255Y-29239684D01*
X25457584Y-29245858D01*
X25456315Y-29251196D01*
X25424459Y-29303434D01*
X25367982Y-29326972D01*
X25308456Y-29312818D01*
X25268619Y-29266379D01*
X25263685Y-29251196D01*
X25262416Y-29245858D01*
X25261745Y-29239684D01*
X25238580Y-29177892D01*
X25213089Y-29109894D01*
X25213089Y-29109893D01*
X25210615Y-29103295D01*
X25150507Y-29023093D01*
X25127489Y-28992380D01*
X25127488Y-28992379D01*
X25123261Y-28986739D01*
X25083127Y-28956660D01*
X25047902Y-28906632D01*
X25043500Y-28877440D01*
X25043500Y-18593412D01*
X25062407Y-18535221D01*
X25072496Y-18523408D01*
X26713409Y-16882496D01*
X26767926Y-16854719D01*
X26783413Y-16853500D01*
X27824112Y-16853500D01*
X27882303Y-16872407D01*
G37*
%TD.AperFunction*%
%TA.AperFunction,Conductor*%
G36*
X18506990Y-24610657D02*
G01*
X18550255Y-24653922D01*
X18559826Y-24714354D01*
X18557115Y-24726483D01*
X18519438Y-24856169D01*
X18516500Y-24893498D01*
X18516500Y-25326502D01*
X18519438Y-25363831D01*
X18565855Y-25523601D01*
X18650547Y-25666807D01*
X18659090Y-25675350D01*
X18686867Y-25729867D01*
X18677296Y-25790299D01*
X18659090Y-25815358D01*
X18655348Y-25819100D01*
X18647774Y-25828863D01*
X18569487Y-25961241D01*
X18564581Y-25972579D01*
X18524382Y-26110943D01*
X18524757Y-26122882D01*
X18534892Y-26126000D01*
X20205000Y-26126000D01*
X20263191Y-26144907D01*
X20299155Y-26194407D01*
X20304000Y-26225000D01*
X20304000Y-27172319D01*
X20308122Y-27185004D01*
X20312243Y-27187999D01*
X20989505Y-27187999D01*
X20993403Y-27187846D01*
X21009736Y-27186561D01*
X21069230Y-27200847D01*
X21108965Y-27247374D01*
X21116500Y-27285256D01*
X21116500Y-28732500D01*
X21097593Y-28790691D01*
X21048093Y-28826655D01*
X21017500Y-28831500D01*
X20741866Y-28831500D01*
X20723455Y-28833500D01*
X20685858Y-28837584D01*
X20685856Y-28837585D01*
X20679684Y-28838255D01*
X20673869Y-28840435D01*
X20552637Y-28885883D01*
X20543295Y-28889385D01*
X20426739Y-28976739D01*
X20339385Y-29093295D01*
X20336911Y-29099893D01*
X20336911Y-29099894D01*
X20320983Y-29142383D01*
X20288255Y-29229684D01*
X20287585Y-29235856D01*
X20287584Y-29235858D01*
X20286065Y-29249840D01*
X20281500Y-29291866D01*
X20281500Y-30146587D01*
X20262593Y-30204778D01*
X20213093Y-30240742D01*
X20151907Y-30240742D01*
X20112496Y-30216591D01*
X19504339Y-29608434D01*
X19498062Y-29601534D01*
X19495336Y-29598239D01*
X19492000Y-29592982D01*
X19487464Y-29588723D01*
X19487462Y-29588720D01*
X19442070Y-29546095D01*
X19439836Y-29543931D01*
X19419770Y-29523865D01*
X19417212Y-29521881D01*
X19415564Y-29520602D01*
X19408477Y-29514549D01*
X19395001Y-29501894D01*
X19375321Y-29483414D01*
X19368579Y-29479708D01*
X19355710Y-29472632D01*
X19342727Y-29464104D01*
X19329964Y-29454204D01*
X19329961Y-29454202D01*
X19325041Y-29450386D01*
X19319321Y-29447911D01*
X19319318Y-29447909D01*
X19283294Y-29432319D01*
X19274920Y-29428217D01*
X19240518Y-29409305D01*
X19240515Y-29409304D01*
X19235060Y-29406305D01*
X19229034Y-29404758D01*
X19229027Y-29404755D01*
X19213378Y-29400737D01*
X19198685Y-29395707D01*
X19183860Y-29389292D01*
X19183859Y-29389292D01*
X19178145Y-29386819D01*
X19133221Y-29379703D01*
X19124090Y-29377812D01*
X19086060Y-29368048D01*
X19086059Y-29368048D01*
X19080030Y-29366500D01*
X19057649Y-29366500D01*
X19042162Y-29365281D01*
X19026209Y-29362754D01*
X19026206Y-29362754D01*
X19020057Y-29361780D01*
X18983021Y-29365281D01*
X18974769Y-29366061D01*
X18965452Y-29366500D01*
X18796668Y-29366500D01*
X18738477Y-29347593D01*
X18703968Y-29302251D01*
X18688090Y-29259897D01*
X18685615Y-29253295D01*
X18598261Y-29136739D01*
X18481705Y-29049385D01*
X18458181Y-29040566D01*
X18351131Y-29000435D01*
X18345316Y-28998255D01*
X18339144Y-28997585D01*
X18339142Y-28997584D01*
X18303163Y-28993676D01*
X18283134Y-28991500D01*
X16936866Y-28991500D01*
X16916837Y-28993676D01*
X16880858Y-28997584D01*
X16880856Y-28997585D01*
X16874684Y-28998255D01*
X16868869Y-29000435D01*
X16761820Y-29040566D01*
X16738295Y-29049385D01*
X16621739Y-29136739D01*
X16534385Y-29253295D01*
X16531910Y-29259897D01*
X16516032Y-29302251D01*
X16477902Y-29350102D01*
X16423332Y-29366500D01*
X16207500Y-29366500D01*
X16149309Y-29347593D01*
X16113345Y-29298093D01*
X16108500Y-29267500D01*
X16108500Y-29101866D01*
X16104684Y-29066739D01*
X16102416Y-29045858D01*
X16102415Y-29045856D01*
X16101745Y-29039684D01*
X16072082Y-28960559D01*
X16053089Y-28909894D01*
X16053089Y-28909893D01*
X16050615Y-28903295D01*
X15963261Y-28786739D01*
X15846705Y-28699385D01*
X15840101Y-28696909D01*
X15716131Y-28650435D01*
X15710316Y-28648255D01*
X15704142Y-28647584D01*
X15698106Y-28646149D01*
X15698800Y-28643229D01*
X15654058Y-28623079D01*
X15623692Y-28569961D01*
X15630346Y-28509139D01*
X15650734Y-28479665D01*
X15784831Y-28346035D01*
X15790088Y-28339858D01*
X15915651Y-28165119D01*
X15919823Y-28158176D01*
X16015164Y-27965268D01*
X16018144Y-27957744D01*
X16080701Y-27751843D01*
X16082410Y-27743938D01*
X16084304Y-27729547D01*
X16081873Y-27716431D01*
X16080571Y-27715195D01*
X16075290Y-27714000D01*
X14595000Y-27714000D01*
X14536809Y-27695093D01*
X14500845Y-27645593D01*
X14496000Y-27615000D01*
X14496000Y-27305000D01*
X14514907Y-27246809D01*
X14564407Y-27210845D01*
X14595000Y-27206000D01*
X16070779Y-27206000D01*
X16082730Y-27202117D01*
X16083058Y-27192462D01*
X16040946Y-27024809D01*
X16038333Y-27017133D01*
X15952534Y-26819807D01*
X15948701Y-26812660D01*
X15842368Y-26648293D01*
X18524160Y-26648293D01*
X18564581Y-26787421D01*
X18569487Y-26798759D01*
X18647776Y-26931140D01*
X18655346Y-26940899D01*
X18764101Y-27049654D01*
X18773860Y-27057224D01*
X18906241Y-27135513D01*
X18917579Y-27140419D01*
X19066393Y-27183655D01*
X19076288Y-27185462D01*
X19106601Y-27187847D01*
X19110493Y-27188000D01*
X19780320Y-27188000D01*
X19793005Y-27183878D01*
X19796000Y-27179757D01*
X19796000Y-26649680D01*
X19791878Y-26636995D01*
X19787757Y-26634000D01*
X18535687Y-26634000D01*
X18524326Y-26637691D01*
X18524160Y-26648293D01*
X15842368Y-26648293D01*
X15831826Y-26631997D01*
X15826880Y-26625575D01*
X15682065Y-26466426D01*
X15676139Y-26460899D01*
X15507269Y-26327534D01*
X15500525Y-26323054D01*
X15419503Y-26278327D01*
X15377697Y-26233651D01*
X15370134Y-26172935D01*
X15399704Y-26119370D01*
X15423795Y-26102751D01*
X15444340Y-26092686D01*
X15444339Y-26092686D01*
X15447994Y-26090896D01*
X15629860Y-25961173D01*
X15788096Y-25803489D01*
X15918453Y-25622077D01*
X15997046Y-25463056D01*
X16009115Y-25438636D01*
X16051848Y-25394846D01*
X16097867Y-25383500D01*
X17295238Y-25383500D01*
X17304552Y-25383939D01*
X17308831Y-25384343D01*
X17314909Y-25385702D01*
X17383399Y-25383549D01*
X17386510Y-25383500D01*
X17414856Y-25383500D01*
X17417942Y-25383110D01*
X17417945Y-25383110D01*
X17420131Y-25382834D01*
X17429426Y-25382102D01*
X17445447Y-25381599D01*
X17468663Y-25380869D01*
X17468665Y-25380869D01*
X17474889Y-25380673D01*
X17496387Y-25374427D01*
X17511579Y-25371281D01*
X17533797Y-25368474D01*
X17576097Y-25351726D01*
X17584917Y-25348707D01*
X17628593Y-25336018D01*
X17633950Y-25332850D01*
X17633954Y-25332848D01*
X17647857Y-25324625D01*
X17661801Y-25317793D01*
X17682617Y-25309552D01*
X17719430Y-25282806D01*
X17727194Y-25277706D01*
X17766362Y-25254542D01*
X17782189Y-25238715D01*
X17794002Y-25228626D01*
X17807071Y-25219131D01*
X17807072Y-25219131D01*
X17812107Y-25215472D01*
X17816073Y-25210677D01*
X17816076Y-25210675D01*
X17841098Y-25180428D01*
X17847375Y-25173529D01*
X18392041Y-24628863D01*
X18446558Y-24601086D01*
X18506990Y-24610657D01*
G37*
%TD.AperFunction*%
%TA.AperFunction,Conductor*%
G36*
X26301191Y-13527407D02*
G01*
X26337155Y-13576907D01*
X26342000Y-13607500D01*
X26342000Y-13930320D01*
X26346122Y-13943005D01*
X26350243Y-13946000D01*
X27505000Y-13946000D01*
X27563191Y-13964907D01*
X27599155Y-14014407D01*
X27604000Y-14045000D01*
X27604000Y-15317319D01*
X27608122Y-15330004D01*
X27612243Y-15332999D01*
X27895411Y-15332999D01*
X27900751Y-15332710D01*
X27954035Y-15326922D01*
X27966020Y-15324073D01*
X28089855Y-15277649D01*
X28102108Y-15270941D01*
X28207256Y-15192137D01*
X28217137Y-15182256D01*
X28270466Y-15111099D01*
X28320494Y-15075873D01*
X28381673Y-15076781D01*
X28428907Y-15111098D01*
X28482505Y-15182613D01*
X28482509Y-15182617D01*
X28486739Y-15188261D01*
X28492383Y-15192491D01*
X28492387Y-15192495D01*
X28546806Y-15233280D01*
X28582031Y-15283308D01*
X28581123Y-15344486D01*
X28544429Y-15393447D01*
X28487433Y-15411500D01*
X28408498Y-15411500D01*
X28382892Y-15413515D01*
X28376212Y-15414041D01*
X28376211Y-15414041D01*
X28371169Y-15414438D01*
X28247178Y-15450460D01*
X28227873Y-15456069D01*
X28211399Y-15460855D01*
X28068193Y-15545547D01*
X28056236Y-15557504D01*
X28001719Y-15585281D01*
X27986232Y-15586500D01*
X26559762Y-15586500D01*
X26550448Y-15586061D01*
X26546169Y-15585657D01*
X26540091Y-15584298D01*
X26471601Y-15586451D01*
X26468490Y-15586500D01*
X26440144Y-15586500D01*
X26437058Y-15586890D01*
X26437055Y-15586890D01*
X26434869Y-15587166D01*
X26425574Y-15587898D01*
X26409553Y-15588401D01*
X26386337Y-15589131D01*
X26386335Y-15589131D01*
X26380111Y-15589327D01*
X26358613Y-15595573D01*
X26343421Y-15598719D01*
X26321203Y-15601526D01*
X26315414Y-15603818D01*
X26278903Y-15618274D01*
X26270083Y-15621293D01*
X26226407Y-15633982D01*
X26221050Y-15637150D01*
X26221046Y-15637152D01*
X26207143Y-15645375D01*
X26193199Y-15652207D01*
X26172383Y-15660448D01*
X26135570Y-15687194D01*
X26127806Y-15692294D01*
X26088638Y-15715458D01*
X26072811Y-15731285D01*
X26060999Y-15741373D01*
X26042893Y-15754528D01*
X26038927Y-15759323D01*
X26038924Y-15759325D01*
X26013902Y-15789572D01*
X26007625Y-15796471D01*
X24018434Y-17785661D01*
X24011534Y-17791938D01*
X24008239Y-17794664D01*
X24002982Y-17798000D01*
X23998723Y-17802536D01*
X23998720Y-17802538D01*
X23956095Y-17847930D01*
X23953931Y-17850164D01*
X23933865Y-17870230D01*
X23931960Y-17872686D01*
X23930602Y-17874436D01*
X23924549Y-17881523D01*
X23911894Y-17894999D01*
X23893414Y-17914679D01*
X23890415Y-17920134D01*
X23882632Y-17934290D01*
X23874104Y-17947273D01*
X23864204Y-17960036D01*
X23864202Y-17960039D01*
X23860386Y-17964959D01*
X23857911Y-17970679D01*
X23857909Y-17970682D01*
X23842319Y-18006706D01*
X23838217Y-18015080D01*
X23819305Y-18049482D01*
X23819304Y-18049485D01*
X23816305Y-18054940D01*
X23814758Y-18060966D01*
X23814755Y-18060973D01*
X23810737Y-18076622D01*
X23805707Y-18091315D01*
X23799747Y-18105088D01*
X23796819Y-18111855D01*
X23793835Y-18130695D01*
X23789703Y-18156780D01*
X23787812Y-18165910D01*
X23778240Y-18203193D01*
X23776500Y-18209970D01*
X23776500Y-18232351D01*
X23775281Y-18247838D01*
X23771780Y-18269943D01*
X23775107Y-18305140D01*
X23776061Y-18315231D01*
X23776500Y-18324548D01*
X23776500Y-28799994D01*
X23757593Y-28858185D01*
X23708093Y-28894149D01*
X23646907Y-28894149D01*
X23637835Y-28890232D01*
X23636705Y-28889385D01*
X23500316Y-28838255D01*
X23494144Y-28837585D01*
X23494142Y-28837584D01*
X23456545Y-28833500D01*
X23438134Y-28831500D01*
X22641866Y-28831500D01*
X22623455Y-28833500D01*
X22585858Y-28837584D01*
X22585856Y-28837585D01*
X22579684Y-28838255D01*
X22517251Y-28861660D01*
X22456127Y-28864383D01*
X22405076Y-28830657D01*
X22383500Y-28768960D01*
X22383500Y-26079762D01*
X22383939Y-26070448D01*
X22384343Y-26066169D01*
X22385702Y-26060091D01*
X22383549Y-25991601D01*
X22383500Y-25988490D01*
X22383500Y-25960144D01*
X22382834Y-25954869D01*
X22382102Y-25945570D01*
X22380869Y-25906340D01*
X22380869Y-25906339D01*
X22380673Y-25900111D01*
X22381530Y-25900084D01*
X22390274Y-25844868D01*
X22438218Y-25799370D01*
X22456752Y-25791118D01*
X22476143Y-25777030D01*
X22547634Y-25725088D01*
X22611253Y-25678866D01*
X22614719Y-25675017D01*
X22614723Y-25675013D01*
X22735568Y-25540800D01*
X22739040Y-25536944D01*
X22779923Y-25466133D01*
X22831933Y-25376050D01*
X22831935Y-25376045D01*
X22834527Y-25371556D01*
X22853929Y-25311843D01*
X22891940Y-25194860D01*
X22891941Y-25194855D01*
X22893542Y-25189928D01*
X22913504Y-25000000D01*
X22893542Y-24810072D01*
X22891941Y-24805145D01*
X22891940Y-24805140D01*
X22845151Y-24661141D01*
X22834527Y-24628444D01*
X22831935Y-24623955D01*
X22831933Y-24623950D01*
X22743268Y-24470379D01*
X22739040Y-24463056D01*
X22611253Y-24321134D01*
X22611575Y-24320844D01*
X22582557Y-24270584D01*
X22588952Y-24209734D01*
X22611329Y-24178934D01*
X22611253Y-24178866D01*
X22611904Y-24178143D01*
X22739040Y-24036944D01*
X22803060Y-23926059D01*
X22831933Y-23876050D01*
X22831935Y-23876045D01*
X22834527Y-23871556D01*
X22862782Y-23784598D01*
X22891940Y-23694860D01*
X22891941Y-23694855D01*
X22893542Y-23689928D01*
X22913504Y-23500000D01*
X22893542Y-23310072D01*
X22891941Y-23305145D01*
X22891940Y-23305140D01*
X22836129Y-23133375D01*
X22834527Y-23128444D01*
X22831935Y-23123955D01*
X22831933Y-23123950D01*
X22741635Y-22967551D01*
X22739040Y-22963056D01*
X22712227Y-22933277D01*
X22614723Y-22824987D01*
X22614719Y-22824983D01*
X22611253Y-22821134D01*
X22456752Y-22708882D01*
X22303563Y-22640678D01*
X22287026Y-22633315D01*
X22287022Y-22633314D01*
X22282288Y-22631206D01*
X22277218Y-22630128D01*
X22277217Y-22630128D01*
X22120595Y-22596837D01*
X22067607Y-22566244D01*
X22042720Y-22510348D01*
X22055442Y-22450500D01*
X22100911Y-22409559D01*
X22120595Y-22403163D01*
X22277217Y-22369872D01*
X22277218Y-22369872D01*
X22282288Y-22368794D01*
X22287022Y-22366686D01*
X22287026Y-22366685D01*
X22402595Y-22315230D01*
X22456752Y-22291118D01*
X22611253Y-22178866D01*
X22614719Y-22175017D01*
X22614723Y-22175013D01*
X22735568Y-22040800D01*
X22739040Y-22036944D01*
X22763287Y-21994948D01*
X22831933Y-21876050D01*
X22831935Y-21876045D01*
X22834527Y-21871556D01*
X22884108Y-21718964D01*
X22891940Y-21694860D01*
X22891941Y-21694855D01*
X22893542Y-21689928D01*
X22913504Y-21500000D01*
X22893542Y-21310072D01*
X22891941Y-21305145D01*
X22891940Y-21305140D01*
X22836129Y-21133375D01*
X22834527Y-21128444D01*
X22831935Y-21123955D01*
X22831933Y-21123950D01*
X22741635Y-20967551D01*
X22739040Y-20963056D01*
X22611253Y-20821134D01*
X22611575Y-20820844D01*
X22582557Y-20770584D01*
X22588952Y-20709734D01*
X22611329Y-20678934D01*
X22611253Y-20678866D01*
X22611904Y-20678143D01*
X22739040Y-20536944D01*
X22786572Y-20454616D01*
X22831933Y-20376050D01*
X22831935Y-20376045D01*
X22834527Y-20371556D01*
X22863031Y-20283831D01*
X22891940Y-20194860D01*
X22891941Y-20194855D01*
X22893542Y-20189928D01*
X22913504Y-20000000D01*
X22893542Y-19810072D01*
X22891941Y-19805145D01*
X22891940Y-19805140D01*
X22836129Y-19633375D01*
X22834527Y-19628444D01*
X22831935Y-19623955D01*
X22831933Y-19623950D01*
X22747990Y-19478558D01*
X22739040Y-19463056D01*
X22662089Y-19377593D01*
X22614725Y-19324990D01*
X22611253Y-19321134D01*
X22611575Y-19320844D01*
X22582557Y-19270584D01*
X22588952Y-19209734D01*
X22611329Y-19178934D01*
X22611253Y-19178866D01*
X22611904Y-19178143D01*
X22739040Y-19036944D01*
X22801754Y-18928321D01*
X22831933Y-18876050D01*
X22831935Y-18876045D01*
X22834527Y-18871556D01*
X22857729Y-18800147D01*
X22891940Y-18694860D01*
X22891941Y-18694855D01*
X22893542Y-18689928D01*
X22913504Y-18500000D01*
X22893542Y-18310072D01*
X22891941Y-18305145D01*
X22891940Y-18305140D01*
X22847661Y-18168866D01*
X22834527Y-18128444D01*
X22831935Y-18123955D01*
X22831933Y-18123950D01*
X22741635Y-17967551D01*
X22739040Y-17963056D01*
X22701162Y-17920988D01*
X22614723Y-17824987D01*
X22614719Y-17824983D01*
X22611253Y-17821134D01*
X22456752Y-17708882D01*
X22321529Y-17648677D01*
X22287026Y-17633315D01*
X22287022Y-17633314D01*
X22282288Y-17631206D01*
X22277218Y-17630128D01*
X22277217Y-17630128D01*
X22242083Y-17622660D01*
X22095487Y-17591500D01*
X21904513Y-17591500D01*
X21833521Y-17606590D01*
X21722782Y-17630128D01*
X21722779Y-17630129D01*
X21717712Y-17631206D01*
X21713060Y-17633277D01*
X21651906Y-17633276D01*
X21602406Y-17597312D01*
X21583500Y-17539122D01*
X21583500Y-17273498D01*
X21580562Y-17236169D01*
X21534145Y-17076399D01*
X21449453Y-16933193D01*
X21441264Y-16925004D01*
X21413487Y-16870487D01*
X21423058Y-16810055D01*
X21441264Y-16784996D01*
X21449453Y-16776807D01*
X21534145Y-16633601D01*
X21580562Y-16473831D01*
X21583500Y-16436502D01*
X21583500Y-16003498D01*
X21580562Y-15966169D01*
X21534145Y-15806399D01*
X21466669Y-15692303D01*
X21452626Y-15668558D01*
X21452625Y-15668557D01*
X21449453Y-15663193D01*
X21331807Y-15545547D01*
X21188601Y-15460855D01*
X21172128Y-15456069D01*
X21152822Y-15450460D01*
X21028831Y-15414438D01*
X21023789Y-15414041D01*
X21023788Y-15414041D01*
X21017108Y-15413515D01*
X20991502Y-15411500D01*
X19108498Y-15411500D01*
X19082892Y-15413515D01*
X19076212Y-15414041D01*
X19076211Y-15414041D01*
X19071169Y-15414438D01*
X18947178Y-15450460D01*
X18927873Y-15456069D01*
X18911399Y-15460855D01*
X18768193Y-15545547D01*
X18650547Y-15663193D01*
X18647375Y-15668557D01*
X18647374Y-15668558D01*
X18633331Y-15692303D01*
X18565855Y-15806399D01*
X18519438Y-15966169D01*
X18516500Y-16003498D01*
X18516500Y-16436502D01*
X18519438Y-16473831D01*
X18565855Y-16633601D01*
X18650547Y-16776807D01*
X18658736Y-16784996D01*
X18686513Y-16839513D01*
X18676942Y-16899945D01*
X18658736Y-16925004D01*
X18650547Y-16933193D01*
X18565855Y-17076399D01*
X18519438Y-17236169D01*
X18516500Y-17273498D01*
X18516500Y-17382500D01*
X18497593Y-17440691D01*
X18448093Y-17476655D01*
X18417500Y-17481500D01*
X18408412Y-17481500D01*
X18350221Y-17462593D01*
X18338408Y-17452504D01*
X16089770Y-15203865D01*
X16061993Y-15149348D01*
X16065049Y-15105082D01*
X16081189Y-15051957D01*
X16081190Y-15051954D01*
X16082370Y-15048069D01*
X16105760Y-14870411D01*
X26342001Y-14870411D01*
X26342290Y-14875751D01*
X26348078Y-14929035D01*
X26350927Y-14941020D01*
X26397351Y-15064855D01*
X26404059Y-15077108D01*
X26482863Y-15182256D01*
X26492744Y-15192137D01*
X26597892Y-15270941D01*
X26610145Y-15277649D01*
X26733978Y-15324072D01*
X26745967Y-15326923D01*
X26799252Y-15332711D01*
X26804586Y-15333000D01*
X27080320Y-15333000D01*
X27093005Y-15328878D01*
X27096000Y-15324757D01*
X27096000Y-14469680D01*
X27091878Y-14456995D01*
X27087757Y-14454000D01*
X26357681Y-14454000D01*
X26344996Y-14458122D01*
X26342001Y-14462243D01*
X26342001Y-14870411D01*
X16105760Y-14870411D01*
X16111529Y-14826590D01*
X16113156Y-14760000D01*
X16112940Y-14757370D01*
X16095185Y-14541407D01*
X16095184Y-14541403D01*
X16094852Y-14537361D01*
X16087696Y-14508869D01*
X16041422Y-14324648D01*
X16040431Y-14320702D01*
X15966166Y-14149905D01*
X15952976Y-14119570D01*
X15952975Y-14119569D01*
X15951354Y-14115840D01*
X15830014Y-13928277D01*
X15679670Y-13763051D01*
X15581085Y-13685193D01*
X15547136Y-13634289D01*
X15549592Y-13573153D01*
X15587514Y-13525136D01*
X15642443Y-13508500D01*
X26243000Y-13508500D01*
X26301191Y-13527407D01*
G37*
%TD.AperFunction*%
%TA.AperFunction,Conductor*%
G36*
X42449142Y-24114519D02*
G01*
X42486050Y-24163319D01*
X42491500Y-24195714D01*
X42491500Y-26342054D01*
X42472593Y-26400245D01*
X42423093Y-26436209D01*
X42361907Y-26436209D01*
X42312407Y-26400245D01*
X42305662Y-26389595D01*
X42303090Y-26384896D01*
X42300615Y-26378295D01*
X42296390Y-26372657D01*
X42296388Y-26372654D01*
X42217491Y-26267383D01*
X42213261Y-26261739D01*
X42096705Y-26174385D01*
X42072861Y-26165446D01*
X41966131Y-26125435D01*
X41960316Y-26123255D01*
X41954144Y-26122585D01*
X41954142Y-26122584D01*
X41918163Y-26118676D01*
X41898134Y-26116500D01*
X40578413Y-26116500D01*
X40520222Y-26097593D01*
X40508409Y-26087504D01*
X39629339Y-25208434D01*
X39623062Y-25201534D01*
X39620336Y-25198239D01*
X39617000Y-25192982D01*
X39612464Y-25188723D01*
X39612462Y-25188720D01*
X39567070Y-25146095D01*
X39564836Y-25143931D01*
X39544770Y-25123865D01*
X39542212Y-25121881D01*
X39540564Y-25120602D01*
X39533477Y-25114549D01*
X39516245Y-25098368D01*
X39500321Y-25083414D01*
X39492049Y-25078866D01*
X39480710Y-25072632D01*
X39467727Y-25064104D01*
X39454964Y-25054204D01*
X39454961Y-25054202D01*
X39450041Y-25050386D01*
X39444321Y-25047911D01*
X39444318Y-25047909D01*
X39408294Y-25032319D01*
X39399920Y-25028217D01*
X39365518Y-25009305D01*
X39365515Y-25009304D01*
X39360060Y-25006305D01*
X39354034Y-25004758D01*
X39354027Y-25004755D01*
X39338378Y-25000737D01*
X39323685Y-24995707D01*
X39308860Y-24989292D01*
X39308859Y-24989292D01*
X39303145Y-24986819D01*
X39269183Y-24981440D01*
X39214668Y-24953663D01*
X39205450Y-24943031D01*
X39167494Y-24892386D01*
X39167491Y-24892383D01*
X39163261Y-24886739D01*
X39046705Y-24799385D01*
X38910316Y-24748255D01*
X38904142Y-24747584D01*
X38898804Y-24746315D01*
X38846566Y-24714459D01*
X38823028Y-24657982D01*
X38837182Y-24598456D01*
X38883621Y-24558619D01*
X38898804Y-24553685D01*
X38904142Y-24552416D01*
X38910316Y-24551745D01*
X38949100Y-24537206D01*
X39040106Y-24503089D01*
X39040107Y-24503089D01*
X39046705Y-24500615D01*
X39134946Y-24434482D01*
X39157620Y-24417489D01*
X39157621Y-24417488D01*
X39163261Y-24413261D01*
X39193340Y-24373127D01*
X39243368Y-24337902D01*
X39272560Y-24333500D01*
X39699564Y-24333500D01*
X39757755Y-24352407D01*
X39783975Y-24380773D01*
X39887411Y-24549565D01*
X39899987Y-24570088D01*
X39902648Y-24573160D01*
X39902651Y-24573164D01*
X40043584Y-24735861D01*
X40043588Y-24735865D01*
X40046250Y-24738938D01*
X40049377Y-24741534D01*
X40049378Y-24741535D01*
X40215003Y-24879040D01*
X40215009Y-24879044D01*
X40218126Y-24881632D01*
X40411000Y-24994338D01*
X40619692Y-25074030D01*
X40623672Y-25074840D01*
X40623673Y-25074840D01*
X40651075Y-25080415D01*
X40838597Y-25118567D01*
X40842654Y-25118716D01*
X40842656Y-25118716D01*
X40894093Y-25120602D01*
X41061837Y-25126753D01*
X41065856Y-25126238D01*
X41065860Y-25126238D01*
X41279384Y-25098885D01*
X41279390Y-25098884D01*
X41283416Y-25098368D01*
X41287309Y-25097200D01*
X41287314Y-25097199D01*
X41451603Y-25047909D01*
X41497384Y-25034174D01*
X41697994Y-24935896D01*
X41879860Y-24806173D01*
X42038096Y-24648489D01*
X42168453Y-24467077D01*
X42267430Y-24266811D01*
X42268608Y-24262935D01*
X42268610Y-24262929D01*
X42297775Y-24166934D01*
X42332782Y-24116753D01*
X42390599Y-24096732D01*
X42449142Y-24114519D01*
G37*
%TD.AperFunction*%
%TA.AperFunction,Conductor*%
G36*
X17664778Y-23402407D02*
G01*
X17700742Y-23451907D01*
X17700742Y-23513093D01*
X17676591Y-23552504D01*
X17141591Y-24087504D01*
X17087074Y-24115281D01*
X17071587Y-24116500D01*
X15899462Y-24116500D01*
X15841271Y-24097593D01*
X15826239Y-24084128D01*
X15682407Y-23926059D01*
X15679670Y-23923051D01*
X15504359Y-23784598D01*
X15420052Y-23738058D01*
X15378246Y-23693383D01*
X15370683Y-23632667D01*
X15400253Y-23579101D01*
X15424345Y-23562482D01*
X15444336Y-23552689D01*
X15444345Y-23552684D01*
X15447994Y-23550896D01*
X15629860Y-23421173D01*
X15638691Y-23412373D01*
X15693256Y-23384692D01*
X15708571Y-23383500D01*
X17606587Y-23383500D01*
X17664778Y-23402407D01*
G37*
%TD.AperFunction*%
%TA.AperFunction,Conductor*%
G36*
X42449142Y-17889519D02*
G01*
X42486050Y-17938319D01*
X42491500Y-17970714D01*
X42491500Y-20092054D01*
X42472593Y-20150245D01*
X42423093Y-20186209D01*
X42361907Y-20186209D01*
X42312407Y-20150245D01*
X42305662Y-20139595D01*
X42303089Y-20134894D01*
X42300615Y-20128295D01*
X42296390Y-20122657D01*
X42296388Y-20122654D01*
X42217491Y-20017383D01*
X42213261Y-20011739D01*
X42096705Y-19924385D01*
X42056221Y-19909208D01*
X41966131Y-19875435D01*
X41960316Y-19873255D01*
X41954144Y-19872585D01*
X41954142Y-19872584D01*
X41918163Y-19868676D01*
X41898134Y-19866500D01*
X41732500Y-19866500D01*
X41674309Y-19847593D01*
X41638345Y-19798093D01*
X41633500Y-19767500D01*
X41633500Y-18804234D01*
X41652407Y-18746043D01*
X41688943Y-18715331D01*
X41694337Y-18712688D01*
X41694341Y-18712685D01*
X41697994Y-18710896D01*
X41879860Y-18581173D01*
X42038096Y-18423489D01*
X42168453Y-18242077D01*
X42267430Y-18041811D01*
X42268608Y-18037935D01*
X42268610Y-18037929D01*
X42297775Y-17941934D01*
X42332782Y-17891753D01*
X42390599Y-17871732D01*
X42449142Y-17889519D01*
G37*
%TD.AperFunction*%
%TA.AperFunction,Conductor*%
G36*
X16278768Y-17184672D02*
G01*
X17600652Y-18506556D01*
X17606928Y-18513454D01*
X17609663Y-18516760D01*
X17613000Y-18522018D01*
X17644371Y-18551477D01*
X17662946Y-18568920D01*
X17665180Y-18571084D01*
X17685231Y-18591135D01*
X17687683Y-18593037D01*
X17689434Y-18594396D01*
X17696517Y-18600446D01*
X17729679Y-18631586D01*
X17746760Y-18640976D01*
X17749292Y-18642368D01*
X17762278Y-18650898D01*
X17779960Y-18664614D01*
X17794718Y-18671000D01*
X17821702Y-18682677D01*
X17830076Y-18686780D01*
X17869940Y-18708695D01*
X17875972Y-18710244D01*
X17875975Y-18710245D01*
X17891622Y-18714263D01*
X17906315Y-18719293D01*
X17921140Y-18725708D01*
X17926855Y-18728181D01*
X17961666Y-18733695D01*
X17971780Y-18735297D01*
X17980910Y-18737188D01*
X18018940Y-18746952D01*
X18018941Y-18746952D01*
X18024970Y-18748500D01*
X18047351Y-18748500D01*
X18062838Y-18749719D01*
X18078791Y-18752246D01*
X18078794Y-18752246D01*
X18084943Y-18753220D01*
X18130231Y-18748939D01*
X18139548Y-18748500D01*
X18417500Y-18748500D01*
X18475691Y-18767407D01*
X18511655Y-18816907D01*
X18516500Y-18847500D01*
X18516500Y-18976502D01*
X18519438Y-19013831D01*
X18565855Y-19173601D01*
X18609326Y-19247107D01*
X18622673Y-19306817D01*
X18598373Y-19362970D01*
X18545708Y-19394116D01*
X18524112Y-19396500D01*
X18083412Y-19396500D01*
X18025221Y-19377593D01*
X18013408Y-19367504D01*
X16134529Y-17488625D01*
X16106752Y-17434108D01*
X16106380Y-17405698D01*
X16111185Y-17369205D01*
X16111185Y-17369200D01*
X16111529Y-17366590D01*
X16113156Y-17300000D01*
X16112940Y-17297368D01*
X16110097Y-17262787D01*
X16124173Y-17203243D01*
X16170560Y-17163344D01*
X16231540Y-17158332D01*
X16278768Y-17184672D01*
G37*
%TD.AperFunction*%
%TD*%
%TA.AperFunction,NonConductor*%
G36*
X29042300Y-30881781D02*
G01*
X29089534Y-30916099D01*
X29142863Y-30987256D01*
X29152744Y-30997137D01*
X29257892Y-31075941D01*
X29270145Y-31082649D01*
X29393978Y-31129072D01*
X29405967Y-31131923D01*
X29459252Y-31137711D01*
X29464586Y-31138000D01*
X29727088Y-31138000D01*
X29785279Y-31156907D01*
X29821243Y-31206407D01*
X29821243Y-31267593D01*
X29797094Y-31307002D01*
X29766590Y-31337505D01*
X29712075Y-31365281D01*
X29696588Y-31366500D01*
X25732500Y-31366500D01*
X25674309Y-31347593D01*
X25638345Y-31298093D01*
X25633500Y-31267500D01*
X25633500Y-31213543D01*
X25652407Y-31155352D01*
X25701907Y-31119388D01*
X25767251Y-31120843D01*
X25830243Y-31144457D01*
X25849684Y-31151745D01*
X25855856Y-31152415D01*
X25855858Y-31152416D01*
X25891837Y-31156324D01*
X25911866Y-31158500D01*
X26708134Y-31158500D01*
X26728163Y-31156324D01*
X26764142Y-31152416D01*
X26764144Y-31152415D01*
X26770316Y-31151745D01*
X26830796Y-31129072D01*
X26900106Y-31103089D01*
X26900107Y-31103089D01*
X26906705Y-31100615D01*
X26912345Y-31096388D01*
X26912347Y-31096387D01*
X26938972Y-31076433D01*
X26996875Y-31056665D01*
X27050811Y-31074192D01*
X27051465Y-31072998D01*
X27057650Y-31076384D01*
X27063295Y-31080615D01*
X27199684Y-31131745D01*
X27205856Y-31132415D01*
X27205858Y-31132416D01*
X27241837Y-31136324D01*
X27261866Y-31138500D01*
X28558134Y-31138500D01*
X28578163Y-31136324D01*
X28614142Y-31132416D01*
X28614144Y-31132415D01*
X28620316Y-31131745D01*
X28691239Y-31105157D01*
X28750106Y-31083089D01*
X28750107Y-31083089D01*
X28756705Y-31080615D01*
X28873261Y-30993261D01*
X28877491Y-30987617D01*
X28877495Y-30987613D01*
X28931093Y-30916098D01*
X28981121Y-30880873D01*
X29042300Y-30881781D01*
G37*
%TD.AperFunction*%
M02*
