M48
; DRILL file {KiCad (6.0.7)} date Mon Jan 30 20:46:28 2023
; FORMAT={-:-/ absolute / inch / decimal}
; #@! TF.CreationDate,2023-01-30T20:46:28-05:00
; #@! TF.GenerationSoftware,Kicad,Pcbnew,(6.0.7)
; #@! TF.FileFunction,Plated,1,2,PTH
FMAT,2
INCH
; #@! TA.AperFunction,Plated,PTH,ViaDrill
T1C0.0157
; #@! TA.AperFunction,Plated,PTH,ComponentDrill
T2C0.0394
%
G90
G05
T1
X0.56Y-1.311
X0.65Y-1.27
X0.71Y-0.611
X0.71Y-1.111
X0.7305Y-1.0504
X0.758Y-1.2708
X0.76Y-1.1921
X0.81Y-0.611
X0.8761Y-0.7393
X0.8761Y-0.7984
X0.8761Y-0.8575
X0.8967Y-0.9816
X0.91Y-0.611
X0.96Y-0.94
X1.01Y-0.611
X1.03Y-1.271
X1.06Y-0.761
X1.06Y-0.861
X1.06Y-1.08
X1.09Y-0.65
X1.195Y-1.1449
X1.21Y-0.611
X1.2108Y-1.0976
X1.22Y-1.29
X1.2301Y-0.6996
X1.2817Y-0.9716
X1.2903Y-1.1713
X1.3092Y-0.8968
X1.34Y-0.7
X1.388Y-1.1921
X1.39Y-0.951
X1.39Y-1.011
X1.4509Y-0.7551
X1.46Y-0.861
X1.47Y-1.3
X1.5376Y-0.5819
X1.56Y-0.6842
X1.6163Y-1.3063
T2
X0.5907Y-0.5921
X0.5907Y-0.6921
X0.5907Y-0.7921
X0.5907Y-0.8921
X0.5907Y-0.9921
X0.5907Y-1.0921
X0.5907Y-1.1921
X1.6301Y-0.5921
X1.6301Y-0.6921
X1.6301Y-0.848
X1.6301Y-0.948
X1.6301Y-1.1039
X1.6301Y-1.2039
T0
M30
