%TF.GenerationSoftware,KiCad,Pcbnew,(6.0.7)*%
%TF.CreationDate,2023-01-30T20:46:30-05:00*%
%TF.ProjectId,SPItoCAN,53504974-6f43-4414-9e2e-6b696361645f,rev?*%
%TF.SameCoordinates,Original*%
%TF.FileFunction,Drillmap*%
%TF.FilePolarity,Positive*%
%FSLAX45Y45*%
G04 Gerber Fmt 4.5, Leading zero omitted, Abs format (unit mm)*
G04 Created by KiCad (PCBNEW (6.0.7)) date 2023-01-30 20:46:30*
%MOMM*%
%LPD*%
G01*
G04 APERTURE LIST*
%ADD10C,0.100000*%
%ADD11C,0.200000*%
G04 APERTURE END LIST*
D10*
X1270000Y-1300000D02*
X4394200Y-1300000D01*
X4394200Y-1300000D02*
X4394200Y-3505200D01*
X4394200Y-3505200D02*
X1270000Y-3505200D01*
X1270000Y-3505200D02*
X1270000Y-1300000D01*
D11*
X1522619Y-3820676D02*
X1522619Y-3620676D01*
X1570238Y-3620676D01*
X1598809Y-3630200D01*
X1617857Y-3649248D01*
X1627381Y-3668295D01*
X1636905Y-3706390D01*
X1636905Y-3734962D01*
X1627381Y-3773057D01*
X1617857Y-3792105D01*
X1598809Y-3811152D01*
X1570238Y-3820676D01*
X1522619Y-3820676D01*
X1722619Y-3820676D02*
X1722619Y-3687343D01*
X1722619Y-3725438D02*
X1732143Y-3706390D01*
X1741667Y-3696867D01*
X1760714Y-3687343D01*
X1779762Y-3687343D01*
X1846428Y-3820676D02*
X1846428Y-3687343D01*
X1846428Y-3620676D02*
X1836905Y-3630200D01*
X1846428Y-3639724D01*
X1855952Y-3630200D01*
X1846428Y-3620676D01*
X1846428Y-3639724D01*
X1970238Y-3820676D02*
X1951190Y-3811152D01*
X1941667Y-3792105D01*
X1941667Y-3620676D01*
X2075000Y-3820676D02*
X2055952Y-3811152D01*
X2046428Y-3792105D01*
X2046428Y-3620676D01*
X2303571Y-3820676D02*
X2303571Y-3620676D01*
X2370238Y-3763533D01*
X2436905Y-3620676D01*
X2436905Y-3820676D01*
X2617857Y-3820676D02*
X2617857Y-3715914D01*
X2608333Y-3696867D01*
X2589286Y-3687343D01*
X2551190Y-3687343D01*
X2532143Y-3696867D01*
X2617857Y-3811152D02*
X2598810Y-3820676D01*
X2551190Y-3820676D01*
X2532143Y-3811152D01*
X2522619Y-3792105D01*
X2522619Y-3773057D01*
X2532143Y-3754009D01*
X2551190Y-3744486D01*
X2598810Y-3744486D01*
X2617857Y-3734962D01*
X2713095Y-3687343D02*
X2713095Y-3887343D01*
X2713095Y-3696867D02*
X2732143Y-3687343D01*
X2770238Y-3687343D01*
X2789286Y-3696867D01*
X2798809Y-3706390D01*
X2808333Y-3725438D01*
X2808333Y-3782581D01*
X2798809Y-3801628D01*
X2789286Y-3811152D01*
X2770238Y-3820676D01*
X2732143Y-3820676D01*
X2713095Y-3811152D01*
X2894048Y-3801628D02*
X2903571Y-3811152D01*
X2894048Y-3820676D01*
X2884524Y-3811152D01*
X2894048Y-3801628D01*
X2894048Y-3820676D01*
X2894048Y-3696867D02*
X2903571Y-3706390D01*
X2894048Y-3715914D01*
X2884524Y-3706390D01*
X2894048Y-3696867D01*
X2894048Y-3715914D01*
M02*
