%TF.GenerationSoftware,KiCad,Pcbnew,(6.0.7)*%
%TF.CreationDate,2023-01-30T20:46:25-05:00*%
%TF.ProjectId,SPItoCAN,53504974-6f43-4414-9e2e-6b696361645f,rev?*%
%TF.SameCoordinates,Original*%
%TF.FileFunction,Copper,L1,Top*%
%TF.FilePolarity,Positive*%
%FSLAX46Y46*%
G04 Gerber Fmt 4.6, Leading zero omitted, Abs format (unit mm)*
G04 Created by KiCad (PCBNEW (6.0.7)) date 2023-01-30 20:46:25*
%MOMM*%
%LPD*%
G01*
G04 APERTURE LIST*
G04 Aperture macros list*
%AMRoundRect*
0 Rectangle with rounded corners*
0 $1 Rounding radius*
0 $2 $3 $4 $5 $6 $7 $8 $9 X,Y pos of 4 corners*
0 Add a 4 corners polygon primitive as box body*
4,1,4,$2,$3,$4,$5,$6,$7,$8,$9,$2,$3,0*
0 Add four circle primitives for the rounded corners*
1,1,$1+$1,$2,$3*
1,1,$1+$1,$4,$5*
1,1,$1+$1,$6,$7*
1,1,$1+$1,$8,$9*
0 Add four rect primitives between the rounded corners*
20,1,$1+$1,$2,$3,$4,$5,0*
20,1,$1+$1,$4,$5,$6,$7,0*
20,1,$1+$1,$6,$7,$8,$9,0*
20,1,$1+$1,$8,$9,$2,$3,0*%
G04 Aperture macros list end*
%TA.AperFunction,SMDPad,CuDef*%
%ADD10R,1.000000X1.250000*%
%TD*%
%TA.AperFunction,ComponentPad*%
%ADD11R,1.700000X1.700000*%
%TD*%
%TA.AperFunction,ComponentPad*%
%ADD12O,1.700000X1.700000*%
%TD*%
%TA.AperFunction,SMDPad,CuDef*%
%ADD13R,0.700000X1.300000*%
%TD*%
%TA.AperFunction,SMDPad,CuDef*%
%ADD14R,1.200000X1.200000*%
%TD*%
%TA.AperFunction,SMDPad,CuDef*%
%ADD15R,1.250000X1.000000*%
%TD*%
%TA.AperFunction,SMDPad,CuDef*%
%ADD16R,0.650000X1.528000*%
%TD*%
%TA.AperFunction,SMDPad,CuDef*%
%ADD17RoundRect,0.218750X0.256250X-0.218750X0.256250X0.218750X-0.256250X0.218750X-0.256250X-0.218750X0*%
%TD*%
%TA.AperFunction,SMDPad,CuDef*%
%ADD18RoundRect,0.150000X0.875000X0.150000X-0.875000X0.150000X-0.875000X-0.150000X0.875000X-0.150000X0*%
%TD*%
%TA.AperFunction,SMDPad,CuDef*%
%ADD19RoundRect,0.218750X-0.256250X0.218750X-0.256250X-0.218750X0.256250X-0.218750X0.256250X0.218750X0*%
%TD*%
%TA.AperFunction,SMDPad,CuDef*%
%ADD20R,2.400000X1.900000*%
%TD*%
%TA.AperFunction,SMDPad,CuDef*%
%ADD21R,1.300000X0.700000*%
%TD*%
%TA.AperFunction,ViaPad*%
%ADD22C,0.900000*%
%TD*%
%TA.AperFunction,Conductor*%
%ADD23C,0.250000*%
%TD*%
%TA.AperFunction,Conductor*%
%ADD24C,0.200000*%
%TD*%
G04 APERTURE END LIST*
D10*
%TO.P,C4,1*%
%TO.N,VCC*%
X23114000Y-32791400D03*
%TO.P,C4,2*%
%TO.N,GND*%
X21114000Y-32791400D03*
%TD*%
D11*
%TO.P,J1,1,Pin_1*%
%TO.N,Net-(J1-Pad1)*%
X41404000Y-28039400D03*
D12*
%TO.P,J1,2,Pin_2*%
%TO.N,/CANL*%
X41404000Y-30579400D03*
%TD*%
D13*
%TO.P,R1,1*%
%TO.N,Net-(R1-Pad1)*%
X21394000Y-30269400D03*
%TO.P,R1,2*%
%TO.N,VCC*%
X23294000Y-30269400D03*
%TD*%
D11*
%TO.P,J4,1,1*%
%TO.N,VCC*%
X15004000Y-30279400D03*
D12*
%TO.P,J4,2,2*%
%TO.N,GND*%
X15004000Y-27739400D03*
%TO.P,J4,3,3*%
%TO.N,/CS*%
X15004000Y-25199400D03*
%TO.P,J4,4,4*%
%TO.N,/SO*%
X15004000Y-22659400D03*
%TO.P,J4,5,5*%
%TO.N,/SI*%
X15004000Y-20119400D03*
%TO.P,J4,6,6*%
%TO.N,/SCK*%
X15004000Y-17579400D03*
%TO.P,J4,7,7*%
%TO.N,/INT*%
X15004000Y-15039400D03*
%TD*%
%TO.P,J2,2,Pin_2*%
%TO.N,/CANL*%
X41404000Y-17579400D03*
D11*
%TO.P,J2,1,Pin_1*%
%TO.N,/CANH*%
X41404000Y-15039400D03*
%TD*%
D14*
%TO.P,D1,1,CATHODE*%
%TO.N,GND*%
X30314000Y-30309400D03*
%TO.P,D1,2,ANODE*%
%TO.N,Net-(D1-Pad2)*%
X28214000Y-30309400D03*
%TD*%
D15*
%TO.P,C3,1*%
%TO.N,VCC*%
X17864000Y-30279400D03*
%TO.P,C3,2*%
%TO.N,GND*%
X17864000Y-32279400D03*
%TD*%
D13*
%TO.P,R3,1*%
%TO.N,VCC*%
X24664000Y-30279400D03*
%TO.P,R3,2*%
%TO.N,Net-(D1-Pad2)*%
X26564000Y-30279400D03*
%TD*%
D16*
%TO.P,U1,1,TXD*%
%TO.N,/TXCAN*%
X36159000Y-27493400D03*
%TO.P,U1,2,GND*%
%TO.N,GND*%
X34889000Y-27493400D03*
%TO.P,U1,3,VCC*%
%TO.N,VCC*%
X33619000Y-27493400D03*
%TO.P,U1,4,RXD*%
%TO.N,/RXCAN*%
X32349000Y-27493400D03*
%TO.P,U1,5,VREF*%
%TO.N,unconnected-(U1-Pad5)*%
X32349000Y-32915400D03*
%TO.P,U1,6,CANL*%
%TO.N,/CANL*%
X33619000Y-32915400D03*
%TO.P,U1,7,CANH*%
%TO.N,/CANH*%
X34889000Y-32915400D03*
%TO.P,U1,8,S*%
%TO.N,GND*%
X36159000Y-32915400D03*
%TD*%
D17*
%TO.P,C2,1*%
%TO.N,GND*%
X35654000Y-17404400D03*
%TO.P,C2,2*%
%TO.N,/OSC+*%
X35654000Y-15829400D03*
%TD*%
D18*
%TO.P,U2,1,TXCAN*%
%TO.N,/TXCAN*%
X29604000Y-26659400D03*
%TO.P,U2,2,RXCAN*%
%TO.N,/RXCAN*%
X29604000Y-25389400D03*
%TO.P,U2,3,CLKOUT/SOF*%
%TO.N,unconnected-(U2-Pad3)*%
X29604000Y-24119400D03*
%TO.P,U2,4,~{TX0RTS}*%
%TO.N,unconnected-(U2-Pad4)*%
X29604000Y-22849400D03*
%TO.P,U2,5,~{TX1RTS}*%
%TO.N,unconnected-(U2-Pad5)*%
X29604000Y-21579400D03*
%TO.P,U2,6,~{TX2RTS}*%
%TO.N,unconnected-(U2-Pad6)*%
X29604000Y-20309400D03*
%TO.P,U2,7,OSC2*%
%TO.N,/OSC-*%
X29604000Y-19039400D03*
%TO.P,U2,8,OSC1*%
%TO.N,/OSC+*%
X29604000Y-17769400D03*
%TO.P,U2,9,VSS*%
%TO.N,GND*%
X29604000Y-16499400D03*
%TO.P,U2,10,~{RX1BF}*%
%TO.N,unconnected-(U2-Pad10)*%
X20304000Y-16499400D03*
%TO.P,U2,11,~{RX0BF}*%
%TO.N,unconnected-(U2-Pad11)*%
X20304000Y-17769400D03*
%TO.P,U2,12,~{INT}*%
%TO.N,/INT*%
X20304000Y-19039400D03*
%TO.P,U2,13,SCK*%
%TO.N,/SCK*%
X20304000Y-20309400D03*
%TO.P,U2,14,SI*%
%TO.N,/SI*%
X20304000Y-21579400D03*
%TO.P,U2,15,SO*%
%TO.N,/SO*%
X20304000Y-22849400D03*
%TO.P,U2,16,~{CS}*%
%TO.N,/CS*%
X20304000Y-24119400D03*
%TO.P,U2,17,~{RESET}*%
%TO.N,Net-(R1-Pad1)*%
X20304000Y-25389400D03*
%TO.P,U2,18,VDD*%
%TO.N,VCC*%
X20304000Y-26659400D03*
%TD*%
D19*
%TO.P,C1,1*%
%TO.N,GND*%
X35654000Y-19204400D03*
%TO.P,C1,2*%
%TO.N,/OSC-*%
X35654000Y-20779400D03*
%TD*%
D11*
%TO.P,J3,1,Pin_1*%
%TO.N,/CANL*%
X41404000Y-21539400D03*
D12*
%TO.P,J3,2,Pin_2*%
%TO.N,/CANH*%
X41404000Y-24079400D03*
%TD*%
D20*
%TO.P,Y1,1,1*%
%TO.N,/OSC+*%
X33254000Y-15854400D03*
%TO.P,Y1,2,2*%
%TO.N,/OSC-*%
X33254000Y-20904400D03*
%TD*%
D21*
%TO.P,R2,1*%
%TO.N,Net-(J1-Pad1)*%
X38404000Y-25879400D03*
%TO.P,R2,2*%
%TO.N,/CANH*%
X38404000Y-23979400D03*
%TD*%
D10*
%TO.P,C5,1*%
%TO.N,VCC*%
X27686000Y-32791400D03*
%TO.P,C5,2*%
%TO.N,GND*%
X29686000Y-32791400D03*
%TD*%
D22*
%TO.N,GND*%
X26924000Y-19329400D03*
X18554000Y-26679400D03*
X30988000Y-32766000D03*
X20574000Y-15519400D03*
X26924000Y-27432000D03*
X41054000Y-33179400D03*
X36854000Y-19179400D03*
X14224000Y-33299400D03*
X25654000Y-15519400D03*
X30354000Y-29079400D03*
X37084000Y-21869400D03*
X19254000Y-32279400D03*
X26924000Y-21869400D03*
X18034000Y-28219400D03*
X34036000Y-17780000D03*
X18034000Y-15519400D03*
X16510000Y-32258000D03*
X27686000Y-16510000D03*
X35306000Y-24155400D03*
X37338000Y-33020000D03*
X30734000Y-15519400D03*
X23114000Y-15519400D03*
%TO.N,VCC*%
X26162000Y-32283400D03*
X19304000Y-30279400D03*
X32773000Y-29750400D03*
%TO.N,/CS*%
X22777272Y-24933273D03*
%TO.N,/SI*%
X22254000Y-21779400D03*
%TO.N,/SO*%
X24384000Y-23876000D03*
%TO.N,/SCK*%
X22254000Y-20279400D03*
%TO.N,/INT*%
X22254000Y-18779400D03*
%TO.N,/TXCAN*%
X30754000Y-27879400D03*
X35306000Y-25679400D03*
%TO.N,/RXCAN*%
X32554000Y-24679400D03*
%TO.N,/CANL*%
X35254000Y-30279400D03*
X39624000Y-17379400D03*
%TO.N,/CANH*%
X39054000Y-14779400D03*
%TO.N,/OSC-*%
X33254000Y-22779400D03*
%TO.N,/OSC+*%
X31244000Y-17769400D03*
%TD*%
D23*
%TO.N,Net-(J1-Pad1)*%
X40564000Y-28039400D02*
X41404000Y-28039400D01*
X38404000Y-25879400D02*
X40564000Y-28039400D01*
%TO.N,/CANH*%
X41304000Y-23979400D02*
X41404000Y-24079400D01*
X38404000Y-23979400D02*
X41304000Y-23979400D01*
%TO.N,/CANL*%
X41404000Y-21539400D02*
X41404000Y-17579400D01*
X41204000Y-17379400D02*
X41404000Y-17579400D01*
X39624000Y-17379400D02*
X41204000Y-17379400D01*
%TO.N,/CANH*%
X41144000Y-14779400D02*
X41404000Y-15039400D01*
X39054000Y-14779400D02*
X41144000Y-14779400D01*
%TO.N,/SO*%
X20114000Y-22659400D02*
X15004000Y-22659400D01*
X20304000Y-22849400D02*
X20114000Y-22659400D01*
%TO.N,VCC*%
X26162000Y-32283400D02*
X26162000Y-31777400D01*
X26670000Y-32791400D02*
X27686000Y-32791400D01*
X23114000Y-32791400D02*
X25654000Y-32791400D01*
X24654000Y-30269400D02*
X24664000Y-30279400D01*
X26162000Y-32283400D02*
X26670000Y-32791400D01*
X20304000Y-29229400D02*
X20304000Y-26659400D01*
X15004000Y-30279400D02*
X17864000Y-30279400D01*
X17864000Y-30279400D02*
X19304000Y-30279400D01*
X23294000Y-30269400D02*
X24654000Y-30269400D01*
X33619000Y-28904400D02*
X33619000Y-27729400D01*
X19304000Y-30279400D02*
X19304000Y-30229400D01*
X32773000Y-29750400D02*
X33619000Y-28904400D01*
X26162000Y-31777400D02*
X24664000Y-30279400D01*
X25654000Y-32791400D02*
X26162000Y-32283400D01*
X19304000Y-30229400D02*
X20304000Y-29229400D01*
%TO.N,Net-(D1-Pad2)*%
X26564000Y-30279400D02*
X28134000Y-30279400D01*
X28134000Y-30279400D02*
X28164000Y-30309400D01*
%TO.N,/CS*%
X20304000Y-24119400D02*
X18539000Y-24119400D01*
X22777272Y-24933273D02*
X21963399Y-24119400D01*
X18539000Y-24119400D02*
X17629000Y-25029400D01*
X17629000Y-25029400D02*
X15174000Y-25029400D01*
X21963399Y-24119400D02*
X20304000Y-24119400D01*
%TO.N,/SI*%
X20304000Y-21579400D02*
X16464000Y-21579400D01*
X16464000Y-21579400D02*
X15004000Y-20119400D01*
X22054000Y-21579400D02*
X22254000Y-21779400D01*
X20304000Y-21579400D02*
X22054000Y-21579400D01*
%TO.N,/SO*%
X23357400Y-22849400D02*
X20304000Y-22849400D01*
X24384000Y-23876000D02*
X23357400Y-22849400D01*
X15374000Y-23029400D02*
X15004000Y-22659400D01*
%TO.N,/SCK*%
X20334000Y-20279400D02*
X20304000Y-20309400D01*
X22254000Y-20279400D02*
X20334000Y-20279400D01*
X15304000Y-17579400D02*
X18034000Y-20309400D01*
X15004000Y-17579400D02*
X15304000Y-17579400D01*
X18034000Y-20309400D02*
X20304000Y-20309400D01*
%TO.N,/INT*%
X20314000Y-19029400D02*
X20304000Y-19039400D01*
X19659000Y-18394400D02*
X18359000Y-18394400D01*
X20304000Y-19039400D02*
X19659000Y-18394400D01*
X18359000Y-18394400D02*
X15004000Y-15039400D01*
X22004000Y-19029400D02*
X20314000Y-19029400D01*
X22254000Y-18779400D02*
X22004000Y-19029400D01*
%TO.N,Net-(R1-Pad1)*%
X21833400Y-25389400D02*
X20304000Y-25389400D01*
X21394000Y-29406000D02*
X22860000Y-27940000D01*
X22860000Y-26416000D02*
X21833400Y-25389400D01*
X21394000Y-30269400D02*
X21394000Y-29406000D01*
X22860000Y-27940000D02*
X22860000Y-26416000D01*
%TO.N,/TXCAN*%
X36159000Y-26532400D02*
X35306000Y-25679400D01*
X30754000Y-27879400D02*
X30754000Y-27809400D01*
X30754000Y-27809400D02*
X29604000Y-26659400D01*
X36159000Y-27493400D02*
X36159000Y-26532400D01*
%TO.N,/RXCAN*%
X32554000Y-24699400D02*
X31864000Y-25389400D01*
X32349000Y-25874400D02*
X32349000Y-27729400D01*
X31864000Y-25389400D02*
X32349000Y-25874400D01*
X32554000Y-24679400D02*
X32554000Y-24699400D01*
X29604000Y-25389400D02*
X31864000Y-25389400D01*
%TO.N,/CANL*%
X35254000Y-30279400D02*
X33619000Y-31914400D01*
X33619000Y-31914400D02*
X33619000Y-32679400D01*
%TO.N,/CANH*%
X34889000Y-32679400D02*
X34889000Y-32302649D01*
X37429000Y-29762649D02*
X37429000Y-24954400D01*
X37429000Y-24954400D02*
X38404000Y-23979400D01*
X38229000Y-23804400D02*
X38404000Y-23979400D01*
X34889000Y-32302649D02*
X37429000Y-29762649D01*
X38229000Y-15604400D02*
X38229000Y-23804400D01*
X39054000Y-14779400D02*
X38229000Y-15604400D01*
X41189000Y-23979400D02*
X41254000Y-24044400D01*
X34889000Y-32679400D02*
X34889000Y-33056151D01*
D24*
%TO.N,/OSC-*%
X31389000Y-19039400D02*
X33254000Y-20904400D01*
X29604000Y-19039400D02*
X31389000Y-19039400D01*
D23*
X35579000Y-20854400D02*
X35654000Y-20779400D01*
D24*
X35529000Y-20904400D02*
X35654000Y-20779400D01*
X33254000Y-20904400D02*
X35529000Y-20904400D01*
X33254000Y-22779400D02*
X33254000Y-20904400D01*
%TO.N,/OSC+*%
X33254000Y-15854400D02*
X31339000Y-17769400D01*
X31339000Y-17769400D02*
X31244000Y-17769400D01*
X31244000Y-17769400D02*
X29604000Y-17769400D01*
X33254000Y-15854400D02*
X35629000Y-15854400D01*
%TD*%
%TA.AperFunction,Conductor*%
%TO.N,GND*%
G36*
X14783548Y-13527407D02*
G01*
X14819512Y-13576907D01*
X14819512Y-13638093D01*
X14783548Y-13687593D01*
X14740332Y-13705361D01*
X14688091Y-13713355D01*
X14610288Y-13738785D01*
X14479613Y-13781496D01*
X14479609Y-13781498D01*
X14475756Y-13782757D01*
X14472156Y-13784631D01*
X14281212Y-13884030D01*
X14281209Y-13884032D01*
X14277607Y-13885907D01*
X14274364Y-13888342D01*
X14274359Y-13888345D01*
X14156924Y-13976518D01*
X14098965Y-14020035D01*
X13944629Y-14181538D01*
X13942337Y-14184898D01*
X13905085Y-14239508D01*
X13818743Y-14366080D01*
X13817035Y-14369760D01*
X13817032Y-14369765D01*
X13779180Y-14451311D01*
X13724688Y-14568705D01*
X13723602Y-14572621D01*
X13700009Y-14657695D01*
X13664989Y-14783970D01*
X13664556Y-14788018D01*
X13664556Y-14788020D01*
X13663908Y-14794084D01*
X13641251Y-15006095D01*
X13654110Y-15229115D01*
X13664324Y-15274436D01*
X13699100Y-15428748D01*
X13703222Y-15447039D01*
X13704751Y-15450803D01*
X13704752Y-15450808D01*
X13785735Y-15650246D01*
X13787266Y-15654016D01*
X13789390Y-15657482D01*
X13789392Y-15657486D01*
X13901861Y-15841019D01*
X13903987Y-15844488D01*
X13906648Y-15847560D01*
X13906651Y-15847564D01*
X14047584Y-16010261D01*
X14047588Y-16010265D01*
X14050250Y-16013338D01*
X14053377Y-16015934D01*
X14053378Y-16015935D01*
X14219003Y-16153440D01*
X14219009Y-16153444D01*
X14222126Y-16156032D01*
X14270218Y-16184135D01*
X14337674Y-16223553D01*
X14378377Y-16269236D01*
X14384453Y-16330119D01*
X14353584Y-16382946D01*
X14333441Y-16396842D01*
X14331408Y-16397900D01*
X14281212Y-16424030D01*
X14281209Y-16424032D01*
X14277607Y-16425907D01*
X14274364Y-16428342D01*
X14274359Y-16428345D01*
X14192127Y-16490087D01*
X14098965Y-16560035D01*
X14096160Y-16562970D01*
X14096158Y-16562972D01*
X14039778Y-16621971D01*
X13944629Y-16721538D01*
X13942337Y-16724898D01*
X13855270Y-16852534D01*
X13818743Y-16906080D01*
X13817035Y-16909760D01*
X13817032Y-16909765D01*
X13792099Y-16963480D01*
X13724688Y-17108705D01*
X13723602Y-17112621D01*
X13705098Y-17179345D01*
X13664989Y-17323970D01*
X13664556Y-17328018D01*
X13664556Y-17328020D01*
X13661485Y-17356761D01*
X13641251Y-17546095D01*
X13654110Y-17769115D01*
X13669169Y-17835934D01*
X13702263Y-17982782D01*
X13703222Y-17987039D01*
X13704751Y-17990803D01*
X13704752Y-17990808D01*
X13777628Y-18170280D01*
X13787266Y-18194016D01*
X13789390Y-18197482D01*
X13789392Y-18197486D01*
X13877923Y-18341956D01*
X13903987Y-18384488D01*
X13906648Y-18387560D01*
X13906651Y-18387564D01*
X14047584Y-18550261D01*
X14047588Y-18550265D01*
X14050250Y-18553338D01*
X14053377Y-18555934D01*
X14053378Y-18555935D01*
X14219003Y-18693440D01*
X14219009Y-18693444D01*
X14222126Y-18696032D01*
X14270218Y-18724135D01*
X14337674Y-18763553D01*
X14378377Y-18809236D01*
X14384453Y-18870119D01*
X14353584Y-18922946D01*
X14333441Y-18936842D01*
X14319663Y-18944014D01*
X14281212Y-18964030D01*
X14281209Y-18964032D01*
X14277607Y-18965907D01*
X14274364Y-18968342D01*
X14274359Y-18968345D01*
X14189534Y-19032034D01*
X14098965Y-19100035D01*
X13944629Y-19261538D01*
X13942337Y-19264898D01*
X13838646Y-19416904D01*
X13818743Y-19446080D01*
X13817035Y-19449760D01*
X13817032Y-19449765D01*
X13791957Y-19503785D01*
X13724688Y-19648705D01*
X13723602Y-19652621D01*
X13670476Y-19844186D01*
X13664989Y-19863970D01*
X13664556Y-19868018D01*
X13664556Y-19868020D01*
X13661485Y-19896761D01*
X13641251Y-20086095D01*
X13654110Y-20309115D01*
X13657947Y-20326139D01*
X13700486Y-20514898D01*
X13703222Y-20527039D01*
X13704751Y-20530803D01*
X13704752Y-20530808D01*
X13780120Y-20716418D01*
X13787266Y-20734016D01*
X13789390Y-20737482D01*
X13789392Y-20737486D01*
X13876071Y-20878933D01*
X13903987Y-20924488D01*
X13906648Y-20927560D01*
X13906651Y-20927564D01*
X14047584Y-21090261D01*
X14047588Y-21090265D01*
X14050250Y-21093338D01*
X14053377Y-21095934D01*
X14053378Y-21095935D01*
X14219003Y-21233440D01*
X14219009Y-21233444D01*
X14222126Y-21236032D01*
X14247197Y-21250682D01*
X14337674Y-21303553D01*
X14378377Y-21349236D01*
X14384453Y-21410119D01*
X14353584Y-21462946D01*
X14333441Y-21476842D01*
X14307639Y-21490273D01*
X14281212Y-21504030D01*
X14281209Y-21504032D01*
X14277607Y-21505907D01*
X14274364Y-21508342D01*
X14274359Y-21508345D01*
X14156101Y-21597136D01*
X14098965Y-21640035D01*
X14096160Y-21642970D01*
X14096158Y-21642972D01*
X14077013Y-21663006D01*
X13944629Y-21801538D01*
X13942337Y-21804898D01*
X13833317Y-21964716D01*
X13818743Y-21986080D01*
X13724688Y-22188705D01*
X13723602Y-22192621D01*
X13666096Y-22399980D01*
X13664989Y-22403970D01*
X13664556Y-22408018D01*
X13664556Y-22408020D01*
X13661402Y-22437534D01*
X13641251Y-22626095D01*
X13654110Y-22849115D01*
X13665104Y-22897900D01*
X13701644Y-23060035D01*
X13703222Y-23067039D01*
X13704751Y-23070803D01*
X13704752Y-23070808D01*
X13784971Y-23268364D01*
X13787266Y-23274016D01*
X13789390Y-23277482D01*
X13789392Y-23277486D01*
X13888647Y-23439455D01*
X13903987Y-23464488D01*
X13906648Y-23467560D01*
X13906651Y-23467564D01*
X14047584Y-23630261D01*
X14047588Y-23630265D01*
X14050250Y-23633338D01*
X14053377Y-23635934D01*
X14053378Y-23635935D01*
X14219003Y-23773440D01*
X14219009Y-23773444D01*
X14222126Y-23776032D01*
X14248629Y-23791519D01*
X14337674Y-23843553D01*
X14378377Y-23889236D01*
X14384453Y-23950119D01*
X14353584Y-24002946D01*
X14333441Y-24016842D01*
X14318109Y-24024823D01*
X14281212Y-24044030D01*
X14281209Y-24044032D01*
X14277607Y-24045907D01*
X14274364Y-24048342D01*
X14274359Y-24048345D01*
X14173101Y-24124372D01*
X14098965Y-24180035D01*
X13944629Y-24341538D01*
X13942337Y-24344898D01*
X13826599Y-24514564D01*
X13818743Y-24526080D01*
X13817035Y-24529760D01*
X13817032Y-24529765D01*
X13785039Y-24598690D01*
X13724688Y-24728705D01*
X13723602Y-24732621D01*
X13667186Y-24936049D01*
X13664989Y-24943970D01*
X13664556Y-24948018D01*
X13664556Y-24948020D01*
X13659252Y-24997652D01*
X13641251Y-25166095D01*
X13654110Y-25389115D01*
X13668491Y-25452929D01*
X13699146Y-25588952D01*
X13703222Y-25607039D01*
X13704751Y-25610803D01*
X13704752Y-25610808D01*
X13733732Y-25682177D01*
X13787266Y-25814016D01*
X13789390Y-25817482D01*
X13789392Y-25817486D01*
X13885870Y-25974924D01*
X13903987Y-26004488D01*
X13906648Y-26007560D01*
X13906651Y-26007564D01*
X14047584Y-26170261D01*
X14047588Y-26170265D01*
X14050250Y-26173338D01*
X14053377Y-26175934D01*
X14053378Y-26175935D01*
X14219003Y-26313440D01*
X14219009Y-26313444D01*
X14222126Y-26316032D01*
X14338185Y-26383851D01*
X14378886Y-26429533D01*
X14384964Y-26490415D01*
X14354094Y-26543243D01*
X14333949Y-26557140D01*
X14281479Y-26584454D01*
X14274627Y-26588769D01*
X14102544Y-26717973D01*
X14096491Y-26723347D01*
X13947830Y-26878913D01*
X13942727Y-26885214D01*
X13821466Y-27062975D01*
X13817468Y-27070013D01*
X13726871Y-27265190D01*
X13724073Y-27272794D01*
X13668056Y-27474784D01*
X13669756Y-27482862D01*
X13671566Y-27484498D01*
X13675792Y-27485400D01*
X16324779Y-27485400D01*
X16336730Y-27481517D01*
X16337058Y-27471862D01*
X16294946Y-27304209D01*
X16292333Y-27296533D01*
X16206534Y-27099207D01*
X16202701Y-27092060D01*
X16085826Y-26911397D01*
X16080880Y-26904975D01*
X15936065Y-26745826D01*
X15930139Y-26740299D01*
X15761269Y-26606934D01*
X15754525Y-26602454D01*
X15673503Y-26557727D01*
X15631697Y-26513051D01*
X15624134Y-26452335D01*
X15653704Y-26398770D01*
X15677795Y-26382151D01*
X15698340Y-26372086D01*
X15698339Y-26372086D01*
X15701994Y-26370296D01*
X15883860Y-26240573D01*
X15952377Y-26172295D01*
X16039215Y-26085760D01*
X16042096Y-26082889D01*
X16172453Y-25901477D01*
X16247980Y-25748659D01*
X16263115Y-25718036D01*
X16305848Y-25674246D01*
X16351867Y-25662900D01*
X17549238Y-25662900D01*
X17558552Y-25663339D01*
X17562831Y-25663743D01*
X17568909Y-25665102D01*
X17637399Y-25662949D01*
X17640510Y-25662900D01*
X17668856Y-25662900D01*
X17671942Y-25662510D01*
X17671945Y-25662510D01*
X17674131Y-25662234D01*
X17683426Y-25661502D01*
X17699447Y-25660999D01*
X17722663Y-25660269D01*
X17722665Y-25660269D01*
X17728889Y-25660073D01*
X17750387Y-25653827D01*
X17765579Y-25650681D01*
X17787797Y-25647874D01*
X17830097Y-25631126D01*
X17838917Y-25628107D01*
X17882593Y-25615418D01*
X17887950Y-25612250D01*
X17887954Y-25612248D01*
X17901857Y-25604025D01*
X17915801Y-25597193D01*
X17936617Y-25588952D01*
X17973430Y-25562206D01*
X17981194Y-25557106D01*
X18020362Y-25533942D01*
X18036189Y-25518115D01*
X18048002Y-25508026D01*
X18061071Y-25498531D01*
X18061072Y-25498531D01*
X18066107Y-25494872D01*
X18070073Y-25490077D01*
X18070076Y-25490075D01*
X18095098Y-25459828D01*
X18101375Y-25452929D01*
X18646041Y-24908263D01*
X18700558Y-24880486D01*
X18760990Y-24890057D01*
X18804255Y-24933322D01*
X18813826Y-24993754D01*
X18811115Y-25005883D01*
X18773438Y-25135569D01*
X18770500Y-25172898D01*
X18770500Y-25605902D01*
X18773438Y-25643231D01*
X18809460Y-25767222D01*
X18811801Y-25775277D01*
X18819855Y-25803001D01*
X18904547Y-25946207D01*
X18912736Y-25954396D01*
X18940513Y-26008913D01*
X18930942Y-26069345D01*
X18912736Y-26094404D01*
X18904547Y-26102593D01*
X18901375Y-26107957D01*
X18901374Y-26107958D01*
X18892674Y-26122669D01*
X18819855Y-26245799D01*
X18773438Y-26405569D01*
X18770500Y-26442898D01*
X18770500Y-26875902D01*
X18773438Y-26913231D01*
X18819855Y-27073001D01*
X18904547Y-27216207D01*
X19022193Y-27333853D01*
X19027557Y-27337025D01*
X19027558Y-27337026D01*
X19067641Y-27360731D01*
X19165399Y-27418545D01*
X19325169Y-27464962D01*
X19330211Y-27465359D01*
X19330212Y-27465359D01*
X19336892Y-27465885D01*
X19362498Y-27467900D01*
X19571500Y-27467900D01*
X19629691Y-27486807D01*
X19665655Y-27536307D01*
X19670500Y-27566900D01*
X19670500Y-28925989D01*
X19651593Y-28984180D01*
X19641503Y-28995993D01*
X19347601Y-29289894D01*
X19293085Y-29317671D01*
X19286571Y-29318483D01*
X19128346Y-29332883D01*
X19128343Y-29332884D01*
X19123526Y-29333322D01*
X19118884Y-29334688D01*
X19118880Y-29334689D01*
X18947849Y-29385026D01*
X18947846Y-29385027D01*
X18943202Y-29386394D01*
X18921551Y-29397713D01*
X18861222Y-29407915D01*
X18816315Y-29389198D01*
X18741347Y-29333013D01*
X18741345Y-29333012D01*
X18735705Y-29328785D01*
X18712181Y-29319966D01*
X18605131Y-29279835D01*
X18599316Y-29277655D01*
X18593144Y-29276985D01*
X18593142Y-29276984D01*
X18557163Y-29273076D01*
X18537134Y-29270900D01*
X17190866Y-29270900D01*
X17170837Y-29273076D01*
X17134858Y-29276984D01*
X17134856Y-29276985D01*
X17128684Y-29277655D01*
X17122869Y-29279835D01*
X17015820Y-29319966D01*
X16992295Y-29328785D01*
X16875739Y-29416139D01*
X16788385Y-29532695D01*
X16785910Y-29539297D01*
X16770032Y-29581651D01*
X16731902Y-29629502D01*
X16677332Y-29645900D01*
X16461500Y-29645900D01*
X16403309Y-29626993D01*
X16367345Y-29577493D01*
X16362500Y-29546900D01*
X16362500Y-29381266D01*
X16358684Y-29346139D01*
X16356416Y-29325258D01*
X16356415Y-29325256D01*
X16355745Y-29319084D01*
X16331076Y-29253279D01*
X16307089Y-29189294D01*
X16307089Y-29189293D01*
X16304615Y-29182695D01*
X16217261Y-29066139D01*
X16100705Y-28978785D01*
X16068189Y-28966595D01*
X15970131Y-28929835D01*
X15964316Y-28927655D01*
X15958142Y-28926984D01*
X15952106Y-28925549D01*
X15952800Y-28922629D01*
X15908058Y-28902479D01*
X15877692Y-28849361D01*
X15884346Y-28788539D01*
X15904734Y-28759065D01*
X16038831Y-28625435D01*
X16044088Y-28619258D01*
X16169651Y-28444519D01*
X16173823Y-28437576D01*
X16269164Y-28244668D01*
X16272144Y-28237144D01*
X16334701Y-28031243D01*
X16336410Y-28023338D01*
X16338304Y-28008947D01*
X16335873Y-27995831D01*
X16334571Y-27994595D01*
X16329290Y-27993400D01*
X13684790Y-27993400D01*
X13672460Y-27997406D01*
X13672043Y-28006414D01*
X13702807Y-28142924D01*
X13705231Y-28150658D01*
X13786183Y-28350020D01*
X13789840Y-28357260D01*
X13902266Y-28540722D01*
X13907056Y-28547267D01*
X14047935Y-28709902D01*
X14053736Y-28715583D01*
X14098575Y-28752809D01*
X14131270Y-28804526D01*
X14127321Y-28865584D01*
X14088238Y-28912660D01*
X14055544Y-28924079D01*
X14055894Y-28925549D01*
X14049858Y-28926984D01*
X14043684Y-28927655D01*
X14037869Y-28929835D01*
X13939812Y-28966595D01*
X13907295Y-28978785D01*
X13790739Y-29066139D01*
X13703385Y-29182695D01*
X13700911Y-29189293D01*
X13700911Y-29189294D01*
X13676924Y-29253279D01*
X13652255Y-29319084D01*
X13651585Y-29325256D01*
X13651584Y-29325258D01*
X13649316Y-29346139D01*
X13645500Y-29381266D01*
X13645500Y-31177534D01*
X13647667Y-31197486D01*
X13650971Y-31227894D01*
X13652255Y-31239716D01*
X13654435Y-31245531D01*
X13698281Y-31362489D01*
X13703385Y-31376105D01*
X13790739Y-31492661D01*
X13907295Y-31580015D01*
X13913893Y-31582489D01*
X13913894Y-31582489D01*
X13978360Y-31606656D01*
X14043684Y-31631145D01*
X14049856Y-31631815D01*
X14049858Y-31631816D01*
X14082751Y-31635389D01*
X14105866Y-31637900D01*
X15902134Y-31637900D01*
X15925249Y-31635389D01*
X15958142Y-31631816D01*
X15958144Y-31631815D01*
X15964316Y-31631145D01*
X16029640Y-31606656D01*
X16094106Y-31582489D01*
X16094107Y-31582489D01*
X16100705Y-31580015D01*
X16217261Y-31492661D01*
X16304615Y-31376105D01*
X16309720Y-31362489D01*
X16353565Y-31245531D01*
X16355745Y-31239716D01*
X16357030Y-31227894D01*
X16360333Y-31197486D01*
X16362500Y-31177534D01*
X16362500Y-31011900D01*
X16381407Y-30953709D01*
X16430907Y-30917745D01*
X16461500Y-30912900D01*
X16677332Y-30912900D01*
X16735523Y-30931807D01*
X16770032Y-30977149D01*
X16788385Y-31026105D01*
X16875739Y-31142661D01*
X16881383Y-31146891D01*
X16881387Y-31146895D01*
X16952902Y-31200493D01*
X16988127Y-31250521D01*
X16987219Y-31311700D01*
X16952901Y-31358934D01*
X16881744Y-31412263D01*
X16871863Y-31422144D01*
X16793059Y-31527292D01*
X16786351Y-31539545D01*
X16739928Y-31663378D01*
X16737077Y-31675367D01*
X16731289Y-31728652D01*
X16731000Y-31733986D01*
X16731000Y-32009720D01*
X16735122Y-32022405D01*
X16739243Y-32025400D01*
X18981319Y-32025400D01*
X18994004Y-32021278D01*
X18996999Y-32017157D01*
X18996999Y-31733989D01*
X18996710Y-31728649D01*
X18990922Y-31675365D01*
X18988073Y-31663380D01*
X18941649Y-31539545D01*
X18934941Y-31527292D01*
X18856137Y-31422144D01*
X18846256Y-31412263D01*
X18775099Y-31358934D01*
X18739873Y-31308906D01*
X18740781Y-31247727D01*
X18775098Y-31200493D01*
X18814614Y-31170877D01*
X18872518Y-31151108D01*
X18913623Y-31159378D01*
X18914187Y-31159625D01*
X18918409Y-31161984D01*
X18923007Y-31163478D01*
X19092575Y-31218574D01*
X19092577Y-31218575D01*
X19097180Y-31220070D01*
X19283830Y-31242327D01*
X19288652Y-31241956D01*
X19288655Y-31241956D01*
X19466419Y-31228278D01*
X19466424Y-31228277D01*
X19471247Y-31227906D01*
X19652294Y-31177356D01*
X19656607Y-31175177D01*
X19656613Y-31175175D01*
X19815754Y-31094787D01*
X19815756Y-31094785D01*
X19820075Y-31092604D01*
X19829996Y-31084853D01*
X19964384Y-30979858D01*
X19964386Y-30979856D01*
X19968199Y-30976877D01*
X19971355Y-30973221D01*
X19971360Y-30973216D01*
X20066115Y-30863440D01*
X20091023Y-30834584D01*
X20159907Y-30713327D01*
X20181481Y-30675350D01*
X20181482Y-30675347D01*
X20183870Y-30671144D01*
X20193118Y-30643346D01*
X20241676Y-30497373D01*
X20241676Y-30497371D01*
X20243203Y-30492782D01*
X20251767Y-30424995D01*
X20266414Y-30309045D01*
X20266762Y-30306292D01*
X20267138Y-30279400D01*
X20266799Y-30275937D01*
X20261236Y-30219210D01*
X20274374Y-30159452D01*
X20289759Y-30139545D01*
X20366496Y-30062808D01*
X20421013Y-30035031D01*
X20481445Y-30044602D01*
X20524710Y-30087867D01*
X20535500Y-30132812D01*
X20535500Y-30967534D01*
X20535789Y-30970193D01*
X20541169Y-31019716D01*
X20542255Y-31029716D01*
X20593385Y-31166105D01*
X20680739Y-31282661D01*
X20797295Y-31370015D01*
X20803893Y-31372489D01*
X20803894Y-31372489D01*
X20844107Y-31387564D01*
X20933684Y-31421145D01*
X20939856Y-31421815D01*
X20939858Y-31421816D01*
X20975837Y-31425724D01*
X20995866Y-31427900D01*
X21792134Y-31427900D01*
X21812163Y-31425724D01*
X21848142Y-31421816D01*
X21848144Y-31421815D01*
X21854316Y-31421145D01*
X21943893Y-31387564D01*
X21984106Y-31372489D01*
X21984107Y-31372489D01*
X21990705Y-31370015D01*
X22107261Y-31282661D01*
X22194615Y-31166105D01*
X22245745Y-31029716D01*
X22246416Y-31023542D01*
X22247685Y-31018204D01*
X22279541Y-30965966D01*
X22336018Y-30942428D01*
X22395544Y-30956582D01*
X22435381Y-31003021D01*
X22440315Y-31018204D01*
X22441584Y-31023542D01*
X22442255Y-31029716D01*
X22493385Y-31166105D01*
X22580739Y-31282661D01*
X22697295Y-31370015D01*
X22703893Y-31372489D01*
X22703894Y-31372489D01*
X22744107Y-31387564D01*
X22833684Y-31421145D01*
X22839856Y-31421815D01*
X22839858Y-31421816D01*
X22875837Y-31425724D01*
X22895866Y-31427900D01*
X23692134Y-31427900D01*
X23712163Y-31425724D01*
X23748142Y-31421816D01*
X23748144Y-31421815D01*
X23754316Y-31421145D01*
X23890705Y-31370015D01*
X23912957Y-31353338D01*
X23970861Y-31333570D01*
X24031702Y-31353339D01*
X24067295Y-31380015D01*
X24203684Y-31431145D01*
X24209856Y-31431815D01*
X24209858Y-31431816D01*
X24245837Y-31435724D01*
X24265866Y-31437900D01*
X24885589Y-31437900D01*
X24943780Y-31456807D01*
X24955593Y-31466897D01*
X25265310Y-31776615D01*
X25293087Y-31831131D01*
X25282063Y-31894308D01*
X25276746Y-31903980D01*
X25275283Y-31908593D01*
X25275281Y-31908597D01*
X25226537Y-32062259D01*
X25219909Y-32083152D01*
X25219186Y-32082923D01*
X25190578Y-32132472D01*
X25134683Y-32157358D01*
X25124335Y-32157900D01*
X24215633Y-32157900D01*
X24157442Y-32138993D01*
X24121478Y-32089493D01*
X24117212Y-32069589D01*
X24116416Y-32062259D01*
X24116416Y-32062258D01*
X24115745Y-32056084D01*
X24072659Y-31941153D01*
X24067089Y-31926294D01*
X24067089Y-31926293D01*
X24064615Y-31919695D01*
X23977261Y-31803139D01*
X23860705Y-31715785D01*
X23841449Y-31708566D01*
X23731446Y-31667328D01*
X23724316Y-31664655D01*
X23718144Y-31663985D01*
X23718142Y-31663984D01*
X23682163Y-31660076D01*
X23662134Y-31657900D01*
X22565866Y-31657900D01*
X22545837Y-31660076D01*
X22509858Y-31663984D01*
X22509856Y-31663985D01*
X22503684Y-31664655D01*
X22496554Y-31667328D01*
X22386552Y-31708566D01*
X22367295Y-31715785D01*
X22250739Y-31803139D01*
X22246509Y-31808783D01*
X22246505Y-31808787D01*
X22192907Y-31880302D01*
X22142879Y-31915527D01*
X22081700Y-31914619D01*
X22034466Y-31880301D01*
X21981137Y-31809144D01*
X21971256Y-31799263D01*
X21866108Y-31720459D01*
X21853855Y-31713751D01*
X21730022Y-31667328D01*
X21718033Y-31664477D01*
X21664748Y-31658689D01*
X21659414Y-31658400D01*
X21383680Y-31658400D01*
X21370995Y-31662522D01*
X21368000Y-31666643D01*
X21368000Y-33908719D01*
X21372122Y-33921404D01*
X21376243Y-33924399D01*
X21659411Y-33924399D01*
X21664751Y-33924110D01*
X21718035Y-33918322D01*
X21730020Y-33915473D01*
X21853855Y-33869049D01*
X21866108Y-33862341D01*
X21971256Y-33783537D01*
X21981137Y-33773656D01*
X22034466Y-33702499D01*
X22084494Y-33667273D01*
X22145673Y-33668181D01*
X22192907Y-33702498D01*
X22246505Y-33774013D01*
X22246509Y-33774017D01*
X22250739Y-33779661D01*
X22367295Y-33867015D01*
X22503684Y-33918145D01*
X22509856Y-33918815D01*
X22509858Y-33918816D01*
X22545837Y-33922724D01*
X22565866Y-33924900D01*
X23662134Y-33924900D01*
X23682163Y-33922724D01*
X23718142Y-33918816D01*
X23718144Y-33918815D01*
X23724316Y-33918145D01*
X23860705Y-33867015D01*
X23977261Y-33779661D01*
X24064615Y-33663105D01*
X24115745Y-33526716D01*
X24116428Y-33520435D01*
X24117212Y-33513211D01*
X24142291Y-33457402D01*
X24195385Y-33426993D01*
X24215633Y-33424900D01*
X25574238Y-33424900D01*
X25583552Y-33425339D01*
X25587831Y-33425743D01*
X25593909Y-33427102D01*
X25662399Y-33424949D01*
X25665510Y-33424900D01*
X25693856Y-33424900D01*
X25696942Y-33424510D01*
X25696945Y-33424510D01*
X25699131Y-33424234D01*
X25708426Y-33423502D01*
X25724447Y-33422999D01*
X25747663Y-33422269D01*
X25747665Y-33422269D01*
X25753889Y-33422073D01*
X25775387Y-33415827D01*
X25790579Y-33412681D01*
X25812797Y-33409874D01*
X25826166Y-33404581D01*
X25855097Y-33393126D01*
X25863917Y-33390107D01*
X25907593Y-33377418D01*
X25912950Y-33374250D01*
X25912954Y-33374248D01*
X25926857Y-33366025D01*
X25940801Y-33359193D01*
X25961617Y-33350952D01*
X25998430Y-33324206D01*
X26006194Y-33319106D01*
X26045362Y-33295942D01*
X26061189Y-33280115D01*
X26073004Y-33270025D01*
X26080317Y-33264712D01*
X26139773Y-33246082D01*
X26141830Y-33246327D01*
X26177979Y-33243545D01*
X26237448Y-33257931D01*
X26249671Y-33266975D01*
X26250230Y-33267534D01*
X26252693Y-33269444D01*
X26252696Y-33269447D01*
X26254424Y-33270787D01*
X26261520Y-33276847D01*
X26265000Y-33280115D01*
X26290141Y-33303725D01*
X26290143Y-33303727D01*
X26294679Y-33307986D01*
X26300136Y-33310986D01*
X26314295Y-33318770D01*
X26327280Y-33327300D01*
X26344959Y-33341013D01*
X26350676Y-33343487D01*
X26386696Y-33359075D01*
X26395069Y-33363177D01*
X26429482Y-33382095D01*
X26429485Y-33382096D01*
X26434940Y-33385095D01*
X26440969Y-33386643D01*
X26456622Y-33390662D01*
X26471320Y-33395695D01*
X26486133Y-33402105D01*
X26491855Y-33404581D01*
X26498009Y-33405556D01*
X26498010Y-33405556D01*
X26536771Y-33411695D01*
X26545904Y-33413586D01*
X26583935Y-33423351D01*
X26583939Y-33423351D01*
X26589970Y-33424900D01*
X26596203Y-33424900D01*
X26596694Y-33424962D01*
X26652057Y-33451012D01*
X26681535Y-33504628D01*
X26682710Y-33512493D01*
X26683573Y-33520435D01*
X26684255Y-33526716D01*
X26735385Y-33663105D01*
X26822739Y-33779661D01*
X26939295Y-33867015D01*
X27075684Y-33918145D01*
X27081856Y-33918815D01*
X27081858Y-33918816D01*
X27117837Y-33922724D01*
X27137866Y-33924900D01*
X28234134Y-33924900D01*
X28254163Y-33922724D01*
X28290142Y-33918816D01*
X28290144Y-33918815D01*
X28296316Y-33918145D01*
X28432705Y-33867015D01*
X28549261Y-33779661D01*
X28553491Y-33774017D01*
X28553495Y-33774013D01*
X28607093Y-33702498D01*
X28657121Y-33667273D01*
X28718300Y-33668181D01*
X28765534Y-33702499D01*
X28818863Y-33773656D01*
X28828744Y-33783537D01*
X28933892Y-33862341D01*
X28946145Y-33869049D01*
X29069978Y-33915472D01*
X29081967Y-33918323D01*
X29135252Y-33924111D01*
X29140586Y-33924400D01*
X29416320Y-33924400D01*
X29429005Y-33920278D01*
X29432000Y-33916157D01*
X29432000Y-33908719D01*
X29940000Y-33908719D01*
X29944122Y-33921404D01*
X29948243Y-33924399D01*
X30231411Y-33924399D01*
X30236751Y-33924110D01*
X30290035Y-33918322D01*
X30302020Y-33915473D01*
X30425855Y-33869049D01*
X30438108Y-33862341D01*
X30543256Y-33783537D01*
X30553137Y-33773656D01*
X30631941Y-33668508D01*
X30638649Y-33656255D01*
X30685072Y-33532422D01*
X30687923Y-33520433D01*
X30693711Y-33467148D01*
X30694000Y-33461814D01*
X30694000Y-33061080D01*
X30689878Y-33048395D01*
X30685757Y-33045400D01*
X29955680Y-33045400D01*
X29942995Y-33049522D01*
X29940000Y-33053643D01*
X29940000Y-33908719D01*
X29432000Y-33908719D01*
X29432000Y-32521720D01*
X29940000Y-32521720D01*
X29944122Y-32534405D01*
X29948243Y-32537400D01*
X30678319Y-32537400D01*
X30691004Y-32533278D01*
X30693999Y-32529157D01*
X30693999Y-32120989D01*
X30693710Y-32115649D01*
X30687922Y-32062365D01*
X30685073Y-32050380D01*
X30638649Y-31926545D01*
X30631941Y-31914292D01*
X30553137Y-31809144D01*
X30543256Y-31799263D01*
X30438108Y-31720459D01*
X30425855Y-31713751D01*
X30302022Y-31667328D01*
X30290033Y-31664477D01*
X30236748Y-31658689D01*
X30231414Y-31658400D01*
X29955680Y-31658400D01*
X29942995Y-31662522D01*
X29940000Y-31666643D01*
X29940000Y-32521720D01*
X29432000Y-32521720D01*
X29432000Y-31674081D01*
X29427878Y-31661396D01*
X29423757Y-31658401D01*
X29140589Y-31658401D01*
X29135249Y-31658690D01*
X29081965Y-31664478D01*
X29069980Y-31667327D01*
X28946145Y-31713751D01*
X28933892Y-31720459D01*
X28828744Y-31799263D01*
X28818863Y-31809144D01*
X28765534Y-31880301D01*
X28715506Y-31915527D01*
X28654327Y-31914619D01*
X28607093Y-31880302D01*
X28553495Y-31808787D01*
X28553491Y-31808783D01*
X28549261Y-31803139D01*
X28432705Y-31715785D01*
X28413449Y-31708566D01*
X28303446Y-31667328D01*
X28296316Y-31664655D01*
X28290144Y-31663985D01*
X28290142Y-31663984D01*
X28254163Y-31660076D01*
X28234134Y-31657900D01*
X27137866Y-31657900D01*
X27117837Y-31660076D01*
X27081858Y-31663984D01*
X27081856Y-31663985D01*
X27075684Y-31664655D01*
X27069867Y-31666836D01*
X27069866Y-31666836D01*
X27003307Y-31691787D01*
X26942182Y-31694509D01*
X26891836Y-31661658D01*
X26848470Y-31608486D01*
X26845415Y-31604740D01*
X26845606Y-31604584D01*
X26819068Y-31552042D01*
X26828852Y-31491644D01*
X26872269Y-31448533D01*
X26916903Y-31437900D01*
X26962134Y-31437900D01*
X26982163Y-31435724D01*
X27018142Y-31431816D01*
X27018144Y-31431815D01*
X27024316Y-31431145D01*
X27077666Y-31411145D01*
X27154106Y-31382489D01*
X27154107Y-31382489D01*
X27160705Y-31380015D01*
X27166345Y-31375788D01*
X27166347Y-31375787D01*
X27217972Y-31337097D01*
X27275876Y-31317329D01*
X27336715Y-31337096D01*
X27367295Y-31360015D01*
X27503684Y-31411145D01*
X27509856Y-31411815D01*
X27509858Y-31411816D01*
X27545837Y-31415724D01*
X27565866Y-31417900D01*
X28862134Y-31417900D01*
X28882163Y-31415724D01*
X28918142Y-31411816D01*
X28918144Y-31411815D01*
X28924316Y-31411145D01*
X28987218Y-31387564D01*
X29054106Y-31362489D01*
X29054107Y-31362489D01*
X29060705Y-31360015D01*
X29177261Y-31272661D01*
X29185092Y-31262212D01*
X29235119Y-31226987D01*
X29296298Y-31227894D01*
X29343532Y-31262211D01*
X29346865Y-31266658D01*
X29356744Y-31276537D01*
X29461892Y-31355341D01*
X29474145Y-31362049D01*
X29597978Y-31408472D01*
X29609967Y-31411323D01*
X29663252Y-31417111D01*
X29668586Y-31417400D01*
X30044320Y-31417400D01*
X30057005Y-31413278D01*
X30060000Y-31409157D01*
X30060000Y-31401719D01*
X30568000Y-31401719D01*
X30572122Y-31414404D01*
X30576243Y-31417399D01*
X30959411Y-31417399D01*
X30964751Y-31417110D01*
X31018035Y-31411322D01*
X31030020Y-31408473D01*
X31153855Y-31362049D01*
X31166108Y-31355341D01*
X31271256Y-31276537D01*
X31281137Y-31266656D01*
X31359941Y-31161508D01*
X31366649Y-31149255D01*
X31413072Y-31025422D01*
X31415923Y-31013433D01*
X31421711Y-30960148D01*
X31422000Y-30954814D01*
X31422000Y-30579080D01*
X31417878Y-30566395D01*
X31413757Y-30563400D01*
X30583680Y-30563400D01*
X30570995Y-30567522D01*
X30568000Y-30571643D01*
X30568000Y-31401719D01*
X30060000Y-31401719D01*
X30060000Y-30039720D01*
X30568000Y-30039720D01*
X30572122Y-30052405D01*
X30576243Y-30055400D01*
X31406319Y-30055400D01*
X31419004Y-30051278D01*
X31421999Y-30047157D01*
X31421999Y-29663989D01*
X31421710Y-29658649D01*
X31415922Y-29605365D01*
X31413073Y-29593380D01*
X31366649Y-29469545D01*
X31359941Y-29457292D01*
X31281137Y-29352144D01*
X31271256Y-29342263D01*
X31166108Y-29263459D01*
X31153855Y-29256751D01*
X31030022Y-29210328D01*
X31018033Y-29207477D01*
X30964748Y-29201689D01*
X30959414Y-29201400D01*
X30583680Y-29201400D01*
X30570995Y-29205522D01*
X30568000Y-29209643D01*
X30568000Y-30039720D01*
X30060000Y-30039720D01*
X30060000Y-29217081D01*
X30055878Y-29204396D01*
X30051757Y-29201401D01*
X29668589Y-29201401D01*
X29663249Y-29201690D01*
X29609965Y-29207478D01*
X29597980Y-29210327D01*
X29474145Y-29256751D01*
X29461892Y-29263459D01*
X29356744Y-29342263D01*
X29346865Y-29352142D01*
X29343532Y-29356589D01*
X29293503Y-29391813D01*
X29232325Y-29390905D01*
X29185091Y-29356587D01*
X29177261Y-29346139D01*
X29162970Y-29335428D01*
X29121886Y-29304638D01*
X29060705Y-29258785D01*
X29044370Y-29252661D01*
X28931446Y-29210328D01*
X28924316Y-29207655D01*
X28918144Y-29206985D01*
X28918142Y-29206984D01*
X28882163Y-29203076D01*
X28862134Y-29200900D01*
X27565866Y-29200900D01*
X27545837Y-29203076D01*
X27509858Y-29206984D01*
X27509856Y-29206985D01*
X27503684Y-29207655D01*
X27496554Y-29210328D01*
X27373896Y-29256310D01*
X27373894Y-29256311D01*
X27367295Y-29258785D01*
X27364681Y-29260744D01*
X27306265Y-29271783D01*
X27259471Y-29252806D01*
X27209333Y-29215230D01*
X27160705Y-29178785D01*
X27154101Y-29176309D01*
X27030131Y-29129835D01*
X27024316Y-29127655D01*
X27018144Y-29126985D01*
X27018142Y-29126984D01*
X26982163Y-29123076D01*
X26962134Y-29120900D01*
X26165866Y-29120900D01*
X26145837Y-29123076D01*
X26109858Y-29126984D01*
X26109856Y-29126985D01*
X26103684Y-29127655D01*
X26097869Y-29129835D01*
X25973900Y-29176309D01*
X25967295Y-29178785D01*
X25850739Y-29266139D01*
X25763385Y-29382695D01*
X25760911Y-29389293D01*
X25760911Y-29389294D01*
X25736250Y-29455078D01*
X25712255Y-29519084D01*
X25711584Y-29525258D01*
X25710315Y-29530596D01*
X25678459Y-29582834D01*
X25621982Y-29606372D01*
X25562456Y-29592218D01*
X25522619Y-29545779D01*
X25517685Y-29530596D01*
X25516416Y-29525258D01*
X25515745Y-29519084D01*
X25491750Y-29455078D01*
X25467089Y-29389294D01*
X25467089Y-29389293D01*
X25464615Y-29382695D01*
X25377261Y-29266139D01*
X25260705Y-29178785D01*
X25254101Y-29176309D01*
X25130131Y-29129835D01*
X25124316Y-29127655D01*
X25118144Y-29126985D01*
X25118142Y-29126984D01*
X25082163Y-29123076D01*
X25062134Y-29120900D01*
X24265866Y-29120900D01*
X24245837Y-29123076D01*
X24209858Y-29126984D01*
X24209856Y-29126985D01*
X24203684Y-29127655D01*
X24067295Y-29178785D01*
X24061651Y-29183015D01*
X24045043Y-29195462D01*
X23987139Y-29215230D01*
X23926298Y-29195461D01*
X23890705Y-29168785D01*
X23754316Y-29117655D01*
X23748144Y-29116985D01*
X23748142Y-29116984D01*
X23712163Y-29113076D01*
X23692134Y-29110900D01*
X22895866Y-29110900D01*
X22833684Y-29117655D01*
X22833634Y-29117195D01*
X22776629Y-29112588D01*
X22730188Y-29072752D01*
X22716031Y-29013227D01*
X22739565Y-28956749D01*
X22744705Y-28951200D01*
X23251566Y-28444339D01*
X23258466Y-28438062D01*
X23261761Y-28435336D01*
X23267018Y-28432000D01*
X23271277Y-28427464D01*
X23271280Y-28427462D01*
X23313905Y-28382070D01*
X23316069Y-28379836D01*
X23336135Y-28359770D01*
X23338119Y-28357212D01*
X23339398Y-28355564D01*
X23345451Y-28348477D01*
X23372326Y-28319857D01*
X23376586Y-28315321D01*
X23387368Y-28295710D01*
X23395896Y-28282727D01*
X23405796Y-28269964D01*
X23405798Y-28269961D01*
X23409614Y-28265041D01*
X23412091Y-28259318D01*
X23427681Y-28223294D01*
X23431783Y-28214920D01*
X23450695Y-28180518D01*
X23450696Y-28180515D01*
X23453695Y-28175060D01*
X23455242Y-28169034D01*
X23455245Y-28169027D01*
X23459263Y-28153378D01*
X23464293Y-28138685D01*
X23470708Y-28123860D01*
X23470708Y-28123859D01*
X23473181Y-28118145D01*
X23480297Y-28073220D01*
X23482188Y-28064090D01*
X23491952Y-28026060D01*
X23491952Y-28026059D01*
X23493500Y-28020030D01*
X23493500Y-27997649D01*
X23494719Y-27982162D01*
X23497246Y-27966209D01*
X23497246Y-27966206D01*
X23498220Y-27960057D01*
X23493939Y-27914769D01*
X23493500Y-27905452D01*
X23493500Y-26495763D01*
X23493939Y-26486448D01*
X23494343Y-26482171D01*
X23495702Y-26476092D01*
X23493549Y-26407588D01*
X23493500Y-26404478D01*
X23493500Y-26376144D01*
X23493110Y-26373056D01*
X23492835Y-26370878D01*
X23492103Y-26361578D01*
X23490870Y-26322336D01*
X23490870Y-26322333D01*
X23490674Y-26316111D01*
X23484427Y-26294608D01*
X23481278Y-26279400D01*
X23479255Y-26263382D01*
X23479254Y-26263379D01*
X23478474Y-26257203D01*
X23471836Y-26240436D01*
X23461731Y-26214916D01*
X23458710Y-26206090D01*
X23447758Y-26168391D01*
X23447756Y-26168387D01*
X23446019Y-26162407D01*
X23434622Y-26143135D01*
X23427790Y-26129189D01*
X23419552Y-26108383D01*
X23392812Y-26071579D01*
X23387693Y-26063784D01*
X23367715Y-26030003D01*
X23367714Y-26030002D01*
X23364542Y-26024638D01*
X23348715Y-26008811D01*
X23338626Y-25996998D01*
X23329131Y-25983929D01*
X23329131Y-25983928D01*
X23325472Y-25978893D01*
X23320677Y-25974927D01*
X23320675Y-25974924D01*
X23290428Y-25949902D01*
X23283529Y-25943625D01*
X23252546Y-25912642D01*
X23224769Y-25858125D01*
X23234340Y-25797693D01*
X23277915Y-25754272D01*
X23293347Y-25746477D01*
X23351285Y-25701211D01*
X23437656Y-25633731D01*
X23437658Y-25633729D01*
X23441471Y-25630750D01*
X23444627Y-25627094D01*
X23444632Y-25627089D01*
X23525033Y-25533942D01*
X23564295Y-25488457D01*
X23657142Y-25325017D01*
X23662558Y-25308738D01*
X23714948Y-25151246D01*
X23714948Y-25151244D01*
X23716475Y-25146655D01*
X23717239Y-25140612D01*
X23739686Y-24962918D01*
X23740034Y-24960165D01*
X23740410Y-24933273D01*
X23738348Y-24912238D01*
X23725810Y-24784372D01*
X23738949Y-24724614D01*
X23784703Y-24683991D01*
X23845597Y-24678020D01*
X23872636Y-24688292D01*
X23882878Y-24694016D01*
X23998409Y-24758584D01*
X24003007Y-24760078D01*
X24172575Y-24815174D01*
X24172577Y-24815175D01*
X24177180Y-24816670D01*
X24363830Y-24838927D01*
X24368652Y-24838556D01*
X24368655Y-24838556D01*
X24546419Y-24824878D01*
X24546424Y-24824877D01*
X24551247Y-24824506D01*
X24732294Y-24773956D01*
X24736607Y-24771777D01*
X24736613Y-24771775D01*
X24895754Y-24691387D01*
X24895756Y-24691385D01*
X24900075Y-24689204D01*
X24906229Y-24684396D01*
X25044384Y-24576458D01*
X25044386Y-24576456D01*
X25048199Y-24573477D01*
X25051355Y-24569821D01*
X25051360Y-24569816D01*
X25148745Y-24456993D01*
X25171023Y-24431184D01*
X25242935Y-24304597D01*
X25261481Y-24271950D01*
X25261482Y-24271947D01*
X25263870Y-24267744D01*
X25268239Y-24254613D01*
X25321676Y-24093973D01*
X25321676Y-24093971D01*
X25323203Y-24089382D01*
X25323834Y-24084392D01*
X25343186Y-23931197D01*
X25346762Y-23902892D01*
X25347138Y-23876000D01*
X25346115Y-23865569D01*
X25329267Y-23693736D01*
X25329266Y-23693732D01*
X25328795Y-23688926D01*
X25325302Y-23677356D01*
X25275864Y-23513609D01*
X25275862Y-23513604D01*
X25274465Y-23508977D01*
X25195948Y-23361307D01*
X25188491Y-23347282D01*
X25188489Y-23347278D01*
X25186218Y-23343008D01*
X25182338Y-23338250D01*
X25070476Y-23201093D01*
X25070475Y-23201092D01*
X25067415Y-23197340D01*
X24922580Y-23077522D01*
X24918320Y-23075218D01*
X24918316Y-23075216D01*
X24761495Y-22990424D01*
X24761491Y-22990422D01*
X24757231Y-22988119D01*
X24577666Y-22932534D01*
X24572856Y-22932028D01*
X24572854Y-22932028D01*
X24395542Y-22913391D01*
X24395538Y-22913391D01*
X24390724Y-22912885D01*
X24369139Y-22914850D01*
X24309475Y-22901294D01*
X24290164Y-22886260D01*
X23861744Y-22457839D01*
X23855467Y-22450940D01*
X23852736Y-22447638D01*
X23849400Y-22442382D01*
X23844864Y-22438123D01*
X23844862Y-22438120D01*
X23799470Y-22395495D01*
X23797236Y-22393331D01*
X23777170Y-22373265D01*
X23774612Y-22371281D01*
X23772964Y-22370002D01*
X23765877Y-22363949D01*
X23737257Y-22337074D01*
X23732721Y-22332814D01*
X23725979Y-22329108D01*
X23713110Y-22322032D01*
X23700127Y-22313504D01*
X23687364Y-22303604D01*
X23687361Y-22303602D01*
X23682441Y-22299786D01*
X23676721Y-22297311D01*
X23676718Y-22297309D01*
X23640694Y-22281719D01*
X23632320Y-22277617D01*
X23597918Y-22258705D01*
X23597915Y-22258704D01*
X23592460Y-22255705D01*
X23586434Y-22254158D01*
X23586427Y-22254155D01*
X23570778Y-22250137D01*
X23556085Y-22245107D01*
X23541260Y-22238692D01*
X23541259Y-22238692D01*
X23535545Y-22236219D01*
X23490621Y-22229103D01*
X23481490Y-22227212D01*
X23443460Y-22217448D01*
X23443459Y-22217448D01*
X23437430Y-22215900D01*
X23415049Y-22215900D01*
X23399562Y-22214681D01*
X23383609Y-22212154D01*
X23383606Y-22212154D01*
X23377457Y-22211180D01*
X23343393Y-22214400D01*
X23332169Y-22215461D01*
X23322852Y-22215900D01*
X23256249Y-22215900D01*
X23198058Y-22196993D01*
X23162094Y-22147493D01*
X23162310Y-22085651D01*
X23191676Y-21997373D01*
X23191676Y-21997371D01*
X23193203Y-21992782D01*
X23197529Y-21958542D01*
X23216414Y-21809045D01*
X23216762Y-21806292D01*
X23216829Y-21801538D01*
X23217099Y-21782176D01*
X23217138Y-21779400D01*
X23216868Y-21776644D01*
X23199267Y-21597136D01*
X23199266Y-21597132D01*
X23198795Y-21592326D01*
X23193562Y-21574994D01*
X23145864Y-21417009D01*
X23145862Y-21417004D01*
X23144465Y-21412377D01*
X23088750Y-21307592D01*
X23058491Y-21250682D01*
X23058489Y-21250678D01*
X23056218Y-21246408D01*
X22986102Y-21160436D01*
X22940475Y-21104492D01*
X22937415Y-21100740D01*
X22934140Y-21098031D01*
X22906638Y-21043583D01*
X22916421Y-20983185D01*
X22929530Y-20963750D01*
X22954251Y-20935110D01*
X23041023Y-20834584D01*
X23100295Y-20730246D01*
X23131481Y-20675350D01*
X23131482Y-20675347D01*
X23133870Y-20671144D01*
X23142920Y-20643941D01*
X23191676Y-20497373D01*
X23191676Y-20497371D01*
X23193203Y-20492782D01*
X23199531Y-20442695D01*
X23216414Y-20309045D01*
X23216762Y-20306292D01*
X23217138Y-20279400D01*
X23214795Y-20255503D01*
X23199267Y-20097136D01*
X23199266Y-20097132D01*
X23198795Y-20092326D01*
X23196914Y-20086095D01*
X23145864Y-19917009D01*
X23145862Y-19917004D01*
X23144465Y-19912377D01*
X23076458Y-19784474D01*
X23058491Y-19750682D01*
X23058489Y-19750678D01*
X23056218Y-19746408D01*
X22983294Y-19656993D01*
X22940475Y-19604492D01*
X22937415Y-19600740D01*
X22934140Y-19598031D01*
X22906638Y-19543583D01*
X22916421Y-19483185D01*
X22929530Y-19463750D01*
X22969966Y-19416904D01*
X23041023Y-19334584D01*
X23133870Y-19171144D01*
X23158336Y-19097598D01*
X23191676Y-18997373D01*
X23191676Y-18997371D01*
X23193203Y-18992782D01*
X23196564Y-18966181D01*
X23211316Y-18849399D01*
X23216762Y-18806292D01*
X23216854Y-18799754D01*
X23217052Y-18785569D01*
X23217138Y-18779400D01*
X23214719Y-18754731D01*
X23199267Y-18597136D01*
X23199266Y-18597132D01*
X23198795Y-18592326D01*
X23195353Y-18580926D01*
X23145864Y-18417009D01*
X23145862Y-18417004D01*
X23144465Y-18412377D01*
X23076620Y-18284779D01*
X23058491Y-18250682D01*
X23058489Y-18250678D01*
X23056218Y-18246408D01*
X23034822Y-18220173D01*
X22940476Y-18104493D01*
X22940475Y-18104492D01*
X22937415Y-18100740D01*
X22792580Y-17980922D01*
X22788320Y-17978618D01*
X22788316Y-17978616D01*
X22631495Y-17893824D01*
X22631491Y-17893822D01*
X22627231Y-17891519D01*
X22447666Y-17835934D01*
X22442856Y-17835428D01*
X22442854Y-17835428D01*
X22265540Y-17816791D01*
X22265538Y-17816791D01*
X22260724Y-17816285D01*
X22201079Y-17821713D01*
X22078346Y-17832883D01*
X22078343Y-17832884D01*
X22073526Y-17833322D01*
X22068884Y-17834688D01*
X22068880Y-17834689D01*
X21964452Y-17865424D01*
X21903290Y-17863716D01*
X21854814Y-17826384D01*
X21837500Y-17770452D01*
X21837500Y-17552898D01*
X21834562Y-17515569D01*
X21788145Y-17355799D01*
X21703453Y-17212593D01*
X21695264Y-17204404D01*
X21667487Y-17149887D01*
X21677058Y-17089455D01*
X21695264Y-17064396D01*
X21703453Y-17056207D01*
X21706805Y-17050540D01*
X21730629Y-17010255D01*
X21788145Y-16913001D01*
X21789941Y-16906821D01*
X21818555Y-16808329D01*
X21834562Y-16753231D01*
X21837500Y-16715902D01*
X21837500Y-16282898D01*
X21834562Y-16245569D01*
X21830138Y-16230343D01*
X28078382Y-16230343D01*
X28078757Y-16242282D01*
X28088892Y-16245400D01*
X29334320Y-16245400D01*
X29347005Y-16241278D01*
X29350000Y-16237157D01*
X29350000Y-16229720D01*
X29858000Y-16229720D01*
X29862122Y-16242405D01*
X29866243Y-16245400D01*
X31118313Y-16245400D01*
X31129674Y-16241709D01*
X31129840Y-16231107D01*
X31089419Y-16091979D01*
X31084513Y-16080641D01*
X31006224Y-15948260D01*
X30998654Y-15938501D01*
X30889899Y-15829746D01*
X30880140Y-15822176D01*
X30747759Y-15743887D01*
X30736421Y-15738981D01*
X30587607Y-15695745D01*
X30577712Y-15693938D01*
X30547399Y-15691553D01*
X30543507Y-15691400D01*
X29873680Y-15691400D01*
X29860995Y-15695522D01*
X29858000Y-15699643D01*
X29858000Y-16229720D01*
X29350000Y-16229720D01*
X29350000Y-15707081D01*
X29345878Y-15694396D01*
X29341757Y-15691401D01*
X28664495Y-15691401D01*
X28660598Y-15691554D01*
X28630296Y-15693938D01*
X28620386Y-15695747D01*
X28471579Y-15738981D01*
X28460241Y-15743887D01*
X28327860Y-15822176D01*
X28318101Y-15829746D01*
X28209346Y-15938501D01*
X28201776Y-15948260D01*
X28123487Y-16080641D01*
X28118581Y-16091979D01*
X28078382Y-16230343D01*
X21830138Y-16230343D01*
X21790510Y-16093939D01*
X21789883Y-16091781D01*
X21789883Y-16091780D01*
X21788145Y-16085799D01*
X21730331Y-15988041D01*
X21706626Y-15947958D01*
X21706625Y-15947957D01*
X21703453Y-15942593D01*
X21585807Y-15824947D01*
X21442601Y-15740255D01*
X21282831Y-15693838D01*
X21277789Y-15693441D01*
X21277788Y-15693441D01*
X21271108Y-15692915D01*
X21245502Y-15690900D01*
X19362498Y-15690900D01*
X19336892Y-15692915D01*
X19330212Y-15693441D01*
X19330211Y-15693441D01*
X19325169Y-15693838D01*
X19165399Y-15740255D01*
X19022193Y-15824947D01*
X18904547Y-15942593D01*
X18901375Y-15947957D01*
X18901374Y-15947958D01*
X18877669Y-15988041D01*
X18819855Y-16085799D01*
X18818117Y-16091780D01*
X18818117Y-16091781D01*
X18817490Y-16093939D01*
X18773438Y-16245569D01*
X18770500Y-16282898D01*
X18770500Y-16715902D01*
X18773438Y-16753231D01*
X18789445Y-16808329D01*
X18818060Y-16906821D01*
X18819855Y-16913001D01*
X18877371Y-17010255D01*
X18901196Y-17050540D01*
X18904547Y-17056207D01*
X18912736Y-17064396D01*
X18940513Y-17118913D01*
X18930942Y-17179345D01*
X18912736Y-17204404D01*
X18904547Y-17212593D01*
X18819855Y-17355799D01*
X18773438Y-17515569D01*
X18770500Y-17552898D01*
X18770500Y-17661900D01*
X18751593Y-17720091D01*
X18702093Y-17756055D01*
X18671500Y-17760900D01*
X18662412Y-17760900D01*
X18604221Y-17741993D01*
X18592408Y-17731904D01*
X16343770Y-15483265D01*
X16315993Y-15428748D01*
X16319049Y-15384482D01*
X16335189Y-15331357D01*
X16335190Y-15331354D01*
X16336370Y-15327469D01*
X16365529Y-15105990D01*
X16367156Y-15039400D01*
X16366940Y-15036770D01*
X16349185Y-14820807D01*
X16349184Y-14820803D01*
X16348852Y-14816761D01*
X16343261Y-14794500D01*
X16295422Y-14604048D01*
X16294431Y-14600102D01*
X16208578Y-14402655D01*
X16206976Y-14398970D01*
X16206975Y-14398969D01*
X16205354Y-14395240D01*
X16084014Y-14207677D01*
X15933670Y-14042451D01*
X15758359Y-13903998D01*
X15634144Y-13835428D01*
X15566347Y-13798002D01*
X15566346Y-13798002D01*
X15562789Y-13796038D01*
X15558966Y-13794684D01*
X15558961Y-13794682D01*
X15356036Y-13722823D01*
X15356034Y-13722823D01*
X15352212Y-13721469D01*
X15348218Y-13720758D01*
X15348216Y-13720757D01*
X15259564Y-13704966D01*
X15205591Y-13676147D01*
X15178865Y-13621107D01*
X15189594Y-13560870D01*
X15233682Y-13518444D01*
X15276925Y-13508500D01*
X40375468Y-13508500D01*
X40433659Y-13527407D01*
X40469623Y-13576907D01*
X40469623Y-13638093D01*
X40433659Y-13687593D01*
X40410219Y-13700200D01*
X40307295Y-13738785D01*
X40190739Y-13826139D01*
X40103385Y-13942695D01*
X40100911Y-13949293D01*
X40100911Y-13949294D01*
X40073290Y-14022972D01*
X40052255Y-14079084D01*
X40050095Y-14078274D01*
X40023392Y-14122049D01*
X39966912Y-14145579D01*
X39958944Y-14145900D01*
X39821255Y-14145900D01*
X39763064Y-14126993D01*
X39744538Y-14109474D01*
X39737415Y-14100740D01*
X39725961Y-14091264D01*
X39670592Y-14045459D01*
X39592580Y-13980922D01*
X39588320Y-13978618D01*
X39588316Y-13978616D01*
X39431495Y-13893824D01*
X39431491Y-13893822D01*
X39427231Y-13891519D01*
X39247666Y-13835934D01*
X39242856Y-13835428D01*
X39242854Y-13835428D01*
X39065540Y-13816791D01*
X39065538Y-13816791D01*
X39060724Y-13816285D01*
X39001079Y-13821713D01*
X38878346Y-13832883D01*
X38878343Y-13832884D01*
X38873526Y-13833322D01*
X38868884Y-13834688D01*
X38868880Y-13834689D01*
X38697849Y-13885026D01*
X38697846Y-13885027D01*
X38693202Y-13886394D01*
X38526621Y-13973480D01*
X38522845Y-13976516D01*
X38522842Y-13976518D01*
X38387598Y-14085258D01*
X38380128Y-14091264D01*
X38377019Y-14094969D01*
X38377016Y-14094972D01*
X38284970Y-14204669D01*
X38259302Y-14235259D01*
X38168746Y-14399980D01*
X38167283Y-14404593D01*
X38167281Y-14404597D01*
X38151678Y-14453785D01*
X38111909Y-14579152D01*
X38090956Y-14765952D01*
X38093353Y-14794502D01*
X38079383Y-14854069D01*
X38064705Y-14872790D01*
X37837434Y-15100061D01*
X37830534Y-15106338D01*
X37827239Y-15109064D01*
X37821982Y-15112400D01*
X37817723Y-15116936D01*
X37817720Y-15116938D01*
X37775095Y-15162330D01*
X37772931Y-15164564D01*
X37752865Y-15184630D01*
X37750960Y-15187086D01*
X37749602Y-15188836D01*
X37743549Y-15195923D01*
X37712414Y-15229079D01*
X37709415Y-15234534D01*
X37701632Y-15248690D01*
X37693104Y-15261673D01*
X37683204Y-15274436D01*
X37683202Y-15274439D01*
X37679386Y-15279359D01*
X37676911Y-15285079D01*
X37676909Y-15285082D01*
X37661319Y-15321106D01*
X37657217Y-15329480D01*
X37638305Y-15363882D01*
X37638304Y-15363885D01*
X37635305Y-15369340D01*
X37633758Y-15375366D01*
X37633755Y-15375373D01*
X37629737Y-15391022D01*
X37624707Y-15405715D01*
X37615819Y-15426255D01*
X37611930Y-15450808D01*
X37608703Y-15471180D01*
X37606812Y-15480310D01*
X37597048Y-15518340D01*
X37595500Y-15524370D01*
X37595500Y-15546751D01*
X37594281Y-15562238D01*
X37590780Y-15584343D01*
X37591366Y-15590541D01*
X37595061Y-15629631D01*
X37595500Y-15638948D01*
X37595500Y-23077104D01*
X37576593Y-23135295D01*
X37531251Y-23169804D01*
X37507295Y-23178785D01*
X37390739Y-23266139D01*
X37386510Y-23271782D01*
X37386509Y-23271783D01*
X37382235Y-23277486D01*
X37303385Y-23382695D01*
X37252255Y-23519084D01*
X37251585Y-23525256D01*
X37251584Y-23525258D01*
X37249033Y-23548741D01*
X37245500Y-23581266D01*
X37245500Y-24200987D01*
X37226593Y-24259178D01*
X37216504Y-24270991D01*
X37037434Y-24450061D01*
X37030534Y-24456338D01*
X37027239Y-24459064D01*
X37021982Y-24462400D01*
X37017723Y-24466936D01*
X37017720Y-24466938D01*
X36975095Y-24512330D01*
X36972931Y-24514564D01*
X36952865Y-24534630D01*
X36950960Y-24537086D01*
X36949602Y-24538836D01*
X36943549Y-24545923D01*
X36912414Y-24579079D01*
X36909415Y-24584534D01*
X36901632Y-24598690D01*
X36893104Y-24611673D01*
X36883204Y-24624436D01*
X36883202Y-24624439D01*
X36879386Y-24629359D01*
X36876911Y-24635079D01*
X36876909Y-24635082D01*
X36861319Y-24671106D01*
X36857217Y-24679480D01*
X36838305Y-24713882D01*
X36838304Y-24713885D01*
X36835305Y-24719340D01*
X36833758Y-24725366D01*
X36833755Y-24725373D01*
X36829737Y-24741022D01*
X36824707Y-24755715D01*
X36823466Y-24758584D01*
X36815819Y-24776255D01*
X36813628Y-24790087D01*
X36808703Y-24821180D01*
X36806812Y-24830310D01*
X36804833Y-24838019D01*
X36795500Y-24874370D01*
X36795500Y-24896751D01*
X36794281Y-24912238D01*
X36790780Y-24934343D01*
X36791366Y-24940541D01*
X36795061Y-24979631D01*
X36795500Y-24988948D01*
X36795500Y-26028514D01*
X36776593Y-26086705D01*
X36727093Y-26122669D01*
X36665907Y-26122669D01*
X36625928Y-26097297D01*
X36624472Y-26095293D01*
X36589434Y-26066307D01*
X36582535Y-26060030D01*
X36297782Y-25775277D01*
X36270005Y-25720760D01*
X36268796Y-25703891D01*
X36269099Y-25682177D01*
X36269138Y-25679400D01*
X36268633Y-25674246D01*
X36251267Y-25497136D01*
X36251266Y-25497132D01*
X36250795Y-25492326D01*
X36249398Y-25487698D01*
X36197864Y-25317009D01*
X36197862Y-25317004D01*
X36196465Y-25312377D01*
X36135693Y-25198081D01*
X36110491Y-25150682D01*
X36110489Y-25150678D01*
X36108218Y-25146408D01*
X36096096Y-25131544D01*
X35992476Y-25004493D01*
X35992475Y-25004492D01*
X35989415Y-25000740D01*
X35844580Y-24880922D01*
X35840320Y-24878618D01*
X35840316Y-24878616D01*
X35683495Y-24793824D01*
X35683491Y-24793822D01*
X35679231Y-24791519D01*
X35499666Y-24735934D01*
X35494856Y-24735428D01*
X35494854Y-24735428D01*
X35317540Y-24716791D01*
X35317538Y-24716791D01*
X35312724Y-24716285D01*
X35253079Y-24721713D01*
X35130346Y-24732883D01*
X35130343Y-24732884D01*
X35125526Y-24733322D01*
X35120884Y-24734688D01*
X35120880Y-24734689D01*
X34949849Y-24785026D01*
X34949846Y-24785027D01*
X34945202Y-24786394D01*
X34778621Y-24873480D01*
X34774845Y-24876516D01*
X34774842Y-24876518D01*
X34635900Y-24988231D01*
X34632128Y-24991264D01*
X34629019Y-24994969D01*
X34629016Y-24994972D01*
X34523625Y-25120573D01*
X34511302Y-25135259D01*
X34420746Y-25299980D01*
X34419283Y-25304593D01*
X34419281Y-25304597D01*
X34376126Y-25440638D01*
X34363909Y-25479152D01*
X34363369Y-25483964D01*
X34363369Y-25483965D01*
X34344560Y-25651656D01*
X34342956Y-25665952D01*
X34346639Y-25709816D01*
X34356854Y-25831456D01*
X34358685Y-25853265D01*
X34360018Y-25857913D01*
X34360018Y-25857914D01*
X34408937Y-26028514D01*
X34410497Y-26033955D01*
X34435646Y-26082889D01*
X34450336Y-26111474D01*
X34460117Y-26171872D01*
X34432530Y-26226485D01*
X34397035Y-26249426D01*
X34324145Y-26276751D01*
X34305708Y-26286845D01*
X34304763Y-26285118D01*
X34255890Y-26301806D01*
X34203433Y-26284762D01*
X34202535Y-26286402D01*
X34196350Y-26283016D01*
X34190705Y-26278785D01*
X34054316Y-26227655D01*
X34048144Y-26226985D01*
X34048142Y-26226984D01*
X34012163Y-26223076D01*
X33992134Y-26220900D01*
X33245866Y-26220900D01*
X33225837Y-26223076D01*
X33189858Y-26226984D01*
X33189856Y-26226985D01*
X33183684Y-26227655D01*
X33177869Y-26229835D01*
X33116252Y-26252934D01*
X33055127Y-26255657D01*
X33004076Y-26221931D01*
X32982500Y-26160234D01*
X32982500Y-25954163D01*
X32982939Y-25944848D01*
X32983343Y-25940571D01*
X32984702Y-25934492D01*
X32982549Y-25865988D01*
X32982500Y-25862878D01*
X32982500Y-25834544D01*
X32981835Y-25829278D01*
X32981103Y-25819978D01*
X32979870Y-25780736D01*
X32979870Y-25780733D01*
X32979674Y-25774511D01*
X32973427Y-25753008D01*
X32970278Y-25737800D01*
X32968255Y-25721782D01*
X32968254Y-25721779D01*
X32967474Y-25715603D01*
X32963788Y-25706292D01*
X32956218Y-25687175D01*
X32950730Y-25673313D01*
X32947715Y-25664507D01*
X32942753Y-25647428D01*
X32944674Y-25586277D01*
X32982174Y-25537930D01*
X32993185Y-25531444D01*
X33065754Y-25494787D01*
X33065756Y-25494785D01*
X33070075Y-25492604D01*
X33075383Y-25488457D01*
X33214384Y-25379858D01*
X33214386Y-25379856D01*
X33218199Y-25376877D01*
X33221355Y-25373221D01*
X33221360Y-25373216D01*
X33325917Y-25252084D01*
X33341023Y-25234584D01*
X33427129Y-25083011D01*
X33431481Y-25075350D01*
X33431482Y-25075347D01*
X33433870Y-25071144D01*
X33438930Y-25055935D01*
X33491676Y-24897373D01*
X33491676Y-24897371D01*
X33493203Y-24892782D01*
X33494743Y-24880596D01*
X33510518Y-24755715D01*
X33516762Y-24706292D01*
X33516894Y-24696889D01*
X33517099Y-24682176D01*
X33517138Y-24679400D01*
X33516299Y-24670842D01*
X33499267Y-24497136D01*
X33499266Y-24497132D01*
X33498795Y-24492326D01*
X33489760Y-24462400D01*
X33445864Y-24317009D01*
X33445862Y-24317004D01*
X33444465Y-24312377D01*
X33387616Y-24205459D01*
X33358491Y-24150682D01*
X33358489Y-24150678D01*
X33356218Y-24146408D01*
X33344096Y-24131544D01*
X33240476Y-24004493D01*
X33240475Y-24004492D01*
X33237415Y-24000740D01*
X33153352Y-23931197D01*
X33132225Y-23913719D01*
X33099440Y-23862058D01*
X33103282Y-23800994D01*
X33142283Y-23753849D01*
X33207052Y-23739134D01*
X33212611Y-23739797D01*
X33233830Y-23742327D01*
X33238652Y-23741956D01*
X33238655Y-23741956D01*
X33416419Y-23728278D01*
X33416424Y-23728277D01*
X33421247Y-23727906D01*
X33602294Y-23677356D01*
X33606607Y-23675177D01*
X33606613Y-23675175D01*
X33765754Y-23594787D01*
X33765756Y-23594785D01*
X33770075Y-23592604D01*
X33784587Y-23581266D01*
X33914384Y-23479858D01*
X33914386Y-23479856D01*
X33918199Y-23476877D01*
X33921355Y-23473221D01*
X33921360Y-23473216D01*
X34014959Y-23364779D01*
X34041023Y-23334584D01*
X34093638Y-23241965D01*
X34131481Y-23175350D01*
X34131482Y-23175347D01*
X34133870Y-23171144D01*
X34142329Y-23145718D01*
X34191676Y-22997373D01*
X34191676Y-22997371D01*
X34193203Y-22992782D01*
X34216762Y-22806292D01*
X34217138Y-22779400D01*
X34216292Y-22770772D01*
X34199267Y-22597136D01*
X34199266Y-22597132D01*
X34198795Y-22592326D01*
X34168056Y-22490514D01*
X34169338Y-22429342D01*
X34206330Y-22380606D01*
X34262831Y-22362900D01*
X34502134Y-22362900D01*
X34522163Y-22360724D01*
X34558142Y-22356816D01*
X34558144Y-22356815D01*
X34564316Y-22356145D01*
X34655312Y-22322032D01*
X34694106Y-22307489D01*
X34694107Y-22307489D01*
X34700705Y-22305015D01*
X34817261Y-22217661D01*
X34904615Y-22101105D01*
X34910409Y-22085651D01*
X34945141Y-21993001D01*
X34955745Y-21964716D01*
X34962500Y-21902534D01*
X34962500Y-21757161D01*
X34981407Y-21698970D01*
X35030907Y-21663006D01*
X35092667Y-21663195D01*
X35186273Y-21694243D01*
X35249269Y-21715138D01*
X35349428Y-21725400D01*
X35958572Y-21725400D01*
X36059982Y-21714878D01*
X36065117Y-21713165D01*
X36065121Y-21713164D01*
X36215397Y-21663027D01*
X36220849Y-21661208D01*
X36365055Y-21571971D01*
X36484864Y-21451953D01*
X36523950Y-21388544D01*
X36570832Y-21312487D01*
X36570833Y-21312485D01*
X36573849Y-21307592D01*
X36592726Y-21250682D01*
X36625536Y-21151762D01*
X36627238Y-21146631D01*
X36637500Y-21046472D01*
X36637500Y-20512328D01*
X36626978Y-20410918D01*
X36625265Y-20405783D01*
X36625264Y-20405779D01*
X36575127Y-20255503D01*
X36573308Y-20250051D01*
X36484071Y-20105845D01*
X36473053Y-20094846D01*
X36439732Y-20061583D01*
X36411907Y-20007091D01*
X36421426Y-19946651D01*
X36439611Y-19921576D01*
X36480406Y-19880710D01*
X36487486Y-19871745D01*
X36570376Y-19737274D01*
X36575204Y-19726920D01*
X36625042Y-19576662D01*
X36627295Y-19566148D01*
X36636741Y-19473956D01*
X36636771Y-19473376D01*
X36632878Y-19461395D01*
X36628757Y-19458400D01*
X34686680Y-19458400D01*
X34662265Y-19466333D01*
X34596921Y-19464878D01*
X34570131Y-19454835D01*
X34564316Y-19452655D01*
X34558144Y-19451985D01*
X34558142Y-19451984D01*
X34522163Y-19448076D01*
X34502134Y-19445900D01*
X32697057Y-19445900D01*
X32638866Y-19426993D01*
X32627053Y-19416904D01*
X31857545Y-18647396D01*
X31829768Y-18592879D01*
X31839339Y-18532447D01*
X31866598Y-18499379D01*
X31893720Y-18478189D01*
X31908199Y-18466877D01*
X31911355Y-18463221D01*
X31911360Y-18463216D01*
X31983283Y-18379891D01*
X32031023Y-18324584D01*
X32090340Y-18220167D01*
X32121481Y-18165350D01*
X32121482Y-18165347D01*
X32123870Y-18161144D01*
X32128886Y-18146068D01*
X32181676Y-17987373D01*
X32181676Y-17987371D01*
X32183203Y-17982782D01*
X32185853Y-17961804D01*
X32206415Y-17799043D01*
X32206416Y-17799034D01*
X32206762Y-17796292D01*
X32206762Y-17796259D01*
X32229496Y-17739987D01*
X32235332Y-17733617D01*
X32300086Y-17668863D01*
X34671000Y-17668863D01*
X34671265Y-17673990D01*
X34680956Y-17767387D01*
X34683232Y-17777923D01*
X34733327Y-17928077D01*
X34738174Y-17938426D01*
X34821299Y-18072753D01*
X34828393Y-18081704D01*
X34940191Y-18193307D01*
X34949157Y-18200388D01*
X34981244Y-18220167D01*
X35020858Y-18266797D01*
X35025499Y-18327806D01*
X34993392Y-18379891D01*
X34981391Y-18388627D01*
X34948144Y-18409201D01*
X34939196Y-18416293D01*
X34827593Y-18528091D01*
X34820514Y-18537054D01*
X34737624Y-18671526D01*
X34732796Y-18681880D01*
X34682958Y-18832138D01*
X34680705Y-18842652D01*
X34671259Y-18934844D01*
X34671229Y-18935424D01*
X34675122Y-18947405D01*
X34679243Y-18950400D01*
X35384320Y-18950400D01*
X35397005Y-18946278D01*
X35400000Y-18942157D01*
X35400000Y-18934720D01*
X35908000Y-18934720D01*
X35912122Y-18947405D01*
X35916243Y-18950400D01*
X36621320Y-18950400D01*
X36634005Y-18946278D01*
X36637000Y-18942157D01*
X36637000Y-18939937D01*
X36636735Y-18934810D01*
X36627044Y-18841413D01*
X36624768Y-18830877D01*
X36574673Y-18680723D01*
X36569826Y-18670374D01*
X36486701Y-18536047D01*
X36479607Y-18527096D01*
X36367809Y-18415493D01*
X36358843Y-18408412D01*
X36326756Y-18388633D01*
X36287142Y-18342003D01*
X36282501Y-18280994D01*
X36314608Y-18228909D01*
X36326609Y-18220173D01*
X36359856Y-18199599D01*
X36368804Y-18192507D01*
X36480407Y-18080709D01*
X36487486Y-18071746D01*
X36570376Y-17937274D01*
X36575204Y-17926920D01*
X36625042Y-17776662D01*
X36627295Y-17766148D01*
X36636741Y-17673956D01*
X36636771Y-17673376D01*
X36632878Y-17661395D01*
X36628757Y-17658400D01*
X35923680Y-17658400D01*
X35910995Y-17662522D01*
X35908000Y-17666643D01*
X35908000Y-18934720D01*
X35400000Y-18934720D01*
X35400000Y-17674080D01*
X35395878Y-17661395D01*
X35391757Y-17658400D01*
X34686680Y-17658400D01*
X34673995Y-17662522D01*
X34671000Y-17666643D01*
X34671000Y-17668863D01*
X32300086Y-17668863D01*
X32627053Y-17341896D01*
X32681570Y-17314119D01*
X32697057Y-17312900D01*
X34502134Y-17312900D01*
X34522163Y-17310724D01*
X34558142Y-17306816D01*
X34558144Y-17306815D01*
X34564316Y-17306145D01*
X34700705Y-17255015D01*
X34706342Y-17250790D01*
X34706348Y-17250787D01*
X34813901Y-17170180D01*
X34873274Y-17150400D01*
X36621320Y-17150400D01*
X36634005Y-17146278D01*
X36637000Y-17142157D01*
X36637000Y-17139937D01*
X36636735Y-17134810D01*
X36627044Y-17041413D01*
X36624768Y-17030877D01*
X36574673Y-16880723D01*
X36569826Y-16870374D01*
X36486702Y-16736048D01*
X36479606Y-16727096D01*
X36439734Y-16687293D01*
X36411908Y-16632801D01*
X36421427Y-16572360D01*
X36439611Y-16547286D01*
X36480799Y-16506026D01*
X36480802Y-16506022D01*
X36484864Y-16501953D01*
X36520588Y-16443998D01*
X36570832Y-16362487D01*
X36570833Y-16362485D01*
X36573849Y-16357592D01*
X36578859Y-16342489D01*
X36625536Y-16201762D01*
X36627238Y-16196631D01*
X36637500Y-16096472D01*
X36637500Y-15562328D01*
X36626978Y-15460918D01*
X36625265Y-15455783D01*
X36625264Y-15455779D01*
X36575127Y-15305503D01*
X36573308Y-15300051D01*
X36499730Y-15181150D01*
X36487094Y-15160730D01*
X36484071Y-15155845D01*
X36364053Y-15036036D01*
X36219692Y-14947051D01*
X36214235Y-14945241D01*
X36214233Y-14945240D01*
X36063862Y-14895364D01*
X36063863Y-14895364D01*
X36058731Y-14893662D01*
X35958572Y-14883400D01*
X35349428Y-14883400D01*
X35248018Y-14893922D01*
X35242883Y-14895635D01*
X35242879Y-14895636D01*
X35092594Y-14945776D01*
X35031410Y-14946257D01*
X34981629Y-14910683D01*
X34962500Y-14857482D01*
X34962500Y-14856266D01*
X34958648Y-14820807D01*
X34956416Y-14800258D01*
X34956415Y-14800256D01*
X34955745Y-14794084D01*
X34904615Y-14657695D01*
X34817261Y-14541139D01*
X34700705Y-14453785D01*
X34564316Y-14402655D01*
X34558144Y-14401985D01*
X34558142Y-14401984D01*
X34522163Y-14398076D01*
X34502134Y-14395900D01*
X32005866Y-14395900D01*
X31985837Y-14398076D01*
X31949858Y-14401984D01*
X31949856Y-14401985D01*
X31943684Y-14402655D01*
X31807295Y-14453785D01*
X31690739Y-14541139D01*
X31603385Y-14657695D01*
X31552255Y-14794084D01*
X31551585Y-14800256D01*
X31551584Y-14800258D01*
X31549352Y-14820807D01*
X31545500Y-14856266D01*
X31545500Y-16661343D01*
X31526593Y-16719534D01*
X31516504Y-16731347D01*
X31456805Y-16791046D01*
X31402288Y-16818823D01*
X31376453Y-16819500D01*
X31327755Y-16814382D01*
X31255540Y-16806791D01*
X31255538Y-16806791D01*
X31250724Y-16806285D01*
X31245900Y-16806724D01*
X31245893Y-16806724D01*
X31228258Y-16808329D01*
X31168593Y-16794775D01*
X31141059Y-16770415D01*
X31130604Y-16756936D01*
X31119109Y-16753400D01*
X28089687Y-16753400D01*
X28078326Y-16757091D01*
X28078160Y-16767693D01*
X28118581Y-16906821D01*
X28123487Y-16918159D01*
X28201776Y-17050540D01*
X28209346Y-17060299D01*
X28213090Y-17064043D01*
X28240867Y-17118560D01*
X28231296Y-17178992D01*
X28213093Y-17204047D01*
X28204547Y-17212593D01*
X28119855Y-17355799D01*
X28073438Y-17515569D01*
X28070500Y-17552898D01*
X28070500Y-17985902D01*
X28073438Y-18023231D01*
X28119855Y-18183001D01*
X28129671Y-18199599D01*
X28200918Y-18320070D01*
X28204547Y-18326207D01*
X28212736Y-18334396D01*
X28240513Y-18388913D01*
X28230942Y-18449345D01*
X28212736Y-18474404D01*
X28204547Y-18482593D01*
X28119855Y-18625799D01*
X28073438Y-18785569D01*
X28070500Y-18822898D01*
X28070500Y-19255902D01*
X28073438Y-19293231D01*
X28119855Y-19453001D01*
X28204547Y-19596207D01*
X28212736Y-19604396D01*
X28240513Y-19658913D01*
X28230942Y-19719345D01*
X28212736Y-19744404D01*
X28204547Y-19752593D01*
X28119855Y-19895799D01*
X28073438Y-20055569D01*
X28070500Y-20092898D01*
X28070500Y-20525902D01*
X28073438Y-20563231D01*
X28119855Y-20723001D01*
X28204547Y-20866207D01*
X28212736Y-20874396D01*
X28240513Y-20928913D01*
X28230942Y-20989345D01*
X28212736Y-21014404D01*
X28204547Y-21022593D01*
X28201375Y-21027957D01*
X28201374Y-21027958D01*
X28191923Y-21043939D01*
X28119855Y-21165799D01*
X28073438Y-21325569D01*
X28070500Y-21362898D01*
X28070500Y-21795902D01*
X28073438Y-21833231D01*
X28119855Y-21993001D01*
X28204547Y-22136207D01*
X28212736Y-22144396D01*
X28240513Y-22198913D01*
X28230942Y-22259345D01*
X28212736Y-22284404D01*
X28204547Y-22292593D01*
X28201375Y-22297957D01*
X28201374Y-22297958D01*
X28192180Y-22313504D01*
X28119855Y-22435799D01*
X28073438Y-22595569D01*
X28070500Y-22632898D01*
X28070500Y-23065902D01*
X28073438Y-23103231D01*
X28119855Y-23263001D01*
X28204547Y-23406207D01*
X28212736Y-23414396D01*
X28240513Y-23468913D01*
X28230942Y-23529345D01*
X28212736Y-23554404D01*
X28204547Y-23562593D01*
X28201375Y-23567957D01*
X28201374Y-23567958D01*
X28185507Y-23594787D01*
X28119855Y-23705799D01*
X28118117Y-23711780D01*
X28118117Y-23711781D01*
X28115709Y-23720070D01*
X28073438Y-23865569D01*
X28070500Y-23902898D01*
X28070500Y-24335902D01*
X28073438Y-24373231D01*
X28119855Y-24533001D01*
X28204547Y-24676207D01*
X28212736Y-24684396D01*
X28240513Y-24738913D01*
X28230942Y-24799345D01*
X28212736Y-24824404D01*
X28204547Y-24832593D01*
X28119855Y-24975799D01*
X28118117Y-24981780D01*
X28118117Y-24981781D01*
X28116243Y-24988231D01*
X28073438Y-25135569D01*
X28070500Y-25172898D01*
X28070500Y-25605902D01*
X28073438Y-25643231D01*
X28109460Y-25767222D01*
X28111801Y-25775277D01*
X28119855Y-25803001D01*
X28204547Y-25946207D01*
X28212736Y-25954396D01*
X28240513Y-26008913D01*
X28230942Y-26069345D01*
X28212736Y-26094404D01*
X28204547Y-26102593D01*
X28201375Y-26107957D01*
X28201374Y-26107958D01*
X28192674Y-26122669D01*
X28119855Y-26245799D01*
X28073438Y-26405569D01*
X28070500Y-26442898D01*
X28070500Y-26875902D01*
X28073438Y-26913231D01*
X28119855Y-27073001D01*
X28204547Y-27216207D01*
X28322193Y-27333853D01*
X28327557Y-27337025D01*
X28327558Y-27337026D01*
X28367641Y-27360731D01*
X28465399Y-27418545D01*
X28625169Y-27464962D01*
X28630211Y-27465359D01*
X28630212Y-27465359D01*
X28636892Y-27465885D01*
X28662498Y-27467900D01*
X29475588Y-27467900D01*
X29533779Y-27486807D01*
X29545592Y-27496896D01*
X29769741Y-27721045D01*
X29797518Y-27775562D01*
X29798120Y-27802084D01*
X29790956Y-27865952D01*
X29791361Y-27870772D01*
X29804836Y-28031243D01*
X29806685Y-28053265D01*
X29808018Y-28057913D01*
X29808018Y-28057914D01*
X29853039Y-28214920D01*
X29858497Y-28233955D01*
X29944418Y-28401140D01*
X29978800Y-28444519D01*
X30058167Y-28544655D01*
X30058170Y-28544658D01*
X30061177Y-28548452D01*
X30064864Y-28551590D01*
X30064866Y-28551592D01*
X30146022Y-28620661D01*
X30204324Y-28670280D01*
X30208547Y-28672640D01*
X30208551Y-28672643D01*
X30276275Y-28710492D01*
X30368409Y-28761984D01*
X30373007Y-28763478D01*
X30542575Y-28818574D01*
X30542577Y-28818575D01*
X30547180Y-28820070D01*
X30733830Y-28842327D01*
X30738652Y-28841956D01*
X30738655Y-28841956D01*
X30916419Y-28828278D01*
X30916424Y-28828277D01*
X30921247Y-28827906D01*
X31102294Y-28777356D01*
X31106607Y-28775177D01*
X31106613Y-28775175D01*
X31265754Y-28694787D01*
X31265756Y-28694785D01*
X31270075Y-28692604D01*
X31273892Y-28689622D01*
X31414384Y-28579858D01*
X31414386Y-28579856D01*
X31418199Y-28576877D01*
X31421361Y-28573214D01*
X31421364Y-28573211D01*
X31450071Y-28539953D01*
X31502406Y-28508257D01*
X31563377Y-28513376D01*
X31604235Y-28545268D01*
X31660739Y-28620661D01*
X31777295Y-28708015D01*
X31783893Y-28710489D01*
X31783894Y-28710489D01*
X31829503Y-28727587D01*
X31913684Y-28759145D01*
X31919856Y-28759815D01*
X31919858Y-28759816D01*
X31953571Y-28763478D01*
X31975866Y-28765900D01*
X32187294Y-28765900D01*
X32245485Y-28784807D01*
X32281449Y-28834307D01*
X32281449Y-28895493D01*
X32244788Y-28943445D01*
X32245621Y-28944480D01*
X32176922Y-28999716D01*
X32099128Y-29062264D01*
X32096019Y-29065969D01*
X32096016Y-29065972D01*
X31982136Y-29201690D01*
X31978302Y-29206259D01*
X31975966Y-29210507D01*
X31975966Y-29210508D01*
X31968704Y-29223718D01*
X31887746Y-29370980D01*
X31886283Y-29375593D01*
X31886281Y-29375597D01*
X31846741Y-29500244D01*
X31830909Y-29550152D01*
X31830369Y-29554964D01*
X31830369Y-29554965D01*
X31810563Y-29731544D01*
X31809956Y-29736952D01*
X31813575Y-29780045D01*
X31824687Y-29912377D01*
X31825685Y-29924265D01*
X31827018Y-29928913D01*
X31827018Y-29928914D01*
X31873876Y-30092326D01*
X31877497Y-30104955D01*
X31879712Y-30109265D01*
X31911504Y-30171126D01*
X31963418Y-30272140D01*
X32001388Y-30320046D01*
X32077167Y-30415655D01*
X32077170Y-30415658D01*
X32080177Y-30419452D01*
X32083864Y-30422590D01*
X32083866Y-30422592D01*
X32160696Y-30487979D01*
X32223324Y-30541280D01*
X32227547Y-30543640D01*
X32227551Y-30543643D01*
X32296257Y-30582041D01*
X32387409Y-30632984D01*
X32392007Y-30634478D01*
X32561575Y-30689574D01*
X32561577Y-30689575D01*
X32566180Y-30691070D01*
X32752830Y-30713327D01*
X32757652Y-30712956D01*
X32757655Y-30712956D01*
X32935419Y-30699278D01*
X32935424Y-30699277D01*
X32940247Y-30698906D01*
X33121294Y-30648356D01*
X33125607Y-30646177D01*
X33125613Y-30646175D01*
X33284754Y-30565787D01*
X33284756Y-30565785D01*
X33289075Y-30563604D01*
X33316655Y-30542056D01*
X33433384Y-30450858D01*
X33433386Y-30450856D01*
X33437199Y-30447877D01*
X33440355Y-30444221D01*
X33440360Y-30444216D01*
X33530060Y-30340296D01*
X33560023Y-30305584D01*
X33612638Y-30212965D01*
X33650481Y-30146350D01*
X33650482Y-30146347D01*
X33652870Y-30142144D01*
X33655975Y-30132812D01*
X33710676Y-29968373D01*
X33710676Y-29968371D01*
X33712203Y-29963782D01*
X33715338Y-29938970D01*
X33735414Y-29780045D01*
X33735762Y-29777292D01*
X33736138Y-29750400D01*
X33734701Y-29735745D01*
X33747839Y-29675987D01*
X33763224Y-29656080D01*
X34010556Y-29408748D01*
X34017454Y-29402472D01*
X34020760Y-29399737D01*
X34026018Y-29396400D01*
X34072921Y-29346453D01*
X34075084Y-29344220D01*
X34095135Y-29324169D01*
X34097313Y-29321361D01*
X34098396Y-29319966D01*
X34104446Y-29312883D01*
X34131322Y-29284262D01*
X34131323Y-29284261D01*
X34135586Y-29279721D01*
X34146368Y-29260108D01*
X34154898Y-29247122D01*
X34160454Y-29239959D01*
X34168614Y-29229440D01*
X34186678Y-29187695D01*
X34190781Y-29179321D01*
X34197935Y-29166309D01*
X34212695Y-29139460D01*
X34214245Y-29133425D01*
X34218263Y-29117778D01*
X34223293Y-29103085D01*
X34229708Y-29088260D01*
X34229708Y-29088259D01*
X34232181Y-29082545D01*
X34239297Y-29037620D01*
X34241188Y-29028490D01*
X34250952Y-28990460D01*
X34250952Y-28990459D01*
X34252500Y-28984430D01*
X34252500Y-28962049D01*
X34253719Y-28946562D01*
X34256246Y-28930609D01*
X34256246Y-28930606D01*
X34257220Y-28924457D01*
X34252939Y-28879169D01*
X34252500Y-28869852D01*
X34252500Y-28826032D01*
X34271407Y-28767841D01*
X34320907Y-28731877D01*
X34386252Y-28733332D01*
X34447978Y-28756472D01*
X34459967Y-28759323D01*
X34513252Y-28765111D01*
X34518586Y-28765400D01*
X34619320Y-28765400D01*
X34632005Y-28761278D01*
X34635000Y-28757157D01*
X34635000Y-27338400D01*
X34653907Y-27280209D01*
X34703407Y-27244245D01*
X34734000Y-27239400D01*
X35044000Y-27239400D01*
X35102191Y-27258307D01*
X35138155Y-27307807D01*
X35143000Y-27338400D01*
X35143000Y-28749719D01*
X35147122Y-28762404D01*
X35151243Y-28765399D01*
X35259411Y-28765399D01*
X35264751Y-28765110D01*
X35318035Y-28759322D01*
X35330020Y-28756473D01*
X35453855Y-28710049D01*
X35472292Y-28699955D01*
X35473237Y-28701682D01*
X35522110Y-28684994D01*
X35574567Y-28702038D01*
X35575465Y-28700398D01*
X35581650Y-28703784D01*
X35587295Y-28708015D01*
X35593901Y-28710492D01*
X35593902Y-28710492D01*
X35639503Y-28727587D01*
X35723684Y-28759145D01*
X35729856Y-28759815D01*
X35729858Y-28759816D01*
X35763571Y-28763478D01*
X35785866Y-28765900D01*
X36532134Y-28765900D01*
X36554429Y-28763478D01*
X36588142Y-28759816D01*
X36588144Y-28759815D01*
X36594316Y-28759145D01*
X36661748Y-28733866D01*
X36722873Y-28731143D01*
X36773924Y-28764869D01*
X36795500Y-28826566D01*
X36795500Y-29459236D01*
X36776593Y-29517427D01*
X36766504Y-29529240D01*
X36316835Y-29978909D01*
X36262318Y-30006686D01*
X36201886Y-29997115D01*
X36158621Y-29953850D01*
X36152057Y-29937520D01*
X36145866Y-29917016D01*
X36145865Y-29917012D01*
X36144465Y-29912377D01*
X36087268Y-29804804D01*
X36058491Y-29750682D01*
X36058489Y-29750678D01*
X36056218Y-29746408D01*
X36044096Y-29731544D01*
X35940476Y-29604493D01*
X35940475Y-29604492D01*
X35937415Y-29600740D01*
X35792580Y-29480922D01*
X35788320Y-29478618D01*
X35788316Y-29478616D01*
X35631495Y-29393824D01*
X35631491Y-29393822D01*
X35627231Y-29391519D01*
X35447666Y-29335934D01*
X35442856Y-29335428D01*
X35442854Y-29335428D01*
X35265540Y-29316791D01*
X35265538Y-29316791D01*
X35260724Y-29316285D01*
X35201079Y-29321713D01*
X35078346Y-29332883D01*
X35078343Y-29332884D01*
X35073526Y-29333322D01*
X35068884Y-29334688D01*
X35068880Y-29334689D01*
X34897849Y-29385026D01*
X34897846Y-29385027D01*
X34893202Y-29386394D01*
X34726621Y-29473480D01*
X34722845Y-29476516D01*
X34722842Y-29476518D01*
X34587348Y-29585459D01*
X34580128Y-29591264D01*
X34577019Y-29594969D01*
X34577016Y-29594972D01*
X34462419Y-29731544D01*
X34459302Y-29735259D01*
X34368746Y-29899980D01*
X34367283Y-29904593D01*
X34367281Y-29904597D01*
X34347050Y-29968373D01*
X34311909Y-30079152D01*
X34311369Y-30083964D01*
X34311369Y-30083965D01*
X34291543Y-30260721D01*
X34290956Y-30265952D01*
X34293353Y-30294502D01*
X34279383Y-30354069D01*
X34264705Y-30372790D01*
X33227434Y-31410061D01*
X33220534Y-31416338D01*
X33217239Y-31419064D01*
X33211982Y-31422400D01*
X33207723Y-31426936D01*
X33207720Y-31426938D01*
X33165095Y-31472330D01*
X33162931Y-31474564D01*
X33142865Y-31494630D01*
X33140960Y-31497086D01*
X33139602Y-31498836D01*
X33133549Y-31505923D01*
X33102414Y-31539079D01*
X33099415Y-31544534D01*
X33091632Y-31558690D01*
X33083104Y-31571673D01*
X33073204Y-31584436D01*
X33073202Y-31584439D01*
X33069386Y-31589359D01*
X33066911Y-31595079D01*
X33066909Y-31595082D01*
X33051319Y-31631106D01*
X33047218Y-31639479D01*
X33038935Y-31654547D01*
X32994334Y-31696432D01*
X32933632Y-31704103D01*
X32917427Y-31699556D01*
X32790131Y-31651835D01*
X32784316Y-31649655D01*
X32778144Y-31648985D01*
X32778142Y-31648984D01*
X32742163Y-31645076D01*
X32722134Y-31642900D01*
X31975866Y-31642900D01*
X31955837Y-31645076D01*
X31919858Y-31648984D01*
X31919856Y-31648985D01*
X31913684Y-31649655D01*
X31907869Y-31651835D01*
X31788907Y-31696432D01*
X31777295Y-31700785D01*
X31660739Y-31788139D01*
X31573385Y-31904695D01*
X31570911Y-31911293D01*
X31570911Y-31911294D01*
X31559773Y-31941004D01*
X31522255Y-32041084D01*
X31521585Y-32047256D01*
X31521584Y-32047258D01*
X31518042Y-32079862D01*
X31515500Y-32103266D01*
X31515500Y-33727534D01*
X31515789Y-33730193D01*
X31521584Y-33783537D01*
X31522255Y-33789716D01*
X31573385Y-33926105D01*
X31660739Y-34042661D01*
X31777295Y-34130015D01*
X31913684Y-34181145D01*
X31919856Y-34181815D01*
X31919858Y-34181816D01*
X31955837Y-34185724D01*
X31975866Y-34187900D01*
X32722134Y-34187900D01*
X32742163Y-34185724D01*
X32778142Y-34181816D01*
X32778144Y-34181815D01*
X32784316Y-34181145D01*
X32920705Y-34130015D01*
X32926344Y-34125789D01*
X32932538Y-34122398D01*
X32933450Y-34124063D01*
X32982537Y-34107308D01*
X33034483Y-34124186D01*
X33035462Y-34122398D01*
X33041656Y-34125789D01*
X33047295Y-34130015D01*
X33183684Y-34181145D01*
X33189856Y-34181815D01*
X33189858Y-34181816D01*
X33225837Y-34185724D01*
X33245866Y-34187900D01*
X33992134Y-34187900D01*
X34012163Y-34185724D01*
X34048142Y-34181816D01*
X34048144Y-34181815D01*
X34054316Y-34181145D01*
X34190705Y-34130015D01*
X34196344Y-34125789D01*
X34202538Y-34122398D01*
X34203450Y-34124063D01*
X34252537Y-34107308D01*
X34304483Y-34124186D01*
X34305462Y-34122398D01*
X34311656Y-34125789D01*
X34317295Y-34130015D01*
X34453684Y-34181145D01*
X34459856Y-34181815D01*
X34459858Y-34181816D01*
X34495837Y-34185724D01*
X34515866Y-34187900D01*
X35262134Y-34187900D01*
X35282163Y-34185724D01*
X35318142Y-34181816D01*
X35318144Y-34181815D01*
X35324316Y-34181145D01*
X35460705Y-34130015D01*
X35466350Y-34125784D01*
X35472535Y-34122398D01*
X35473369Y-34123921D01*
X35522943Y-34106994D01*
X35574693Y-34123808D01*
X35575708Y-34121955D01*
X35594145Y-34132049D01*
X35717978Y-34178472D01*
X35729967Y-34181323D01*
X35783252Y-34187111D01*
X35788586Y-34187400D01*
X35889320Y-34187400D01*
X35902005Y-34183278D01*
X35905000Y-34179157D01*
X35905000Y-34171719D01*
X36413000Y-34171719D01*
X36417122Y-34184404D01*
X36421243Y-34187399D01*
X36529411Y-34187399D01*
X36534751Y-34187110D01*
X36588035Y-34181322D01*
X36600020Y-34178473D01*
X36723855Y-34132049D01*
X36736108Y-34125341D01*
X36841256Y-34046537D01*
X36851137Y-34036656D01*
X36929941Y-33931508D01*
X36936649Y-33919255D01*
X36983072Y-33795422D01*
X36985923Y-33783433D01*
X36991711Y-33730148D01*
X36992000Y-33724814D01*
X36992000Y-33185080D01*
X36987878Y-33172395D01*
X36983757Y-33169400D01*
X36428680Y-33169400D01*
X36415995Y-33173522D01*
X36413000Y-33177643D01*
X36413000Y-34171719D01*
X35905000Y-34171719D01*
X35905000Y-32760400D01*
X35923907Y-32702209D01*
X35973407Y-32666245D01*
X36004000Y-32661400D01*
X36976319Y-32661400D01*
X36989004Y-32657278D01*
X36991999Y-32653157D01*
X36991999Y-32105989D01*
X36991710Y-32100649D01*
X36985922Y-32047365D01*
X36983073Y-32035380D01*
X36936649Y-31911545D01*
X36929941Y-31899292D01*
X36851137Y-31794144D01*
X36841256Y-31784263D01*
X36736108Y-31705459D01*
X36723855Y-31698751D01*
X36624140Y-31661369D01*
X36576289Y-31623238D01*
X36559990Y-31564264D01*
X36581468Y-31506972D01*
X36588888Y-31498665D01*
X37820556Y-30266997D01*
X37827454Y-30260721D01*
X37830760Y-30257986D01*
X37836018Y-30254649D01*
X37882921Y-30204702D01*
X37885084Y-30202469D01*
X37905134Y-30182419D01*
X37907029Y-30179976D01*
X37907035Y-30179969D01*
X37908387Y-30178225D01*
X37914450Y-30171126D01*
X37941325Y-30142508D01*
X37941327Y-30142506D01*
X37945586Y-30137970D01*
X37956370Y-30118354D01*
X37964901Y-30105367D01*
X37974794Y-30092613D01*
X37978613Y-30087690D01*
X37993883Y-30052405D01*
X37996675Y-30045953D01*
X38000777Y-30037580D01*
X38019695Y-30003167D01*
X38019696Y-30003164D01*
X38022695Y-29997709D01*
X38028262Y-29976027D01*
X38033295Y-29961329D01*
X38039705Y-29946516D01*
X38039705Y-29946515D01*
X38042181Y-29940794D01*
X38049295Y-29895877D01*
X38051186Y-29886745D01*
X38060952Y-29848707D01*
X38062500Y-29842679D01*
X38062500Y-29820291D01*
X38063719Y-29804804D01*
X38066245Y-29788857D01*
X38066245Y-29788855D01*
X38067219Y-29782706D01*
X38063624Y-29744669D01*
X38062939Y-29737425D01*
X38062500Y-29728109D01*
X38062500Y-26836900D01*
X38081407Y-26778709D01*
X38130907Y-26742745D01*
X38161500Y-26737900D01*
X38325588Y-26737900D01*
X38383779Y-26756807D01*
X38395592Y-26766896D01*
X40016504Y-28387808D01*
X40044281Y-28442325D01*
X40045500Y-28457812D01*
X40045500Y-28937534D01*
X40045789Y-28940193D01*
X40048701Y-28966996D01*
X40052255Y-28999716D01*
X40054435Y-29005531D01*
X40096515Y-29117778D01*
X40103385Y-29136105D01*
X40190739Y-29252661D01*
X40307295Y-29340015D01*
X40313893Y-29342489D01*
X40313894Y-29342489D01*
X40324471Y-29346454D01*
X40443684Y-29391145D01*
X40449858Y-29391816D01*
X40453316Y-29392638D01*
X40505555Y-29424493D01*
X40529093Y-29480970D01*
X40514939Y-29540496D01*
X40498767Y-29559846D01*
X40498965Y-29560035D01*
X40344629Y-29721538D01*
X40218743Y-29906080D01*
X40217035Y-29909760D01*
X40217032Y-29909765D01*
X40189777Y-29968482D01*
X40124688Y-30108705D01*
X40123602Y-30112621D01*
X40069892Y-30306292D01*
X40064989Y-30323970D01*
X40041251Y-30546095D01*
X40054110Y-30769115D01*
X40055002Y-30773072D01*
X40101604Y-30979858D01*
X40103222Y-30987039D01*
X40104751Y-30990803D01*
X40104752Y-30990808D01*
X40180501Y-31177356D01*
X40187266Y-31194016D01*
X40189390Y-31197482D01*
X40189392Y-31197486D01*
X40288990Y-31360015D01*
X40303987Y-31384488D01*
X40306648Y-31387560D01*
X40306651Y-31387564D01*
X40447584Y-31550261D01*
X40447588Y-31550265D01*
X40450250Y-31553338D01*
X40453377Y-31555934D01*
X40453378Y-31555935D01*
X40619003Y-31693440D01*
X40619009Y-31693444D01*
X40622126Y-31696032D01*
X40815000Y-31808738D01*
X41023692Y-31888430D01*
X41242597Y-31932967D01*
X41246654Y-31933116D01*
X41246656Y-31933116D01*
X41310445Y-31935455D01*
X41465837Y-31941153D01*
X41469856Y-31940638D01*
X41469860Y-31940638D01*
X41683384Y-31913285D01*
X41683390Y-31913284D01*
X41687416Y-31912768D01*
X41691309Y-31911600D01*
X41691314Y-31911599D01*
X41843403Y-31865969D01*
X41901384Y-31848574D01*
X42101994Y-31750296D01*
X42283860Y-31620573D01*
X42442096Y-31462889D01*
X42572453Y-31281477D01*
X42671430Y-31081211D01*
X42672608Y-31077335D01*
X42672610Y-31077329D01*
X42735190Y-30871353D01*
X42735190Y-30871352D01*
X42736370Y-30867469D01*
X42765529Y-30645990D01*
X42765811Y-30634478D01*
X42767091Y-30582041D01*
X42767156Y-30579400D01*
X42766518Y-30571643D01*
X42749185Y-30360807D01*
X42749184Y-30360803D01*
X42748852Y-30356761D01*
X42744717Y-30340296D01*
X42695422Y-30144048D01*
X42694431Y-30140102D01*
X42619761Y-29968373D01*
X42606976Y-29938970D01*
X42606975Y-29938969D01*
X42605354Y-29935240D01*
X42484014Y-29747677D01*
X42472715Y-29735259D01*
X42336407Y-29585459D01*
X42333670Y-29582451D01*
X42314252Y-29567116D01*
X42280304Y-29516214D01*
X42282759Y-29455078D01*
X42320679Y-29407060D01*
X42352708Y-29393108D01*
X42358143Y-29391816D01*
X42364316Y-29391145D01*
X42456494Y-29356589D01*
X42494106Y-29342489D01*
X42494107Y-29342489D01*
X42500705Y-29340015D01*
X42617261Y-29252661D01*
X42704615Y-29136105D01*
X42711486Y-29117778D01*
X42753565Y-29005531D01*
X42755745Y-28999716D01*
X42759300Y-28966996D01*
X42762211Y-28940193D01*
X42762500Y-28937534D01*
X42762500Y-27141266D01*
X42755745Y-27079084D01*
X42704615Y-26942695D01*
X42617261Y-26826139D01*
X42500705Y-26738785D01*
X42494101Y-26736309D01*
X42370131Y-26689835D01*
X42364316Y-26687655D01*
X42358144Y-26686985D01*
X42358142Y-26686984D01*
X42322163Y-26683076D01*
X42302134Y-26680900D01*
X40505866Y-26680900D01*
X40485837Y-26683076D01*
X40449858Y-26686984D01*
X40449856Y-26686985D01*
X40443684Y-26687655D01*
X40307295Y-26738785D01*
X40301652Y-26743014D01*
X40301647Y-26743017D01*
X40291377Y-26750714D01*
X40233473Y-26770482D01*
X40175009Y-26752439D01*
X40162002Y-26741497D01*
X39591496Y-26170991D01*
X39563719Y-26116474D01*
X39562500Y-26100987D01*
X39562500Y-25481266D01*
X39559422Y-25452929D01*
X39556416Y-25425258D01*
X39556415Y-25425256D01*
X39555745Y-25419084D01*
X39520481Y-25325017D01*
X39507089Y-25289294D01*
X39507089Y-25289293D01*
X39504615Y-25282695D01*
X39417261Y-25166139D01*
X39300705Y-25078785D01*
X39291543Y-25075350D01*
X39170131Y-25029835D01*
X39164316Y-25027655D01*
X39158142Y-25026984D01*
X39152804Y-25025715D01*
X39100566Y-24993859D01*
X39077028Y-24937382D01*
X39091182Y-24877856D01*
X39137621Y-24838019D01*
X39152804Y-24833085D01*
X39158142Y-24831816D01*
X39164316Y-24831145D01*
X39206919Y-24815174D01*
X39294106Y-24782489D01*
X39294107Y-24782489D01*
X39300705Y-24780015D01*
X39381663Y-24719340D01*
X39411620Y-24696889D01*
X39411621Y-24696888D01*
X39417261Y-24692661D01*
X39447340Y-24652527D01*
X39497368Y-24617302D01*
X39526560Y-24612900D01*
X40087678Y-24612900D01*
X40145869Y-24631807D01*
X40179404Y-24674654D01*
X40180212Y-24676644D01*
X40185735Y-24690247D01*
X40185738Y-24690253D01*
X40187266Y-24694016D01*
X40189390Y-24697482D01*
X40189392Y-24697486D01*
X40301602Y-24880596D01*
X40303987Y-24884488D01*
X40306648Y-24887560D01*
X40306651Y-24887564D01*
X40447584Y-25050261D01*
X40447588Y-25050265D01*
X40450250Y-25053338D01*
X40453377Y-25055934D01*
X40453378Y-25055935D01*
X40619003Y-25193440D01*
X40619009Y-25193444D01*
X40622126Y-25196032D01*
X40815000Y-25308738D01*
X40818792Y-25310186D01*
X41014883Y-25385066D01*
X41023692Y-25388430D01*
X41242597Y-25432967D01*
X41246654Y-25433116D01*
X41246656Y-25433116D01*
X41310445Y-25435455D01*
X41465837Y-25441153D01*
X41469856Y-25440638D01*
X41469860Y-25440638D01*
X41683384Y-25413285D01*
X41683390Y-25413284D01*
X41687416Y-25412768D01*
X41691309Y-25411600D01*
X41691314Y-25411599D01*
X41843403Y-25365969D01*
X41901384Y-25348574D01*
X42101994Y-25250296D01*
X42283860Y-25120573D01*
X42383882Y-25020900D01*
X42439215Y-24965760D01*
X42442096Y-24962889D01*
X42572453Y-24781477D01*
X42671430Y-24581211D01*
X42672608Y-24577335D01*
X42672610Y-24577329D01*
X42735190Y-24371353D01*
X42735190Y-24371352D01*
X42736370Y-24367469D01*
X42765529Y-24145990D01*
X42765611Y-24142657D01*
X42767091Y-24082041D01*
X42767156Y-24079400D01*
X42765890Y-24063998D01*
X42749185Y-23860807D01*
X42749184Y-23860803D01*
X42748852Y-23856761D01*
X42745535Y-23843553D01*
X42704115Y-23678657D01*
X42694431Y-23640102D01*
X42619409Y-23467564D01*
X42606976Y-23438970D01*
X42606975Y-23438969D01*
X42605354Y-23435240D01*
X42484014Y-23247677D01*
X42333670Y-23082451D01*
X42314252Y-23067116D01*
X42280304Y-23016214D01*
X42282759Y-22955078D01*
X42320679Y-22907060D01*
X42352708Y-22893108D01*
X42358143Y-22891816D01*
X42364316Y-22891145D01*
X42476431Y-22849115D01*
X42494106Y-22842489D01*
X42494107Y-22842489D01*
X42500705Y-22840015D01*
X42617261Y-22752661D01*
X42704615Y-22636105D01*
X42724162Y-22583965D01*
X42753565Y-22505531D01*
X42755745Y-22499716D01*
X42762500Y-22437534D01*
X42762500Y-20641266D01*
X42755745Y-20579084D01*
X42704615Y-20442695D01*
X42617261Y-20326139D01*
X42500705Y-20238785D01*
X42364316Y-20187655D01*
X42358144Y-20186985D01*
X42358142Y-20186984D01*
X42322163Y-20183076D01*
X42302134Y-20180900D01*
X42136500Y-20180900D01*
X42078309Y-20161993D01*
X42042345Y-20112493D01*
X42037500Y-20081900D01*
X42037500Y-18843634D01*
X42056407Y-18785443D01*
X42092943Y-18754731D01*
X42098337Y-18752088D01*
X42098341Y-18752085D01*
X42101994Y-18750296D01*
X42283860Y-18620573D01*
X42442096Y-18462889D01*
X42572453Y-18281477D01*
X42671430Y-18081211D01*
X42672608Y-18077335D01*
X42672610Y-18077329D01*
X42735190Y-17871353D01*
X42735190Y-17871352D01*
X42736370Y-17867469D01*
X42765529Y-17645990D01*
X42767156Y-17579400D01*
X42766940Y-17576768D01*
X42749185Y-17360807D01*
X42749184Y-17360803D01*
X42748852Y-17356761D01*
X42747264Y-17350436D01*
X42695422Y-17144048D01*
X42694431Y-17140102D01*
X42605354Y-16935240D01*
X42484014Y-16747677D01*
X42333670Y-16582451D01*
X42314252Y-16567116D01*
X42280304Y-16516214D01*
X42282759Y-16455078D01*
X42320679Y-16407060D01*
X42352708Y-16393108D01*
X42358143Y-16391816D01*
X42364316Y-16391145D01*
X42440761Y-16362487D01*
X42494106Y-16342489D01*
X42494107Y-16342489D01*
X42500705Y-16340015D01*
X42617261Y-16252661D01*
X42704615Y-16136105D01*
X42755745Y-15999716D01*
X42762500Y-15937534D01*
X42762500Y-14141266D01*
X42758098Y-14100740D01*
X42756416Y-14085258D01*
X42756415Y-14085256D01*
X42755745Y-14079084D01*
X42734710Y-14022972D01*
X42707089Y-13949294D01*
X42707089Y-13949293D01*
X42704615Y-13942695D01*
X42617261Y-13826139D01*
X42500705Y-13738785D01*
X42397780Y-13700200D01*
X42349929Y-13662069D01*
X42333630Y-13603095D01*
X42355108Y-13545803D01*
X42406159Y-13512077D01*
X42432532Y-13508500D01*
X43334500Y-13508500D01*
X43392691Y-13527407D01*
X43428655Y-13576907D01*
X43433500Y-13607500D01*
X43433500Y-34444500D01*
X43414593Y-34502691D01*
X43365093Y-34538655D01*
X43334500Y-34543500D01*
X13307500Y-34543500D01*
X13249309Y-34524593D01*
X13213345Y-34475093D01*
X13208500Y-34444500D01*
X13208500Y-33461811D01*
X20106001Y-33461811D01*
X20106290Y-33467151D01*
X20112078Y-33520435D01*
X20114927Y-33532420D01*
X20161351Y-33656255D01*
X20168059Y-33668508D01*
X20246863Y-33773656D01*
X20256744Y-33783537D01*
X20361892Y-33862341D01*
X20374145Y-33869049D01*
X20497978Y-33915472D01*
X20509967Y-33918323D01*
X20563252Y-33924111D01*
X20568586Y-33924400D01*
X20844320Y-33924400D01*
X20857005Y-33920278D01*
X20860000Y-33916157D01*
X20860000Y-33061080D01*
X20855878Y-33048395D01*
X20851757Y-33045400D01*
X20121681Y-33045400D01*
X20108996Y-33049522D01*
X20106001Y-33053643D01*
X20106001Y-33461811D01*
X13208500Y-33461811D01*
X13208500Y-32824811D01*
X16731001Y-32824811D01*
X16731290Y-32830151D01*
X16737078Y-32883435D01*
X16739927Y-32895420D01*
X16786351Y-33019255D01*
X16793059Y-33031508D01*
X16871863Y-33136656D01*
X16881744Y-33146537D01*
X16986892Y-33225341D01*
X16999145Y-33232049D01*
X17122978Y-33278472D01*
X17134967Y-33281323D01*
X17188252Y-33287111D01*
X17193586Y-33287400D01*
X17594320Y-33287400D01*
X17607005Y-33283278D01*
X17610000Y-33279157D01*
X17610000Y-33271719D01*
X18118000Y-33271719D01*
X18122122Y-33284404D01*
X18126243Y-33287399D01*
X18534411Y-33287399D01*
X18539751Y-33287110D01*
X18593035Y-33281322D01*
X18605020Y-33278473D01*
X18728855Y-33232049D01*
X18741108Y-33225341D01*
X18846256Y-33146537D01*
X18856137Y-33136656D01*
X18934941Y-33031508D01*
X18941649Y-33019255D01*
X18988072Y-32895422D01*
X18990923Y-32883433D01*
X18996711Y-32830148D01*
X18997000Y-32824814D01*
X18997000Y-32549080D01*
X18992878Y-32536395D01*
X18988757Y-32533400D01*
X18133680Y-32533400D01*
X18120995Y-32537522D01*
X18118000Y-32541643D01*
X18118000Y-33271719D01*
X17610000Y-33271719D01*
X17610000Y-32549080D01*
X17605878Y-32536395D01*
X17601757Y-32533400D01*
X16746681Y-32533400D01*
X16733996Y-32537522D01*
X16731001Y-32541643D01*
X16731001Y-32824811D01*
X13208500Y-32824811D01*
X13208500Y-32521720D01*
X20106000Y-32521720D01*
X20110122Y-32534405D01*
X20114243Y-32537400D01*
X20844320Y-32537400D01*
X20857005Y-32533278D01*
X20860000Y-32529157D01*
X20860000Y-31674081D01*
X20855878Y-31661396D01*
X20851757Y-31658401D01*
X20568589Y-31658401D01*
X20563249Y-31658690D01*
X20509965Y-31664478D01*
X20497980Y-31667327D01*
X20374145Y-31713751D01*
X20361892Y-31720459D01*
X20256744Y-31799263D01*
X20246863Y-31809144D01*
X20168059Y-31914292D01*
X20161351Y-31926545D01*
X20114928Y-32050378D01*
X20112077Y-32062367D01*
X20106289Y-32115652D01*
X20106000Y-32120986D01*
X20106000Y-32521720D01*
X13208500Y-32521720D01*
X13208500Y-13607500D01*
X13227407Y-13549309D01*
X13276907Y-13513345D01*
X13307500Y-13508500D01*
X14725357Y-13508500D01*
X14783548Y-13527407D01*
G37*
%TD.AperFunction*%
%TA.AperFunction,Conductor*%
G36*
X31182151Y-19702933D02*
G01*
X31212838Y-19723787D01*
X31516504Y-20027453D01*
X31544281Y-20081970D01*
X31545500Y-20097457D01*
X31545500Y-21902534D01*
X31552255Y-21964716D01*
X31562859Y-21993001D01*
X31597592Y-22085651D01*
X31603385Y-22101105D01*
X31690739Y-22217661D01*
X31807295Y-22305015D01*
X31813893Y-22307489D01*
X31813894Y-22307489D01*
X31852688Y-22322032D01*
X31943684Y-22356145D01*
X31949856Y-22356815D01*
X31949858Y-22356816D01*
X31985837Y-22360724D01*
X32005866Y-22362900D01*
X32245242Y-22362900D01*
X32303433Y-22381807D01*
X32339397Y-22431307D01*
X32339608Y-22491834D01*
X32311909Y-22579152D01*
X32311369Y-22583964D01*
X32311369Y-22583965D01*
X32307097Y-22622056D01*
X32290956Y-22765952D01*
X32294575Y-22809045D01*
X32304902Y-22932028D01*
X32306685Y-22953265D01*
X32308018Y-22957913D01*
X32308018Y-22957914D01*
X32356691Y-23127655D01*
X32358497Y-23133955D01*
X32444418Y-23301140D01*
X32492106Y-23361307D01*
X32558167Y-23444655D01*
X32558170Y-23444658D01*
X32561177Y-23448452D01*
X32564864Y-23451590D01*
X32564866Y-23451592D01*
X32594576Y-23476877D01*
X32676732Y-23546797D01*
X32708791Y-23598909D01*
X32704097Y-23659914D01*
X32664442Y-23706509D01*
X32602219Y-23720646D01*
X32565541Y-23716791D01*
X32565538Y-23716791D01*
X32560724Y-23716285D01*
X32509994Y-23720902D01*
X32378346Y-23732883D01*
X32378343Y-23732884D01*
X32373526Y-23733322D01*
X32368884Y-23734688D01*
X32368880Y-23734689D01*
X32197849Y-23785026D01*
X32197846Y-23785027D01*
X32193202Y-23786394D01*
X32026621Y-23873480D01*
X32022845Y-23876516D01*
X32022842Y-23876518D01*
X31898708Y-23976325D01*
X31880128Y-23991264D01*
X31877019Y-23994969D01*
X31877016Y-23994972D01*
X31768437Y-24124372D01*
X31759302Y-24135259D01*
X31668746Y-24299980D01*
X31667283Y-24304593D01*
X31667281Y-24304597D01*
X31627125Y-24431184D01*
X31611909Y-24479152D01*
X31611369Y-24483964D01*
X31611369Y-24483965D01*
X31600053Y-24584853D01*
X31590956Y-24665952D01*
X31589003Y-24665733D01*
X31571808Y-24716216D01*
X31521805Y-24751477D01*
X31492545Y-24755900D01*
X31129888Y-24755900D01*
X31071697Y-24736993D01*
X31035733Y-24687493D01*
X31035733Y-24626307D01*
X31044672Y-24606510D01*
X31088145Y-24533001D01*
X31134562Y-24373231D01*
X31137500Y-24335902D01*
X31137500Y-23902898D01*
X31134562Y-23865569D01*
X31092291Y-23720070D01*
X31089883Y-23711781D01*
X31089883Y-23711780D01*
X31088145Y-23705799D01*
X31022493Y-23594787D01*
X31006626Y-23567958D01*
X31006625Y-23567957D01*
X31003453Y-23562593D01*
X30995264Y-23554404D01*
X30967487Y-23499887D01*
X30977058Y-23439455D01*
X30995264Y-23414396D01*
X31003453Y-23406207D01*
X31088145Y-23263001D01*
X31134562Y-23103231D01*
X31137500Y-23065902D01*
X31137500Y-22632898D01*
X31134562Y-22595569D01*
X31088145Y-22435799D01*
X31015820Y-22313504D01*
X31006626Y-22297958D01*
X31006625Y-22297957D01*
X31003453Y-22292593D01*
X30995264Y-22284404D01*
X30967487Y-22229887D01*
X30977058Y-22169455D01*
X30995264Y-22144396D01*
X31003453Y-22136207D01*
X31088145Y-21993001D01*
X31134562Y-21833231D01*
X31137500Y-21795902D01*
X31137500Y-21362898D01*
X31134562Y-21325569D01*
X31088145Y-21165799D01*
X31016077Y-21043939D01*
X31006626Y-21027958D01*
X31006625Y-21027957D01*
X31003453Y-21022593D01*
X30995264Y-21014404D01*
X30967487Y-20959887D01*
X30977058Y-20899455D01*
X30995264Y-20874396D01*
X31003453Y-20866207D01*
X31088145Y-20723001D01*
X31134562Y-20563231D01*
X31137500Y-20525902D01*
X31137500Y-20092898D01*
X31134562Y-20055569D01*
X31088145Y-19895799D01*
X31057621Y-19844186D01*
X31044273Y-19784474D01*
X31068573Y-19728321D01*
X31121238Y-19697175D01*
X31182151Y-19702933D01*
G37*
%TD.AperFunction*%
%TA.AperFunction,Conductor*%
G36*
X16532768Y-17464072D02*
G01*
X17854652Y-18785956D01*
X17860928Y-18792854D01*
X17863663Y-18796160D01*
X17867000Y-18801418D01*
X17898371Y-18830877D01*
X17916946Y-18848320D01*
X17919180Y-18850484D01*
X17939231Y-18870535D01*
X17941683Y-18872437D01*
X17943434Y-18873796D01*
X17950517Y-18879846D01*
X17983679Y-18910986D01*
X18000760Y-18920376D01*
X18003292Y-18921768D01*
X18016278Y-18930298D01*
X18033960Y-18944014D01*
X18048718Y-18950400D01*
X18075702Y-18962077D01*
X18084076Y-18966180D01*
X18123940Y-18988095D01*
X18129972Y-18989644D01*
X18129975Y-18989645D01*
X18145622Y-18993663D01*
X18160315Y-18998693D01*
X18175140Y-19005108D01*
X18180855Y-19007581D01*
X18215666Y-19013095D01*
X18225780Y-19014697D01*
X18234910Y-19016588D01*
X18272940Y-19026352D01*
X18272941Y-19026352D01*
X18278970Y-19027900D01*
X18301351Y-19027900D01*
X18316838Y-19029119D01*
X18332791Y-19031646D01*
X18332794Y-19031646D01*
X18338943Y-19032620D01*
X18384231Y-19028339D01*
X18393548Y-19027900D01*
X18671500Y-19027900D01*
X18729691Y-19046807D01*
X18765655Y-19096307D01*
X18770500Y-19126900D01*
X18770500Y-19255902D01*
X18773438Y-19293231D01*
X18819855Y-19453001D01*
X18863326Y-19526507D01*
X18876673Y-19586217D01*
X18852373Y-19642370D01*
X18799708Y-19673516D01*
X18778112Y-19675900D01*
X18337412Y-19675900D01*
X18279221Y-19656993D01*
X18267408Y-19646904D01*
X16388529Y-17768025D01*
X16360752Y-17713508D01*
X16360380Y-17685098D01*
X16365185Y-17648605D01*
X16365185Y-17648600D01*
X16365529Y-17645990D01*
X16367156Y-17579400D01*
X16366940Y-17576768D01*
X16364097Y-17542187D01*
X16378173Y-17482643D01*
X16424560Y-17442744D01*
X16485540Y-17437732D01*
X16532768Y-17464072D01*
G37*
%TD.AperFunction*%
%TD*%
%TA.AperFunction,NonConductor*%
G36*
X40004691Y-15431807D02*
G01*
X40040655Y-15481307D01*
X40045500Y-15511900D01*
X40045500Y-15937534D01*
X40052255Y-15999716D01*
X40103385Y-16136105D01*
X40190739Y-16252661D01*
X40307295Y-16340015D01*
X40443684Y-16391145D01*
X40449858Y-16391816D01*
X40453316Y-16392638D01*
X40505555Y-16424493D01*
X40529093Y-16480970D01*
X40514939Y-16540496D01*
X40498767Y-16559846D01*
X40498965Y-16560035D01*
X40429961Y-16632244D01*
X40402969Y-16660489D01*
X40349096Y-16689497D01*
X40288463Y-16681299D01*
X40268290Y-16668373D01*
X40250882Y-16653972D01*
X40162580Y-16580922D01*
X40158320Y-16578618D01*
X40158316Y-16578616D01*
X40001495Y-16493824D01*
X40001491Y-16493822D01*
X39997231Y-16491519D01*
X39817666Y-16435934D01*
X39812856Y-16435428D01*
X39812854Y-16435428D01*
X39635540Y-16416791D01*
X39635538Y-16416791D01*
X39630724Y-16416285D01*
X39571079Y-16421713D01*
X39448346Y-16432883D01*
X39448343Y-16432884D01*
X39443526Y-16433322D01*
X39438884Y-16434688D01*
X39438880Y-16434689D01*
X39267849Y-16485026D01*
X39267846Y-16485027D01*
X39263202Y-16486394D01*
X39096621Y-16573480D01*
X39092845Y-16576516D01*
X39092842Y-16576518D01*
X39023534Y-16632244D01*
X38966337Y-16653972D01*
X38907292Y-16637930D01*
X38868952Y-16590246D01*
X38862500Y-16555090D01*
X38862500Y-15907812D01*
X38881407Y-15849621D01*
X38891496Y-15837808D01*
X38958543Y-15770761D01*
X39013060Y-15742984D01*
X39029782Y-15741844D01*
X39033830Y-15742327D01*
X39127539Y-15735116D01*
X39216419Y-15728278D01*
X39216424Y-15728277D01*
X39221247Y-15727906D01*
X39402294Y-15677356D01*
X39406607Y-15675177D01*
X39406613Y-15675175D01*
X39565754Y-15594787D01*
X39565756Y-15594785D01*
X39570075Y-15592604D01*
X39612102Y-15559769D01*
X39714383Y-15479859D01*
X39714387Y-15479856D01*
X39718199Y-15476877D01*
X39723117Y-15471180D01*
X39743805Y-15447212D01*
X39796141Y-15415516D01*
X39818748Y-15412900D01*
X39946500Y-15412900D01*
X40004691Y-15431807D01*
G37*
%TD.AperFunction*%
%TA.AperFunction,NonConductor*%
G36*
X39025664Y-18128867D02*
G01*
X39074324Y-18170280D01*
X39078547Y-18172640D01*
X39078551Y-18172643D01*
X39155865Y-18215852D01*
X39238409Y-18261984D01*
X39243007Y-18263478D01*
X39412575Y-18318574D01*
X39412577Y-18318575D01*
X39417180Y-18320070D01*
X39603830Y-18342327D01*
X39608652Y-18341956D01*
X39608655Y-18341956D01*
X39786419Y-18328278D01*
X39786424Y-18328277D01*
X39791247Y-18327906D01*
X39972294Y-18277356D01*
X39993198Y-18266797D01*
X40033561Y-18246408D01*
X40094052Y-18215852D01*
X40154516Y-18206491D01*
X40208935Y-18234459D01*
X40223099Y-18252491D01*
X40277923Y-18341956D01*
X40303987Y-18384488D01*
X40306648Y-18387560D01*
X40306651Y-18387564D01*
X40447584Y-18550261D01*
X40447588Y-18550265D01*
X40450250Y-18553338D01*
X40453377Y-18555934D01*
X40453378Y-18555935D01*
X40619003Y-18693440D01*
X40619009Y-18693444D01*
X40622126Y-18696032D01*
X40666029Y-18721687D01*
X40721448Y-18754071D01*
X40762151Y-18799754D01*
X40770500Y-18839547D01*
X40770500Y-20081900D01*
X40751593Y-20140091D01*
X40702093Y-20176055D01*
X40671500Y-20180900D01*
X40505866Y-20180900D01*
X40485837Y-20183076D01*
X40449858Y-20186984D01*
X40449856Y-20186985D01*
X40443684Y-20187655D01*
X40307295Y-20238785D01*
X40190739Y-20326139D01*
X40103385Y-20442695D01*
X40052255Y-20579084D01*
X40045500Y-20641266D01*
X40045500Y-22437534D01*
X40052255Y-22499716D01*
X40054435Y-22505531D01*
X40083839Y-22583965D01*
X40103385Y-22636105D01*
X40190739Y-22752661D01*
X40307295Y-22840015D01*
X40313893Y-22842489D01*
X40313894Y-22842489D01*
X40331569Y-22849115D01*
X40443684Y-22891145D01*
X40449858Y-22891816D01*
X40453316Y-22892638D01*
X40505555Y-22924493D01*
X40529093Y-22980970D01*
X40514939Y-23040496D01*
X40498767Y-23059846D01*
X40498965Y-23060035D01*
X40344629Y-23221538D01*
X40290329Y-23301140D01*
X40289272Y-23302689D01*
X40240861Y-23340105D01*
X40207488Y-23345900D01*
X39526560Y-23345900D01*
X39468369Y-23326993D01*
X39447340Y-23306273D01*
X39425765Y-23277486D01*
X39417261Y-23266139D01*
X39405093Y-23257019D01*
X39330470Y-23201093D01*
X39300705Y-23178785D01*
X39291543Y-23175350D01*
X39170131Y-23129835D01*
X39164316Y-23127655D01*
X39158144Y-23126985D01*
X39158142Y-23126984D01*
X39122163Y-23123076D01*
X39102134Y-23120900D01*
X38961500Y-23120900D01*
X38903309Y-23101993D01*
X38867345Y-23052493D01*
X38862500Y-23021900D01*
X38862500Y-18204259D01*
X38881407Y-18146068D01*
X38930907Y-18110104D01*
X38992093Y-18110104D01*
X39025664Y-18128867D01*
G37*
%TD.AperFunction*%
%TA.AperFunction,NonConductor*%
G36*
X18480782Y-23311807D02*
G01*
X18516746Y-23361307D01*
X18516746Y-23422493D01*
X18480782Y-23471993D01*
X18440485Y-23488684D01*
X18439110Y-23488727D01*
X18433131Y-23490464D01*
X18417617Y-23494971D01*
X18402411Y-23498120D01*
X18386384Y-23500145D01*
X18380203Y-23500926D01*
X18374414Y-23503218D01*
X18374410Y-23503219D01*
X18337912Y-23517670D01*
X18329091Y-23520690D01*
X18285407Y-23533382D01*
X18280048Y-23536551D01*
X18280044Y-23536553D01*
X18266139Y-23544776D01*
X18252191Y-23551609D01*
X18237176Y-23557554D01*
X18237174Y-23557555D01*
X18231383Y-23559848D01*
X18226344Y-23563509D01*
X18194585Y-23586583D01*
X18186790Y-23591703D01*
X18185267Y-23592604D01*
X18147637Y-23614858D01*
X18131808Y-23630687D01*
X18119995Y-23640775D01*
X18106934Y-23650264D01*
X18106927Y-23650271D01*
X18101893Y-23653928D01*
X18097927Y-23658723D01*
X18097924Y-23658725D01*
X18072907Y-23688966D01*
X18066630Y-23695865D01*
X17395591Y-24366904D01*
X17341074Y-24394681D01*
X17325587Y-24395900D01*
X16153462Y-24395900D01*
X16095271Y-24376993D01*
X16080239Y-24363528D01*
X15936407Y-24205459D01*
X15933670Y-24202451D01*
X15758359Y-24063998D01*
X15722060Y-24043960D01*
X15674052Y-24017458D01*
X15632246Y-23972783D01*
X15624683Y-23912067D01*
X15654253Y-23858501D01*
X15678345Y-23841882D01*
X15698336Y-23832089D01*
X15698345Y-23832084D01*
X15701994Y-23830296D01*
X15883860Y-23700573D01*
X16030541Y-23554404D01*
X16039215Y-23545760D01*
X16042096Y-23542889D01*
X16172453Y-23361477D01*
X16174251Y-23357839D01*
X16174254Y-23357834D01*
X16179096Y-23348036D01*
X16221829Y-23304246D01*
X16267848Y-23292900D01*
X18422591Y-23292900D01*
X18480782Y-23311807D01*
G37*
%TD.AperFunction*%
%TA.AperFunction,NonConductor*%
G36*
X22006504Y-26458408D02*
G01*
X22197504Y-26649408D01*
X22225281Y-26703925D01*
X22226500Y-26719412D01*
X22226500Y-27636588D01*
X22207593Y-27694779D01*
X22197504Y-27706592D01*
X21106504Y-28797591D01*
X21051987Y-28825368D01*
X20991555Y-28815797D01*
X20948290Y-28772532D01*
X20937500Y-28727587D01*
X20937500Y-27566900D01*
X20956407Y-27508709D01*
X21005907Y-27472745D01*
X21036500Y-27467900D01*
X21245502Y-27467900D01*
X21271108Y-27465885D01*
X21277788Y-27465359D01*
X21277789Y-27465359D01*
X21282831Y-27464962D01*
X21442601Y-27418545D01*
X21540359Y-27360731D01*
X21580442Y-27337026D01*
X21580443Y-27337025D01*
X21585807Y-27333853D01*
X21703453Y-27216207D01*
X21788145Y-27073001D01*
X21834562Y-26913231D01*
X21837500Y-26875902D01*
X21837500Y-26528412D01*
X21856407Y-26470221D01*
X21905907Y-26434257D01*
X21967093Y-26434257D01*
X22006504Y-26458408D01*
G37*
%TD.AperFunction*%
M02*
