%TF.GenerationSoftware,KiCad,Pcbnew,(6.0.7)*%
%TF.CreationDate,2023-01-30T20:46:25-05:00*%
%TF.ProjectId,SPItoCAN,53504974-6f43-4414-9e2e-6b696361645f,rev?*%
%TF.SameCoordinates,Original*%
%TF.FileFunction,Copper,L2,Bot*%
%TF.FilePolarity,Positive*%
%FSLAX46Y46*%
G04 Gerber Fmt 4.6, Leading zero omitted, Abs format (unit mm)*
G04 Created by KiCad (PCBNEW (6.0.7)) date 2023-01-30 20:46:25*
%MOMM*%
%LPD*%
G01*
G04 APERTURE LIST*
%TA.AperFunction,ComponentPad*%
%ADD10R,1.700000X1.700000*%
%TD*%
%TA.AperFunction,ComponentPad*%
%ADD11O,1.700000X1.700000*%
%TD*%
%TA.AperFunction,SMDPad,CuDef*%
%ADD12C,1.500000*%
%TD*%
%TA.AperFunction,ViaPad*%
%ADD13C,0.900000*%
%TD*%
%TA.AperFunction,Conductor*%
%ADD14C,0.250000*%
%TD*%
%TA.AperFunction,Conductor*%
%ADD15C,0.200000*%
%TD*%
G04 APERTURE END LIST*
D10*
%TO.P,J1,1,Pin_1*%
%TO.N,Net-(J1-Pad1)*%
X41404000Y-28039400D03*
D11*
%TO.P,J1,2,Pin_2*%
%TO.N,/CANL*%
X41404000Y-30579400D03*
%TD*%
D10*
%TO.P,J4,1,1*%
%TO.N,VCC*%
X15004000Y-30279400D03*
D11*
%TO.P,J4,2,2*%
%TO.N,GND*%
X15004000Y-27739400D03*
%TO.P,J4,3,3*%
%TO.N,/CS*%
X15004000Y-25199400D03*
%TO.P,J4,4,4*%
%TO.N,/SO*%
X15004000Y-22659400D03*
%TO.P,J4,5,5*%
%TO.N,/SI*%
X15004000Y-20119400D03*
%TO.P,J4,6,6*%
%TO.N,/SCK*%
X15004000Y-17579400D03*
%TO.P,J4,7,7*%
%TO.N,/INT*%
X15004000Y-15039400D03*
%TD*%
%TO.P,J2,2,Pin_2*%
%TO.N,/CANL*%
X41404000Y-17579400D03*
D10*
%TO.P,J2,1,Pin_1*%
%TO.N,/CANH*%
X41404000Y-15039400D03*
%TD*%
%TO.P,J3,1,Pin_1*%
%TO.N,/CANL*%
X41404000Y-21539400D03*
D11*
%TO.P,J3,2,Pin_2*%
%TO.N,/CANH*%
X41404000Y-24079400D03*
%TD*%
D12*
%TO.P,CANL,1*%
%TO.N,/CANL*%
X37000000Y-17600000D03*
%TD*%
%TO.P,SCK,1*%
%TO.N,/SCK*%
X24000000Y-19558000D03*
%TD*%
%TO.P,TXCAN,1*%
%TO.N,/TXCAN*%
X30734000Y-26162000D03*
%TD*%
%TO.P,VCC,1*%
%TO.N,VCC*%
X23000000Y-32500000D03*
%TD*%
%TO.P,OSC+,1*%
%TO.N,/OSC+*%
X29464000Y-17780000D03*
%TD*%
%TO.P,CS,1*%
%TO.N,/CS*%
X24000000Y-28956000D03*
%TD*%
%TO.P,SO,1*%
%TO.N,/SO*%
X26416000Y-24892000D03*
%TD*%
%TO.P,SI,1*%
%TO.N,/SI*%
X24000000Y-22500000D03*
%TD*%
%TO.P,OSC-,1*%
%TO.N,/OSC-*%
X33274000Y-20828000D03*
%TD*%
%TO.P,CANH,1*%
%TO.N,/CANH*%
X37100000Y-15000000D03*
%TD*%
%TO.P,RXCAN,1*%
%TO.N,/RXCAN*%
X30759400Y-23215600D03*
%TD*%
%TO.P,INT,1*%
%TO.N,/INT*%
X24000000Y-16764000D03*
%TD*%
%TO.P,GND,1*%
%TO.N,GND*%
X20500000Y-32500000D03*
%TD*%
D13*
%TO.N,GND*%
X26924000Y-19329400D03*
X18554000Y-26679400D03*
X30988000Y-32766000D03*
X20574000Y-15519400D03*
X26924000Y-27432000D03*
X41054000Y-33179400D03*
X36854000Y-19179400D03*
X14224000Y-33299400D03*
X25654000Y-15519400D03*
X30354000Y-29079400D03*
X37084000Y-21869400D03*
X19254000Y-32279400D03*
X26924000Y-21869400D03*
X18034000Y-28219400D03*
X34036000Y-17780000D03*
X18034000Y-15519400D03*
X16510000Y-32258000D03*
X27686000Y-16510000D03*
X35306000Y-24155400D03*
X37338000Y-33020000D03*
X30734000Y-15519400D03*
X23114000Y-15519400D03*
%TO.N,VCC*%
X26162000Y-32283400D03*
X19304000Y-30279400D03*
X32773000Y-29750400D03*
%TO.N,/CS*%
X22777272Y-24933273D03*
%TO.N,/SI*%
X22254000Y-21779400D03*
%TO.N,/SO*%
X24384000Y-23876000D03*
%TO.N,/SCK*%
X22254000Y-20279400D03*
%TO.N,/INT*%
X22254000Y-18779400D03*
%TO.N,/TXCAN*%
X30754000Y-27879400D03*
X35306000Y-25679400D03*
%TO.N,/RXCAN*%
X32554000Y-24679400D03*
%TO.N,/CANL*%
X35254000Y-30279400D03*
X39624000Y-17379400D03*
%TO.N,/CANH*%
X39054000Y-14779400D03*
%TO.N,/OSC-*%
X33254000Y-22779400D03*
%TO.N,/OSC+*%
X31244000Y-17769400D03*
%TD*%
D14*
%TO.N,VCC*%
X24866600Y-30988000D02*
X21336000Y-30988000D01*
X21336000Y-30988000D02*
X20627400Y-30279400D01*
X23000000Y-32500000D02*
X25945400Y-32500000D01*
X26162000Y-32283400D02*
X30240000Y-32283400D01*
X25945400Y-32500000D02*
X26162000Y-32283400D01*
X20627400Y-30279400D02*
X19304000Y-30279400D01*
X26162000Y-32283400D02*
X24866600Y-30988000D01*
X30240000Y-32283400D02*
X32773000Y-29750400D01*
%TO.N,/CS*%
X22777272Y-27733272D02*
X24000000Y-28956000D01*
X22777272Y-24933273D02*
X22777272Y-27733272D01*
%TO.N,/SI*%
X22974600Y-22500000D02*
X22254000Y-21779400D01*
X24000000Y-22500000D02*
X22974600Y-22500000D01*
%TO.N,/SO*%
X26416000Y-24892000D02*
X25400000Y-24892000D01*
X25400000Y-24892000D02*
X24384000Y-23876000D01*
%TO.N,/SCK*%
X22254000Y-20279400D02*
X23278600Y-20279400D01*
X23278600Y-20279400D02*
X24000000Y-19558000D01*
%TO.N,/INT*%
X24000000Y-16764000D02*
X22254000Y-18510000D01*
X22254000Y-18510000D02*
X22254000Y-18779400D01*
%TO.N,/TXCAN*%
X35306000Y-25679400D02*
X33106000Y-27879400D01*
X33106000Y-27879400D02*
X30754000Y-27879400D01*
X30754000Y-26182000D02*
X30734000Y-26162000D01*
X30754000Y-27879400D02*
X30754000Y-26182000D01*
%TO.N,/RXCAN*%
X31943800Y-24400000D02*
X30759400Y-23215600D01*
X32300000Y-24400000D02*
X31943800Y-24400000D01*
%TO.N,/CANL*%
X38100000Y-27878750D02*
X40236250Y-30015000D01*
X39403400Y-17600000D02*
X39624000Y-17379400D01*
X35978750Y-30000000D02*
X35000000Y-30000000D01*
X38100000Y-27878750D02*
X35978750Y-30000000D01*
X35000000Y-30000000D02*
X35015000Y-30015000D01*
X37000000Y-17600000D02*
X39403400Y-17600000D01*
X38100000Y-24125000D02*
X38100000Y-27878750D01*
X41000000Y-21225000D02*
X38100000Y-24125000D01*
X40236250Y-30015000D02*
X41000000Y-30015000D01*
%TO.N,/CANH*%
X38300000Y-15000000D02*
X37100000Y-15000000D01*
X38800000Y-14500000D02*
X38300000Y-15000000D01*
D15*
%TO.N,/OSC-*%
X33254000Y-20848000D02*
X33274000Y-20828000D01*
X33254000Y-22779400D02*
X33254000Y-20848000D01*
%TO.N,/OSC+*%
X31244000Y-17769400D02*
X29474600Y-17769400D01*
X29474600Y-17769400D02*
X29464000Y-17780000D01*
%TD*%
%TA.AperFunction,Conductor*%
%TO.N,GND*%
G36*
X43407066Y-13525813D02*
G01*
X43432376Y-13569650D01*
X43433500Y-13582500D01*
X43433500Y-34469500D01*
X43416187Y-34517066D01*
X43372350Y-34542376D01*
X43359500Y-34543500D01*
X13282500Y-34543500D01*
X13234934Y-34526187D01*
X13209624Y-34482350D01*
X13208500Y-34469500D01*
X13208500Y-33551612D01*
X19812743Y-33551612D01*
X19813700Y-33555182D01*
X19865949Y-33591767D01*
X19871525Y-33594987D01*
X20065174Y-33685287D01*
X20071208Y-33687483D01*
X20277602Y-33742786D01*
X20283931Y-33743901D01*
X20496777Y-33762523D01*
X20503223Y-33762523D01*
X20716069Y-33743901D01*
X20722398Y-33742786D01*
X20928792Y-33687483D01*
X20934826Y-33685287D01*
X21128475Y-33594987D01*
X21134051Y-33591767D01*
X21181299Y-33558683D01*
X21187400Y-33549970D01*
X21187078Y-33546289D01*
X20509226Y-32868436D01*
X20499587Y-32863941D01*
X20493688Y-32865522D01*
X19817238Y-33541973D01*
X19812743Y-33551612D01*
X13208500Y-33551612D01*
X13208500Y-32503223D01*
X19237477Y-32503223D01*
X19256099Y-32716069D01*
X19257214Y-32722398D01*
X19312517Y-32928792D01*
X19314713Y-32934826D01*
X19405015Y-33128476D01*
X19408231Y-33134047D01*
X19441317Y-33181299D01*
X19450031Y-33187401D01*
X19453710Y-33187079D01*
X20131564Y-32509226D01*
X20136059Y-32499587D01*
X20134478Y-32493688D01*
X19458027Y-31817238D01*
X19448388Y-31812743D01*
X19444818Y-31813700D01*
X19408231Y-31865953D01*
X19405015Y-31871524D01*
X19314713Y-32065174D01*
X19312517Y-32071208D01*
X19257214Y-32277602D01*
X19256099Y-32283931D01*
X19237477Y-32496777D01*
X19237477Y-32503223D01*
X13208500Y-32503223D01*
X13208500Y-31177534D01*
X13645500Y-31177534D01*
X13652255Y-31239716D01*
X13653884Y-31244060D01*
X13653884Y-31244062D01*
X13682601Y-31320663D01*
X13703385Y-31376105D01*
X13790739Y-31492661D01*
X13907295Y-31580015D01*
X13912231Y-31581866D01*
X13912234Y-31581867D01*
X14039338Y-31629516D01*
X14039340Y-31629516D01*
X14043684Y-31631145D01*
X14081420Y-31635244D01*
X14103867Y-31637683D01*
X14103870Y-31637683D01*
X14105866Y-31637900D01*
X15902134Y-31637900D01*
X15904130Y-31637683D01*
X15904133Y-31637683D01*
X15926580Y-31635244D01*
X15964316Y-31631145D01*
X15968660Y-31629516D01*
X15968662Y-31629516D01*
X16095766Y-31581867D01*
X16095769Y-31581866D01*
X16100705Y-31580015D01*
X16217261Y-31492661D01*
X16304615Y-31376105D01*
X16325400Y-31320663D01*
X16354116Y-31244062D01*
X16354116Y-31244060D01*
X16355745Y-31239716D01*
X16362500Y-31177534D01*
X16362500Y-30265952D01*
X18340956Y-30265952D01*
X18341259Y-30269561D01*
X18341259Y-30269563D01*
X18351637Y-30393146D01*
X18356685Y-30453265D01*
X18408497Y-30633955D01*
X18410149Y-30637169D01*
X18410150Y-30637172D01*
X18449288Y-30713327D01*
X18494418Y-30801140D01*
X18520926Y-30834584D01*
X18608927Y-30945614D01*
X18608930Y-30945618D01*
X18611177Y-30948452D01*
X18613931Y-30950795D01*
X18613933Y-30950798D01*
X18673041Y-31001102D01*
X18754324Y-31070280D01*
X18773883Y-31081211D01*
X18915250Y-31160219D01*
X18915254Y-31160221D01*
X18918409Y-31161984D01*
X19097180Y-31220070D01*
X19154726Y-31226932D01*
X19280230Y-31241898D01*
X19280233Y-31241898D01*
X19283830Y-31242327D01*
X19377727Y-31235102D01*
X19467636Y-31228184D01*
X19467637Y-31228184D01*
X19471247Y-31227906D01*
X19583335Y-31196610D01*
X19648813Y-31178328D01*
X19648814Y-31178328D01*
X19652294Y-31177356D01*
X19680512Y-31163102D01*
X19816841Y-31094238D01*
X19816844Y-31094236D01*
X19820075Y-31092604D01*
X19968199Y-30976877D01*
X20001285Y-30938547D01*
X20045470Y-30913852D01*
X20057302Y-30912900D01*
X20334344Y-30912900D01*
X20381910Y-30930213D01*
X20386670Y-30934574D01*
X20563675Y-31111580D01*
X20585067Y-31157457D01*
X20571966Y-31206351D01*
X20530501Y-31235385D01*
X20504894Y-31237624D01*
X20503215Y-31237477D01*
X20496777Y-31237477D01*
X20283931Y-31256099D01*
X20277602Y-31257214D01*
X20071208Y-31312517D01*
X20065174Y-31314713D01*
X19871524Y-31405015D01*
X19865953Y-31408231D01*
X19818701Y-31441317D01*
X19812599Y-31450031D01*
X19812921Y-31453710D01*
X20500000Y-32140790D01*
X21541973Y-33182762D01*
X21551612Y-33187257D01*
X21555182Y-33186300D01*
X21591769Y-33134047D01*
X21594985Y-33128476D01*
X21682658Y-32940464D01*
X21718452Y-32904671D01*
X21768878Y-32900260D01*
X21810342Y-32929294D01*
X21816792Y-32940465D01*
X21904576Y-33128721D01*
X21904580Y-33128728D01*
X21905944Y-33131653D01*
X21907797Y-33134300D01*
X21907798Y-33134301D01*
X22030395Y-33309388D01*
X22032251Y-33312038D01*
X22187962Y-33467749D01*
X22368346Y-33594056D01*
X22567924Y-33687120D01*
X22674276Y-33715617D01*
X22777501Y-33743277D01*
X22777503Y-33743277D01*
X22780629Y-33744115D01*
X23000000Y-33763307D01*
X23219371Y-33744115D01*
X23222497Y-33743277D01*
X23222499Y-33743277D01*
X23325724Y-33715617D01*
X23432076Y-33687120D01*
X23631654Y-33594056D01*
X23812038Y-33467749D01*
X23967749Y-33312038D01*
X24069235Y-33167102D01*
X24070668Y-33165055D01*
X24112133Y-33136021D01*
X24131285Y-33133500D01*
X25699010Y-33133500D01*
X25735111Y-33142904D01*
X25773246Y-33164217D01*
X25773252Y-33164220D01*
X25776409Y-33165984D01*
X25955180Y-33224070D01*
X26012726Y-33230932D01*
X26138230Y-33245898D01*
X26138233Y-33245898D01*
X26141830Y-33246327D01*
X26203825Y-33241557D01*
X26325636Y-33232184D01*
X26325637Y-33232184D01*
X26329247Y-33231906D01*
X26488644Y-33187401D01*
X26506813Y-33182328D01*
X26506814Y-33182328D01*
X26510294Y-33181356D01*
X26538512Y-33167102D01*
X26674841Y-33098238D01*
X26674844Y-33098236D01*
X26678075Y-33096604D01*
X26826199Y-32980877D01*
X26859285Y-32942547D01*
X26903470Y-32917852D01*
X26915302Y-32916900D01*
X30161887Y-32916900D01*
X30170706Y-32917874D01*
X30170727Y-32917648D01*
X30175366Y-32918086D01*
X30179909Y-32919102D01*
X30184563Y-32918956D01*
X30184566Y-32918956D01*
X30248781Y-32916937D01*
X30251106Y-32916900D01*
X30279856Y-32916900D01*
X30282153Y-32916610D01*
X30282167Y-32916609D01*
X30286305Y-32916086D01*
X30293252Y-32915539D01*
X30339889Y-32914073D01*
X30346624Y-32912116D01*
X30363273Y-32907280D01*
X30374641Y-32904926D01*
X30394177Y-32902458D01*
X30394180Y-32902457D01*
X30398797Y-32901874D01*
X30442189Y-32884694D01*
X30448780Y-32882437D01*
X30489120Y-32870718D01*
X30489124Y-32870716D01*
X30493593Y-32869418D01*
X30514557Y-32857020D01*
X30524978Y-32851915D01*
X30543289Y-32844666D01*
X30543292Y-32844664D01*
X30547617Y-32842952D01*
X30585374Y-32815520D01*
X30591200Y-32811694D01*
X30627353Y-32790313D01*
X30631362Y-32787942D01*
X30648581Y-32770723D01*
X30657411Y-32763182D01*
X30677107Y-32748872D01*
X30680073Y-32745287D01*
X30680076Y-32745284D01*
X30706850Y-32712919D01*
X30711542Y-32707762D01*
X32685561Y-30733743D01*
X32731437Y-30712351D01*
X32746650Y-30712590D01*
X32749231Y-30712898D01*
X32749233Y-30712898D01*
X32752830Y-30713327D01*
X32817707Y-30708335D01*
X32936636Y-30699184D01*
X32936637Y-30699184D01*
X32940247Y-30698906D01*
X33121294Y-30648356D01*
X33156691Y-30630476D01*
X33285841Y-30565238D01*
X33285844Y-30565236D01*
X33289075Y-30563604D01*
X33437199Y-30447877D01*
X33560023Y-30305584D01*
X33561806Y-30302445D01*
X33561809Y-30302441D01*
X33582537Y-30265952D01*
X34290956Y-30265952D01*
X34291259Y-30269561D01*
X34291259Y-30269563D01*
X34301637Y-30393146D01*
X34306685Y-30453265D01*
X34358497Y-30633955D01*
X34360149Y-30637169D01*
X34360150Y-30637172D01*
X34399288Y-30713327D01*
X34444418Y-30801140D01*
X34470926Y-30834584D01*
X34558927Y-30945614D01*
X34558930Y-30945618D01*
X34561177Y-30948452D01*
X34563931Y-30950795D01*
X34563933Y-30950798D01*
X34623041Y-31001102D01*
X34704324Y-31070280D01*
X34723883Y-31081211D01*
X34865250Y-31160219D01*
X34865254Y-31160221D01*
X34868409Y-31161984D01*
X35047180Y-31220070D01*
X35104726Y-31226932D01*
X35230230Y-31241898D01*
X35230233Y-31241898D01*
X35233830Y-31242327D01*
X35327727Y-31235102D01*
X35417636Y-31228184D01*
X35417637Y-31228184D01*
X35421247Y-31227906D01*
X35533335Y-31196610D01*
X35598813Y-31178328D01*
X35598814Y-31178328D01*
X35602294Y-31177356D01*
X35630512Y-31163102D01*
X35766841Y-31094238D01*
X35766844Y-31094236D01*
X35770075Y-31092604D01*
X35918199Y-30976877D01*
X36041023Y-30834584D01*
X36042806Y-30831445D01*
X36042809Y-30831441D01*
X36098309Y-30733743D01*
X36133870Y-30671144D01*
X36142419Y-30645445D01*
X36173861Y-30605775D01*
X36191991Y-30597741D01*
X36200473Y-30595277D01*
X36232343Y-30586018D01*
X36253307Y-30573620D01*
X36263728Y-30568515D01*
X36282039Y-30561266D01*
X36282042Y-30561264D01*
X36286367Y-30559552D01*
X36324124Y-30532120D01*
X36329950Y-30528294D01*
X36366103Y-30506913D01*
X36370112Y-30504542D01*
X36387331Y-30487323D01*
X36396161Y-30479782D01*
X36403289Y-30474603D01*
X36415857Y-30465472D01*
X36418823Y-30461887D01*
X36418826Y-30461884D01*
X36445600Y-30429519D01*
X36450292Y-30424362D01*
X38047674Y-28826980D01*
X38093550Y-28805588D01*
X38142445Y-28818689D01*
X38152326Y-28826980D01*
X38944014Y-29618669D01*
X39733068Y-30407723D01*
X39738613Y-30414645D01*
X39738788Y-30414500D01*
X39741755Y-30418086D01*
X39744250Y-30422018D01*
X39784359Y-30459683D01*
X39794476Y-30469183D01*
X39796146Y-30470801D01*
X39816480Y-30491135D01*
X39818311Y-30492555D01*
X39818313Y-30492557D01*
X39821617Y-30495120D01*
X39826917Y-30499647D01*
X39857423Y-30528294D01*
X39860929Y-30531586D01*
X39882267Y-30543317D01*
X39891968Y-30549690D01*
X39911209Y-30564614D01*
X39915478Y-30566461D01*
X39915479Y-30566462D01*
X39925178Y-30570659D01*
X39954043Y-30583150D01*
X39960287Y-30586209D01*
X40001190Y-30608695D01*
X40002760Y-30609098D01*
X40039781Y-30641968D01*
X40048563Y-30672903D01*
X40050006Y-30697932D01*
X40052071Y-30733743D01*
X40054110Y-30769115D01*
X40054774Y-30772062D01*
X40054775Y-30772068D01*
X40086514Y-30912900D01*
X40103222Y-30987039D01*
X40104364Y-30989851D01*
X40173543Y-31160219D01*
X40187266Y-31194016D01*
X40225994Y-31257214D01*
X40301437Y-31380326D01*
X40303987Y-31384488D01*
X40305975Y-31386784D01*
X40305978Y-31386787D01*
X40373761Y-31465037D01*
X40450250Y-31553338D01*
X40622126Y-31696032D01*
X40624744Y-31697562D01*
X40624750Y-31697566D01*
X40812374Y-31807204D01*
X40812379Y-31807206D01*
X40815000Y-31808738D01*
X40817839Y-31809822D01*
X41020847Y-31887344D01*
X41020851Y-31887345D01*
X41023692Y-31888430D01*
X41026676Y-31889037D01*
X41026679Y-31889038D01*
X41127052Y-31909459D01*
X41242597Y-31932967D01*
X41328174Y-31936105D01*
X41462797Y-31941042D01*
X41462803Y-31941042D01*
X41465837Y-31941153D01*
X41468849Y-31940767D01*
X41468853Y-31940767D01*
X41580485Y-31926466D01*
X41687416Y-31912768D01*
X41824882Y-31871526D01*
X41898479Y-31849446D01*
X41898484Y-31849444D01*
X41901384Y-31848574D01*
X42101994Y-31750296D01*
X42283860Y-31620573D01*
X42286012Y-31618429D01*
X42439941Y-31465037D01*
X42439944Y-31465034D01*
X42442096Y-31462889D01*
X42572453Y-31281477D01*
X42573798Y-31278756D01*
X42670082Y-31083939D01*
X42670083Y-31083936D01*
X42671430Y-31081211D01*
X42674215Y-31072047D01*
X42735488Y-30870372D01*
X42736370Y-30867469D01*
X42749319Y-30769115D01*
X42765272Y-30647944D01*
X42765272Y-30647939D01*
X42765529Y-30645990D01*
X42767156Y-30579400D01*
X42766681Y-30573625D01*
X42749101Y-30359786D01*
X42749100Y-30359782D01*
X42748852Y-30356761D01*
X42747282Y-30350508D01*
X42695169Y-30143040D01*
X42694431Y-30140102D01*
X42619259Y-29967219D01*
X42606564Y-29938022D01*
X42606562Y-29938019D01*
X42605354Y-29935240D01*
X42484014Y-29747677D01*
X42409230Y-29665490D01*
X42335713Y-29584696D01*
X42335712Y-29584695D01*
X42333670Y-29582451D01*
X42266382Y-29529310D01*
X42239783Y-29486243D01*
X42247091Y-29436154D01*
X42284885Y-29402481D01*
X42304254Y-29397670D01*
X42335620Y-29394262D01*
X42364316Y-29391145D01*
X42368660Y-29389516D01*
X42368662Y-29389516D01*
X42495766Y-29341867D01*
X42495769Y-29341866D01*
X42500705Y-29340015D01*
X42617261Y-29252661D01*
X42704615Y-29136105D01*
X42727694Y-29074544D01*
X42754116Y-29004062D01*
X42754116Y-29004060D01*
X42755745Y-28999716D01*
X42761499Y-28946747D01*
X42762283Y-28939533D01*
X42762283Y-28939530D01*
X42762500Y-28937534D01*
X42762500Y-27141266D01*
X42761809Y-27134900D01*
X42756246Y-27083698D01*
X42755745Y-27079084D01*
X42750020Y-27063813D01*
X42706467Y-26947634D01*
X42706466Y-26947631D01*
X42704615Y-26942695D01*
X42617261Y-26826139D01*
X42500705Y-26738785D01*
X42495769Y-26736934D01*
X42495766Y-26736933D01*
X42368662Y-26689284D01*
X42368660Y-26689284D01*
X42364316Y-26687655D01*
X42326580Y-26683556D01*
X42304133Y-26681117D01*
X42304130Y-26681117D01*
X42302134Y-26680900D01*
X40505866Y-26680900D01*
X40503870Y-26681117D01*
X40503867Y-26681117D01*
X40481420Y-26683556D01*
X40443684Y-26687655D01*
X40439340Y-26689284D01*
X40439338Y-26689284D01*
X40312234Y-26736933D01*
X40312231Y-26736934D01*
X40307295Y-26738785D01*
X40190739Y-26826139D01*
X40103385Y-26942695D01*
X40101534Y-26947631D01*
X40101533Y-26947634D01*
X40057980Y-27063813D01*
X40052255Y-27079084D01*
X40051754Y-27083698D01*
X40046192Y-27134900D01*
X40045500Y-27141266D01*
X40045500Y-28749694D01*
X40028187Y-28797260D01*
X39984350Y-28822570D01*
X39934500Y-28813780D01*
X39919174Y-28802020D01*
X39360909Y-28243754D01*
X38755174Y-27638019D01*
X38733782Y-27592142D01*
X38733500Y-27585693D01*
X38733500Y-24418056D01*
X38750813Y-24370490D01*
X38755174Y-24365730D01*
X40254400Y-22866504D01*
X40300276Y-22845112D01*
X40332699Y-22849539D01*
X40443684Y-22891145D01*
X40481978Y-22895305D01*
X40502201Y-22897502D01*
X40547619Y-22919850D01*
X40568046Y-22966165D01*
X40553924Y-23014774D01*
X40538640Y-23030246D01*
X40498965Y-23060035D01*
X40496868Y-23062229D01*
X40496865Y-23062232D01*
X40346725Y-23219344D01*
X40346721Y-23219348D01*
X40344629Y-23221538D01*
X40218743Y-23406080D01*
X40124688Y-23608705D01*
X40064989Y-23823970D01*
X40064666Y-23826989D01*
X40064666Y-23826991D01*
X40056774Y-23900837D01*
X40041251Y-24046095D01*
X40054110Y-24269115D01*
X40054774Y-24272062D01*
X40054775Y-24272068D01*
X40084220Y-24402720D01*
X40103222Y-24487039D01*
X40104364Y-24489851D01*
X40178582Y-24672629D01*
X40187266Y-24694016D01*
X40229564Y-24763040D01*
X40301802Y-24880922D01*
X40303987Y-24884488D01*
X40305975Y-24886784D01*
X40305978Y-24886787D01*
X40402690Y-24998433D01*
X40450250Y-25053338D01*
X40622126Y-25196032D01*
X40624744Y-25197562D01*
X40624750Y-25197566D01*
X40812374Y-25307204D01*
X40812379Y-25307206D01*
X40815000Y-25308738D01*
X40817839Y-25309822D01*
X41020847Y-25387344D01*
X41020851Y-25387345D01*
X41023692Y-25388430D01*
X41026676Y-25389037D01*
X41026679Y-25389038D01*
X41107087Y-25405397D01*
X41242597Y-25432967D01*
X41328174Y-25436105D01*
X41462797Y-25441042D01*
X41462803Y-25441042D01*
X41465837Y-25441153D01*
X41468849Y-25440767D01*
X41468853Y-25440767D01*
X41606598Y-25423121D01*
X41687416Y-25412768D01*
X41794740Y-25380569D01*
X41898479Y-25349446D01*
X41898484Y-25349444D01*
X41901384Y-25348574D01*
X42101994Y-25250296D01*
X42283860Y-25120573D01*
X42286012Y-25118429D01*
X42439941Y-24965037D01*
X42439944Y-24965034D01*
X42442096Y-24962889D01*
X42572453Y-24781477D01*
X42583215Y-24759702D01*
X42670082Y-24583939D01*
X42670083Y-24583936D01*
X42671430Y-24581211D01*
X42678476Y-24558022D01*
X42735488Y-24370372D01*
X42736370Y-24367469D01*
X42743802Y-24311021D01*
X42765272Y-24147944D01*
X42765272Y-24147939D01*
X42765529Y-24145990D01*
X42767156Y-24079400D01*
X42765738Y-24062154D01*
X42749101Y-23859786D01*
X42749100Y-23859782D01*
X42748852Y-23856761D01*
X42745729Y-23844325D01*
X42695169Y-23643040D01*
X42694431Y-23640102D01*
X42690533Y-23631138D01*
X42606564Y-23438022D01*
X42606562Y-23438019D01*
X42605354Y-23435240D01*
X42484014Y-23247677D01*
X42414374Y-23171144D01*
X42335713Y-23084696D01*
X42335712Y-23084695D01*
X42333670Y-23082451D01*
X42308069Y-23062232D01*
X42266382Y-23029310D01*
X42239783Y-22986243D01*
X42247091Y-22936154D01*
X42284885Y-22902481D01*
X42304254Y-22897670D01*
X42335620Y-22894262D01*
X42364316Y-22891145D01*
X42368660Y-22889516D01*
X42368662Y-22889516D01*
X42495766Y-22841867D01*
X42495769Y-22841866D01*
X42500705Y-22840015D01*
X42617261Y-22752661D01*
X42704615Y-22636105D01*
X42709501Y-22623074D01*
X42754116Y-22504062D01*
X42754116Y-22504060D01*
X42755745Y-22499716D01*
X42761622Y-22445614D01*
X42762283Y-22439533D01*
X42762283Y-22439530D01*
X42762500Y-22437534D01*
X42762500Y-20641266D01*
X42755745Y-20579084D01*
X42754116Y-20574738D01*
X42706467Y-20447634D01*
X42706466Y-20447631D01*
X42704615Y-20442695D01*
X42617261Y-20326139D01*
X42500705Y-20238785D01*
X42495769Y-20236934D01*
X42495766Y-20236933D01*
X42368662Y-20189284D01*
X42368660Y-20189284D01*
X42364316Y-20187655D01*
X42326580Y-20183556D01*
X42304133Y-20181117D01*
X42304130Y-20181117D01*
X42302134Y-20180900D01*
X40505866Y-20180900D01*
X40503870Y-20181117D01*
X40503867Y-20181117D01*
X40481420Y-20183556D01*
X40443684Y-20187655D01*
X40439340Y-20189284D01*
X40439338Y-20189284D01*
X40312234Y-20236933D01*
X40312231Y-20236934D01*
X40307295Y-20238785D01*
X40190739Y-20326139D01*
X40103385Y-20442695D01*
X40101534Y-20447631D01*
X40101533Y-20447634D01*
X40053884Y-20574738D01*
X40052255Y-20579084D01*
X40045500Y-20641266D01*
X40045500Y-21252943D01*
X40028187Y-21300509D01*
X40023826Y-21305269D01*
X37707277Y-23621818D01*
X37700355Y-23627363D01*
X37700500Y-23627538D01*
X37696914Y-23630505D01*
X37692982Y-23633000D01*
X37679004Y-23647885D01*
X37645817Y-23683226D01*
X37644199Y-23684896D01*
X37623865Y-23705230D01*
X37622445Y-23707061D01*
X37622443Y-23707063D01*
X37619880Y-23710367D01*
X37615353Y-23715667D01*
X37603860Y-23727906D01*
X37583414Y-23749679D01*
X37575822Y-23763489D01*
X37571683Y-23771017D01*
X37565310Y-23780718D01*
X37550386Y-23799959D01*
X37539996Y-23823970D01*
X37531852Y-23842789D01*
X37528791Y-23849037D01*
X37506305Y-23889940D01*
X37502980Y-23902892D01*
X37500250Y-23913523D01*
X37496489Y-23924508D01*
X37486819Y-23946855D01*
X37480076Y-23989429D01*
X37479518Y-23992949D01*
X37478105Y-23999768D01*
X37466500Y-24044970D01*
X37466500Y-24069318D01*
X37465589Y-24080894D01*
X37461780Y-24104943D01*
X37464113Y-24129620D01*
X37466172Y-24151405D01*
X37466500Y-24158369D01*
X37466500Y-27585694D01*
X37449187Y-27633260D01*
X37444826Y-27638020D01*
X35738019Y-29344826D01*
X35692143Y-29366218D01*
X35685693Y-29366500D01*
X35557601Y-29366500D01*
X35535718Y-29363191D01*
X35447666Y-29335934D01*
X35260724Y-29316285D01*
X35073526Y-29333322D01*
X34972039Y-29363191D01*
X34966997Y-29364675D01*
X34955381Y-29367102D01*
X34931646Y-29370100D01*
X34929353Y-29370354D01*
X34860708Y-29376843D01*
X34856326Y-29378420D01*
X34851787Y-29379435D01*
X34851738Y-29379214D01*
X34850275Y-29379565D01*
X34850331Y-29379784D01*
X34845820Y-29380943D01*
X34841203Y-29381526D01*
X34777111Y-29406902D01*
X34774969Y-29407711D01*
X34710111Y-29431061D01*
X34706261Y-29433677D01*
X34702110Y-29435792D01*
X34702007Y-29435590D01*
X34700682Y-29436291D01*
X34700792Y-29436491D01*
X34696713Y-29438733D01*
X34692383Y-29440448D01*
X34636599Y-29480978D01*
X34634753Y-29482275D01*
X34577729Y-29521028D01*
X34574651Y-29524519D01*
X34571156Y-29527600D01*
X34571006Y-29527430D01*
X34569895Y-29528441D01*
X34570051Y-29528607D01*
X34566661Y-29531790D01*
X34562893Y-29534528D01*
X34539069Y-29563326D01*
X34518956Y-29587638D01*
X34517446Y-29589405D01*
X34491647Y-29618669D01*
X34471880Y-29641090D01*
X34469765Y-29645242D01*
X34467150Y-29649090D01*
X34466961Y-29648961D01*
X34466138Y-29650214D01*
X34466331Y-29650336D01*
X34463836Y-29654268D01*
X34460867Y-29657856D01*
X34458883Y-29662071D01*
X34458883Y-29662072D01*
X34431528Y-29720204D01*
X34430505Y-29722292D01*
X34401331Y-29779550D01*
X34401330Y-29779554D01*
X34399215Y-29783704D01*
X34398199Y-29788247D01*
X34396622Y-29792628D01*
X34396408Y-29792551D01*
X34395922Y-29793969D01*
X34396138Y-29794039D01*
X34394698Y-29798473D01*
X34392717Y-29802682D01*
X34380029Y-29869195D01*
X34379804Y-29870375D01*
X34379342Y-29872607D01*
X34378589Y-29875977D01*
X34371217Y-29895486D01*
X34368746Y-29899980D01*
X34349648Y-29960185D01*
X34320706Y-30051421D01*
X34311909Y-30079152D01*
X34290956Y-30265952D01*
X33582537Y-30265952D01*
X33616150Y-30206782D01*
X33652870Y-30142144D01*
X33673825Y-30079152D01*
X33711060Y-29967219D01*
X33711061Y-29967216D01*
X33712203Y-29963782D01*
X33735762Y-29777292D01*
X33735860Y-29770325D01*
X33736109Y-29752462D01*
X33736138Y-29750400D01*
X33735174Y-29740562D01*
X33721739Y-29603549D01*
X33717795Y-29563326D01*
X33663465Y-29383377D01*
X33575218Y-29217408D01*
X33456415Y-29071740D01*
X33363776Y-28995102D01*
X33314375Y-28954234D01*
X33314374Y-28954233D01*
X33311580Y-28951922D01*
X33302009Y-28946747D01*
X33149417Y-28864241D01*
X33149412Y-28864239D01*
X33146231Y-28862519D01*
X33142777Y-28861450D01*
X33142775Y-28861449D01*
X33096051Y-28846986D01*
X32966666Y-28806934D01*
X32779724Y-28787285D01*
X32592526Y-28804322D01*
X32580016Y-28808004D01*
X32415673Y-28856372D01*
X32415669Y-28856374D01*
X32412202Y-28857394D01*
X32361078Y-28884121D01*
X32248828Y-28942803D01*
X32248825Y-28942805D01*
X32245621Y-28944480D01*
X32099128Y-29062264D01*
X32096802Y-29065036D01*
X32096800Y-29065038D01*
X32088824Y-29074544D01*
X31978302Y-29206259D01*
X31887746Y-29370980D01*
X31883813Y-29383377D01*
X31834728Y-29538114D01*
X31830909Y-29550152D01*
X31809956Y-29736952D01*
X31813171Y-29775231D01*
X31813325Y-29777066D01*
X31800054Y-29825914D01*
X31791911Y-29835585D01*
X29999269Y-31628226D01*
X29953393Y-31649618D01*
X29946943Y-31649900D01*
X26917384Y-31649900D01*
X26869818Y-31632587D01*
X26860038Y-31622669D01*
X26847707Y-31607549D01*
X26847701Y-31607543D01*
X26845415Y-31604740D01*
X26764274Y-31537614D01*
X26703375Y-31487234D01*
X26703374Y-31487233D01*
X26700580Y-31484922D01*
X26673454Y-31470255D01*
X26538417Y-31397241D01*
X26538412Y-31397239D01*
X26535231Y-31395519D01*
X26531777Y-31394450D01*
X26531775Y-31394449D01*
X26472515Y-31376105D01*
X26355666Y-31339934D01*
X26168724Y-31320285D01*
X26135477Y-31323311D01*
X26086538Y-31310379D01*
X26076446Y-31301941D01*
X25369782Y-30595277D01*
X25364237Y-30588355D01*
X25364062Y-30588500D01*
X25361095Y-30584914D01*
X25358600Y-30580982D01*
X25308374Y-30533817D01*
X25306704Y-30532199D01*
X25286370Y-30511865D01*
X25284537Y-30510443D01*
X25281233Y-30507880D01*
X25275933Y-30503353D01*
X25245317Y-30474603D01*
X25241921Y-30471414D01*
X25220582Y-30459682D01*
X25210882Y-30453310D01*
X25195318Y-30441238D01*
X25191641Y-30438386D01*
X25148807Y-30419850D01*
X25142563Y-30416791D01*
X25101660Y-30394305D01*
X25078076Y-30388250D01*
X25067091Y-30384489D01*
X25049020Y-30376669D01*
X25044745Y-30374819D01*
X25040148Y-30374091D01*
X25040145Y-30374090D01*
X25008467Y-30369073D01*
X24998649Y-30367518D01*
X24991832Y-30366105D01*
X24963861Y-30358924D01*
X24951137Y-30355657D01*
X24951136Y-30355657D01*
X24946630Y-30354500D01*
X24922282Y-30354500D01*
X24910706Y-30353589D01*
X24886657Y-30349780D01*
X24840195Y-30354172D01*
X24833231Y-30354500D01*
X24149614Y-30354500D01*
X24102048Y-30337187D01*
X24076738Y-30293350D01*
X24085528Y-30243500D01*
X24124305Y-30210963D01*
X24143165Y-30206782D01*
X24144097Y-30206700D01*
X24219371Y-30200115D01*
X24222497Y-30199277D01*
X24222499Y-30199277D01*
X24325723Y-30171618D01*
X24432076Y-30143120D01*
X24438549Y-30140102D01*
X24507729Y-30107843D01*
X24631654Y-30050056D01*
X24812038Y-29923749D01*
X24967749Y-29768038D01*
X24972977Y-29760572D01*
X25092202Y-29590301D01*
X25092203Y-29590300D01*
X25094056Y-29587653D01*
X25187120Y-29388076D01*
X25234989Y-29209429D01*
X25243277Y-29178499D01*
X25243277Y-29178497D01*
X25244115Y-29175371D01*
X25263307Y-28956000D01*
X25244115Y-28736629D01*
X25187120Y-28523924D01*
X25094056Y-28324347D01*
X25033016Y-28237172D01*
X24969604Y-28146611D01*
X24969603Y-28146610D01*
X24967749Y-28143962D01*
X24812038Y-27988251D01*
X24631654Y-27861944D01*
X24507729Y-27804157D01*
X24435008Y-27770247D01*
X24435006Y-27770246D01*
X24432076Y-27768880D01*
X24263252Y-27723643D01*
X24222499Y-27712723D01*
X24222497Y-27712723D01*
X24219371Y-27711885D01*
X24000000Y-27692693D01*
X23780629Y-27711885D01*
X23777503Y-27712723D01*
X23777501Y-27712723D01*
X23720286Y-27728054D01*
X23669859Y-27723643D01*
X23648807Y-27708902D01*
X23432446Y-27492541D01*
X23411054Y-27446665D01*
X23410772Y-27440215D01*
X23410772Y-26162000D01*
X29470693Y-26162000D01*
X29489885Y-26381371D01*
X29490723Y-26384497D01*
X29490723Y-26384499D01*
X29496672Y-26406699D01*
X29546880Y-26594076D01*
X29639944Y-26793653D01*
X29641797Y-26796300D01*
X29641798Y-26796301D01*
X29721783Y-26910531D01*
X29766251Y-26974038D01*
X29921962Y-27129749D01*
X29924610Y-27131603D01*
X29924611Y-27131604D01*
X29987954Y-27175957D01*
X30016987Y-27217421D01*
X30012576Y-27267848D01*
X30002196Y-27284140D01*
X29961629Y-27332485D01*
X29961626Y-27332489D01*
X29959302Y-27335259D01*
X29868746Y-27499980D01*
X29867652Y-27503429D01*
X29816716Y-27663999D01*
X29811909Y-27679152D01*
X29811506Y-27682743D01*
X29811506Y-27682744D01*
X29808572Y-27708902D01*
X29790956Y-27865952D01*
X29791259Y-27869561D01*
X29791259Y-27869563D01*
X29802176Y-27999566D01*
X29806685Y-28053265D01*
X29858497Y-28233955D01*
X29860149Y-28237169D01*
X29860150Y-28237172D01*
X29924615Y-28362607D01*
X29944418Y-28401140D01*
X29949613Y-28407694D01*
X30058927Y-28545614D01*
X30058930Y-28545618D01*
X30061177Y-28548452D01*
X30063931Y-28550795D01*
X30063933Y-28550798D01*
X30094576Y-28576877D01*
X30204324Y-28670280D01*
X30207486Y-28672047D01*
X30365250Y-28760219D01*
X30365254Y-28760221D01*
X30368409Y-28761984D01*
X30547180Y-28820070D01*
X30604726Y-28826932D01*
X30730230Y-28841898D01*
X30730233Y-28841898D01*
X30733830Y-28842327D01*
X30839112Y-28834226D01*
X30917636Y-28828184D01*
X30917637Y-28828184D01*
X30921247Y-28827906D01*
X31102294Y-28777356D01*
X31130512Y-28763102D01*
X31266841Y-28694238D01*
X31266844Y-28694236D01*
X31270075Y-28692604D01*
X31418199Y-28576877D01*
X31451285Y-28538547D01*
X31495470Y-28513852D01*
X31507302Y-28512900D01*
X33027887Y-28512900D01*
X33036706Y-28513874D01*
X33036727Y-28513648D01*
X33041366Y-28514086D01*
X33045909Y-28515102D01*
X33050563Y-28514956D01*
X33050566Y-28514956D01*
X33114781Y-28512937D01*
X33117106Y-28512900D01*
X33145856Y-28512900D01*
X33148153Y-28512610D01*
X33148167Y-28512609D01*
X33152305Y-28512086D01*
X33159252Y-28511539D01*
X33205889Y-28510073D01*
X33212624Y-28508116D01*
X33229273Y-28503280D01*
X33240641Y-28500926D01*
X33260177Y-28498458D01*
X33260180Y-28498457D01*
X33264797Y-28497874D01*
X33308189Y-28480694D01*
X33314780Y-28478437D01*
X33355120Y-28466718D01*
X33355124Y-28466716D01*
X33359593Y-28465418D01*
X33380557Y-28453020D01*
X33390978Y-28447915D01*
X33409289Y-28440666D01*
X33409292Y-28440664D01*
X33413617Y-28438952D01*
X33451374Y-28411520D01*
X33457200Y-28407694D01*
X33493353Y-28386313D01*
X33497362Y-28383942D01*
X33514581Y-28366723D01*
X33523411Y-28359182D01*
X33534712Y-28350971D01*
X33543107Y-28344872D01*
X33546073Y-28341287D01*
X33546076Y-28341284D01*
X33572850Y-28308919D01*
X33577542Y-28303762D01*
X35218561Y-26662743D01*
X35264437Y-26641351D01*
X35279650Y-26641590D01*
X35282231Y-26641898D01*
X35282233Y-26641898D01*
X35285830Y-26642327D01*
X35350707Y-26637335D01*
X35469636Y-26628184D01*
X35469637Y-26628184D01*
X35473247Y-26627906D01*
X35654294Y-26577356D01*
X35735712Y-26536229D01*
X35818841Y-26494238D01*
X35818844Y-26494236D01*
X35822075Y-26492604D01*
X35970199Y-26376877D01*
X36093023Y-26234584D01*
X36094806Y-26231445D01*
X36094809Y-26231441D01*
X36149437Y-26135277D01*
X36185870Y-26071144D01*
X36207279Y-26006787D01*
X36244060Y-25896219D01*
X36244061Y-25896216D01*
X36245203Y-25892782D01*
X36268762Y-25706292D01*
X36269138Y-25679400D01*
X36268174Y-25669562D01*
X36254048Y-25525500D01*
X36250795Y-25492326D01*
X36196465Y-25312377D01*
X36134873Y-25196538D01*
X36109917Y-25149603D01*
X36109916Y-25149602D01*
X36108218Y-25146408D01*
X35989415Y-25000740D01*
X35883838Y-24913399D01*
X35847375Y-24883234D01*
X35847374Y-24883233D01*
X35844580Y-24880922D01*
X35832688Y-24874492D01*
X35682417Y-24793241D01*
X35682412Y-24793239D01*
X35679231Y-24791519D01*
X35675777Y-24790450D01*
X35675775Y-24790449D01*
X35629051Y-24775986D01*
X35499666Y-24735934D01*
X35312724Y-24716285D01*
X35125526Y-24733322D01*
X35081774Y-24746199D01*
X34948673Y-24785372D01*
X34948669Y-24785374D01*
X34945202Y-24786394D01*
X34857877Y-24832046D01*
X34781828Y-24871803D01*
X34781825Y-24871805D01*
X34778621Y-24873480D01*
X34632128Y-24991264D01*
X34629802Y-24994036D01*
X34629800Y-24994038D01*
X34621824Y-25003544D01*
X34511302Y-25135259D01*
X34420746Y-25299980D01*
X34411807Y-25328160D01*
X34366163Y-25472047D01*
X34363909Y-25479152D01*
X34342956Y-25665952D01*
X34346171Y-25704231D01*
X34346325Y-25706066D01*
X34333054Y-25754914D01*
X34324911Y-25764585D01*
X33593232Y-26496263D01*
X32865269Y-27224226D01*
X32819392Y-27245618D01*
X32812943Y-27245900D01*
X31608539Y-27245900D01*
X31560973Y-27228587D01*
X31535663Y-27184750D01*
X31544453Y-27134900D01*
X31556213Y-27119574D01*
X31701749Y-26974038D01*
X31746217Y-26910531D01*
X31826202Y-26796301D01*
X31826203Y-26796300D01*
X31828056Y-26793653D01*
X31921120Y-26594076D01*
X31971328Y-26406699D01*
X31977277Y-26384499D01*
X31977277Y-26384497D01*
X31978115Y-26381371D01*
X31997307Y-26162000D01*
X31978115Y-25942629D01*
X31921120Y-25729924D01*
X31828056Y-25530347D01*
X31795345Y-25483631D01*
X31782244Y-25434737D01*
X31803636Y-25388860D01*
X31849512Y-25367468D01*
X31898407Y-25380569D01*
X31903923Y-25384832D01*
X32004324Y-25470280D01*
X32007486Y-25472047D01*
X32165250Y-25560219D01*
X32165254Y-25560221D01*
X32168409Y-25561984D01*
X32347180Y-25620070D01*
X32415225Y-25628184D01*
X32530230Y-25641898D01*
X32530233Y-25641898D01*
X32533830Y-25642327D01*
X32621918Y-25635549D01*
X32717636Y-25628184D01*
X32717637Y-25628184D01*
X32721247Y-25627906D01*
X32902294Y-25577356D01*
X32930512Y-25563102D01*
X33066841Y-25494238D01*
X33066844Y-25494236D01*
X33070075Y-25492604D01*
X33218199Y-25376877D01*
X33341023Y-25234584D01*
X33342806Y-25231445D01*
X33342809Y-25231441D01*
X33395647Y-25138429D01*
X33433870Y-25071144D01*
X33439149Y-25055275D01*
X33492060Y-24896219D01*
X33492061Y-24896216D01*
X33493203Y-24892782D01*
X33516762Y-24706292D01*
X33517138Y-24679400D01*
X33516168Y-24669501D01*
X33502375Y-24528837D01*
X33498795Y-24492326D01*
X33494659Y-24478625D01*
X33471741Y-24402720D01*
X33444465Y-24312377D01*
X33387210Y-24204696D01*
X33357917Y-24149603D01*
X33357916Y-24149602D01*
X33356218Y-24146408D01*
X33275236Y-24047114D01*
X33239702Y-24003544D01*
X33239701Y-24003543D01*
X33237415Y-24000740D01*
X33116653Y-23900837D01*
X33095375Y-23883234D01*
X33095374Y-23883233D01*
X33092580Y-23880922D01*
X33089386Y-23879195D01*
X33065001Y-23866010D01*
X33031393Y-23828158D01*
X33029979Y-23777559D01*
X33061420Y-23737889D01*
X33108958Y-23727437D01*
X33230230Y-23741898D01*
X33230233Y-23741898D01*
X33233830Y-23742327D01*
X33295825Y-23737557D01*
X33417636Y-23728184D01*
X33417637Y-23728184D01*
X33421247Y-23727906D01*
X33580081Y-23683558D01*
X33598813Y-23678328D01*
X33598814Y-23678328D01*
X33602294Y-23677356D01*
X33605521Y-23675726D01*
X33766841Y-23594238D01*
X33766844Y-23594236D01*
X33770075Y-23592604D01*
X33918199Y-23476877D01*
X34041023Y-23334584D01*
X34042806Y-23331445D01*
X34042809Y-23331441D01*
X34105242Y-23221538D01*
X34133870Y-23171144D01*
X34136267Y-23163939D01*
X34192060Y-22996219D01*
X34192061Y-22996216D01*
X34193203Y-22992782D01*
X34216762Y-22806292D01*
X34217138Y-22779400D01*
X34216174Y-22769563D01*
X34205179Y-22657439D01*
X34198795Y-22592326D01*
X34144465Y-22412377D01*
X34083607Y-22297920D01*
X34057917Y-22249603D01*
X34057916Y-22249602D01*
X34056218Y-22246408D01*
X33937415Y-22100740D01*
X33889330Y-22060961D01*
X33863716Y-22017303D01*
X33862500Y-22003944D01*
X33862500Y-21989323D01*
X33879813Y-21941757D01*
X33900435Y-21925919D01*
X33899926Y-21925038D01*
X33902726Y-21923421D01*
X33905654Y-21922056D01*
X34086038Y-21795749D01*
X34241749Y-21640038D01*
X34284382Y-21579152D01*
X34366202Y-21462301D01*
X34366203Y-21462300D01*
X34368056Y-21459653D01*
X34461120Y-21260076D01*
X34505279Y-21095275D01*
X34517277Y-21050499D01*
X34517277Y-21050497D01*
X34518115Y-21047371D01*
X34537307Y-20828000D01*
X34518115Y-20608629D01*
X34461120Y-20395924D01*
X34368056Y-20196347D01*
X34363111Y-20189284D01*
X34243604Y-20018611D01*
X34243603Y-20018610D01*
X34241749Y-20015962D01*
X34086038Y-19860251D01*
X33905654Y-19733944D01*
X33722857Y-19648705D01*
X33709008Y-19642247D01*
X33709006Y-19642246D01*
X33706076Y-19640880D01*
X33531262Y-19594038D01*
X33496499Y-19584723D01*
X33496497Y-19584723D01*
X33493371Y-19583885D01*
X33274000Y-19564693D01*
X33054629Y-19583885D01*
X33051503Y-19584723D01*
X33051501Y-19584723D01*
X33016738Y-19594038D01*
X32841924Y-19640880D01*
X32642347Y-19733944D01*
X32639700Y-19735797D01*
X32639699Y-19735798D01*
X32464611Y-19858396D01*
X32461962Y-19860251D01*
X32306251Y-20015962D01*
X32304397Y-20018610D01*
X32304396Y-20018611D01*
X32184890Y-20189284D01*
X32179944Y-20196347D01*
X32086880Y-20395924D01*
X32029885Y-20608629D01*
X32010693Y-20828000D01*
X32029885Y-21047371D01*
X32030723Y-21050497D01*
X32030723Y-21050499D01*
X32042721Y-21095275D01*
X32086880Y-21260076D01*
X32179944Y-21459653D01*
X32181797Y-21462300D01*
X32181798Y-21462301D01*
X32263618Y-21579152D01*
X32306251Y-21640038D01*
X32461962Y-21795749D01*
X32569824Y-21871275D01*
X32613945Y-21902169D01*
X32642979Y-21943634D01*
X32645500Y-21962786D01*
X32645500Y-22003248D01*
X32628187Y-22050814D01*
X32617869Y-22060919D01*
X32580128Y-22091264D01*
X32577802Y-22094036D01*
X32577800Y-22094038D01*
X32569824Y-22103544D01*
X32459302Y-22235259D01*
X32368746Y-22399980D01*
X32367652Y-22403429D01*
X32314163Y-22572047D01*
X32311909Y-22579152D01*
X32290956Y-22765952D01*
X32291259Y-22769561D01*
X32291259Y-22769563D01*
X32303069Y-22910207D01*
X32306685Y-22953265D01*
X32358497Y-23133955D01*
X32360149Y-23137169D01*
X32360150Y-23137172D01*
X32416942Y-23247677D01*
X32444418Y-23301140D01*
X32502797Y-23374796D01*
X32558927Y-23445614D01*
X32558930Y-23445618D01*
X32561177Y-23448452D01*
X32563931Y-23450795D01*
X32563933Y-23450798D01*
X32623041Y-23501102D01*
X32704324Y-23570280D01*
X32707486Y-23572047D01*
X32744652Y-23592819D01*
X32777727Y-23631138D01*
X32778434Y-23681752D01*
X32746441Y-23720978D01*
X32700816Y-23731010D01*
X32560724Y-23716285D01*
X32373526Y-23733322D01*
X32304090Y-23753758D01*
X32271027Y-23763489D01*
X32250134Y-23766500D01*
X32236856Y-23766500D01*
X32189290Y-23749187D01*
X32184530Y-23744826D01*
X32006498Y-23566793D01*
X31985106Y-23520916D01*
X31987346Y-23495314D01*
X32002677Y-23438099D01*
X32002677Y-23438097D01*
X32003515Y-23434971D01*
X32022707Y-23215600D01*
X32003515Y-22996229D01*
X32002592Y-22992782D01*
X31952621Y-22806292D01*
X31946520Y-22783524D01*
X31853456Y-22583947D01*
X31796933Y-22503223D01*
X31729004Y-22406211D01*
X31729003Y-22406210D01*
X31727149Y-22403562D01*
X31571438Y-22247851D01*
X31391054Y-22121544D01*
X31239372Y-22050814D01*
X31194408Y-22029847D01*
X31194406Y-22029846D01*
X31191476Y-22028480D01*
X31085123Y-21999982D01*
X30981899Y-21972323D01*
X30981897Y-21972323D01*
X30978771Y-21971485D01*
X30759400Y-21952293D01*
X30540029Y-21971485D01*
X30536903Y-21972323D01*
X30536901Y-21972323D01*
X30433677Y-21999982D01*
X30327324Y-22028480D01*
X30127747Y-22121544D01*
X30125100Y-22123397D01*
X30125099Y-22123398D01*
X29982796Y-22223040D01*
X29947362Y-22247851D01*
X29791651Y-22403562D01*
X29789797Y-22406210D01*
X29789796Y-22406211D01*
X29721868Y-22503223D01*
X29665344Y-22583947D01*
X29572280Y-22783524D01*
X29566179Y-22806292D01*
X29516209Y-22992782D01*
X29515285Y-22996229D01*
X29496093Y-23215600D01*
X29515285Y-23434971D01*
X29572280Y-23647676D01*
X29665344Y-23847253D01*
X29667197Y-23849900D01*
X29667198Y-23849901D01*
X29769770Y-23996389D01*
X29791651Y-24027638D01*
X29947362Y-24183349D01*
X30127746Y-24309656D01*
X30327324Y-24402720D01*
X30384558Y-24418056D01*
X30536901Y-24458877D01*
X30536903Y-24458877D01*
X30540029Y-24459715D01*
X30759400Y-24478907D01*
X30762623Y-24478625D01*
X30975548Y-24459997D01*
X30978771Y-24459715D01*
X30981885Y-24458881D01*
X30981894Y-24458879D01*
X31039117Y-24443546D01*
X31089543Y-24447958D01*
X31110595Y-24462699D01*
X31440614Y-24792718D01*
X31446162Y-24799644D01*
X31446337Y-24799499D01*
X31449305Y-24803086D01*
X31451800Y-24807018D01*
X31455196Y-24810207D01*
X31502042Y-24854198D01*
X31503712Y-24855816D01*
X31524031Y-24876135D01*
X31525858Y-24877552D01*
X31525869Y-24877562D01*
X31529167Y-24880120D01*
X31534455Y-24884636D01*
X31568479Y-24916586D01*
X31572565Y-24918832D01*
X31572566Y-24918833D01*
X31589814Y-24928315D01*
X31599522Y-24934691D01*
X31618760Y-24949614D01*
X31617161Y-24951675D01*
X31645372Y-24988182D01*
X31658497Y-25033955D01*
X31660149Y-25037169D01*
X31660150Y-25037172D01*
X31730881Y-25174800D01*
X31737225Y-25225020D01*
X31709804Y-25267568D01*
X31661449Y-25282537D01*
X31612738Y-25260951D01*
X31546038Y-25194251D01*
X31365654Y-25067944D01*
X31227547Y-25003544D01*
X31169008Y-24976247D01*
X31169006Y-24976246D01*
X31166076Y-24974880D01*
X31039808Y-24941046D01*
X30956499Y-24918723D01*
X30956497Y-24918723D01*
X30953371Y-24917885D01*
X30734000Y-24898693D01*
X30514629Y-24917885D01*
X30511503Y-24918723D01*
X30511501Y-24918723D01*
X30428192Y-24941046D01*
X30301924Y-24974880D01*
X30102347Y-25067944D01*
X30099700Y-25069797D01*
X30099699Y-25069798D01*
X29966487Y-25163074D01*
X29921962Y-25194251D01*
X29766251Y-25349962D01*
X29764397Y-25352610D01*
X29764396Y-25352611D01*
X29647389Y-25519715D01*
X29639944Y-25530347D01*
X29546880Y-25729924D01*
X29489885Y-25942629D01*
X29470693Y-26162000D01*
X23410772Y-26162000D01*
X23410772Y-25690827D01*
X23428085Y-25643261D01*
X23436070Y-25635549D01*
X23435998Y-25635474D01*
X23438618Y-25632979D01*
X23441471Y-25630750D01*
X23564295Y-25488457D01*
X23566078Y-25485318D01*
X23566081Y-25485314D01*
X23629238Y-25374136D01*
X23657142Y-25325017D01*
X23662410Y-25309182D01*
X23715332Y-25150092D01*
X23715333Y-25150089D01*
X23716475Y-25146655D01*
X23737555Y-24979786D01*
X23739775Y-24962216D01*
X23739775Y-24962214D01*
X23740034Y-24960165D01*
X23740410Y-24933273D01*
X23739446Y-24923436D01*
X23722420Y-24749799D01*
X23722067Y-24746199D01*
X23721021Y-24742734D01*
X23721001Y-24742634D01*
X23728743Y-24692610D01*
X23766828Y-24659267D01*
X23817436Y-24658205D01*
X23833903Y-24666522D01*
X23834324Y-24666880D01*
X23837479Y-24668643D01*
X23837480Y-24668644D01*
X23995250Y-24756819D01*
X23995254Y-24756821D01*
X23998409Y-24758584D01*
X24177180Y-24816670D01*
X24246281Y-24824910D01*
X24360230Y-24838498D01*
X24360233Y-24838498D01*
X24363830Y-24838927D01*
X24410857Y-24835308D01*
X24459611Y-24848920D01*
X24468860Y-24856764D01*
X24683239Y-25071144D01*
X24896818Y-25284723D01*
X24902363Y-25291645D01*
X24902538Y-25291500D01*
X24905505Y-25295086D01*
X24908000Y-25299018D01*
X24939033Y-25328160D01*
X24958226Y-25346183D01*
X24959896Y-25347801D01*
X24980230Y-25368135D01*
X24982061Y-25369555D01*
X24982063Y-25369557D01*
X24985367Y-25372120D01*
X24990667Y-25376647D01*
X25024679Y-25408586D01*
X25046017Y-25420317D01*
X25055718Y-25426690D01*
X25063811Y-25432967D01*
X25074959Y-25441614D01*
X25117793Y-25460150D01*
X25124037Y-25463209D01*
X25164940Y-25485695D01*
X25183164Y-25490374D01*
X25188523Y-25491750D01*
X25199508Y-25495511D01*
X25221855Y-25505181D01*
X25226452Y-25505909D01*
X25226455Y-25505910D01*
X25258133Y-25510927D01*
X25267951Y-25512482D01*
X25274768Y-25513895D01*
X25297440Y-25519715D01*
X25339653Y-25548945D01*
X25378673Y-25604671D01*
X25448251Y-25704038D01*
X25603962Y-25859749D01*
X25784346Y-25986056D01*
X25908271Y-26043843D01*
X25973560Y-26074287D01*
X25983924Y-26079120D01*
X26090276Y-26107617D01*
X26193501Y-26135277D01*
X26193503Y-26135277D01*
X26196629Y-26136115D01*
X26416000Y-26155307D01*
X26635371Y-26136115D01*
X26638497Y-26135277D01*
X26638499Y-26135277D01*
X26741724Y-26107617D01*
X26848076Y-26079120D01*
X26858441Y-26074287D01*
X26923729Y-26043843D01*
X27047654Y-25986056D01*
X27228038Y-25859749D01*
X27383749Y-25704038D01*
X27385605Y-25701388D01*
X27508202Y-25526301D01*
X27508203Y-25526300D01*
X27510056Y-25523653D01*
X27603120Y-25324076D01*
X27653714Y-25135259D01*
X27659277Y-25114499D01*
X27659277Y-25114497D01*
X27660115Y-25111371D01*
X27679307Y-24892000D01*
X27660115Y-24672629D01*
X27603120Y-24459924D01*
X27510056Y-24260347D01*
X27497819Y-24242870D01*
X27385604Y-24082611D01*
X27385603Y-24082610D01*
X27383749Y-24079962D01*
X27228038Y-23924251D01*
X27047654Y-23797944D01*
X26908367Y-23732994D01*
X26851008Y-23706247D01*
X26851006Y-23706246D01*
X26848076Y-23704880D01*
X26739273Y-23675726D01*
X26638499Y-23648723D01*
X26638497Y-23648723D01*
X26635371Y-23647885D01*
X26416000Y-23628693D01*
X26196629Y-23647885D01*
X26193503Y-23648723D01*
X26193501Y-23648723D01*
X26092727Y-23675726D01*
X25983924Y-23704880D01*
X25784347Y-23797944D01*
X25781700Y-23799797D01*
X25781699Y-23799798D01*
X25630748Y-23905495D01*
X25603962Y-23924251D01*
X25518385Y-24009828D01*
X25472509Y-24031220D01*
X25423614Y-24018119D01*
X25413734Y-24009828D01*
X25367889Y-23963984D01*
X25346496Y-23918108D01*
X25346395Y-23906492D01*
X25346504Y-23904932D01*
X25346762Y-23902892D01*
X25347138Y-23876000D01*
X25346174Y-23866163D01*
X25332571Y-23727437D01*
X25328795Y-23688926D01*
X25274465Y-23508977D01*
X25186218Y-23343008D01*
X25092373Y-23227942D01*
X25075726Y-23180139D01*
X25089105Y-23138724D01*
X25094056Y-23131653D01*
X25187120Y-22932076D01*
X25220824Y-22806292D01*
X25243277Y-22722499D01*
X25243277Y-22722497D01*
X25244115Y-22719371D01*
X25263307Y-22500000D01*
X25244115Y-22280629D01*
X25235802Y-22249603D01*
X25193374Y-22091264D01*
X25187120Y-22067924D01*
X25094056Y-21868347D01*
X24967749Y-21687962D01*
X24812038Y-21532251D01*
X24646070Y-21416038D01*
X24634302Y-21407798D01*
X24634301Y-21407797D01*
X24631654Y-21405944D01*
X24432076Y-21312880D01*
X24322785Y-21283595D01*
X24222499Y-21256723D01*
X24222497Y-21256723D01*
X24219371Y-21255885D01*
X24000000Y-21236693D01*
X23780629Y-21255885D01*
X23777503Y-21256723D01*
X23777501Y-21256723D01*
X23677215Y-21283595D01*
X23567924Y-21312880D01*
X23368347Y-21405944D01*
X23365700Y-21407797D01*
X23365699Y-21407798D01*
X23265672Y-21477838D01*
X23216778Y-21490939D01*
X23170901Y-21469547D01*
X23152385Y-21438610D01*
X23144465Y-21412377D01*
X23065044Y-21263007D01*
X23057917Y-21249603D01*
X23057916Y-21249602D01*
X23056218Y-21246408D01*
X22937415Y-21100740D01*
X22921474Y-21087553D01*
X22895861Y-21043894D01*
X22904303Y-20993984D01*
X22916838Y-20977941D01*
X22918199Y-20976877D01*
X22951285Y-20938547D01*
X22995470Y-20913852D01*
X23007302Y-20912900D01*
X23200487Y-20912900D01*
X23209306Y-20913874D01*
X23209327Y-20913648D01*
X23213966Y-20914086D01*
X23218509Y-20915102D01*
X23223163Y-20914956D01*
X23223166Y-20914956D01*
X23287381Y-20912937D01*
X23289706Y-20912900D01*
X23318456Y-20912900D01*
X23320753Y-20912610D01*
X23320767Y-20912609D01*
X23324905Y-20912086D01*
X23331852Y-20911539D01*
X23378489Y-20910073D01*
X23385224Y-20908116D01*
X23401873Y-20903280D01*
X23413241Y-20900926D01*
X23432777Y-20898458D01*
X23432780Y-20898457D01*
X23437397Y-20897874D01*
X23480789Y-20880694D01*
X23487380Y-20878437D01*
X23527720Y-20866718D01*
X23527724Y-20866716D01*
X23532193Y-20865418D01*
X23553157Y-20853020D01*
X23563578Y-20847915D01*
X23581889Y-20840666D01*
X23581892Y-20840664D01*
X23586217Y-20838952D01*
X23623974Y-20811520D01*
X23629799Y-20807695D01*
X23656545Y-20791877D01*
X23706300Y-20782565D01*
X23713368Y-20784093D01*
X23777499Y-20801277D01*
X23777506Y-20801278D01*
X23780629Y-20802115D01*
X23783852Y-20802397D01*
X23844410Y-20807695D01*
X24000000Y-20821307D01*
X24219371Y-20802115D01*
X24222497Y-20801277D01*
X24222499Y-20801277D01*
X24325724Y-20773617D01*
X24432076Y-20745120D01*
X24631654Y-20652056D01*
X24649919Y-20639267D01*
X24698141Y-20605501D01*
X24812038Y-20525749D01*
X24967749Y-20370038D01*
X24995533Y-20330358D01*
X25092202Y-20192301D01*
X25092203Y-20192300D01*
X25094056Y-20189653D01*
X25187120Y-19990076D01*
X25244115Y-19777371D01*
X25263307Y-19558000D01*
X25244115Y-19338629D01*
X25187120Y-19125924D01*
X25094056Y-18926347D01*
X25084818Y-18913153D01*
X24969604Y-18748611D01*
X24969603Y-18748610D01*
X24967749Y-18745962D01*
X24812038Y-18590251D01*
X24631654Y-18463944D01*
X24432076Y-18370880D01*
X24272735Y-18328184D01*
X24222499Y-18314723D01*
X24222497Y-18314723D01*
X24219371Y-18313885D01*
X24000000Y-18294693D01*
X23780629Y-18313885D01*
X23777503Y-18314723D01*
X23777501Y-18314723D01*
X23727265Y-18328184D01*
X23567924Y-18370880D01*
X23564994Y-18372246D01*
X23564992Y-18372247D01*
X23425695Y-18437202D01*
X23375268Y-18441613D01*
X23333804Y-18412579D01*
X23320703Y-18363685D01*
X23342095Y-18317809D01*
X23423884Y-18236021D01*
X23648807Y-18011098D01*
X23694684Y-17989706D01*
X23720286Y-17991946D01*
X23777501Y-18007277D01*
X23777503Y-18007277D01*
X23780629Y-18008115D01*
X24000000Y-18027307D01*
X24219371Y-18008115D01*
X24222497Y-18007277D01*
X24222499Y-18007277D01*
X24340168Y-17975747D01*
X24432076Y-17951120D01*
X24631654Y-17858056D01*
X24743129Y-17780000D01*
X28200693Y-17780000D01*
X28219885Y-17999371D01*
X28220723Y-18002497D01*
X28220723Y-18002499D01*
X28227810Y-18028948D01*
X28276880Y-18212076D01*
X28369944Y-18411653D01*
X28371797Y-18414300D01*
X28371798Y-18414301D01*
X28487228Y-18579152D01*
X28496251Y-18592038D01*
X28651962Y-18747749D01*
X28832346Y-18874056D01*
X28956271Y-18931843D01*
X29026327Y-18964510D01*
X29031924Y-18967120D01*
X29089434Y-18982530D01*
X29241501Y-19023277D01*
X29241503Y-19023277D01*
X29244629Y-19024115D01*
X29464000Y-19043307D01*
X29683371Y-19024115D01*
X29686497Y-19023277D01*
X29686499Y-19023277D01*
X29838566Y-18982530D01*
X29896076Y-18967120D01*
X29901674Y-18964510D01*
X29971729Y-18931843D01*
X30095654Y-18874056D01*
X30276038Y-18747749D01*
X30431749Y-18592038D01*
X30443186Y-18575705D01*
X30497083Y-18498731D01*
X30538547Y-18469698D01*
X30588974Y-18474109D01*
X30605661Y-18484822D01*
X30694324Y-18560280D01*
X30730278Y-18580374D01*
X30855250Y-18650219D01*
X30855254Y-18650221D01*
X30858409Y-18651984D01*
X31037180Y-18710070D01*
X31094726Y-18716932D01*
X31220230Y-18731898D01*
X31220233Y-18731898D01*
X31223830Y-18732327D01*
X31285825Y-18727557D01*
X31407636Y-18718184D01*
X31407637Y-18718184D01*
X31411247Y-18717906D01*
X31592294Y-18667356D01*
X31620512Y-18653102D01*
X31756841Y-18584238D01*
X31756844Y-18584236D01*
X31760075Y-18582604D01*
X31908199Y-18466877D01*
X32031023Y-18324584D01*
X32032806Y-18321445D01*
X32032809Y-18321441D01*
X32083815Y-18231653D01*
X32123870Y-18161144D01*
X32168392Y-18027307D01*
X32182060Y-17986219D01*
X32182061Y-17986216D01*
X32183203Y-17982782D01*
X32203451Y-17822499D01*
X32206503Y-17798343D01*
X32206503Y-17798341D01*
X32206762Y-17796292D01*
X32207138Y-17769400D01*
X32206814Y-17766089D01*
X32190528Y-17600000D01*
X35736693Y-17600000D01*
X35755885Y-17819371D01*
X35756723Y-17822497D01*
X35756723Y-17822499D01*
X35767967Y-17864462D01*
X35812880Y-18032076D01*
X35905944Y-18231653D01*
X35907797Y-18234300D01*
X35907798Y-18234301D01*
X36023808Y-18399980D01*
X36032251Y-18412038D01*
X36187962Y-18567749D01*
X36368346Y-18694056D01*
X36449499Y-18731898D01*
X36530273Y-18769563D01*
X36567924Y-18787120D01*
X36648602Y-18808738D01*
X36777501Y-18843277D01*
X36777503Y-18843277D01*
X36780629Y-18844115D01*
X37000000Y-18863307D01*
X37219371Y-18844115D01*
X37222497Y-18843277D01*
X37222499Y-18843277D01*
X37351398Y-18808738D01*
X37432076Y-18787120D01*
X37469728Y-18769563D01*
X37550501Y-18731898D01*
X37631654Y-18694056D01*
X37812038Y-18567749D01*
X37967749Y-18412038D01*
X38070668Y-18265055D01*
X38112133Y-18236021D01*
X38131285Y-18233500D01*
X39168167Y-18233500D01*
X39204268Y-18242904D01*
X39235246Y-18260217D01*
X39235252Y-18260220D01*
X39238409Y-18261984D01*
X39417180Y-18320070D01*
X39474726Y-18326932D01*
X39600230Y-18341898D01*
X39600233Y-18341898D01*
X39603830Y-18342327D01*
X39665825Y-18337557D01*
X39787636Y-18328184D01*
X39787637Y-18328184D01*
X39791247Y-18327906D01*
X39910201Y-18294693D01*
X39968813Y-18278328D01*
X39968814Y-18278328D01*
X39972294Y-18277356D01*
X40000512Y-18263102D01*
X40114607Y-18205469D01*
X40164870Y-18199475D01*
X40207226Y-18227192D01*
X40211052Y-18232832D01*
X40303987Y-18384488D01*
X40305975Y-18386784D01*
X40305978Y-18386787D01*
X40373761Y-18465037D01*
X40450250Y-18553338D01*
X40452582Y-18555274D01*
X40452583Y-18555275D01*
X40477191Y-18575705D01*
X40622126Y-18696032D01*
X40624744Y-18697562D01*
X40624750Y-18697566D01*
X40812374Y-18807204D01*
X40812379Y-18807206D01*
X40815000Y-18808738D01*
X40817839Y-18809822D01*
X41020847Y-18887344D01*
X41020851Y-18887345D01*
X41023692Y-18888430D01*
X41026676Y-18889037D01*
X41026679Y-18889038D01*
X41127052Y-18909459D01*
X41242597Y-18932967D01*
X41328174Y-18936105D01*
X41462797Y-18941042D01*
X41462803Y-18941042D01*
X41465837Y-18941153D01*
X41468849Y-18940767D01*
X41468853Y-18940767D01*
X41602086Y-18923699D01*
X41687416Y-18912768D01*
X41781432Y-18884562D01*
X41898479Y-18849446D01*
X41898484Y-18849444D01*
X41901384Y-18848574D01*
X42101994Y-18750296D01*
X42283860Y-18620573D01*
X42310200Y-18594325D01*
X42439941Y-18465037D01*
X42439944Y-18465034D01*
X42442096Y-18462889D01*
X42572453Y-18281477D01*
X42573798Y-18278756D01*
X42670082Y-18083939D01*
X42670083Y-18083936D01*
X42671430Y-18081211D01*
X42686359Y-18032076D01*
X42735488Y-17870372D01*
X42736370Y-17867469D01*
X42742291Y-17822499D01*
X42765272Y-17647944D01*
X42765272Y-17647939D01*
X42765529Y-17645990D01*
X42767156Y-17579400D01*
X42765356Y-17557501D01*
X42749101Y-17359786D01*
X42749100Y-17359782D01*
X42748852Y-17356761D01*
X42746633Y-17347924D01*
X42695169Y-17143040D01*
X42694431Y-17140102D01*
X42680779Y-17108705D01*
X42606564Y-16938022D01*
X42606562Y-16938019D01*
X42605354Y-16935240D01*
X42484014Y-16747677D01*
X42419989Y-16677314D01*
X42335713Y-16584696D01*
X42335712Y-16584695D01*
X42333670Y-16582451D01*
X42325182Y-16575747D01*
X42275769Y-16536723D01*
X42266382Y-16529310D01*
X42239783Y-16486243D01*
X42247091Y-16436154D01*
X42284885Y-16402481D01*
X42304254Y-16397670D01*
X42335620Y-16394262D01*
X42364316Y-16391145D01*
X42368660Y-16389516D01*
X42368662Y-16389516D01*
X42495766Y-16341867D01*
X42495769Y-16341866D01*
X42500705Y-16340015D01*
X42617261Y-16252661D01*
X42704615Y-16136105D01*
X42720379Y-16094056D01*
X42754116Y-16004062D01*
X42754116Y-16004060D01*
X42755745Y-15999716D01*
X42762500Y-15937534D01*
X42762500Y-14141266D01*
X42755745Y-14079084D01*
X42741306Y-14040568D01*
X42706467Y-13947634D01*
X42706466Y-13947631D01*
X42704615Y-13942695D01*
X42617261Y-13826139D01*
X42500705Y-13738785D01*
X42495769Y-13736934D01*
X42495766Y-13736933D01*
X42368662Y-13689284D01*
X42368660Y-13689284D01*
X42364316Y-13687655D01*
X42319882Y-13682828D01*
X42304133Y-13681117D01*
X42304130Y-13681117D01*
X42302134Y-13680900D01*
X40505866Y-13680900D01*
X40503870Y-13681117D01*
X40503867Y-13681117D01*
X40488118Y-13682828D01*
X40443684Y-13687655D01*
X40439340Y-13689284D01*
X40439338Y-13689284D01*
X40312234Y-13736933D01*
X40312231Y-13736934D01*
X40307295Y-13738785D01*
X40190739Y-13826139D01*
X40103385Y-13942695D01*
X40101534Y-13947631D01*
X40101533Y-13947634D01*
X40066694Y-14040568D01*
X40052255Y-14079084D01*
X40045500Y-14141266D01*
X40045500Y-14305598D01*
X40028187Y-14353164D01*
X39984350Y-14378474D01*
X39934500Y-14369684D01*
X39906162Y-14340339D01*
X39857917Y-14249603D01*
X39857916Y-14249602D01*
X39856218Y-14246408D01*
X39737415Y-14100740D01*
X39642515Y-14022232D01*
X39595375Y-13983234D01*
X39595374Y-13983233D01*
X39592580Y-13980922D01*
X39531015Y-13947634D01*
X39430417Y-13893241D01*
X39430412Y-13893239D01*
X39427231Y-13891519D01*
X39423777Y-13890450D01*
X39423775Y-13890449D01*
X39349732Y-13867529D01*
X39247666Y-13835934D01*
X39060724Y-13816285D01*
X39057120Y-13816613D01*
X38877139Y-13832993D01*
X38877137Y-13832993D01*
X38873526Y-13833322D01*
X38766393Y-13864853D01*
X38747834Y-13867826D01*
X38700111Y-13869326D01*
X38546407Y-13913982D01*
X38542405Y-13916349D01*
X38542400Y-13916351D01*
X38412647Y-13993087D01*
X38408638Y-13995458D01*
X38191218Y-14212878D01*
X38145343Y-14234269D01*
X38096448Y-14221168D01*
X38078276Y-14202996D01*
X38077365Y-14201696D01*
X38067749Y-14187962D01*
X37912038Y-14032251D01*
X37746517Y-13916351D01*
X37734302Y-13907798D01*
X37734301Y-13907797D01*
X37731654Y-13905944D01*
X37580705Y-13835556D01*
X37535008Y-13814247D01*
X37535006Y-13814246D01*
X37532076Y-13812880D01*
X37416138Y-13781814D01*
X37322499Y-13756723D01*
X37322497Y-13756723D01*
X37319371Y-13755885D01*
X37100000Y-13736693D01*
X36880629Y-13755885D01*
X36877503Y-13756723D01*
X36877501Y-13756723D01*
X36783862Y-13781814D01*
X36667924Y-13812880D01*
X36468347Y-13905944D01*
X36465700Y-13907797D01*
X36465699Y-13907798D01*
X36290611Y-14030396D01*
X36287962Y-14032251D01*
X36132251Y-14187962D01*
X36130397Y-14190610D01*
X36130396Y-14190611D01*
X36009290Y-14363569D01*
X36005944Y-14368347D01*
X35912880Y-14567924D01*
X35855885Y-14780629D01*
X35836693Y-15000000D01*
X35855885Y-15219371D01*
X35912880Y-15432076D01*
X36005944Y-15631653D01*
X36007797Y-15634300D01*
X36007798Y-15634301D01*
X36083138Y-15741898D01*
X36132251Y-15812038D01*
X36287962Y-15967749D01*
X36468346Y-16094056D01*
X36667924Y-16187120D01*
X36772437Y-16215125D01*
X36813900Y-16244157D01*
X36827001Y-16293052D01*
X36805609Y-16338928D01*
X36772436Y-16358080D01*
X36655118Y-16389516D01*
X36567924Y-16412880D01*
X36368347Y-16505944D01*
X36365700Y-16507797D01*
X36365699Y-16507798D01*
X36242237Y-16594247D01*
X36187962Y-16632251D01*
X36032251Y-16787962D01*
X36030397Y-16790610D01*
X36030396Y-16790611D01*
X36001076Y-16832485D01*
X35905944Y-16968347D01*
X35812880Y-17167924D01*
X35793673Y-17239603D01*
X35762281Y-17356761D01*
X35755885Y-17380629D01*
X35736693Y-17600000D01*
X32190528Y-17600000D01*
X32189148Y-17585929D01*
X32188795Y-17582326D01*
X32134465Y-17402377D01*
X32046218Y-17236408D01*
X31927415Y-17090740D01*
X31849824Y-17026551D01*
X31785375Y-16973234D01*
X31785374Y-16973233D01*
X31782580Y-16970922D01*
X31773009Y-16965747D01*
X31620417Y-16883241D01*
X31620412Y-16883239D01*
X31617231Y-16881519D01*
X31613777Y-16880450D01*
X31613775Y-16880449D01*
X31567051Y-16865986D01*
X31437666Y-16825934D01*
X31250724Y-16806285D01*
X31063526Y-16823322D01*
X31051016Y-16827004D01*
X30886673Y-16875372D01*
X30886669Y-16875374D01*
X30883202Y-16876394D01*
X30831221Y-16903569D01*
X30719828Y-16961803D01*
X30719825Y-16961805D01*
X30716621Y-16963480D01*
X30713803Y-16965745D01*
X30713801Y-16965747D01*
X30593980Y-17062086D01*
X30546061Y-17078399D01*
X30498868Y-17060094D01*
X30486994Y-17046860D01*
X30433604Y-16970611D01*
X30433603Y-16970610D01*
X30431749Y-16967962D01*
X30276038Y-16812251D01*
X30116785Y-16700740D01*
X30098302Y-16687798D01*
X30098301Y-16687797D01*
X30095654Y-16685944D01*
X29896076Y-16592880D01*
X29773499Y-16560035D01*
X29686499Y-16536723D01*
X29686497Y-16536723D01*
X29683371Y-16535885D01*
X29464000Y-16516693D01*
X29244629Y-16535885D01*
X29241503Y-16536723D01*
X29241501Y-16536723D01*
X29154501Y-16560035D01*
X29031924Y-16592880D01*
X28832347Y-16685944D01*
X28829700Y-16687797D01*
X28829699Y-16687798D01*
X28660482Y-16806285D01*
X28651962Y-16812251D01*
X28496251Y-16967962D01*
X28494397Y-16970610D01*
X28494396Y-16970611D01*
X28397702Y-17108705D01*
X28369944Y-17148347D01*
X28276880Y-17347924D01*
X28219885Y-17560629D01*
X28200693Y-17780000D01*
X24743129Y-17780000D01*
X24812038Y-17731749D01*
X24967749Y-17576038D01*
X25094056Y-17395653D01*
X25187120Y-17196076D01*
X25244115Y-16983371D01*
X25263307Y-16764000D01*
X25244115Y-16544629D01*
X25241697Y-16535603D01*
X25198461Y-16374249D01*
X25187120Y-16331924D01*
X25094056Y-16132347D01*
X25057804Y-16080573D01*
X24969604Y-15954611D01*
X24969603Y-15954610D01*
X24967749Y-15951962D01*
X24812038Y-15796251D01*
X24643628Y-15678328D01*
X24634302Y-15671798D01*
X24634301Y-15671797D01*
X24631654Y-15669944D01*
X24507729Y-15612157D01*
X24435008Y-15578247D01*
X24435006Y-15578246D01*
X24432076Y-15576880D01*
X24288092Y-15538299D01*
X24222499Y-15520723D01*
X24222497Y-15520723D01*
X24219371Y-15519885D01*
X24000000Y-15500693D01*
X23780629Y-15519885D01*
X23777503Y-15520723D01*
X23777501Y-15520723D01*
X23711908Y-15538299D01*
X23567924Y-15576880D01*
X23368347Y-15669944D01*
X23365700Y-15671797D01*
X23365699Y-15671798D01*
X23190611Y-15794396D01*
X23187962Y-15796251D01*
X23032251Y-15951962D01*
X23030397Y-15954610D01*
X23030396Y-15954611D01*
X22942197Y-16080573D01*
X22905944Y-16132347D01*
X22812880Y-16331924D01*
X22801539Y-16374249D01*
X22758304Y-16535603D01*
X22755885Y-16544629D01*
X22736693Y-16764000D01*
X22755885Y-16983371D01*
X22756723Y-16986497D01*
X22756723Y-16986499D01*
X22772054Y-17043714D01*
X22767643Y-17094141D01*
X22752902Y-17115193D01*
X22031948Y-17836147D01*
X22000515Y-17854810D01*
X21896673Y-17885372D01*
X21896669Y-17885374D01*
X21893202Y-17886394D01*
X21805877Y-17932046D01*
X21729828Y-17971803D01*
X21729825Y-17971805D01*
X21726621Y-17973480D01*
X21580128Y-18091264D01*
X21459302Y-18235259D01*
X21368746Y-18399980D01*
X21359068Y-18430490D01*
X21314938Y-18569604D01*
X21311909Y-18579152D01*
X21311506Y-18582743D01*
X21311506Y-18582744D01*
X21310207Y-18594325D01*
X21290956Y-18765952D01*
X21291259Y-18769561D01*
X21291259Y-18769563D01*
X21305659Y-18941042D01*
X21306685Y-18953265D01*
X21358497Y-19133955D01*
X21444418Y-19301140D01*
X21502797Y-19374796D01*
X21558927Y-19445614D01*
X21558930Y-19445618D01*
X21561177Y-19448452D01*
X21563931Y-19450795D01*
X21563933Y-19450798D01*
X21588550Y-19471748D01*
X21613553Y-19515761D01*
X21604415Y-19565548D01*
X21586955Y-19585775D01*
X21580128Y-19591264D01*
X21459302Y-19735259D01*
X21368746Y-19899980D01*
X21367652Y-19903429D01*
X21332680Y-20013675D01*
X21311909Y-20079152D01*
X21290956Y-20265952D01*
X21306685Y-20453265D01*
X21358497Y-20633955D01*
X21360149Y-20637169D01*
X21360150Y-20637172D01*
X21368501Y-20653421D01*
X21444418Y-20801140D01*
X21468262Y-20831223D01*
X21558927Y-20945614D01*
X21558930Y-20945618D01*
X21561177Y-20948452D01*
X21563931Y-20950795D01*
X21563933Y-20950798D01*
X21588550Y-20971748D01*
X21613553Y-21015761D01*
X21604415Y-21065548D01*
X21586955Y-21085775D01*
X21580128Y-21091264D01*
X21577802Y-21094036D01*
X21577800Y-21094038D01*
X21569824Y-21103544D01*
X21459302Y-21235259D01*
X21368746Y-21399980D01*
X21367652Y-21403429D01*
X21328808Y-21525881D01*
X21311909Y-21579152D01*
X21290956Y-21765952D01*
X21306685Y-21953265D01*
X21358497Y-22133955D01*
X21360149Y-22137169D01*
X21360150Y-22137172D01*
X21432269Y-22277501D01*
X21444418Y-22301140D01*
X21502798Y-22374796D01*
X21558927Y-22445614D01*
X21558930Y-22445618D01*
X21561177Y-22448452D01*
X21563931Y-22450795D01*
X21563933Y-22450798D01*
X21621412Y-22499716D01*
X21704324Y-22570280D01*
X21707486Y-22572047D01*
X21865250Y-22660219D01*
X21865254Y-22660221D01*
X21868409Y-22661984D01*
X22047180Y-22720070D01*
X22096826Y-22725990D01*
X22230230Y-22741898D01*
X22230233Y-22741898D01*
X22233830Y-22742327D01*
X22280857Y-22738708D01*
X22329611Y-22752320D01*
X22338860Y-22760164D01*
X22471414Y-22892718D01*
X22476962Y-22899644D01*
X22477137Y-22899499D01*
X22480105Y-22903086D01*
X22482600Y-22907018D01*
X22485996Y-22910207D01*
X22532842Y-22954198D01*
X22534512Y-22955816D01*
X22554830Y-22976134D01*
X22559954Y-22980108D01*
X22565254Y-22984635D01*
X22595882Y-23013397D01*
X22595887Y-23013400D01*
X22599279Y-23016586D01*
X22620620Y-23028318D01*
X22630318Y-23034688D01*
X22649559Y-23049613D01*
X22692396Y-23068151D01*
X22698622Y-23071201D01*
X22739540Y-23093695D01*
X22754823Y-23097619D01*
X22763122Y-23099750D01*
X22774106Y-23103511D01*
X22792177Y-23111331D01*
X22792186Y-23111334D01*
X22796455Y-23113181D01*
X22842551Y-23120482D01*
X22849368Y-23121895D01*
X22871624Y-23127609D01*
X22883500Y-23130658D01*
X22925714Y-23159888D01*
X22933596Y-23171144D01*
X23032251Y-23312038D01*
X23187962Y-23467749D01*
X23298340Y-23545037D01*
X23363088Y-23590374D01*
X23368346Y-23594056D01*
X23393864Y-23605955D01*
X23398768Y-23608242D01*
X23434561Y-23644035D01*
X23441033Y-23683558D01*
X23434441Y-23742327D01*
X23420956Y-23862552D01*
X23421259Y-23866161D01*
X23421259Y-23866163D01*
X23432366Y-23998433D01*
X23436685Y-24049865D01*
X23440298Y-24062465D01*
X23436766Y-24112958D01*
X23401603Y-24149370D01*
X23351261Y-24154661D01*
X23321997Y-24139878D01*
X23315852Y-24134795D01*
X23306281Y-24129620D01*
X23153689Y-24047114D01*
X23153684Y-24047112D01*
X23150503Y-24045392D01*
X23147049Y-24044323D01*
X23147047Y-24044322D01*
X23084592Y-24024989D01*
X22970938Y-23989807D01*
X22783996Y-23970158D01*
X22596798Y-23987195D01*
X22565559Y-23996389D01*
X22419945Y-24039245D01*
X22419941Y-24039247D01*
X22416474Y-24040267D01*
X22349764Y-24075142D01*
X22253100Y-24125676D01*
X22253097Y-24125678D01*
X22249893Y-24127353D01*
X22103400Y-24245137D01*
X22101074Y-24247909D01*
X22101072Y-24247911D01*
X22092859Y-24257699D01*
X21982574Y-24389132D01*
X21892018Y-24553853D01*
X21882474Y-24583939D01*
X21837424Y-24725955D01*
X21835181Y-24733025D01*
X21814228Y-24919825D01*
X21814531Y-24923434D01*
X21814531Y-24923436D01*
X21827198Y-25074287D01*
X21829957Y-25107138D01*
X21881769Y-25287828D01*
X21883421Y-25291042D01*
X21883422Y-25291045D01*
X21966035Y-25451793D01*
X21967690Y-25455013D01*
X22018973Y-25519715D01*
X22082199Y-25599487D01*
X22082202Y-25599491D01*
X22084449Y-25602325D01*
X22087203Y-25604668D01*
X22087205Y-25604671D01*
X22117733Y-25630652D01*
X22142736Y-25674665D01*
X22143772Y-25687006D01*
X22143772Y-27655159D01*
X22142798Y-27663978D01*
X22143024Y-27663999D01*
X22142586Y-27668638D01*
X22141570Y-27673181D01*
X22141716Y-27677835D01*
X22141716Y-27677838D01*
X22143735Y-27742053D01*
X22143772Y-27744378D01*
X22143772Y-27773128D01*
X22144062Y-27775425D01*
X22144063Y-27775439D01*
X22144586Y-27779577D01*
X22145133Y-27786524D01*
X22146599Y-27833161D01*
X22147898Y-27837632D01*
X22153392Y-27856545D01*
X22155746Y-27867913D01*
X22155955Y-27869563D01*
X22158798Y-27892069D01*
X22160512Y-27896398D01*
X22175976Y-27935454D01*
X22178235Y-27942052D01*
X22189954Y-27982392D01*
X22189956Y-27982396D01*
X22191254Y-27986865D01*
X22203652Y-28007829D01*
X22208756Y-28018249D01*
X22217720Y-28040889D01*
X22220454Y-28044652D01*
X22245151Y-28078645D01*
X22248977Y-28084471D01*
X22272730Y-28124634D01*
X22289949Y-28141853D01*
X22297490Y-28150683D01*
X22311800Y-28170379D01*
X22315385Y-28173345D01*
X22315388Y-28173348D01*
X22347753Y-28200122D01*
X22352910Y-28204814D01*
X22752901Y-28604805D01*
X22774293Y-28650681D01*
X22772054Y-28676283D01*
X22756721Y-28733506D01*
X22756719Y-28733515D01*
X22755885Y-28736629D01*
X22736693Y-28956000D01*
X22755885Y-29175371D01*
X22756723Y-29178497D01*
X22756723Y-29178499D01*
X22765011Y-29209429D01*
X22812880Y-29388076D01*
X22905944Y-29587653D01*
X22907797Y-29590300D01*
X22907798Y-29590301D01*
X23027023Y-29760572D01*
X23032251Y-29768038D01*
X23187962Y-29923749D01*
X23368346Y-30050056D01*
X23492271Y-30107843D01*
X23561452Y-30140102D01*
X23567924Y-30143120D01*
X23674277Y-30171618D01*
X23777501Y-30199277D01*
X23777503Y-30199277D01*
X23780629Y-30200115D01*
X23855903Y-30206700D01*
X23856835Y-30206782D01*
X23902712Y-30228174D01*
X23924104Y-30274050D01*
X23911003Y-30322945D01*
X23869539Y-30351978D01*
X23850386Y-30354500D01*
X21629056Y-30354500D01*
X21581490Y-30337187D01*
X21576730Y-30332826D01*
X21130582Y-29886677D01*
X21125037Y-29879755D01*
X21124862Y-29879900D01*
X21121895Y-29876314D01*
X21119400Y-29872382D01*
X21069174Y-29825217D01*
X21067504Y-29823599D01*
X21047170Y-29803265D01*
X21045337Y-29801843D01*
X21042033Y-29799280D01*
X21036733Y-29794753D01*
X21006117Y-29766003D01*
X21002721Y-29762814D01*
X20981382Y-29751082D01*
X20971682Y-29744710D01*
X20956118Y-29732638D01*
X20952441Y-29729786D01*
X20935124Y-29722292D01*
X20930275Y-29720194D01*
X20909607Y-29711250D01*
X20903363Y-29708191D01*
X20862460Y-29685705D01*
X20838876Y-29679650D01*
X20827891Y-29675889D01*
X20809820Y-29668069D01*
X20805545Y-29666219D01*
X20800948Y-29665491D01*
X20800945Y-29665490D01*
X20769267Y-29660473D01*
X20759449Y-29658918D01*
X20752632Y-29657505D01*
X20719855Y-29649090D01*
X20711937Y-29647057D01*
X20711936Y-29647057D01*
X20707430Y-29645900D01*
X20683082Y-29645900D01*
X20671506Y-29644989D01*
X20647457Y-29641180D01*
X20600995Y-29645572D01*
X20594031Y-29645900D01*
X20059384Y-29645900D01*
X20011818Y-29628587D01*
X20002038Y-29618669D01*
X19989707Y-29603549D01*
X19989701Y-29603543D01*
X19987415Y-29600740D01*
X19899004Y-29527600D01*
X19845375Y-29483234D01*
X19845374Y-29483233D01*
X19842580Y-29480922D01*
X19833009Y-29475747D01*
X19680417Y-29393241D01*
X19680412Y-29393239D01*
X19677231Y-29391519D01*
X19673777Y-29390450D01*
X19673775Y-29390449D01*
X19622022Y-29374429D01*
X19497666Y-29335934D01*
X19310724Y-29316285D01*
X19123526Y-29333322D01*
X19084439Y-29344826D01*
X18946673Y-29385372D01*
X18946669Y-29385374D01*
X18943202Y-29386394D01*
X18860776Y-29429485D01*
X18779828Y-29471803D01*
X18779825Y-29471805D01*
X18776621Y-29473480D01*
X18630128Y-29591264D01*
X18627802Y-29594036D01*
X18627800Y-29594038D01*
X18581606Y-29649090D01*
X18509302Y-29735259D01*
X18418746Y-29899980D01*
X18411206Y-29923749D01*
X18370706Y-30051421D01*
X18361909Y-30079152D01*
X18340956Y-30265952D01*
X16362500Y-30265952D01*
X16362500Y-29381266D01*
X16361039Y-29367812D01*
X16356246Y-29323698D01*
X16355745Y-29319084D01*
X16354116Y-29314738D01*
X16306467Y-29187634D01*
X16306466Y-29187631D01*
X16304615Y-29182695D01*
X16217261Y-29066139D01*
X16100705Y-28978785D01*
X16095769Y-28976934D01*
X16095766Y-28976933D01*
X15968662Y-28929284D01*
X15968660Y-28929284D01*
X15964316Y-28927655D01*
X15907958Y-28921533D01*
X15862540Y-28899185D01*
X15842113Y-28852871D01*
X15856235Y-28804262D01*
X15872978Y-28787722D01*
X15881065Y-28781954D01*
X15885680Y-28778054D01*
X16039560Y-28624709D01*
X16043489Y-28620092D01*
X16170250Y-28443685D01*
X16173367Y-28438497D01*
X16269616Y-28243754D01*
X16271849Y-28238114D01*
X16334996Y-28030273D01*
X16336277Y-28024348D01*
X16338648Y-28006337D01*
X16336346Y-27995951D01*
X16333021Y-27993400D01*
X13682158Y-27993400D01*
X13672162Y-27997038D01*
X13670703Y-27999566D01*
X13670727Y-28000573D01*
X13703033Y-28143923D01*
X13704845Y-28149705D01*
X13786569Y-28350971D01*
X13789304Y-28356384D01*
X13902802Y-28541597D01*
X13906383Y-28546490D01*
X14048614Y-28710685D01*
X14052934Y-28714916D01*
X14144001Y-28790521D01*
X14169539Y-28834226D01*
X14161011Y-28884121D01*
X14122405Y-28916861D01*
X14104724Y-28921024D01*
X14100039Y-28921533D01*
X14043684Y-28927655D01*
X14039340Y-28929284D01*
X14039338Y-28929284D01*
X13912234Y-28976933D01*
X13912231Y-28976934D01*
X13907295Y-28978785D01*
X13790739Y-29066139D01*
X13703385Y-29182695D01*
X13701534Y-29187631D01*
X13701533Y-29187634D01*
X13653884Y-29314738D01*
X13652255Y-29319084D01*
X13651754Y-29323698D01*
X13646962Y-29367812D01*
X13645500Y-29381266D01*
X13645500Y-31177534D01*
X13208500Y-31177534D01*
X13208500Y-25166095D01*
X13641251Y-25166095D01*
X13654110Y-25389115D01*
X13654774Y-25392062D01*
X13654775Y-25392068D01*
X13677567Y-25493199D01*
X13703222Y-25607039D01*
X13711300Y-25626932D01*
X13743538Y-25706325D01*
X13787266Y-25814016D01*
X13835534Y-25892782D01*
X13891556Y-25984202D01*
X13903987Y-26004488D01*
X13905975Y-26006784D01*
X13905978Y-26006787D01*
X13971900Y-26082889D01*
X14050250Y-26173338D01*
X14222126Y-26316032D01*
X14330065Y-26379106D01*
X14377285Y-26406699D01*
X14409619Y-26445645D01*
X14409354Y-26496263D01*
X14374119Y-26536229D01*
X14280563Y-26584931D01*
X14275451Y-26588150D01*
X14101728Y-26718586D01*
X14097199Y-26722607D01*
X13947115Y-26879660D01*
X13943308Y-26884362D01*
X13820895Y-27063813D01*
X13817896Y-27069091D01*
X13726440Y-27266117D01*
X13724347Y-27271806D01*
X13667662Y-27476204D01*
X13669281Y-27482752D01*
X13672911Y-27485400D01*
X16327411Y-27485400D01*
X16337407Y-27481762D01*
X16338621Y-27479658D01*
X16338555Y-27477822D01*
X16294694Y-27303203D01*
X16292748Y-27297487D01*
X16206120Y-27098256D01*
X16203266Y-27092932D01*
X16085265Y-26910531D01*
X16081575Y-26905739D01*
X15935370Y-26745063D01*
X15930945Y-26740936D01*
X15760460Y-26606296D01*
X15755425Y-26602951D01*
X15631459Y-26534518D01*
X15598183Y-26496374D01*
X15597212Y-26445764D01*
X15628998Y-26406370D01*
X15634666Y-26403280D01*
X15699267Y-26371632D01*
X15699268Y-26371632D01*
X15701994Y-26370296D01*
X15883860Y-26240573D01*
X15886012Y-26238429D01*
X16039941Y-26085037D01*
X16039944Y-26085034D01*
X16042096Y-26082889D01*
X16172453Y-25901477D01*
X16175052Y-25896219D01*
X16270082Y-25703939D01*
X16270083Y-25703936D01*
X16271430Y-25701211D01*
X16278681Y-25677347D01*
X16335488Y-25490372D01*
X16336370Y-25487469D01*
X16337919Y-25475705D01*
X16365272Y-25267944D01*
X16365272Y-25267939D01*
X16365529Y-25265990D01*
X16367156Y-25199400D01*
X16365134Y-25174800D01*
X16349101Y-24979786D01*
X16349100Y-24979782D01*
X16348852Y-24976761D01*
X16344748Y-24960420D01*
X16295169Y-24763040D01*
X16294431Y-24760102D01*
X16284219Y-24736617D01*
X16206564Y-24558022D01*
X16206562Y-24558019D01*
X16205354Y-24555240D01*
X16084014Y-24367677D01*
X15981134Y-24254613D01*
X15935713Y-24204696D01*
X15935712Y-24204695D01*
X15933670Y-24202451D01*
X15908069Y-24182232D01*
X15775378Y-24077439D01*
X15758359Y-24063998D01*
X15632008Y-23994249D01*
X15598733Y-23956105D01*
X15597761Y-23905495D01*
X15629547Y-23866101D01*
X15635215Y-23863011D01*
X15699267Y-23831632D01*
X15699268Y-23831632D01*
X15701994Y-23830296D01*
X15883860Y-23700573D01*
X15886012Y-23698429D01*
X16039941Y-23545037D01*
X16039944Y-23545034D01*
X16042096Y-23542889D01*
X16172453Y-23361477D01*
X16242957Y-23218823D01*
X16270082Y-23163939D01*
X16270083Y-23163936D01*
X16271430Y-23161211D01*
X16278263Y-23138723D01*
X16335488Y-22950372D01*
X16336370Y-22947469D01*
X16338397Y-22932076D01*
X16365272Y-22727944D01*
X16365272Y-22727939D01*
X16365529Y-22725990D01*
X16367156Y-22659400D01*
X16364835Y-22631166D01*
X16349101Y-22439786D01*
X16349100Y-22439782D01*
X16348852Y-22436761D01*
X16341179Y-22406211D01*
X16295169Y-22223040D01*
X16294431Y-22220102D01*
X16280779Y-22188705D01*
X16206564Y-22018022D01*
X16206562Y-22018019D01*
X16205354Y-22015240D01*
X16084014Y-21827677D01*
X15933670Y-21662451D01*
X15908069Y-21642232D01*
X15760743Y-21525881D01*
X15758359Y-21523998D01*
X15632008Y-21454249D01*
X15598733Y-21416105D01*
X15597761Y-21365495D01*
X15629547Y-21326101D01*
X15635215Y-21323011D01*
X15699267Y-21291632D01*
X15699268Y-21291632D01*
X15701994Y-21290296D01*
X15883860Y-21160573D01*
X15941089Y-21103544D01*
X16039941Y-21005037D01*
X16039944Y-21005034D01*
X16042096Y-21002889D01*
X16172453Y-20821477D01*
X16178386Y-20809473D01*
X16270082Y-20623939D01*
X16270083Y-20623936D01*
X16271430Y-20621211D01*
X16274273Y-20611856D01*
X16335488Y-20410372D01*
X16336370Y-20407469D01*
X16363780Y-20199275D01*
X16365272Y-20187944D01*
X16365272Y-20187939D01*
X16365529Y-20185990D01*
X16367156Y-20119400D01*
X16366995Y-20117439D01*
X16349101Y-19899786D01*
X16349100Y-19899782D01*
X16348852Y-19896761D01*
X16340616Y-19863970D01*
X16295169Y-19683040D01*
X16294431Y-19680102D01*
X16280779Y-19648705D01*
X16206564Y-19478022D01*
X16206562Y-19478019D01*
X16205354Y-19475240D01*
X16084014Y-19287677D01*
X15940972Y-19130476D01*
X15935713Y-19124696D01*
X15935712Y-19124695D01*
X15933670Y-19122451D01*
X15908069Y-19102232D01*
X15809156Y-19024115D01*
X15758359Y-18983998D01*
X15632008Y-18914249D01*
X15598733Y-18876105D01*
X15597761Y-18825495D01*
X15629547Y-18786101D01*
X15635215Y-18783011D01*
X15699267Y-18751632D01*
X15699268Y-18751632D01*
X15701994Y-18750296D01*
X15883860Y-18620573D01*
X15910200Y-18594325D01*
X16039941Y-18465037D01*
X16039944Y-18465034D01*
X16042096Y-18462889D01*
X16172453Y-18281477D01*
X16173798Y-18278756D01*
X16270082Y-18083939D01*
X16270083Y-18083936D01*
X16271430Y-18081211D01*
X16286359Y-18032076D01*
X16335488Y-17870372D01*
X16336370Y-17867469D01*
X16342291Y-17822499D01*
X16365272Y-17647944D01*
X16365272Y-17647939D01*
X16365529Y-17645990D01*
X16367156Y-17579400D01*
X16365356Y-17557501D01*
X16349101Y-17359786D01*
X16349100Y-17359782D01*
X16348852Y-17356761D01*
X16346633Y-17347924D01*
X16295169Y-17143040D01*
X16294431Y-17140102D01*
X16280779Y-17108705D01*
X16206564Y-16938022D01*
X16206562Y-16938019D01*
X16205354Y-16935240D01*
X16084014Y-16747677D01*
X16019989Y-16677314D01*
X15935713Y-16584696D01*
X15935712Y-16584695D01*
X15933670Y-16582451D01*
X15925182Y-16575747D01*
X15817176Y-16490449D01*
X15758359Y-16443998D01*
X15632008Y-16374249D01*
X15598733Y-16336105D01*
X15597761Y-16285495D01*
X15629547Y-16246101D01*
X15635215Y-16243011D01*
X15699267Y-16211632D01*
X15699268Y-16211632D01*
X15701994Y-16210296D01*
X15883860Y-16080573D01*
X15949387Y-16015275D01*
X16039941Y-15925037D01*
X16039944Y-15925034D01*
X16042096Y-15922889D01*
X16172453Y-15741477D01*
X16183033Y-15720070D01*
X16270082Y-15543939D01*
X16270083Y-15543936D01*
X16271430Y-15541211D01*
X16277910Y-15519885D01*
X16335488Y-15330372D01*
X16336370Y-15327469D01*
X16351027Y-15216144D01*
X16365272Y-15107944D01*
X16365272Y-15107939D01*
X16365529Y-15105990D01*
X16367156Y-15039400D01*
X16366995Y-15037439D01*
X16349101Y-14819786D01*
X16349100Y-14819782D01*
X16348852Y-14816761D01*
X16346223Y-14806292D01*
X16295169Y-14603040D01*
X16294431Y-14600102D01*
X16280440Y-14567924D01*
X16206564Y-14398022D01*
X16206562Y-14398019D01*
X16205354Y-14395240D01*
X16084014Y-14207677D01*
X15971202Y-14083698D01*
X15935713Y-14044696D01*
X15935712Y-14044695D01*
X15933670Y-14042451D01*
X15923651Y-14034538D01*
X15802013Y-13938474D01*
X15758359Y-13903998D01*
X15624960Y-13830358D01*
X15565451Y-13797507D01*
X15565446Y-13797505D01*
X15562789Y-13796038D01*
X15529241Y-13784158D01*
X15355082Y-13722485D01*
X15355078Y-13722484D01*
X15352212Y-13721469D01*
X15349217Y-13720935D01*
X15349215Y-13720935D01*
X15242248Y-13701881D01*
X15132284Y-13682294D01*
X14988381Y-13680536D01*
X14911949Y-13679602D01*
X14911948Y-13679602D01*
X14908911Y-13679565D01*
X14845397Y-13689284D01*
X14691095Y-13712895D01*
X14691091Y-13712896D01*
X14688091Y-13713355D01*
X14685202Y-13714299D01*
X14685199Y-13714300D01*
X14478640Y-13781814D01*
X14478636Y-13781816D01*
X14475756Y-13782757D01*
X14277607Y-13885907D01*
X14275186Y-13887725D01*
X14275184Y-13887726D01*
X14237059Y-13916351D01*
X14098965Y-14020035D01*
X14096868Y-14022229D01*
X14096865Y-14022232D01*
X13946725Y-14179344D01*
X13946721Y-14179348D01*
X13944629Y-14181538D01*
X13818743Y-14366080D01*
X13817464Y-14368835D01*
X13817463Y-14368837D01*
X13812990Y-14378474D01*
X13724688Y-14568705D01*
X13664989Y-14783970D01*
X13641251Y-15006095D01*
X13654110Y-15229115D01*
X13654774Y-15232062D01*
X13654775Y-15232068D01*
X13690219Y-15389341D01*
X13703222Y-15447039D01*
X13725123Y-15500975D01*
X13779830Y-15635702D01*
X13787266Y-15654016D01*
X13827744Y-15720070D01*
X13884102Y-15812038D01*
X13903987Y-15844488D01*
X13905975Y-15846784D01*
X13905978Y-15846787D01*
X13971900Y-15922889D01*
X14050250Y-16013338D01*
X14222126Y-16156032D01*
X14376775Y-16246401D01*
X14409109Y-16285347D01*
X14408844Y-16335965D01*
X14373610Y-16375931D01*
X14277607Y-16425907D01*
X14275186Y-16427725D01*
X14275184Y-16427726D01*
X14264252Y-16435934D01*
X14098965Y-16560035D01*
X14096868Y-16562229D01*
X14096865Y-16562232D01*
X13946725Y-16719344D01*
X13946721Y-16719348D01*
X13944629Y-16721538D01*
X13942919Y-16724045D01*
X13942918Y-16724046D01*
X13886595Y-16806613D01*
X13818743Y-16906080D01*
X13724688Y-17108705D01*
X13664989Y-17323970D01*
X13641251Y-17546095D01*
X13654110Y-17769115D01*
X13654774Y-17772062D01*
X13654775Y-17772068D01*
X13680310Y-17885372D01*
X13703222Y-17987039D01*
X13722700Y-18035007D01*
X13772525Y-18157712D01*
X13787266Y-18194016D01*
X13811462Y-18233500D01*
X13896486Y-18372247D01*
X13903987Y-18384488D01*
X13905975Y-18386784D01*
X13905978Y-18386787D01*
X13973761Y-18465037D01*
X14050250Y-18553338D01*
X14052582Y-18555274D01*
X14052583Y-18555275D01*
X14077191Y-18575705D01*
X14222126Y-18696032D01*
X14376775Y-18786401D01*
X14409109Y-18825347D01*
X14408844Y-18875965D01*
X14373610Y-18915931D01*
X14277607Y-18965907D01*
X14098965Y-19100035D01*
X14096868Y-19102229D01*
X14096865Y-19102232D01*
X13946725Y-19259344D01*
X13946721Y-19259348D01*
X13944629Y-19261538D01*
X13818743Y-19446080D01*
X13724688Y-19648705D01*
X13664989Y-19863970D01*
X13641251Y-20086095D01*
X13654110Y-20309115D01*
X13654774Y-20312062D01*
X13654775Y-20312068D01*
X13683263Y-20438474D01*
X13703222Y-20527039D01*
X13704364Y-20529851D01*
X13750421Y-20643276D01*
X13787266Y-20734016D01*
X13828997Y-20802115D01*
X13898146Y-20914956D01*
X13903987Y-20924488D01*
X13905975Y-20926784D01*
X13905978Y-20926787D01*
X13971900Y-21002889D01*
X14050250Y-21093338D01*
X14222126Y-21236032D01*
X14376775Y-21326401D01*
X14409109Y-21365347D01*
X14408844Y-21415965D01*
X14373610Y-21455931D01*
X14277607Y-21505907D01*
X14098965Y-21640035D01*
X14096868Y-21642229D01*
X14096865Y-21642232D01*
X13946725Y-21799344D01*
X13946721Y-21799348D01*
X13944629Y-21801538D01*
X13818743Y-21986080D01*
X13817464Y-21988835D01*
X13817463Y-21988837D01*
X13788695Y-22050814D01*
X13724688Y-22188705D01*
X13664989Y-22403970D01*
X13664666Y-22406989D01*
X13664666Y-22406991D01*
X13663720Y-22415840D01*
X13641251Y-22626095D01*
X13654110Y-22849115D01*
X13654774Y-22852062D01*
X13654775Y-22852068D01*
X13677792Y-22954198D01*
X13703222Y-23067039D01*
X13717093Y-23101199D01*
X13777606Y-23250225D01*
X13787266Y-23274016D01*
X13822456Y-23331441D01*
X13895598Y-23450798D01*
X13903987Y-23464488D01*
X13905975Y-23466784D01*
X13905978Y-23466787D01*
X13971900Y-23542889D01*
X14050250Y-23633338D01*
X14052582Y-23635274D01*
X14052583Y-23635275D01*
X14067432Y-23647603D01*
X14222126Y-23776032D01*
X14376775Y-23866401D01*
X14409109Y-23905347D01*
X14408844Y-23955965D01*
X14373610Y-23995931D01*
X14277607Y-24045907D01*
X14275186Y-24047725D01*
X14275184Y-24047726D01*
X14235610Y-24077439D01*
X14098965Y-24180035D01*
X14096868Y-24182229D01*
X14096865Y-24182232D01*
X13946725Y-24339344D01*
X13946721Y-24339348D01*
X13944629Y-24341538D01*
X13942919Y-24344045D01*
X13942918Y-24344046D01*
X13910000Y-24392302D01*
X13818743Y-24526080D01*
X13817464Y-24528835D01*
X13817463Y-24528837D01*
X13807322Y-24550685D01*
X13724688Y-24728705D01*
X13664989Y-24943970D01*
X13664666Y-24946989D01*
X13664666Y-24946991D01*
X13655029Y-25037172D01*
X13641251Y-25166095D01*
X13208500Y-25166095D01*
X13208500Y-13582500D01*
X13225813Y-13534934D01*
X13269650Y-13509624D01*
X13282500Y-13508500D01*
X43359500Y-13508500D01*
X43407066Y-13525813D01*
G37*
%TD.AperFunction*%
%TA.AperFunction,Conductor*%
G36*
X40035326Y-15217272D02*
G01*
X40045500Y-15254719D01*
X40045500Y-15937534D01*
X40052255Y-15999716D01*
X40053884Y-16004060D01*
X40053884Y-16004062D01*
X40087622Y-16094056D01*
X40103385Y-16136105D01*
X40190739Y-16252661D01*
X40307295Y-16340015D01*
X40312231Y-16341866D01*
X40312234Y-16341867D01*
X40439338Y-16389516D01*
X40439340Y-16389516D01*
X40443684Y-16391145D01*
X40481978Y-16395305D01*
X40502201Y-16397502D01*
X40547619Y-16419850D01*
X40568046Y-16466165D01*
X40553924Y-16514774D01*
X40538640Y-16530246D01*
X40498965Y-16560035D01*
X40496864Y-16562234D01*
X40496859Y-16562238D01*
X40386889Y-16677314D01*
X40341510Y-16699742D01*
X40292331Y-16687753D01*
X40286221Y-16683207D01*
X40165375Y-16583234D01*
X40165374Y-16583233D01*
X40162580Y-16580922D01*
X40153009Y-16575747D01*
X40000417Y-16493241D01*
X40000412Y-16493239D01*
X39997231Y-16491519D01*
X39993777Y-16490450D01*
X39993775Y-16490449D01*
X39915326Y-16466165D01*
X39817666Y-16435934D01*
X39630724Y-16416285D01*
X39443526Y-16433322D01*
X39433904Y-16436154D01*
X39266673Y-16485372D01*
X39266669Y-16485374D01*
X39263202Y-16486394D01*
X39222260Y-16507798D01*
X39099828Y-16571803D01*
X39099825Y-16571805D01*
X39096621Y-16573480D01*
X38950128Y-16691264D01*
X38947802Y-16694036D01*
X38947800Y-16694038D01*
X38913379Y-16735060D01*
X38829302Y-16835259D01*
X38802924Y-16883241D01*
X38778235Y-16928150D01*
X38740148Y-16961492D01*
X38713388Y-16966500D01*
X38131285Y-16966500D01*
X38083719Y-16949187D01*
X38070668Y-16934945D01*
X38028954Y-16875372D01*
X37967749Y-16787962D01*
X37812038Y-16632251D01*
X37647005Y-16516693D01*
X37634302Y-16507798D01*
X37634301Y-16507797D01*
X37631654Y-16505944D01*
X37478106Y-16434344D01*
X37435008Y-16414247D01*
X37435006Y-16414246D01*
X37432076Y-16412880D01*
X37327563Y-16384875D01*
X37286100Y-16355843D01*
X37272999Y-16306948D01*
X37294391Y-16261072D01*
X37327564Y-16241920D01*
X37465248Y-16205027D01*
X37532076Y-16187120D01*
X37731654Y-16094056D01*
X37912038Y-15967749D01*
X38067749Y-15812038D01*
X38169926Y-15666114D01*
X38211389Y-15637082D01*
X38236606Y-15634964D01*
X38239909Y-15635702D01*
X38244564Y-15635556D01*
X38244568Y-15635556D01*
X38308781Y-15633537D01*
X38311106Y-15633500D01*
X38339856Y-15633500D01*
X38342153Y-15633210D01*
X38342167Y-15633209D01*
X38346305Y-15632686D01*
X38353252Y-15632139D01*
X38399889Y-15630673D01*
X38406624Y-15628716D01*
X38423273Y-15623880D01*
X38434641Y-15621526D01*
X38454177Y-15619058D01*
X38454180Y-15619057D01*
X38458797Y-15618474D01*
X38502189Y-15601294D01*
X38508804Y-15599030D01*
X38509698Y-15598770D01*
X38510013Y-15598679D01*
X38560519Y-15602059D01*
X38566726Y-15605155D01*
X38665250Y-15660219D01*
X38665254Y-15660221D01*
X38668409Y-15661984D01*
X38847180Y-15720070D01*
X38904726Y-15726932D01*
X39030230Y-15741898D01*
X39030233Y-15741898D01*
X39033830Y-15742327D01*
X39095825Y-15737557D01*
X39217636Y-15728184D01*
X39217637Y-15728184D01*
X39221247Y-15727906D01*
X39402294Y-15677356D01*
X39419670Y-15668579D01*
X39566841Y-15594238D01*
X39566844Y-15594236D01*
X39570075Y-15592604D01*
X39718199Y-15476877D01*
X39841023Y-15334584D01*
X39842806Y-15331445D01*
X39842809Y-15331441D01*
X39907157Y-15218167D01*
X39945706Y-15185360D01*
X39996323Y-15185007D01*
X40035326Y-15217272D01*
G37*
%TD.AperFunction*%
%TD*%
M02*
