%TF.GenerationSoftware,KiCad,Pcbnew,(6.0.7)*%
%TF.CreationDate,2023-01-30T20:46:25-05:00*%
%TF.ProjectId,SPItoCAN,53504974-6f43-4414-9e2e-6b696361645f,rev?*%
%TF.SameCoordinates,Original*%
%TF.FileFunction,Legend,Top*%
%TF.FilePolarity,Positive*%
%FSLAX46Y46*%
G04 Gerber Fmt 4.6, Leading zero omitted, Abs format (unit mm)*
G04 Created by KiCad (PCBNEW (6.0.7)) date 2023-01-30 20:46:25*
%MOMM*%
%LPD*%
G01*
G04 APERTURE LIST*
%ADD10C,0.160000*%
%ADD11C,0.254000*%
%ADD12C,0.120000*%
%ADD13C,0.150000*%
%ADD14C,0.250000*%
%ADD15C,0.200000*%
%ADD16C,0.155000*%
%ADD17C,0.100000*%
G04 APERTURE END LIST*
D10*
X16992695Y-27135200D02*
X16897457Y-27087580D01*
X16754600Y-27087580D01*
X16611742Y-27135200D01*
X16516504Y-27230438D01*
X16468885Y-27325676D01*
X16421266Y-27516152D01*
X16421266Y-27659009D01*
X16468885Y-27849485D01*
X16516504Y-27944723D01*
X16611742Y-28039961D01*
X16754600Y-28087580D01*
X16849838Y-28087580D01*
X16992695Y-28039961D01*
X17040314Y-27992342D01*
X17040314Y-27659009D01*
X16849838Y-27659009D01*
X17468885Y-28087580D02*
X17468885Y-27087580D01*
X18040314Y-28087580D01*
X18040314Y-27087580D01*
X18516504Y-28087580D02*
X18516504Y-27087580D01*
X18754600Y-27087580D01*
X18897457Y-27135200D01*
X18992695Y-27230438D01*
X19040314Y-27325676D01*
X19087933Y-27516152D01*
X19087933Y-27659009D01*
X19040314Y-27849485D01*
X18992695Y-27944723D01*
X18897457Y-28039961D01*
X18754600Y-28087580D01*
X18516504Y-28087580D01*
X37009533Y-16079742D02*
X36961914Y-16127361D01*
X36819057Y-16174980D01*
X36723819Y-16174980D01*
X36580961Y-16127361D01*
X36485723Y-16032123D01*
X36438104Y-15936885D01*
X36390485Y-15746409D01*
X36390485Y-15603552D01*
X36438104Y-15413076D01*
X36485723Y-15317838D01*
X36580961Y-15222600D01*
X36723819Y-15174980D01*
X36819057Y-15174980D01*
X36961914Y-15222600D01*
X37009533Y-15270219D01*
X37390485Y-15889266D02*
X37866676Y-15889266D01*
X37295247Y-16174980D02*
X37628580Y-15174980D01*
X37961914Y-16174980D01*
X38295247Y-16174980D02*
X38295247Y-15174980D01*
X38866676Y-16174980D01*
X38866676Y-15174980D01*
X39342866Y-16174980D02*
X39342866Y-15174980D01*
X39342866Y-15651171D02*
X39914295Y-15651171D01*
X39914295Y-16174980D02*
X39914295Y-15174980D01*
X37339733Y-28144742D02*
X37292114Y-28192361D01*
X37149257Y-28239980D01*
X37054019Y-28239980D01*
X36911161Y-28192361D01*
X36815923Y-28097123D01*
X36768304Y-28001885D01*
X36720685Y-27811409D01*
X36720685Y-27668552D01*
X36768304Y-27478076D01*
X36815923Y-27382838D01*
X36911161Y-27287600D01*
X37054019Y-27239980D01*
X37149257Y-27239980D01*
X37292114Y-27287600D01*
X37339733Y-27335219D01*
X37720685Y-27954266D02*
X38196876Y-27954266D01*
X37625447Y-28239980D02*
X37958780Y-27239980D01*
X38292114Y-28239980D01*
X38625447Y-28239980D02*
X38625447Y-27239980D01*
X39196876Y-28239980D01*
X39196876Y-27239980D01*
X39673066Y-28239980D02*
X39673066Y-27239980D01*
X39673066Y-27716171D02*
X40244495Y-27716171D01*
X40244495Y-28239980D02*
X40244495Y-27239980D01*
X16595838Y-15489180D02*
X16595838Y-14489180D01*
X17072028Y-15489180D02*
X17072028Y-14489180D01*
X17643457Y-15489180D01*
X17643457Y-14489180D01*
X17976790Y-14489180D02*
X18548219Y-14489180D01*
X18262504Y-15489180D02*
X18262504Y-14489180D01*
X16392685Y-18057761D02*
X16535542Y-18105380D01*
X16773638Y-18105380D01*
X16868876Y-18057761D01*
X16916495Y-18010142D01*
X16964114Y-17914904D01*
X16964114Y-17819666D01*
X16916495Y-17724428D01*
X16868876Y-17676809D01*
X16773638Y-17629190D01*
X16583161Y-17581571D01*
X16487923Y-17533952D01*
X16440304Y-17486333D01*
X16392685Y-17391095D01*
X16392685Y-17295857D01*
X16440304Y-17200619D01*
X16487923Y-17153000D01*
X16583161Y-17105380D01*
X16821257Y-17105380D01*
X16964114Y-17153000D01*
X17964114Y-18010142D02*
X17916495Y-18057761D01*
X17773638Y-18105380D01*
X17678400Y-18105380D01*
X17535542Y-18057761D01*
X17440304Y-17962523D01*
X17392685Y-17867285D01*
X17345066Y-17676809D01*
X17345066Y-17533952D01*
X17392685Y-17343476D01*
X17440304Y-17248238D01*
X17535542Y-17153000D01*
X17678400Y-17105380D01*
X17773638Y-17105380D01*
X17916495Y-17153000D01*
X17964114Y-17200619D01*
X18392685Y-18105380D02*
X18392685Y-17105380D01*
X18964114Y-18105380D02*
X18535542Y-17533952D01*
X18964114Y-17105380D02*
X18392685Y-17676809D01*
X13652666Y-31710380D02*
X13986000Y-32710380D01*
X14319333Y-31710380D01*
X15224095Y-32615142D02*
X15176476Y-32662761D01*
X15033619Y-32710380D01*
X14938380Y-32710380D01*
X14795523Y-32662761D01*
X14700285Y-32567523D01*
X14652666Y-32472285D01*
X14605047Y-32281809D01*
X14605047Y-32138952D01*
X14652666Y-31948476D01*
X14700285Y-31853238D01*
X14795523Y-31758000D01*
X14938380Y-31710380D01*
X15033619Y-31710380D01*
X15176476Y-31758000D01*
X15224095Y-31805619D01*
X16224095Y-32615142D02*
X16176476Y-32662761D01*
X16033619Y-32710380D01*
X15938380Y-32710380D01*
X15795523Y-32662761D01*
X15700285Y-32567523D01*
X15652666Y-32472285D01*
X15605047Y-32281809D01*
X15605047Y-32138952D01*
X15652666Y-31948476D01*
X15700285Y-31853238D01*
X15795523Y-31758000D01*
X15938380Y-31710380D01*
X16033619Y-31710380D01*
X16176476Y-31758000D01*
X16224095Y-31805619D01*
X17410133Y-25503142D02*
X17362514Y-25550761D01*
X17219657Y-25598380D01*
X17124419Y-25598380D01*
X16981561Y-25550761D01*
X16886323Y-25455523D01*
X16838704Y-25360285D01*
X16791085Y-25169809D01*
X16791085Y-25026952D01*
X16838704Y-24836476D01*
X16886323Y-24741238D01*
X16981561Y-24646000D01*
X17124419Y-24598380D01*
X17219657Y-24598380D01*
X17362514Y-24646000D01*
X17410133Y-24693619D01*
X17791085Y-25550761D02*
X17933942Y-25598380D01*
X18172038Y-25598380D01*
X18267276Y-25550761D01*
X18314895Y-25503142D01*
X18362514Y-25407904D01*
X18362514Y-25312666D01*
X18314895Y-25217428D01*
X18267276Y-25169809D01*
X18172038Y-25122190D01*
X17981561Y-25074571D01*
X17886323Y-25026952D01*
X17838704Y-24979333D01*
X17791085Y-24884095D01*
X17791085Y-24788857D01*
X17838704Y-24693619D01*
X17886323Y-24646000D01*
X17981561Y-24598380D01*
X18219657Y-24598380D01*
X18362514Y-24646000D01*
X17154590Y-20546961D02*
X17297447Y-20594580D01*
X17535542Y-20594580D01*
X17630780Y-20546961D01*
X17678400Y-20499342D01*
X17726019Y-20404104D01*
X17726019Y-20308866D01*
X17678400Y-20213628D01*
X17630780Y-20166009D01*
X17535542Y-20118390D01*
X17345066Y-20070771D01*
X17249828Y-20023152D01*
X17202209Y-19975533D01*
X17154590Y-19880295D01*
X17154590Y-19785057D01*
X17202209Y-19689819D01*
X17249828Y-19642200D01*
X17345066Y-19594580D01*
X17583161Y-19594580D01*
X17726019Y-19642200D01*
X18154590Y-20594580D02*
X18154590Y-19594580D01*
X37382580Y-30760942D02*
X37334961Y-30808561D01*
X37192104Y-30856180D01*
X37096866Y-30856180D01*
X36954009Y-30808561D01*
X36858771Y-30713323D01*
X36811152Y-30618085D01*
X36763533Y-30427609D01*
X36763533Y-30284752D01*
X36811152Y-30094276D01*
X36858771Y-29999038D01*
X36954009Y-29903800D01*
X37096866Y-29856180D01*
X37192104Y-29856180D01*
X37334961Y-29903800D01*
X37382580Y-29951419D01*
X37763533Y-30570466D02*
X38239723Y-30570466D01*
X37668295Y-30856180D02*
X38001628Y-29856180D01*
X38334961Y-30856180D01*
X38668295Y-30856180D02*
X38668295Y-29856180D01*
X39239723Y-30856180D01*
X39239723Y-29856180D01*
X40192104Y-30856180D02*
X39715914Y-30856180D01*
X39715914Y-29856180D01*
X37306380Y-23242542D02*
X37258761Y-23290161D01*
X37115904Y-23337780D01*
X37020666Y-23337780D01*
X36877809Y-23290161D01*
X36782571Y-23194923D01*
X36734952Y-23099685D01*
X36687333Y-22909209D01*
X36687333Y-22766352D01*
X36734952Y-22575876D01*
X36782571Y-22480638D01*
X36877809Y-22385400D01*
X37020666Y-22337780D01*
X37115904Y-22337780D01*
X37258761Y-22385400D01*
X37306380Y-22433019D01*
X37687333Y-23052066D02*
X38163523Y-23052066D01*
X37592095Y-23337780D02*
X37925428Y-22337780D01*
X38258761Y-23337780D01*
X38592095Y-23337780D02*
X38592095Y-22337780D01*
X39163523Y-23337780D01*
X39163523Y-22337780D01*
X40115904Y-23337780D02*
X39639714Y-23337780D01*
X39639714Y-22337780D01*
X37187333Y-21667742D02*
X37139714Y-21715361D01*
X36996857Y-21762980D01*
X36901619Y-21762980D01*
X36758761Y-21715361D01*
X36663523Y-21620123D01*
X36615904Y-21524885D01*
X36568285Y-21334409D01*
X36568285Y-21191552D01*
X36615904Y-21001076D01*
X36663523Y-20905838D01*
X36758761Y-20810600D01*
X36901619Y-20762980D01*
X36996857Y-20762980D01*
X37139714Y-20810600D01*
X37187333Y-20858219D01*
X37568285Y-21477266D02*
X38044476Y-21477266D01*
X37473047Y-21762980D02*
X37806380Y-20762980D01*
X38139714Y-21762980D01*
X38473047Y-21762980D02*
X38473047Y-20762980D01*
X39044476Y-21762980D01*
X39044476Y-20762980D01*
X39520666Y-21762980D02*
X39520666Y-20762980D01*
X39520666Y-21239171D02*
X40092095Y-21239171D01*
X40092095Y-21762980D02*
X40092095Y-20762980D01*
X16894276Y-23010761D02*
X17037133Y-23058380D01*
X17275228Y-23058380D01*
X17370466Y-23010761D01*
X17418085Y-22963142D01*
X17465704Y-22867904D01*
X17465704Y-22772666D01*
X17418085Y-22677428D01*
X17370466Y-22629809D01*
X17275228Y-22582190D01*
X17084752Y-22534571D01*
X16989514Y-22486952D01*
X16941895Y-22439333D01*
X16894276Y-22344095D01*
X16894276Y-22248857D01*
X16941895Y-22153619D01*
X16989514Y-22106000D01*
X17084752Y-22058380D01*
X17322847Y-22058380D01*
X17465704Y-22106000D01*
X18084752Y-22058380D02*
X18275228Y-22058380D01*
X18370466Y-22106000D01*
X18465704Y-22201238D01*
X18513323Y-22391714D01*
X18513323Y-22725047D01*
X18465704Y-22915523D01*
X18370466Y-23010761D01*
X18275228Y-23058380D01*
X18084752Y-23058380D01*
X17989514Y-23010761D01*
X17894276Y-22915523D01*
X17846657Y-22725047D01*
X17846657Y-22391714D01*
X17894276Y-22201238D01*
X17989514Y-22106000D01*
X18084752Y-22058380D01*
X36925380Y-18695942D02*
X36877761Y-18743561D01*
X36734904Y-18791180D01*
X36639666Y-18791180D01*
X36496809Y-18743561D01*
X36401571Y-18648323D01*
X36353952Y-18553085D01*
X36306333Y-18362609D01*
X36306333Y-18219752D01*
X36353952Y-18029276D01*
X36401571Y-17934038D01*
X36496809Y-17838800D01*
X36639666Y-17791180D01*
X36734904Y-17791180D01*
X36877761Y-17838800D01*
X36925380Y-17886419D01*
X37306333Y-18505466D02*
X37782523Y-18505466D01*
X37211095Y-18791180D02*
X37544428Y-17791180D01*
X37877761Y-18791180D01*
X38211095Y-18791180D02*
X38211095Y-17791180D01*
X38782523Y-18791180D01*
X38782523Y-17791180D01*
X39734904Y-18791180D02*
X39258714Y-18791180D01*
X39258714Y-17791180D01*
%TO.C,C4*%
X19137333Y-34393142D02*
X19089714Y-34440761D01*
X18946857Y-34488380D01*
X18851619Y-34488380D01*
X18708761Y-34440761D01*
X18613523Y-34345523D01*
X18565904Y-34250285D01*
X18518285Y-34059809D01*
X18518285Y-33916952D01*
X18565904Y-33726476D01*
X18613523Y-33631238D01*
X18708761Y-33536000D01*
X18851619Y-33488380D01*
X18946857Y-33488380D01*
X19089714Y-33536000D01*
X19137333Y-33583619D01*
X19994476Y-33821714D02*
X19994476Y-34488380D01*
X19756380Y-33440761D02*
X19518285Y-34155047D01*
X20137333Y-34155047D01*
%TO.C,R1*%
X22947333Y-29179780D02*
X22614000Y-28703590D01*
X22375904Y-29179780D02*
X22375904Y-28179780D01*
X22756857Y-28179780D01*
X22852095Y-28227400D01*
X22899714Y-28275019D01*
X22947333Y-28370257D01*
X22947333Y-28513114D01*
X22899714Y-28608352D01*
X22852095Y-28655971D01*
X22756857Y-28703590D01*
X22375904Y-28703590D01*
X23899714Y-29179780D02*
X23328285Y-29179780D01*
X23614000Y-29179780D02*
X23614000Y-28179780D01*
X23518761Y-28322638D01*
X23423523Y-28417876D01*
X23328285Y-28465495D01*
%TO.C,D1*%
X28028095Y-29179780D02*
X28028095Y-28179780D01*
X28266190Y-28179780D01*
X28409047Y-28227400D01*
X28504285Y-28322638D01*
X28551904Y-28417876D01*
X28599523Y-28608352D01*
X28599523Y-28751209D01*
X28551904Y-28941685D01*
X28504285Y-29036923D01*
X28409047Y-29132161D01*
X28266190Y-29179780D01*
X28028095Y-29179780D01*
X29551904Y-29179780D02*
X28980476Y-29179780D01*
X29266190Y-29179780D02*
X29266190Y-28179780D01*
X29170952Y-28322638D01*
X29075714Y-28417876D01*
X28980476Y-28465495D01*
%TO.C,C3*%
X20011142Y-31446066D02*
X20058761Y-31493685D01*
X20106380Y-31636542D01*
X20106380Y-31731780D01*
X20058761Y-31874638D01*
X19963523Y-31969876D01*
X19868285Y-32017495D01*
X19677809Y-32065114D01*
X19534952Y-32065114D01*
X19344476Y-32017495D01*
X19249238Y-31969876D01*
X19154000Y-31874638D01*
X19106380Y-31731780D01*
X19106380Y-31636542D01*
X19154000Y-31493685D01*
X19201619Y-31446066D01*
X19106380Y-31112733D02*
X19106380Y-30493685D01*
X19487333Y-30827019D01*
X19487333Y-30684161D01*
X19534952Y-30588923D01*
X19582571Y-30541304D01*
X19677809Y-30493685D01*
X19915904Y-30493685D01*
X20011142Y-30541304D01*
X20058761Y-30588923D01*
X20106380Y-30684161D01*
X20106380Y-30969876D01*
X20058761Y-31065114D01*
X20011142Y-31112733D01*
%TO.C,R3*%
X25477333Y-29179780D02*
X25144000Y-28703590D01*
X24905904Y-29179780D02*
X24905904Y-28179780D01*
X25286857Y-28179780D01*
X25382095Y-28227400D01*
X25429714Y-28275019D01*
X25477333Y-28370257D01*
X25477333Y-28513114D01*
X25429714Y-28608352D01*
X25382095Y-28655971D01*
X25286857Y-28703590D01*
X24905904Y-28703590D01*
X25810666Y-28179780D02*
X26429714Y-28179780D01*
X26096380Y-28560733D01*
X26239238Y-28560733D01*
X26334476Y-28608352D01*
X26382095Y-28655971D01*
X26429714Y-28751209D01*
X26429714Y-28989304D01*
X26382095Y-29084542D01*
X26334476Y-29132161D01*
X26239238Y-29179780D01*
X25953523Y-29179780D01*
X25858285Y-29132161D01*
X25810666Y-29084542D01*
D11*
%TO.C,U1*%
X37658523Y-33759019D02*
X38686619Y-33759019D01*
X38807571Y-33698542D01*
X38868047Y-33638066D01*
X38928523Y-33517114D01*
X38928523Y-33275209D01*
X38868047Y-33154257D01*
X38807571Y-33093780D01*
X38686619Y-33033304D01*
X37658523Y-33033304D01*
X38928523Y-31763304D02*
X38928523Y-32489019D01*
X38928523Y-32126161D02*
X37658523Y-32126161D01*
X37839952Y-32247114D01*
X37960904Y-32368066D01*
X38021380Y-32489019D01*
D10*
%TO.C,C2*%
X35487333Y-14936542D02*
X35439714Y-14984161D01*
X35296857Y-15031780D01*
X35201619Y-15031780D01*
X35058761Y-14984161D01*
X34963523Y-14888923D01*
X34915904Y-14793685D01*
X34868285Y-14603209D01*
X34868285Y-14460352D01*
X34915904Y-14269876D01*
X34963523Y-14174638D01*
X35058761Y-14079400D01*
X35201619Y-14031780D01*
X35296857Y-14031780D01*
X35439714Y-14079400D01*
X35487333Y-14127019D01*
X35868285Y-14127019D02*
X35915904Y-14079400D01*
X36011142Y-14031780D01*
X36249238Y-14031780D01*
X36344476Y-14079400D01*
X36392095Y-14127019D01*
X36439714Y-14222257D01*
X36439714Y-14317495D01*
X36392095Y-14460352D01*
X35820666Y-15031780D01*
X36439714Y-15031780D01*
%TO.C,U2*%
X24130095Y-14209780D02*
X24130095Y-15019304D01*
X24177714Y-15114542D01*
X24225333Y-15162161D01*
X24320571Y-15209780D01*
X24511047Y-15209780D01*
X24606285Y-15162161D01*
X24653904Y-15114542D01*
X24701523Y-15019304D01*
X24701523Y-14209780D01*
X25130095Y-14305019D02*
X25177714Y-14257400D01*
X25272952Y-14209780D01*
X25511047Y-14209780D01*
X25606285Y-14257400D01*
X25653904Y-14305019D01*
X25701523Y-14400257D01*
X25701523Y-14495495D01*
X25653904Y-14638352D01*
X25082476Y-15209780D01*
X25701523Y-15209780D01*
%TO.C,C1*%
X35920666Y-21922257D02*
X35968285Y-21874638D01*
X36111142Y-21827019D01*
X36206380Y-21827019D01*
X36349238Y-21874638D01*
X36444476Y-21969876D01*
X36492095Y-22065114D01*
X36539714Y-22255590D01*
X36539714Y-22398447D01*
X36492095Y-22588923D01*
X36444476Y-22684161D01*
X36349238Y-22779400D01*
X36206380Y-22827019D01*
X36111142Y-22827019D01*
X35968285Y-22779400D01*
X35920666Y-22731780D01*
X34968285Y-21827019D02*
X35539714Y-21827019D01*
X35254000Y-21827019D02*
X35254000Y-22827019D01*
X35349238Y-22684161D01*
X35444476Y-22588923D01*
X35539714Y-22541304D01*
%TO.C,Y1*%
X31777809Y-22755590D02*
X31777809Y-23231780D01*
X31444476Y-22231780D02*
X31777809Y-22755590D01*
X32111142Y-22231780D01*
X32968285Y-23231780D02*
X32396857Y-23231780D01*
X32682571Y-23231780D02*
X32682571Y-22231780D01*
X32587333Y-22374638D01*
X32492095Y-22469876D01*
X32396857Y-22517495D01*
%TO.C,R2*%
X37206380Y-25096066D02*
X36730190Y-25429400D01*
X37206380Y-25667495D02*
X36206380Y-25667495D01*
X36206380Y-25286542D01*
X36254000Y-25191304D01*
X36301619Y-25143685D01*
X36396857Y-25096066D01*
X36539714Y-25096066D01*
X36634952Y-25143685D01*
X36682571Y-25191304D01*
X36730190Y-25286542D01*
X36730190Y-25667495D01*
X36301619Y-24715114D02*
X36254000Y-24667495D01*
X36206380Y-24572257D01*
X36206380Y-24334161D01*
X36254000Y-24238923D01*
X36301619Y-24191304D01*
X36396857Y-24143685D01*
X36492095Y-24143685D01*
X36634952Y-24191304D01*
X37206380Y-24762733D01*
X37206380Y-24143685D01*
%TO.C,C5*%
X25995333Y-33998542D02*
X25947714Y-34046161D01*
X25804857Y-34093780D01*
X25709619Y-34093780D01*
X25566761Y-34046161D01*
X25471523Y-33950923D01*
X25423904Y-33855685D01*
X25376285Y-33665209D01*
X25376285Y-33522352D01*
X25423904Y-33331876D01*
X25471523Y-33236638D01*
X25566761Y-33141400D01*
X25709619Y-33093780D01*
X25804857Y-33093780D01*
X25947714Y-33141400D01*
X25995333Y-33189019D01*
X26900095Y-33093780D02*
X26423904Y-33093780D01*
X26376285Y-33569971D01*
X26423904Y-33522352D01*
X26519142Y-33474733D01*
X26757238Y-33474733D01*
X26852476Y-33522352D01*
X26900095Y-33569971D01*
X26947714Y-33665209D01*
X26947714Y-33903304D01*
X26900095Y-33998542D01*
X26852476Y-34046161D01*
X26757238Y-34093780D01*
X26519142Y-34093780D01*
X26423904Y-34046161D01*
X26376285Y-33998542D01*
D12*
%TO.C,C4*%
X21614000Y-33641400D02*
X22614000Y-33641400D01*
X22614000Y-31941400D02*
X21614000Y-31941400D01*
%TO.C,J1*%
X42734000Y-29309400D02*
X42734000Y-31909400D01*
X40074000Y-26709400D02*
X41404000Y-26709400D01*
X40074000Y-29309400D02*
X42734000Y-29309400D01*
X40074000Y-31909400D02*
X42734000Y-31909400D01*
X40074000Y-29309400D02*
X40074000Y-31909400D01*
X40074000Y-28039400D02*
X40074000Y-26709400D01*
%TO.C,R1*%
X22944000Y-31149400D02*
X21744000Y-31149400D01*
X21744000Y-29389400D02*
X22944000Y-29389400D01*
%TO.C,J4*%
X16334000Y-31609400D02*
X15004000Y-31609400D01*
X16334000Y-29009400D02*
X13674000Y-29009400D01*
X16334000Y-13709400D02*
X13674000Y-13709400D01*
X16334000Y-30279400D02*
X16334000Y-31609400D01*
X16334000Y-29009400D02*
X16334000Y-13709400D01*
X13674000Y-29009400D02*
X13674000Y-13709400D01*
%TO.C,J2*%
X40074000Y-15039400D02*
X40074000Y-13709400D01*
X40074000Y-13709400D02*
X41404000Y-13709400D01*
X40074000Y-18909400D02*
X42734000Y-18909400D01*
X40074000Y-16309400D02*
X42734000Y-16309400D01*
X40074000Y-16309400D02*
X40074000Y-18909400D01*
X42734000Y-16309400D02*
X42734000Y-18909400D01*
D13*
%TO.C,D1*%
X29339000Y-29634400D02*
X29189000Y-29634400D01*
X29339000Y-30984400D02*
X29189000Y-30984400D01*
D14*
X31639000Y-30334400D02*
G75*
G03*
X31639000Y-30334400I-125000J0D01*
G01*
D12*
%TO.C,C3*%
X18714000Y-31779400D02*
X18714000Y-30779400D01*
X17014000Y-30779400D02*
X17014000Y-31779400D01*
%TO.C,R3*%
X25014000Y-29399400D02*
X26214000Y-29399400D01*
X26214000Y-31159400D02*
X25014000Y-31159400D01*
D15*
%TO.C,U1*%
X36834000Y-26729400D02*
X36834000Y-28256400D01*
X36706000Y-31802400D02*
X31802000Y-31802400D01*
X31802000Y-31802400D02*
X31802000Y-28606400D01*
X31802000Y-28606400D02*
X36706000Y-28606400D01*
X36706000Y-28606400D02*
X36706000Y-31802400D01*
D12*
%TO.C,C2*%
X35144000Y-16779679D02*
X35144000Y-16454121D01*
X36164000Y-16779679D02*
X36164000Y-16454121D01*
%TO.C,U2*%
X24954000Y-15694400D02*
X21094000Y-15694400D01*
D16*
X21094000Y-15694400D02*
X21094000Y-15939400D01*
X28814000Y-27464400D02*
X28814000Y-27219400D01*
X24954000Y-27464400D02*
X28814000Y-27464400D01*
X28814000Y-27219400D02*
X30629000Y-27219400D01*
X24954000Y-27464400D02*
X21094000Y-27464400D01*
X24954000Y-15694400D02*
X28814000Y-15694400D01*
X21094000Y-27464400D02*
X21094000Y-27219400D01*
D12*
X28814000Y-15694400D02*
X28814000Y-15939400D01*
%TO.C,C1*%
X35144000Y-19829121D02*
X35144000Y-20154679D01*
X36164000Y-19829121D02*
X36164000Y-20154679D01*
%TO.C,J3*%
X40074000Y-21539400D02*
X40074000Y-20209400D01*
X40074000Y-22809400D02*
X42734000Y-22809400D01*
X40074000Y-20209400D02*
X41404000Y-20209400D01*
X42734000Y-22809400D02*
X42734000Y-25409400D01*
X40074000Y-22809400D02*
X40074000Y-25409400D01*
X40074000Y-25409400D02*
X42734000Y-25409400D01*
D17*
%TO.C,Y1*%
X34704000Y-22104400D02*
X34704000Y-14654400D01*
X31804000Y-22104400D02*
X31804000Y-14654400D01*
D12*
%TO.C,R2*%
X37524000Y-25529400D02*
X37524000Y-24329400D01*
X39284000Y-24329400D02*
X39284000Y-25529400D01*
%TO.C,C5*%
X29186000Y-31941400D02*
X28186000Y-31941400D01*
X28186000Y-33641400D02*
X29186000Y-33641400D01*
%TD*%
M02*
