%TF.GenerationSoftware,KiCad,Pcbnew,(6.0.7)*%
%TF.CreationDate,2023-01-30T20:46:25-05:00*%
%TF.ProjectId,SPItoCAN,53504974-6f43-4414-9e2e-6b696361645f,rev?*%
%TF.SameCoordinates,Original*%
%TF.FileFunction,Paste,Top*%
%TF.FilePolarity,Positive*%
%FSLAX46Y46*%
G04 Gerber Fmt 4.6, Leading zero omitted, Abs format (unit mm)*
G04 Created by KiCad (PCBNEW (6.0.7)) date 2023-01-30 20:46:25*
%MOMM*%
%LPD*%
G01*
G04 APERTURE LIST*
G04 Aperture macros list*
%AMRoundRect*
0 Rectangle with rounded corners*
0 $1 Rounding radius*
0 $2 $3 $4 $5 $6 $7 $8 $9 X,Y pos of 4 corners*
0 Add a 4 corners polygon primitive as box body*
4,1,4,$2,$3,$4,$5,$6,$7,$8,$9,$2,$3,0*
0 Add four circle primitives for the rounded corners*
1,1,$1+$1,$2,$3*
1,1,$1+$1,$4,$5*
1,1,$1+$1,$6,$7*
1,1,$1+$1,$8,$9*
0 Add four rect primitives between the rounded corners*
20,1,$1+$1,$2,$3,$4,$5,0*
20,1,$1+$1,$4,$5,$6,$7,0*
20,1,$1+$1,$6,$7,$8,$9,0*
20,1,$1+$1,$8,$9,$2,$3,0*%
G04 Aperture macros list end*
%ADD10R,1.000000X1.250000*%
%ADD11R,0.700000X1.300000*%
%ADD12R,1.200000X1.200000*%
%ADD13R,1.250000X1.000000*%
%ADD14R,0.650000X1.528000*%
%ADD15RoundRect,0.218750X0.256250X-0.218750X0.256250X0.218750X-0.256250X0.218750X-0.256250X-0.218750X0*%
%ADD16RoundRect,0.150000X0.875000X0.150000X-0.875000X0.150000X-0.875000X-0.150000X0.875000X-0.150000X0*%
%ADD17RoundRect,0.218750X-0.256250X0.218750X-0.256250X-0.218750X0.256250X-0.218750X0.256250X0.218750X0*%
%ADD18R,2.400000X1.900000*%
%ADD19R,1.300000X0.700000*%
G04 APERTURE END LIST*
D10*
%TO.C,C4*%
X23114000Y-32791400D03*
X21114000Y-32791400D03*
%TD*%
D11*
%TO.C,R1*%
X21394000Y-30269400D03*
X23294000Y-30269400D03*
%TD*%
D12*
%TO.C,D1*%
X30314000Y-30309400D03*
X28214000Y-30309400D03*
%TD*%
D13*
%TO.C,C3*%
X17864000Y-30279400D03*
X17864000Y-32279400D03*
%TD*%
D11*
%TO.C,R3*%
X24664000Y-30279400D03*
X26564000Y-30279400D03*
%TD*%
D14*
%TO.C,U1*%
X36159000Y-27493400D03*
X34889000Y-27493400D03*
X33619000Y-27493400D03*
X32349000Y-27493400D03*
X32349000Y-32915400D03*
X33619000Y-32915400D03*
X34889000Y-32915400D03*
X36159000Y-32915400D03*
%TD*%
D15*
%TO.C,C2*%
X35654000Y-17404400D03*
X35654000Y-15829400D03*
%TD*%
D16*
%TO.C,U2*%
X29604000Y-26659400D03*
X29604000Y-25389400D03*
X29604000Y-24119400D03*
X29604000Y-22849400D03*
X29604000Y-21579400D03*
X29604000Y-20309400D03*
X29604000Y-19039400D03*
X29604000Y-17769400D03*
X29604000Y-16499400D03*
X20304000Y-16499400D03*
X20304000Y-17769400D03*
X20304000Y-19039400D03*
X20304000Y-20309400D03*
X20304000Y-21579400D03*
X20304000Y-22849400D03*
X20304000Y-24119400D03*
X20304000Y-25389400D03*
X20304000Y-26659400D03*
%TD*%
D17*
%TO.C,C1*%
X35654000Y-19204400D03*
X35654000Y-20779400D03*
%TD*%
D18*
%TO.C,Y1*%
X33254000Y-15854400D03*
X33254000Y-20904400D03*
%TD*%
D19*
%TO.C,R2*%
X38404000Y-25879400D03*
X38404000Y-23979400D03*
%TD*%
D10*
%TO.C,C5*%
X27686000Y-32791400D03*
X29686000Y-32791400D03*
%TD*%
M02*
